<?xml version="1.0" encoding="UTF-8"?>
<!-- Generator: visioncortex VTracer 0.6.12 -->
<svg version="1.1" xmlns="http://www.w3.org/2000/svg" viewBox="0 0 320 320" width="320" height="320">
<path d="M0 0 C1.5 0.6 3.1 1.2 4.6 1.8 C10.6 4.3 14.2 7.3 17.8 12.7 C20 20.3 17.9 25.6 14.9 32.5 C13.1 37.8 13.8 42.4 15.3 47.7 C16.9 54.6 16.6 61.8 13 68.1 C11.2 70.6 9.1 72.7 6.8 74.7 C6.5 75.1 6.1 75.4 5.8 75.7 C5.8 79.5 5.9 83.2 6 86.9 C5.8 90.7 5.8 90.7 4.1 93.9 C3.6 94.8 3.2 95.8 2.8 96.7 C4 99.5 4 99.5 6.1 102.1 C9.7 107.2 10.6 109.6 9.8 115.7 C9.7 116.5 9.6 117.2 9.5 118 C9.3 119.9 9.1 121.8 8.8 123.7 C10.9 124 13.1 124.2 15.2 124.4 C16.9 124.6 18.5 124.9 20.1 125.2 C25 126 27.8 125.8 32.1 123 C33.2 122.1 34.4 121.3 35.5 120.4 C40 116.9 43 115.7 48.8 115.7 C52.2 116.7 52.2 116.7 54.8 118.7 C56.6 122.2 57.1 124.4 56.1 128.3 C54.5 132.6 52.6 136.1 49.8 139.7 C53.8 140.9 57.7 142 61.8 142.7 C62.7 145.7 62.9 147.3 61.9 150.3 C58.8 153.8 55.1 155.1 50.8 156.7 C52 157.1 53.2 157.4 54.4 157.8 C61.2 160.4 64.5 165.7 67.7 172.1 C70.5 178.7 72.4 185.8 74.5 192.6 C75.1 194.7 75.8 196.8 76.4 198.8 C76.6 199.5 76.6 199.5 77.6 202.6 C78.7 205.5 79.8 207.3 81.8 209.7 C82.6 212.4 82.6 212.4 82.8 214.7 C82.1 215.4 81.5 216.1 80.8 216.7 C81.4 217 81.9 217.2 82.5 217.5 C84.8 218.7 84.8 218.7 86.6 220.7 C89.1 223 91 223.7 94.3 224.7 C98.8 226.2 101.6 227.3 103.8 231.7 C104.3 234.4 104.6 237 104.8 239.7 C104.9 240.1 104.9 240.1 105.5 241.9 C106 244.7 105.1 246.2 103.8 248.7 C94.3 256.7 84.5 256.6 72.8 255.7 C72.6 256.3 72.4 256.9 72.3 257.5 C70.2 264.1 68.2 268.6 62 272 C56.6 274.5 51.6 275.3 45.8 273.7 C45.6 274.4 45.5 275.1 45.3 275.9 C42.5 281.2 37.7 284 32.2 286.1 C24.1 287.6 18.6 286.4 11.8 281.7 C6.2 275.9 5.5 270.4 5.5 262.7 C5.8 259 6.7 256.8 8.8 253.7 C0.8 255.3 -4.3 260.1 -10.2 265.4 C-12.9 267.5 -14.8 268.5 -18 269.6 C-22.8 271.4 -26.1 273.9 -30 277.1 C-39.7 284.4 -51.5 284.9 -63.2 283.7 C-74.6 280.9 -83.3 274 -89.7 264.4 C-96.2 253 -97.9 241 -95.6 228.2 C-93.5 220.6 -90 214.9 -85.2 208.7 C-83.1 205.5 -82.8 203.7 -82.3 199.9 C-80.8 191 -80.8 191 -78.2 187.7 C-71.2 183.6 -62.1 184 -54.2 183.7 C-54.7 183 -55.2 182.2 -55.7 181.5 C-57.7 177.9 -58 174.7 -57.2 170.7 C-55.8 167.9 -54.1 165.3 -52.2 162.7 C-53.2 162.4 -54.2 162.1 -55.2 161.7 C-58.9 155.7 -60.8 148.4 -63 141.7 C-63.3 140.7 -63.6 139.8 -63.9 138.8 C-65.7 133.2 -66.7 128.6 -66.2 122.7 C-64.8 120.7 -64.8 120.7 -63.2 119.7 C-62.6 119.7 -61.9 119.7 -61.2 119.7 C-61.5 119.4 -61.5 119.4 -63.2 117.7 C-63.8 118.1 -64.3 118.4 -64.9 118.7 C-70.3 121.1 -77.1 120.4 -82.7 118.6 C-86.9 115.5 -89.8 112.6 -91 107.4 C-91.1 106.5 -91.2 105.6 -91.2 104.7 C-89.2 104.7 -87.3 104.7 -85.2 104.7 C-84.9 104.1 -84.6 103.4 -84.2 102.7 C-84.5 102.8 -84.5 102.8 -86 102.8 C-91.2 103 -94.8 102.8 -99.2 99.7 C-103.6 94.9 -104.3 92.3 -104.2 85.7 C-101.9 86.1 -99.6 86.4 -97.2 86.7 C-97.7 86.2 -98.1 85.7 -98.5 85.2 C-102.5 79.9 -104.1 75.9 -103.7 69.3 C-102.7 63.9 -99.4 60.3 -95.2 57 C-91.7 54.8 -87.9 53.5 -84.1 52 C-80.3 50.3 -77.2 48.4 -75 44.7 C-74.8 44 -74.5 43.2 -74.2 42.5 C-73.9 41.6 -73.6 40.8 -73.2 39.9 C-72.5 37.5 -71.8 35.2 -71.1 32.8 C-68.7 24.9 -66.4 18.3 -61.2 11.7 C-60.6 10.9 -60.1 10 -59.5 9.1 C-42.9 -8.4 -20.8 -8.7 0 0 Z M38.8 133.7 C38.5 133.9 38.5 133.9 36.8 134.7 C34.1 135.1 31.4 135.5 28.7 135.8 C28.3 135.8 28.3 135.8 26.4 136.1 C24.5 136.3 22.6 136.5 20.8 136.7 C22.8 138.7 22.8 138.7 25.8 140.1 C28.8 141.7 28.8 141.7 30.2 144.4 C30.4 145.2 30.6 146 30.8 146.7 C37.3 146.2 37.3 146.2 39.5 143.8 C39.9 143.1 40.3 142.4 40.8 141.7 C43 140.5 43 140.5 44.8 139.7 C43.8 137.2 43.1 135.9 40.8 134.4 C40.1 134.2 39.5 134 38.8 133.7 Z M31.8 196.7 C30.3 199.4 29.8 200.6 29.8 203.7 C31.1 204.4 31.1 204.4 37.8 207.7 C37.1 204.1 36.5 200.5 35.8 196.7 C34.5 196.7 33.1 196.7 31.8 196.7 Z " fill="#2E2634" transform="translate(159.21875,19.259765625)"/>
<path d="M0 0 C0.7 0 1.3 0 2 0 C6 11.2 9.9 22.4 14 34 C14.7 30 15.3 26.1 16 22 C16.3 22 16.7 22 17 22 C17.3 23.1 17.6 24.3 17.9 25.4 C19 29 19 29 20 30 C22.8 30.2 25.6 30.3 28.4 30.3 C29.3 30.3 30.2 30.4 31.1 30.4 C33.9 30.4 36.7 30.5 39.6 30.6 C41.5 30.6 43.4 30.6 45.3 30.7 C58.9 31 72.4 31.1 86 31 C86.2 30.5 86.2 30.5 87 28 C88 27.7 89 27.3 90 27 C89.7 29 89.3 31 89 33 C85.7 33.7 82.4 34.3 79 35 C79.2 35.7 79.2 35.7 80 39 C80.5 39 80.5 39 83.2 39.2 C84.6 39.3 85.9 39.4 87.3 39.4 C88 39.5 88.7 39.5 89.4 39.6 C92.5 39.7 95.1 40 98 41 C93 43.5 85.6 42.4 80.4 41.1 C78 40 78 40 76 38 C76 37 76 36 76 35 C68.7 35 61.5 35 54 35 C54 35.7 54 36.3 54 37 C49.7 38.1 46.4 39 42 39 C39 49.4 39 49.4 39 52 C39.6 52.1 40.2 52.1 40.9 52.2 C49.7 53 58.5 53.8 67.4 54.7 C74.4 55.4 81.4 56.1 88.4 56.7 C89.4 56.7 90.4 56.8 91.5 56.9 C94 57 94 57 96 56 C96 57 96 58 96 59 C96.7 59 97.3 59 98 59 C97.7 64.6 97.3 70.2 97 76 C96 76.3 95 76.7 94 77 C92.8 80.1 92.8 80.1 92 83 C92.4 83.1 92.4 83.1 94.2 83.8 C99.8 86.3 102.6 89.3 105 95 C105 95.7 105 96.3 105 97 C106.3 97 107.6 97 109 97 C109.3 98.3 109.7 99.6 110 101 C109 101 108 101 107 101 C107.3 101.8 107.7 102.5 108 103.3 C109 106 109 106 109 109 C110 109 111 109 112 109 C111.3 113.9 110.7 118.9 110 124 C119.5 124.7 129.1 125.1 138.6 125.2 C139.5 125.3 140.5 125.3 141.4 125.3 C149.7 125.4 155 122.7 162.1 118.6 C164 118 164 118 166.2 118.9 C166.8 119.3 167.4 119.6 168 120 C168.1 122.9 168.2 124.4 167 127 C163.9 129.5 160.5 131.2 157 133 C156.4 133.4 155.8 133.7 155.1 134.1 C152.8 135.1 151.2 135.2 148.7 135.2 C148.3 135.2 148.3 135.2 146.2 135.2 C145.4 135.2 144.6 135.1 143.8 135.1 C142.9 135.1 142.1 135.1 141.2 135.1 C139.1 135.1 137.1 135 135 135 C134.8 135.6 134.6 136.3 134.4 136.9 C132.5 143.5 130.4 147.9 124.2 151.2 C118.8 153.7 113.8 154.6 108 153 C107.8 153.7 107.7 154.4 107.5 155.1 C104.7 160.4 99.9 163.3 94.4 165.4 C86.3 166.9 80.8 165.6 74 161 C68.4 155.2 67.7 149.7 67.8 142 C68.1 138.2 68.9 136.1 71 133 C63.1 134.5 57.9 139.3 52.1 144.7 C49.3 146.8 47.4 147.7 44.2 148.9 C39.4 150.6 36.1 153.1 32.2 156.3 C22.5 163.6 10.7 164.2 -1 163 C-12.4 160.2 -21.1 153.3 -27.5 143.6 C-34 132.2 -35.7 120.3 -33.4 107.4 C-31.3 99.9 -27.8 94.1 -23 88 C-20.8 84.8 -20.6 83 -20.1 79.2 C-18.6 70.3 -18.6 70.3 -16 67 C-9 62.9 0.1 63.3 8 63 C7.3 62 6.7 61 6 60 C5.8 57.7 5.8 57.7 5.9 55.3 C5.9 54.5 5.9 53.7 5.9 52.9 C6 52.2 6 51.6 6 51 C9.5 53.3 10.3 55.3 12 59 C14.4 59.1 14.4 59.1 17 59 C19 57 19 57 20.3 53.9 C22.1 49.4 24.8 45.9 27.7 42.1 C28.2 41.4 28.7 40.7 29.2 40 C30.5 38.3 31.7 36.7 33 35 C32.7 35.3 32.3 35.7 32 36 C30.5 35.9 29 35.8 27.4 35.6 C26.6 35.5 25.8 35.4 24.9 35.3 C24.3 35.2 23.7 35.1 23 35 C23 34.3 23 33.7 23 33 C19.4 33.6 17.7 34.9 15.2 37.6 C14.6 38.2 14 38.8 13.4 39.5 C12.9 40 12.5 40.5 12 41 C11.7 40.8 11.7 40.8 10 40 C10.2 38.3 10.2 38.3 11 30 C10.3 30 9.7 30 9 30 C6.8 24.2 4.8 18.4 2.9 12.4 C2 10 2 10 1 9 C0.8 7.5 0.6 6 0.4 4.4 C0.4 3.6 0.3 2.8 0.2 1.9 C0.1 1.3 0.1 0.7 0 0 Z " fill="#342C34" transform="translate(97,140)"/>
<path d="M0 0 C1.5 0.6 3.1 1.2 4.6 1.8 C10.6 4.3 14.2 7.3 17.8 12.7 C20 20.3 17.9 25.6 14.9 32.5 C13.1 37.8 13.8 42.4 15.3 47.7 C16.9 54.6 16.6 61.8 13 68.1 C11.2 70.6 9.1 72.7 6.8 74.7 C5.8 75.7 5.8 75.7 5.8 79 C5.8 81.1 5.8 83.2 5.9 85.3 C5.9 87.1 5.9 88.9 5.8 90.7 C5.1 91.4 4.5 92.1 3.8 92.7 C3.6 90.3 3.6 90.3 2.8 77.7 C2.2 77.7 2.2 77.7 -1 77.5 C-22.4 75.8 -22.4 75.8 -29.2 68.6 C-31.4 66.6 -32.4 66.2 -35.3 65.7 C-37.7 65.2 -39.1 64.8 -41.2 63.5 C-42.7 60.9 -42.4 58.7 -42.2 55.7 C-39.2 54.8 -36.3 53.8 -33.2 52.7 C-33.2 54.1 -33.2 55.4 -33.2 56.7 C-28.8 54.6 -27.1 52.4 -24.9 48.1 C-24.4 47.1 -23.9 46.1 -23.4 45 C-23 44.3 -22.6 43.5 -22.2 42.7 C-23.1 43.3 -23.9 43.9 -24.8 44.6 C-30.4 48.2 -35 49.8 -41.6 50.6 C-47 51.3 -50.9 52.8 -55.5 55.7 C-57.2 56.7 -57.2 56.7 -59.2 56.7 C-59.2 57.4 -59.2 58.1 -59.2 58.7 C-59.9 58.7 -60.5 58.7 -61.2 58.7 C-61.4 59.5 -61.6 60.3 -61.8 61.1 C-62.1 62.1 -62.4 63.1 -62.7 64.2 C-62.9 65.2 -63.2 66.2 -63.5 67.2 C-64.2 69.7 -64.2 69.7 -65.2 70.7 C-59.6 72.7 -59.6 72.7 -56.2 72.7 C-57.3 76.1 -58.7 77.4 -61.2 79.7 C-58.2 78.8 -55.3 77.8 -52.2 76.7 C-52.4 77.2 -52.4 77.2 -53.2 79.7 C-56.1 81.1 -59 82.3 -62 83.4 C-65.8 84.9 -68.3 86.1 -70.2 89.7 C-70.6 95.1 -70 100.2 -69.1 105.5 C-69.2 107.7 -69.2 107.7 -70.6 109.5 C-74.5 112.5 -77.3 113 -82.2 112.7 C-80.5 116.6 -80.5 116.6 -78.2 117.7 C-76.3 118 -74.5 118.1 -72.6 118.3 C-72.1 118.3 -72.1 118.3 -69.6 118.6 C-68.8 118.6 -68 118.7 -67.2 118.7 C-67.2 119.1 -67.2 119.4 -67.2 119.7 C-80.3 120.3 -80.3 120.3 -85.2 116.7 C-89.1 112.9 -90.8 110.2 -91.2 104.7 C-89.2 104.7 -87.3 104.7 -85.2 104.7 C-84.9 104.1 -84.6 103.4 -84.2 102.7 C-84.5 102.8 -84.5 102.8 -86 102.8 C-91.2 103 -94.8 102.8 -99.2 99.7 C-103.6 94.9 -104.3 92.3 -104.2 85.7 C-101.9 86.1 -99.6 86.4 -97.2 86.7 C-97.7 86.2 -98.1 85.7 -98.5 85.2 C-102.5 79.9 -104.1 75.9 -103.7 69.3 C-102.7 63.9 -99.4 60.3 -95.2 57 C-91.7 54.8 -87.9 53.5 -84.1 52 C-80.3 50.3 -77.2 48.4 -75 44.7 C-74.8 44 -74.5 43.2 -74.2 42.5 C-73.9 41.6 -73.6 40.8 -73.2 39.9 C-72.5 37.5 -71.8 35.2 -71.1 32.8 C-68.7 24.9 -66.4 18.3 -61.2 11.7 C-60.6 10.9 -60.1 10 -59.5 9.1 C-42.9 -8.4 -20.8 -8.7 0 0 Z " fill="#6C2D0F" transform="translate(159.21875,19.259765625)"/>
<path d="M0 0 C6.4 4.8 11 9.6 14.7 16.6 C15.1 17.4 15.5 18.1 15.9 18.8 C18.8 25.2 19.1 31.4 19.1 38.2 C19.1 39.1 19.1 40 19.2 40.9 C19.1 47 17.9 52 15.7 57.6 C17.5 57.3 19.2 57 21 56.8 C21.5 56.7 21.5 56.7 24 56.3 C26.7 55.6 26.7 55.6 29.7 53.6 C29 53 28.4 52.3 27.7 51.6 C31.3 51.3 34.9 51 38.7 50.6 C36.7 52.6 36.7 52.6 34.3 53.5 C31.5 54.7 29.6 56 27.2 57.9 C26.5 58.6 25.7 59.2 24.9 59.8 C23.1 61.3 21.4 62.8 19.8 64.3 C17 66.4 15.1 67.3 11.9 68.5 C7.1 70.3 3.8 72.7 -0.1 75.9 C-9.8 83.2 -21.6 83.8 -33.3 82.6 C-44.7 79.8 -53.4 72.9 -59.8 63.3 C-66.3 51.9 -68 39.9 -65.7 27 C-63.6 19.5 -60.1 13.8 -55.3 7.6 C-54.7 6.6 -54 5.6 -53.3 4.6 C-51.7 3.6 -50 2.6 -48.3 1.6 C-47 0.8 -45.7 -0 -44.4 -0.9 C-30.5 -9.6 -13.7 -9.3 0 0 Z " fill="#3B353F" transform="translate(129.3125,220.375)"/>
<path d="M0 0 C0 1 0 2 0 3 C-0.7 3 -1.3 3 -2 3 C-2.3 4.7 -2.7 6.3 -3 8 C-1.8 8.4 -0.6 8.7 0.6 9.1 C7.5 11.6 10.8 17 13.9 23.4 C16.7 30 18.6 37 20.7 43.9 C21.4 46 22 48 22.7 50.1 C22.8 50.7 22.8 50.7 23.8 53.8 C24.9 56.7 26.1 58.6 28 61 C28.8 63.6 28.8 63.6 29 66 C28.3 66.7 27.7 67.3 27 68 C27.3 68.1 27.3 68.1 28.8 68.8 C31 70 31 70 32.8 72 C35.3 74.3 37.2 75 40.5 75.9 C45 77.5 47.7 78.6 50 83 C50.9 85.6 50.9 85.6 51 88 C49 90.4 47 91.7 44.2 93 C43.6 93.3 43 93.6 42.3 93.9 C41.6 94.3 40.8 94.6 40 95 C39.5 95.3 39.5 95.3 36.9 96.6 C32.2 98.6 27.5 98.4 22.5 98.2 C21.5 98.2 20.6 98.2 19.6 98.2 C-2.3 97.9 -2.3 97.9 -6 96 C-5.9 93.9 -5.7 91.7 -5.6 89.6 C-5.5 88.4 -5.4 87.3 -5.3 86 C-5 83 -5 83 -4 81 C-5 81 -6 81 -7 81 C-8.8 77.9 -9 76.8 -9 73 C-8.3 72.7 -7.7 72.3 -7 72 C-7 71 -7 70 -7 69 C-8.3 69 -9.6 69 -11 69 C-17.2 56.3 -19.7 47.2 -19 33 C-18.8 32.7 -18.8 32.7 -18 31 C-23.5 30.2 -28.9 29.6 -34.4 29.1 C-36.3 28.9 -38.1 28.7 -39.9 28.5 C-42.7 28.3 -45.6 28 -48.4 27.7 C-51.2 27.5 -53.9 27.2 -56.7 26.9 C-57.5 26.9 -58.4 26.8 -59.2 26.7 C-63.5 26.3 -67.8 25.8 -72 25 C-72 24.3 -72 23.7 -72 23 C-72.7 23 -73.3 23 -74 23 C-74 20.7 -74 18.4 -74 16 C-68.7 13 -64.1 11.2 -58 11 C-56.8 10.9 -55.5 10.9 -54.3 10.8 C-43.5 10.6 -43.5 10.6 -41.4 12.5 C-41 13 -40.5 13.5 -40 14 C-31.7 16 -22.4 15.6 -14 14 C-14 13.4 -13.9 12.8 -13.9 12.1 C-13.7 11.8 -13.7 11.8 -13 10 C-9.9 8.8 -9.9 8.8 -7 8 C-7.5 7.4 -8 6.8 -8.6 6.2 C-9 5.5 -9.5 4.7 -10 4 C-9.7 3 -9.3 2 -9 1 C-5.8 -0.1 -3.3 -0.1 0 0 Z " fill="#4674CB" transform="translate(213,168)"/>
<path d="M0 0 C0.7 0 1.3 0 2 0 C6 11.2 9.9 22.4 14 34 C14.7 30 15.3 26.1 16 22 C16.3 22 16.7 22 17 22 C17.3 23.1 17.6 24.3 17.9 25.4 C19 29 19 29 20 30 C22.8 30.2 25.6 30.3 28.4 30.3 C29.3 30.3 30.2 30.4 31.1 30.4 C33.9 30.4 36.7 30.5 39.6 30.6 C41.5 30.6 43.4 30.6 45.3 30.7 C58.9 31 72.4 31.1 86 31 C86.2 30.5 86.2 30.5 87 28 C88 27.7 89 27.3 90 27 C89.7 29 89.3 31 89 33 C85.7 33.7 82.4 34.3 79 35 C79.2 35.7 79.2 35.7 80 39 C80.5 39 80.5 39 83.2 39.2 C84.6 39.3 85.9 39.4 87.3 39.4 C88 39.5 88.7 39.5 89.4 39.6 C92.5 39.7 95.1 40 98 41 C93 43.5 85.6 42.4 80.4 41.1 C78 40 78 40 76 38 C76 37 76 36 76 35 C68.7 35 61.5 35 54 35 C54 35.7 54 36.3 54 37 C49.7 38.1 46.4 39 42 39 C39 49.4 39 49.4 39 52 C39.6 52.1 40.2 52.1 40.9 52.2 C49.7 53 58.5 53.8 67.4 54.7 C74.4 55.4 81.4 56.1 88.4 56.7 C89.4 56.7 90.4 56.8 91.5 56.9 C94 57 94 57 96 56 C96 57 96 58 96 59 C96.7 59 97.3 59 98 59 C97.7 64.6 97.3 70.2 97 76 C96.5 76.2 96.5 76.2 94 77 C92.8 80.1 92.8 80.1 92 83 C92.4 83.1 92.4 83.1 94.2 83.8 C98.6 85.7 101.3 87.9 103.9 92 C105 95 105.2 96.1 104 99 C102.3 98.3 100.7 97.7 99 97 C99 96 99 95 99 94 C98 94 97 94 96 94 C93.3 91.8 91.7 89 90 86 C88 87 88 87 86 91 C85.3 87.7 84.7 84.4 84 81 C85.7 81 87.3 81 89 81 C89.2 80.3 89.2 80.3 90 77 C81.4 75.1 73.1 74.6 64.4 74.4 C56.5 74.2 48.8 74 41 73 C41.6 73.4 42.1 73.8 42.7 74.2 C46.3 76.8 49 78.9 51.4 82.8 C53.7 85.7 55 86 58.8 86.7 C61.1 86.9 63.4 87.1 65.8 87.3 C77.2 88.2 90.4 91.1 98.6 99.6 C103.1 105.5 102.5 111.9 102 119 C98 119 94.1 119 90 119 C89.3 116.7 88.7 114.4 88 112.1 C87 110 87 110 85.3 109.4 C82.8 109 80.3 108.7 77.8 108.5 C76.8 108.4 75.8 108.3 74.8 108.2 C73.8 108.1 72.8 108 71.8 107.9 C70.7 107.8 69.7 107.8 68.6 107.7 C66.1 107.4 63.5 107.2 61 107 C61 107.7 61 108.3 61 109 C59 109.3 57 109.7 55 110 C53 107 53 107 52.2 103.9 C48.7 91.4 41 82 29.8 75.4 C22.2 71.6 15 70.7 6.6 70.6 C5.9 70.6 5.1 70.6 4.3 70.6 C-0.4 70.6 -3.1 71.2 -7 74 C-7.7 74 -8.3 74 -9 74 C-9 74.7 -9 75.3 -9 76 C-10.7 77 -12.3 78 -14 79 C-16.1 80.6 -18 82.3 -20 84 C-20.4 78.2 -19.6 73.2 -17 68 C-11.9 63.7 -5.6 63.8 0.8 63.4 C1.5 63.4 2.2 63.4 2.9 63.3 C4.6 63.2 6.3 63.1 8 63 C7.3 62 6.7 61 6 60 C5.8 57.7 5.8 57.7 5.9 55.3 C5.9 54.5 5.9 53.7 5.9 52.9 C6 52.2 6 51.6 6 51 C9.5 53.3 10.3 55.3 12 59 C14.4 59.1 14.4 59.1 17 59 C19 57 19 57 20.3 53.9 C22.1 49.4 24.8 45.9 27.7 42.1 C28.2 41.4 28.7 40.7 29.2 40 C30.5 38.3 31.7 36.7 33 35 C32.7 35.3 32.3 35.7 32 36 C30.5 35.9 29 35.8 27.4 35.6 C26.6 35.5 25.8 35.4 24.9 35.3 C24.3 35.2 23.7 35.1 23 35 C23 34.3 23 33.7 23 33 C19.4 33.6 17.7 34.9 15.2 37.6 C14.6 38.2 14 38.8 13.4 39.5 C12.9 40 12.5 40.5 12 41 C11.3 40.7 10.7 40.3 10 40 C10.3 36.7 10.7 33.4 11 30 C10.3 30 9.7 30 9 30 C6.8 24.2 4.8 18.4 2.9 12.4 C2 10 2 10 1 9 C0.8 7.5 0.6 6 0.4 4.4 C0.4 4 0.4 4 0.2 1.9 C0.1 1.3 0.1 0.7 0 0 Z " fill="#30282F" transform="translate(97,140)"/>
<path d="M0 0 C4.8 0.7 9.3 1.8 14 3 C14 5.3 14 7.6 14 10 C14.6 10.1 15.2 10.2 15.8 10.3 C22.1 12.3 26.3 20.7 29.9 26 C30.3 26.6 30.7 27.1 31.2 27.7 C35.6 34.6 34.1 41.3 33 49 C35.1 49.2 37.3 49.5 39.4 49.7 C41.1 49.9 42.7 50.1 44.4 50.4 C49.2 51.2 52 51.1 56.3 48.3 C57.5 47.4 58.6 46.5 59.7 45.7 C64.2 42.2 67.2 41 73 41 C76.4 42 76.4 42 79 44 C80.6 47.6 81.5 49.7 80.1 53.4 C79.9 53.7 79.9 53.7 79 55 C78.4 54.9 77.9 54.7 77.3 54.6 C74.9 54 72.5 53.5 70 53 C69.3 53.9 68.5 54.9 67.8 55.9 C65.1 59.3 62.6 60.7 58.4 61.5 C45.5 63 32.7 64.3 19.8 64.6 C18.8 64.6 17.8 64.6 16.8 64.7 C10.9 64.7 7.2 63.7 2.7 59.8 C0.1 57.1 -1.8 54.2 -3.6 50.9 C-3.9 50.3 -4.3 49.7 -4.6 49.1 C-6.3 46.2 -7 44.4 -6.7 41.1 C-6.5 40.4 -6.2 39.7 -6 39 C-7.5 40.2 -7.5 40.2 -9 42 C-9.2 44.7 -9.2 44.7 -9 47 C-9.7 46.7 -10.3 46.3 -11 46 C-11.8 43.6 -11.8 43.6 -12.5 40.5 C-12.8 39.4 -13 38.3 -13.3 37.2 C-13.5 36.1 -13.8 35.1 -14 34 C-14.2 33.2 -14.4 32.3 -14.6 31.4 C-16.1 25.5 -17.3 20.4 -14.3 14.8 C-11.4 11.2 -8.4 8.8 -4.3 6.6 C-1.5 4.7 -0.9 3.2 0 0 Z " fill="#F4A96F" transform="translate(135,94)"/>
<path d="M0 0 C5.9 3.7 10.1 9.8 11.8 16.6 C13.2 26.5 11.6 34.9 5.6 43.2 C-0 49.3 -6.5 52.2 -14.8 52.6 C-23 52.3 -29.1 49.2 -34.8 43.2 C-41.4 34.8 -41.8 26.6 -40.8 16 C-39 8.6 -33 2.7 -26.7 -1.4 C-17.5 -6 -8.8 -4.6 0 0 Z " fill="#25B6F7" transform="translate(117.83984375,233.9609375)"/>
<path d="M0 0 C1 1 2 2 3 3 C1.7 3 0.4 3 -1 3 C-1 4 -1 5 -1 6 C0.3 6 1.6 6 3 6 C5.2 7.8 5.2 7.8 7 10 C7 11 7 12 7 13 C7.7 13 8.3 13 9 13 C14.2 24.5 14.2 24.5 14.6 29.2 C15 32.9 15.9 35.6 17.2 39 C19.3 44.3 20.1 49.3 20 55 C17.8 56.3 15.5 57.6 13.3 58.9 C12.7 59.2 12.1 59.6 11.4 60 C8 61.9 4.7 63.7 1 65 C0.8 64.3 0.8 64.3 0 61 C-1.3 61 -2.6 61 -4 61 C-10.2 48.3 -12.7 39.2 -12 25 C-11.7 24.3 -11.3 23.7 -11 23 C-16.5 22.2 -21.9 21.6 -27.4 21.1 C-29.3 20.9 -31.1 20.7 -32.9 20.5 C-35.7 20.3 -38.6 20 -41.4 19.7 C-44.2 19.5 -46.9 19.2 -49.7 18.9 C-50.5 18.9 -51.4 18.8 -52.2 18.7 C-56.5 18.3 -60.8 17.8 -65 17 C-65 16.3 -65 15.7 -65 15 C-65.7 15 -66.3 15 -67 15 C-67 12.7 -67 10.4 -67 8 C-61.7 5 -57.1 3.2 -51 3 C-49.8 2.9 -48.5 2.9 -47.3 2.8 C-36.5 2.6 -36.5 2.6 -34.4 4.5 C-34 5 -33.5 5.5 -33 6 C-24.7 8 -15.4 7.6 -7 6 C-7 5.4 -6.9 4.8 -6.9 4.1 C-6.7 3.8 -6.7 3.8 -6 2 C-2.9 0.8 -2.9 0.8 0 0 Z " fill="#265EB7" transform="translate(206,176)"/>
<path d="M0 0 C0.4 0 0.4 0 2.4 0 C16.1 0.5 27.3 5.5 36.8 15.6 C39.4 18.9 41.3 22.6 43.2 26.4 C43.8 27.4 44.4 28.5 44.9 29.5 C46.5 33.1 47.4 36.6 48.2 40.4 C50.2 40.1 52.2 39.8 54.2 39.4 C54.2 38.8 54.2 38.1 54.2 37.4 C57.8 37.5 61.4 37.7 65 37.8 C65.5 37.8 65.5 37.8 68.1 37.9 C69.1 37.9 70 38 71 38 C71.9 38.1 72.8 38.1 73.8 38.1 C76.4 38.5 78 39 80.2 40.4 C83.2 46.4 83.2 46.4 83.2 49.4 C87.2 49.4 91.2 49.4 95.2 49.4 C95 35.5 95 35.5 91.1 30.1 C83.6 23.2 71.9 19.7 61.9 19.2 C49.6 18.5 49.6 18.5 45.3 15.2 C43.1 12.7 41.2 10.1 39.2 7.4 C37.3 5.8 35.5 4.7 33.2 3.4 C37 2.2 39.4 2.8 43.2 3.4 C45.5 3.6 47.7 3.6 50 3.7 C51.2 3.7 52.5 3.7 53.8 3.8 C56.4 3.8 59 3.9 61.6 4 C69.4 4.2 75.9 5 83.2 7.4 C83 9.3 83 9.3 82.2 11.4 C80.2 12.7 80.2 12.7 78.2 13.4 C78.4 14.3 78.4 14.3 79.2 18.4 C80.9 17.4 82.6 16.5 84.2 15.4 C86.2 18.4 86.2 18.4 86.2 21.4 C86.7 21.6 86.7 21.6 89.2 22.4 C89.2 23.1 89.2 23.8 89.2 24.4 C90.2 24.4 91.2 24.4 92.2 24.4 C92.4 24.9 92.4 24.9 93.2 27.4 C96.4 28.8 98.9 28.3 102.2 27.4 C102.6 28.8 102.9 30.1 103.2 31.4 C102.3 31.4 101.3 31.4 100.2 31.4 C100.4 31.8 100.4 31.8 101.2 33.8 C102.2 36.4 102.2 36.4 102.2 39.4 C103.2 39.4 104.2 39.4 105.2 39.4 C104.9 44.7 104.6 50 104.2 55.4 C102.6 55.1 100.9 54.8 99.2 54.4 C98.9 56.1 98.6 57.7 98.2 59.4 C97.8 59.3 97.8 59.3 95.2 58.4 C95.2 57.8 95.2 57.1 95.2 56.4 C95.9 56.4 96.6 56.4 97.2 56.4 C96.9 54.8 96.6 53.1 96.2 51.4 C91.6 51.4 87 51.4 82.2 51.4 C81.9 52.4 81.9 52.4 80.2 57.4 C78.2 58.6 78.2 58.6 75.9 59.2 C71.4 60.4 71.4 60.4 69.2 61.5 C66.9 62.6 65.4 62.5 62.9 62.2 C59.3 62.1 57.6 62.5 54.9 64.9 C54 65.7 53.1 66.6 52.2 67.4 C49.5 68.4 47.9 68.5 45.1 68.5 C43.8 68.5 42.5 68.5 41.2 68.4 C41.6 67.2 41.9 65.9 42.2 64.6 C45.7 48.8 43.9 34.1 35.2 20.4 C26.6 10.5 16.5 6 3.8 4.6 C-5.8 4 -13.8 7.1 -21.8 12.4 C-22.8 13.4 -23.8 14.4 -24.8 15.4 C-25.4 15.1 -26.1 14.8 -26.8 14.4 C-25.5 13.1 -24.2 11.8 -22.9 10.4 C-22.2 9.7 -21.5 9 -20.8 8.2 C-18.8 6.4 -18.8 6.4 -15.8 6.4 C-15.8 5.8 -15.8 5.1 -15.8 4.4 C-10.3 0.8 -6.5 -0.2 0 0 Z " fill="#2A2229" transform="translate(103.75,209.5625)"/>
<path d="M0 0 C4.2 0.1 7 0.3 10.2 3.2 C11.6 5.8 11.6 5.8 12.2 8.2 C11.9 9.2 11.6 10.2 11.2 11.2 C10.3 10.9 9.3 10.6 8.2 10.2 C8.2 11.2 8.2 12.2 8.2 13.2 C9.1 13.4 9.1 13.4 13.2 14.2 C12.9 15.6 12.6 16.9 12.2 18.2 C11.6 18.2 10.9 18.2 10.2 18.2 C9.1 20.6 9.1 22 9.1 24.6 C9.1 25.4 9.1 26.2 9.1 27 C9.2 29.2 9.6 31.1 10.2 33.2 C10.9 33.2 11.6 33.2 12.2 33.2 C12.6 30.3 12.9 27.3 13.2 24.2 C13.6 24.2 13.9 24.2 14.2 24.2 C16.6 33.6 18.6 43.8 13.5 52.6 C11.6 55.1 9.6 57.2 7.2 59.2 C6.2 60.2 6.2 60.2 6.2 63.6 C6.3 65.6 6.3 67.7 6.4 69.8 C6.4 71.6 6.3 73.4 6.2 75.2 C5.6 75.9 4.9 76.6 4.2 77.2 C4.1 74.8 4.1 74.8 3.2 62.2 C2 62.2 0.8 62.1 -0.5 62 C-21.9 60.3 -21.9 60.3 -28.8 53.2 C-30.9 51.1 -32 50.7 -34.8 50.2 C-37.2 49.7 -38.7 49.3 -40.8 48 C-42.2 45.4 -41.9 43.2 -41.8 40.2 C-38.8 39.3 -35.8 38.3 -32.8 37.2 C-32.8 38.6 -32.8 39.9 -32.8 41.2 C-28.8 39.2 -26.9 37.4 -24.8 33.6 C-20.1 25.4 -16 18.6 -6.8 15.2 C-4 15.1 -4 15.1 -1.8 15.2 C-1.8 14.3 -1.8 13.3 -1.8 12.2 C-9.4 14 -9.4 14 -12.8 16.2 C-8 0.1 -8 0.1 0 0 Z " fill="#F3A770" transform="translate(158.75,34.75)"/>
<path d="M0 0 C2.4 0.9 2.4 0.9 5.4 2.9 C4.9 7.2 4.2 9.7 1.4 12.9 C5.4 14.1 9.3 15.2 13.4 15.9 C14.3 19 14.5 20.5 13.3 23.6 C11 26.5 8.8 27.6 5.4 28.9 C4.4 28.9 3.4 28.9 2.4 28.9 C2.7 27.6 3 26.3 3.4 24.9 C4 24.9 4.7 24.9 5.4 24.9 C5.4 23.9 5.4 23 5.4 21.9 C2.4 22.6 -0.6 23.3 -3.6 23.9 C-3.6 25.9 -3.6 25.9 -1.6 28.1 C-1.3 28.4 -1.3 28.4 0.4 29.9 C-0.2 30.1 -0.8 30.3 -1.3 30.5 C-2.1 30.7 -2.8 31 -3.6 31.2 C-3.9 31.4 -3.9 31.4 -5.8 32 C-7.6 32.9 -7.6 32.9 -8.6 35.9 C-15.9 39.1 -25.2 39.1 -32.8 37.1 C-35.6 35.9 -35.6 35.9 -37.6 33.9 C-46.9 33.1 -59.6 32.6 -67.6 37.9 C-68.4 41.6 -68.4 41.6 -68.6 44.9 C-68 45.3 -67.3 45.6 -66.6 45.9 C-68.3 45.9 -69.9 45.9 -71.6 45.9 C-72.9 42.5 -72.7 40.1 -71.4 36.8 C-69.8 33.7 -69 33.1 -65.7 32 C-62.7 31.5 -59.7 31.1 -56.6 30.9 C-56.6 30.3 -56.6 29.6 -56.6 28.9 C-53 28.8 -49.4 28.7 -45.8 28.6 C-44.8 28.6 -43.8 28.5 -42.7 28.5 C-39.9 28.5 -37.4 28.5 -34.6 28.9 C-32.6 31.4 -32.6 31.4 -31.6 33.9 C-28.3 35.1 -25.1 35 -21.6 34.9 C-22.3 34.9 -22.9 34.8 -23.5 34.8 C-24.3 34.7 -25.2 34.6 -26 34.6 C-26.8 34.5 -27.6 34.4 -28.5 34.4 C-30.6 33.9 -30.6 33.9 -32.6 31.9 C-32.3 30.6 -32 29.3 -31.6 27.9 C-28.3 27.6 -25 27.3 -21.6 26.9 C-21.6 25.3 -21.6 23.6 -21.6 21.9 C-22.3 22.6 -22.9 23.2 -23.6 23.9 C-27.5 26.5 -30.7 26.4 -35.3 26.2 C-36.2 26.2 -37.1 26.2 -38.1 26.2 C-40.2 26.1 -42.4 26.1 -44.6 26 C-48.5 25.9 -52.5 25.9 -56.5 25.9 C-60.3 25.8 -64.1 25.8 -67.9 25.7 C-69.8 25.7 -71.8 25.7 -73.7 25.7 C-76.4 25.6 -79.2 25.6 -81.9 25.5 C-82.3 25.5 -82.3 25.5 -84.4 25.5 C-90.1 25.4 -90.1 25.4 -92.6 23.1 C-93.9 20.4 -94.1 18.8 -93.6 15.9 C-92.6 13.8 -92.6 13.8 -90.6 11.9 C-87.9 11.8 -85.5 11.9 -82.8 12.1 C-81 12.3 -79.3 12.4 -77.5 12.5 C-76.4 12.6 -75.4 12.6 -74.3 12.7 C-67.3 13.1 -60.2 13.4 -53.2 13.6 C-51.4 13.7 -49.7 13.7 -48 13.8 C-45.5 13.9 -43 14 -40.5 14 C-39.8 14.1 -39 14.1 -38.2 14.2 C-33 14.3 -33 14.3 -30.8 12.4 C-30.4 11.9 -30 11.4 -29.6 10.9 C-25.2 10.9 -23.2 11.5 -19.8 14.4 C-17.6 16.9 -17.6 16.9 -16.6 18.9 C-11.1 18.4 -11.1 18.4 -8.9 15.9 C-8.5 15.3 -8.1 14.6 -7.6 13.9 C-6.6 13.6 -5.6 13.3 -4.6 12.9 C-4.8 12.6 -4.8 12.6 -5.6 11.2 C-5.9 10.4 -6.3 9.7 -6.6 8.9 C-6.9 8.3 -7.2 7.7 -7.6 7 C-7.6 4.9 -7.6 4.9 -5.5 2.1 C-2.6 -0.1 -2.6 -0.1 0 0 Z " fill="#393540" transform="translate(207.625,146.0625)"/>
<path d="M0 0 C2.2 1.9 3.6 3.8 5.2 6.2 C8.1 9.8 10.7 10.4 15.3 10.9 C16.9 11 18.4 11.1 20 11.3 C31.4 12.1 44.6 15.1 52.8 23.5 C57.3 29.4 56.7 35.8 56.2 42.9 C52.2 42.9 48.3 42.9 44.2 42.9 C43.5 40.6 42.9 38.3 42.2 36 C41.2 33.9 41.2 33.9 39.5 33.3 C37 32.9 34.5 32.6 32 32.4 C31 32.3 30 32.2 29 32.1 C28 32 27 31.9 25.9 31.8 C24.9 31.8 23.9 31.7 22.8 31.6 C20.3 31.3 17.7 31.1 15.2 30.9 C15.2 31.6 15.2 32.2 15.2 32.9 C13.2 33.2 11.2 33.6 9.2 33.9 C7.2 30.9 7.2 30.9 6.4 27.8 C2.9 15.3 -4.8 5.9 -16 -0.7 C-23.6 -4.5 -30.8 -5.4 -39.2 -5.5 C-39.9 -5.5 -40.7 -5.5 -41.5 -5.5 C-46.2 -5.5 -48.9 -4.9 -52.8 -2.1 C-53.5 -2.1 -54.1 -2.1 -54.8 -2.1 C-54.8 -1.4 -54.8 -0.8 -54.8 -0.1 C-56.5 0.9 -58.1 1.9 -59.8 2.9 C-61.9 4.5 -63.8 6.2 -65.8 7.9 C-66.2 2.1 -65.4 -2.9 -62.8 -8.1 C-47.7 -20.8 -13.5 -9.6 0 0 Z " fill="#E71114" transform="translate(142.80078125,216.09375)"/>
<path d="M0 0 C0 3.4 -0.7 4.6 -2.3 7.5 C-2.7 8.3 -3.2 9 -3.6 9.8 C-4.9 11.9 -6.1 13.5 -8 15 C-9 15 -10 15 -11 15 C-11 13.7 -11 12.4 -11 11 C-13.6 12 -16.3 13 -19 14 C-19.2 16.8 -19.2 16.8 -19 20 C-16.7 22.6 -14.8 23 -11.5 23.9 C-8 25 -8 25 -6.2 26.9 C2 34.8 15.3 34.2 26 35 C26 40.9 26 46.9 26 53 C25.5 53.2 25.5 53.2 23 54 C22.6 53.5 22.2 52.9 21.9 52.4 C17.5 46.3 17.5 46.3 14.1 44.4 C13.4 44 12.7 43.5 12 43 C11.7 39.3 11.7 39.3 12 36 C11.4 35.9 11.4 35.9 8.4 35.6 C4.7 35.2 1.5 34.3 -2 33 C-2.2 33.9 -2.5 34.9 -2.7 35.8 C-4.3 39.7 -5.4 40.1 -9 42 C-12.9 45 -15.7 47.6 -18 52 C-18.4 51.6 -18.4 51.6 -20.2 49.6 C-23.4 46.7 -25.5 45 -29.9 45 C-34.7 45.3 -37.5 46.5 -41 50 C-43.8 55.7 -41.9 63.2 -40.4 69 C-39.9 71.6 -40.1 73.5 -41 76 C-43.8 77.4 -46.2 77.2 -49.4 77.2 C-50.5 77.3 -51.7 77.3 -52.8 77.3 C-56.3 77 -57.7 76.5 -60 74 C-60 73 -60 72 -60 71 C-56 70 -52 69 -48 68 C-47.9 60.5 -47.9 60.5 -48.5 58 C-49.3 54.7 -49.7 51.3 -49 48 C-46.2 43.4 -42.7 41.6 -37.8 39.7 C-37.1 39.4 -36.5 39.2 -35.8 38.9 C-34.2 38.2 -32.6 37.6 -31 37 C-33.8 37 -36.2 37.4 -39 38 C-37.7 35.1 -36.3 33.1 -34 31 C-34.7 31.2 -35.4 31.4 -36.1 31.6 C-39.6 32.1 -41.8 31.3 -45 30 C-44.6 29.5 -44.1 29.1 -43.7 28.6 C-41.3 25 -40.2 21.1 -39 17 C-38.3 17 -37.7 17 -37 17 C-37 16.3 -37 15.7 -37 15 C-30.8 10.9 -25.2 8.6 -17.9 7.5 C-10.9 6.5 -5.7 4.2 0 0 Z " fill="#2D0803" transform="translate(137,61)"/>
<path d="M0 0 C4.8 0.7 9.3 1.8 14 3 C14 5.3 14 7.6 14 10 C14.6 10.1 15.2 10.2 15.8 10.3 C22.1 12.3 26.3 20.7 29.9 26 C30.3 26.6 30.7 27.1 31.2 27.7 C34.6 33 34.7 37.2 33.6 43.3 C33 44.9 32.5 46.4 32 48 C31.4 48 31.4 48 28.3 48.1 C27.6 48.1 26.9 48.2 26.2 48.2 C23.4 47.9 21.5 47.4 19 46 C17.2 43.2 17.2 43.2 15.7 39.9 C15.2 38.8 14.7 37.7 14.1 36.6 C13.8 35.7 13.4 34.9 13 34 C5.3 33.6 -0.9 34.6 -7.1 39.4 C-9.2 42.3 -9.5 43.5 -9 47 C-9.7 46.7 -10.3 46.3 -11 46 C-11.8 43.6 -11.8 43.6 -12.5 40.5 C-12.8 39.4 -13 38.3 -13.3 37.2 C-13.5 36.1 -13.8 35.1 -14 34 C-14.2 33.2 -14.4 32.3 -14.6 31.4 C-16.1 25.5 -17.3 20.4 -14.3 14.8 C-11.4 11.2 -8.4 8.8 -4.3 6.6 C-1.5 4.7 -0.9 3.2 0 0 Z " fill="#B550E7" transform="translate(135,94)"/>
<path d="M0 0 C1.5 0.6 3.1 1.2 4.6 1.8 C10.6 4.3 14.2 7.3 17.8 12.7 C18.3 15.1 18.3 15.1 18.5 17.7 C18.6 18.5 18.7 19.4 18.8 20.3 C18.8 23 18.2 24.4 16.8 26.7 C16.8 26.4 16.8 26.4 16.7 24.9 C15.9 16.1 15.9 16.1 12.8 12.7 C11.7 12.6 10.6 12.5 9.4 12.4 C5.8 11.7 5.8 11.7 4.2 9.9 C3 7.9 1.8 5.9 0.8 3.7 C0.9 4.6 0.9 4.6 1.8 8.7 C0.1 8.4 -1.5 8.1 -3.2 7.7 C-3.2 6.8 -3.2 5.8 -3.2 4.7 C-5.6 4.7 -8.1 4.7 -10.5 4.7 C-11.2 4.7 -11.8 4.7 -12.5 4.7 C-15.9 4.6 -19 4.7 -22.2 5.7 C-21.2 8.1 -20.2 10.4 -19.2 12.7 C-18.6 12.2 -18 11.8 -17.3 11.2 C-15.2 9.7 -15.2 9.7 -13.2 9.7 C-11.2 12.7 -11.2 12.7 -10.2 15.7 C-11.3 18.3 -12.8 20.4 -14.2 22.7 C-15.2 22.5 -16.2 22.2 -17.2 21.9 C-21.5 21.3 -23.7 22.8 -27.2 25.2 C-29.9 27.3 -32.6 29.4 -35.3 31.5 C-37.2 32.7 -37.2 32.7 -40.7 33.9 C-41.5 34.2 -42.3 34.4 -43.2 34.7 C-44.1 36.9 -44.1 36.9 -44.2 38.7 C-44.9 38.7 -45.5 38.7 -46.2 38.7 C-46.2 40.1 -46.2 41.4 -46.2 42.7 C-45.2 43.4 -44.2 44.1 -43.2 44.7 C-44.7 45.6 -46.1 46.4 -47.5 47.2 C-48.3 47.7 -49.1 48.2 -50 48.6 C-52.2 49.7 -52.2 49.7 -55.2 49.7 C-55.2 48.8 -55.2 47.8 -55.2 46.7 C-58.2 47.9 -60.6 49 -63.2 50.7 C-62.9 49.4 -62.6 48.1 -62.2 46.7 C-62.9 46.4 -63.5 46.1 -64.2 45.7 C-58.7 39.2 -51 35.7 -43.1 32.8 C-35.8 30 -29.7 25.2 -25.2 18.7 C-25.8 18.9 -26.4 19.2 -27 19.4 C-27.4 19.5 -27.4 19.5 -29.4 20.2 C-30.2 20.5 -31 20.7 -31.9 21 C-34.2 21.7 -34.2 21.7 -37.2 22.1 C-37.8 22.3 -38.5 22.5 -39.2 22.7 C-40.5 25.3 -40.5 25.3 -41.2 27.7 C-42.2 24.7 -42.2 24.7 -41.1 22.3 C-34.7 12.3 -27.9 5 -16.2 1.7 C-13.5 1.2 -11 0.9 -8.2 0.7 C-12.7 -0.8 -17.2 -0.5 -22 -0.6 C-22.5 -0.6 -22.5 -0.6 -24.9 -0.7 C-31.3 -0.7 -35.1 -0.1 -40.2 3.7 C-42.7 6.1 -42.7 6.1 -44.8 8.7 C-48.1 12.5 -51.3 15.6 -55.2 18.7 C-55.5 19 -55.5 19 -57 20.6 C-58.2 21.7 -58.2 21.7 -60.2 21.7 C-60.9 23.7 -61.5 25.7 -62.2 27.7 C-63.2 25.1 -63.3 24 -62.3 21.3 C-62.1 20.9 -62.1 20.9 -61 18.8 C-60.5 17.9 -60 17.1 -59.6 16.2 C-58.2 13.7 -56.8 11.2 -55.2 8.7 C-62.2 15.1 -65.4 20.9 -66.8 30.3 C-67.3 33.3 -68.5 35.2 -70.2 37.7 C-71 39.8 -71.8 41.9 -72.5 44.1 C-73.2 45.7 -73.2 45.7 -75.2 46.7 C-74.6 44.5 -73.9 42.2 -73.2 40 C-72.5 37.6 -71.8 35.2 -71.1 32.8 C-68.8 24.9 -66.4 18.3 -61.2 11.7 C-60.9 11.3 -60.9 11.3 -59.5 9.1 C-42.9 -8.4 -20.8 -8.7 0 0 Z " fill="#C26931" transform="translate(159.21875,19.259765625)"/>
<path d="M0 0 C0.7 0 1.3 0 2 0 C6 11.2 9.9 22.4 14 34 C14.7 30 15.3 26.1 16 22 C16.3 22 16.7 22 17 22 C17.2 22.6 17.2 22.6 17.9 25.4 C19 29 19 29 20 30 C22.8 30.2 25.6 30.3 28.4 30.3 C29.3 30.3 30.2 30.4 31.1 30.4 C33.9 30.4 36.7 30.5 39.6 30.6 C41.5 30.6 43.4 30.6 45.3 30.7 C58.9 31 72.4 31.1 86 31 C86.2 30.5 86.2 30.5 87 28 C88 27.7 89 27.3 90 27 C89.7 29 89.3 31 89 33 C85.7 33.7 82.4 34.3 79 35 C79.2 35.7 79.2 35.7 80 39 C80.5 39 80.5 39 83.2 39.2 C84.6 39.3 85.9 39.4 87.3 39.4 C88 39.5 88.7 39.5 89.4 39.6 C92.5 39.7 95.1 40 98 41 C93 43.5 85.6 42.4 80.4 41.1 C78 40 78 40 76 38 C76 37 76 36 76 35 C68.7 35 61.5 35 54 35 C54 35.7 54 36.3 54 37 C49.7 38.1 46.4 39 42 39 C39 49.4 39 49.4 39 52 C39.6 52 40.1 52.1 40.7 52.1 C50.8 53.1 60.9 54 71 55 C71 55.3 71 55.7 71 56 C70.5 56 70.5 56 67.8 56.1 C63.8 56.1 59.8 56.2 55.8 56.3 C54.1 56.4 52.4 56.4 50.7 56.4 C48.2 56.5 45.7 56.5 43.3 56.6 C42.5 56.6 41.7 56.6 40.9 56.6 C34.1 56.8 34.1 56.8 31 59 C30.2 60.9 30.2 60.9 29.8 63.1 C29.5 64.4 29.3 65.7 29 67 C29.9 67.1 30.9 67.2 31.8 67.3 C35.1 68 35.8 68.6 38 71 C36.2 70.5 34.4 70 32.6 69.6 C31.6 69.3 30.5 69 29.5 68.8 C27 68 27 68 26 67 C22.7 66.7 19.3 66.3 16 66.1 C12.3 65.7 10.3 65.3 7.5 62.7 C5.9 59.9 5.6 58.4 5.8 55.2 C5.8 54.4 5.8 53.6 5.9 52.8 C5.9 52.2 6 51.6 6 51 C9.5 53.3 10.3 55.3 12 59 C14.4 59.1 14.4 59.1 17 59 C19 57 19 57 20.3 53.9 C22.1 49.4 24.8 45.9 27.7 42.1 C28.2 41.4 28.7 40.7 29.2 40 C30.5 38.3 31.7 36.7 33 35 C32.7 35.3 32.3 35.7 32 36 C30.5 35.9 29 35.8 27.4 35.6 C27 35.5 27 35.5 24.9 35.3 C24.3 35.2 23.7 35.1 23 35 C23 34.3 23 33.7 23 33 C19.4 33.6 17.7 34.9 15.2 37.6 C14.6 38.2 14 38.8 13.4 39.5 C12.9 40 12.5 40.5 12 41 C11.3 40.7 10.7 40.3 10 40 C10.3 36.7 10.7 33.4 11 30 C10.3 30 9.7 30 9 30 C6.8 24.2 4.8 18.4 2.9 12.4 C2 10 2 10 1 9 C0.8 7.5 0.6 6 0.4 4.4 C0.4 3.6 0.3 2.8 0.2 1.9 C0.1 1.3 0.1 0.7 0 0 Z " fill="#19131B" transform="translate(97,140)"/>
<path d="M0 0 C1.1 0 2.3 0 3.5 0 C6.4 0.2 6.4 0.2 8.4 1.2 C8.4 2.2 8.4 3.2 8.4 4.2 C9.7 3.9 11 3.5 12.4 3.2 C12.4 2.2 12.4 1.2 12.4 0.2 C15.2 1.6 15.9 3.5 17.4 6.2 C17.4 6.8 17.4 7.5 17.4 8.2 C18.4 8.1 19.5 7.9 20.6 7.8 C24.4 8.2 24.4 8.2 26.8 10.5 C29.3 15.1 29 20.2 28.4 25.2 C27.4 27.5 26.4 29.9 25.4 32.2 C24.8 36.5 24.6 40.8 24.4 45.2 C23.1 45.2 21.7 45.2 20.4 45.2 C19.5 42.3 19.2 39.6 19.2 36.6 C19.2 35.9 19.2 35.1 19.1 34.3 C19.4 32.2 19.4 32.2 21.4 29.2 C22 29.2 22.7 29.2 23.4 29.2 C23.4 28.2 23.4 27.2 23.4 26.2 C22.1 25.9 20.7 25.5 19.4 25.2 C19.4 24.2 19.4 23.2 19.4 22.2 C20.4 22.2 21.4 22.2 22.4 22.2 C20.9 15.5 20.9 15.5 18.6 14 C14.6 12.5 10.6 12.4 6.4 13.2 C2.6 17.1 1.1 22.1 -0.6 27.2 C-0.1 26.7 0.4 26.2 1 25.7 C4 23.8 5.9 24 9.4 24.2 C9.4 25.2 9.4 26.2 9.4 27.2 C8.7 27.4 8.1 27.6 7.5 27.8 C6.7 28 5.8 28.3 5 28.6 C4.2 28.8 3.4 29.1 2.5 29.3 C0.4 30.2 0.4 30.2 -1.6 32.2 C-2.5 32.4 -3.4 32.7 -4.3 32.9 C-7.4 34.1 -8.7 35 -11.1 37.1 C-17.6 42.9 -24.2 43.7 -32.6 44.2 C-32.6 43.2 -32.6 42.2 -32.6 41.2 C-33.6 40.5 -34.6 39.9 -35.6 39.2 C-35.2 37.2 -35.2 37.2 -34.6 35.2 C-34.3 35 -34.3 35 -32.6 34.2 C-32.3 33.2 -32 32.2 -31.6 31.2 C-29.3 29.8 -29.3 29.8 -26.4 28.3 C-22 26 -19 23.8 -15.6 20.2 C-11.9 17.7 -10.2 17.1 -5.8 17.5 C-4.7 17.7 -3.7 18 -2.6 18.2 C-1.6 16.2 -0.6 14.2 0.4 12.2 C0.2 11.9 0.2 11.9 -0.6 10.2 C-1 8.9 -1.3 7.5 -1.6 6.2 C-3.9 7.5 -6.2 8.8 -8.6 10.2 C-9.3 7.5 -9.9 4.9 -10.6 2.2 C-7.1 -0 -4.1 -0.1 0 0 Z " fill="#5B230A" transform="translate(147.625,22.8125)"/>
<path d="M0 0 C0.6 0.4 1.2 0.7 1.8 1.1 C1.9 4 1.9 5.5 0.8 8.1 C-2.3 10.6 -5.7 12.3 -9.2 14.1 C-9.9 14.5 -10.5 14.8 -11.1 15.2 C-13.5 16.2 -15 16.3 -17.6 16.3 C-18.4 16.3 -19.2 16.3 -20 16.3 C-20.8 16.3 -21.6 16.2 -22.5 16.2 C-23.3 16.2 -24.2 16.2 -25 16.2 C-27.1 16.2 -29.2 16.1 -31.2 16.1 C-31.4 16.7 -31.6 17.4 -31.8 18 C-33.8 24.6 -35.9 29 -42.1 32.4 C-47.5 34.8 -52.4 35.7 -58.2 34.1 C-58.6 35.1 -58.9 36.1 -59.2 37.1 C-60.4 34.7 -60.3 33.3 -60.2 30.6 C-60.2 29.8 -60.2 28.9 -60.2 28 C-60.1 26.1 -60.1 24.2 -60 22.4 C-60 21.5 -60 20.6 -60 19.7 C-60 18.9 -59.9 18.1 -59.9 17.3 C-60.3 14.6 -61.3 13.9 -63.2 12.1 C-63.2 11.4 -63.2 10.8 -63.2 10.1 C-62.6 9.8 -61.9 9.4 -61.2 9.1 C-60.6 7 -60.6 7 -60.2 5.1 C-59 5.2 -57.7 5.2 -56.4 5.3 C-46.7 5.9 -37.1 6.2 -27.4 6.4 C-26.5 6.4 -25.5 6.4 -24.6 6.4 C-16.5 6.5 -11.1 3.7 -4.1 -0.3 C-2.2 -0.9 -2.2 -0.9 0 0 Z " fill="#322D36" transform="translate(263.23828125,258.89453125)"/>
<path d="M0 0 C4.8 2.6 8.6 5.4 10.6 10.5 C12.4 18 12.4 25.6 8.2 32.3 C7.9 32.8 7.6 33.4 7.2 33.9 C6.9 34.9 6.5 35.8 6.1 36.8 C2.7 40.6 -1.9 40.7 -6.8 40.9 C-13.5 40.6 -18.2 39 -22.8 33.9 C-27.4 27.7 -27.2 21.5 -26.8 13.9 C-22.2 15.6 -19.4 17.7 -15.8 20.9 C-15.5 19.3 -15.1 17.6 -14.8 15.9 C-14.5 15.9 -14.1 15.9 -13.8 15.9 C-13.8 17.9 -13.8 19.9 -13.8 21.9 C-13.2 21.7 -12.5 21.5 -11.9 21.3 C-11.1 21 -10.3 20.7 -9.4 20.4 C-8.6 20.2 -7.8 19.9 -7 19.6 C-4.8 18.9 -4.8 18.9 -2.8 18.9 C-4.1 17 -5.4 15 -6.8 12.9 C-6.2 13.3 -5.6 13.6 -4.9 13.9 C-2.8 14.9 -2.8 14.9 -0.8 14.9 C0.7 13.5 0.7 13.5 2.3 11.6 C2.9 10.9 3.4 10.3 4 9.7 C5.2 7.9 5.2 7.9 5.2 5.9 C2.5 6.9 0.3 7.8 -2 9.6 C-6.2 11.6 -10.2 11.6 -14.8 10.9 C-17.7 9.8 -20.1 8.5 -22.8 6.9 C-16.9 -1.2 -9.6 -3.7 0 0 Z " fill="#757484" transform="translate(111.796875,238.06640625)"/>
<path d="M0 0 C2.6 0.5 2.6 0.5 4.8 2.8 C7.7 5.6 9.4 6.3 13.2 7.5 C17.7 9 20.3 10.1 22.6 14.5 C23.6 17.1 23.6 17.1 23.6 19.5 C21.7 21.9 19.6 23.2 16.9 24.5 C16.2 24.8 15.6 25.1 15 25.4 C14.2 25.8 13.4 26.1 12.6 26.5 C12.1 26.8 12.1 26.8 9.5 28.1 C4.8 30.1 0.1 29.9 -5 29.8 C-6 29.7 -6.9 29.7 -7.9 29.7 C-15.1 29.6 -22.2 29.3 -29.4 28.5 C-29.7 27.5 -30 26.5 -30.4 25.5 C-31 24.8 -31.7 24.2 -32.4 23.5 C-31.4 23.2 -30.4 22.8 -29.4 22.5 C-29.2 21.6 -29 20.6 -28.8 19.7 C-27.4 16.5 -27.4 16.5 -25.5 15.5 C-23.9 14.8 -22.3 14.2 -20.7 13.6 C-18.1 12.4 -17 11.1 -15.2 8.9 C-12.4 5.2 -9.9 4.5 -5.4 3.5 C-4.8 3 -4.3 2.4 -3.8 1.9 C-2.4 0.5 -2.4 0.5 0 0 Z " fill="#ECE7E9" transform="translate(240.375,236.5)"/>
<path d="M0 0 C-0.3 0.2 -0.3 0.2 -2 1 C-2.3 8.6 -2 14.9 1 22 C0.3 22.3 -0.3 22.7 -1 23 C-1.3 22.7 -1.7 22.3 -2 22 C-2.3 23 -2.7 24 -3 25 C-3.3 23.7 -3.7 22.4 -4 21.1 C-4.2 20.3 -4.4 19.6 -4.6 18.8 C-5.2 16.1 -5 16 -4 13 C-5 13 -6 13 -7 13 C-7 12.3 -7 11.7 -7 11 C-8.7 11.7 -10.3 12.3 -12 13 C-12.8 22.2 -9.8 30.4 -7 39 C-6.8 39.7 -6.5 40.5 -6.3 41.2 C-2.3 53.7 -2.3 53.7 -1 55 C-1 57.3 -1 59.7 -1 62 C-0.3 62 0.3 62 1 62 C1 64.6 1 67.3 1 70 C-1.6 67.4 -2.4 64.5 -3.6 61.1 C-3.8 60.5 -4.1 59.8 -4.3 59.1 C-4.8 57.6 -5.3 56.2 -5.9 54.8 C-6.6 52.6 -7.4 50.4 -8.2 48.2 C-8.7 46.8 -9.2 45.4 -9.7 44 C-9.9 43.3 -10.1 42.7 -10.4 42 C-11.4 39.2 -12 37 -12 34 C-12.7 34 -13.3 34 -14 34 C-12.6 40.9 -10.6 47.1 -7.9 53.6 C-7.6 54.5 -7.2 55.4 -6.8 56.3 C-6.5 57.1 -6.1 58 -5.8 58.8 C-5 61 -5 61 -5 64 C-4.3 64 -3.7 64 -3 64 C-3 67.3 -3 70.6 -3 74 C-1.9 73.1 -0.8 72.1 0.3 71.1 C2.5 69.2 4.6 67.6 7 66 C7.7 66.3 8.3 66.7 9 67 C9 67.7 9 68.3 9 69 C12 69.3 14.9 69.7 18 70 C18 69.3 18 68.7 18 68 C18.3 68.2 18.3 68.2 20 69 C19.6 69.5 19.2 70 18.8 70.6 C17.1 72.9 15.4 75.3 13.6 77.7 C13 78.5 12.4 79.3 11.8 80.2 C11.2 81 10.6 81.8 10 82.6 C9.8 82.9 9.8 82.9 8.4 84.8 C6.9 87.1 6 89.4 5 92 C3 94 3 94 0.6 94.4 C-2 94 -2 94 -3.7 92.2 C-4.9 90.2 -6 88.2 -7 86 C-7.3 88 -7.7 90 -8 92 C-8.3 92 -8.7 92 -9 92 C-9.6 85.1 -8.1 81.5 -4 76 C-5 75.7 -6 75.3 -7 75 C-10.7 69 -12.6 61.6 -14.8 54.9 C-14.9 54.5 -14.9 54.5 -15.7 52.1 C-17.5 46.5 -18.5 41.9 -18 36 C-16.6 34 -16.6 34 -15 33 C-14.3 33 -13.7 33 -13 33 C-13.3 32 -13.6 30.9 -13.9 29.9 C-19 10.9 -19 10.9 -16 5.1 C-11.4 -1 -7.1 -1.4 0 0 Z " fill="#423941" transform="translate(111,106)"/>
<path d="M0 0 C-0.1 0.3 -0.1 0.3 -0.4 1.7 C-1 4 -1 4 -1.3 6.3 C-2.2 9.7 -3.8 11.9 -5.9 14.7 C-6.3 15.2 -6.3 15.2 -8.1 17.6 C-10 20 -10 20 -12 22 C-14.7 22.3 -17.3 22.1 -20 22 C-18.2 26.9 -18.2 26.9 -16 28 C-14 28.2 -11.9 28.4 -9.9 28.6 C-9.3 28.6 -9.3 28.6 -6.6 28.8 C-6.1 28.8 -6.1 28.8 -4 29 C-1.9 35.8 -1.9 35.8 -3 38 C-1 37.3 1 36.7 3 36 C3.8 33.4 3.8 33.4 4 30 C3.4 29.1 2.8 28.1 2.1 27.2 C-0.6 23.1 -1.3 19.9 -1 15 C0.9 8.3 5 4.5 10.9 0.8 C13.6 -0.2 15.4 -0 18.2 0.4 C19.1 0.5 20 0.6 21 0.7 C21.6 0.8 22.3 0.9 23 1 C21.9 4.3 20.5 5.6 18 8 C21 7 23.9 6 27 5 C26.7 6 26.3 7 26 8 C23.1 9.4 20.2 10.5 17.2 11.7 C13.4 13.2 10.9 14.3 9 18 C8.6 23.4 9.2 28.5 10.1 33.8 C10 36 10 36 8.6 37.7 C4.7 40.8 2 41.2 -3 41 C-1.2 44.9 -1.2 44.9 1 46 C2.9 46.2 4.7 46.4 6.6 46.6 C7.6 46.6 8.6 46.7 9.7 46.8 C10.4 46.9 11.2 46.9 12 47 C12 47.3 12 47.7 12 48 C-1.1 48.6 -1.1 48.6 -6 45 C-9.8 41.2 -11.6 38.5 -12 33 C-10 33 -8 33 -6 33 C-5.7 32.3 -5.3 31.7 -5 31 C-5.3 31 -5.3 31 -6.8 31.1 C-12 31.3 -15.5 31 -20 28 C-24.4 23.1 -25.1 20.6 -25 14 C-22.7 14.3 -20.4 14.7 -18 15 C-17.6 14.3 -17.2 13.6 -16.8 12.9 C-16.5 12.4 -16.5 12.4 -15 10 C-14.4 9 -13.8 8 -13.2 6.9 C-9.7 2.3 -6 0 0 0 Z " fill="#9A491F" transform="translate(80,91)"/>
<path d="M0 0 C10.8 -0.3 10.8 -0.3 12.8 1.6 C13.3 2.1 13.8 2.6 14.3 3.2 C19.5 4.5 24.8 4.3 30.1 4.2 C31 4.2 31.9 4.2 32.8 4.2 C35 4.2 37.1 4.2 39.3 4.2 C39.3 5.5 39.3 6.8 39.3 8.2 C39.6 8.3 39.6 8.3 41.1 8.8 C43.9 10.5 44.3 12.1 45.3 15.2 C44 16.7 44 16.7 42.3 18.2 C40.9 17.9 39.6 17.5 38.3 17.2 C37.3 17.8 36.3 18.5 35.3 19.2 C35.1 18.7 35.1 18.7 34.3 16.2 C33.6 16.1 33 16.1 32.4 16 C32 16 32 16 29.9 15.8 C29.1 15.7 28.3 15.6 27.4 15.6 C25.3 15.2 25.3 15.2 23.3 13.2 C22.5 13.5 21.8 13.8 21 14.2 C18.3 15.2 18.3 15.2 14.3 15.2 C14.3 14.2 14.3 13.2 14.3 12.2 C13.5 12.3 12.8 12.5 12 12.7 C-1.2 14.4 -1.2 14.4 -5.7 12.2 C-5.7 12.8 -5.7 13.5 -5.7 14.2 C-6.6 14 -7.5 13.8 -8.4 13.7 C-11.7 13.2 -11.7 13.2 -15 13.2 C-17.7 13.2 -17.7 13.2 -19.7 12.2 C-19.7 9.8 -19.7 7.5 -19.7 5.2 C-13.1 1.4 -7.6 0.3 0 0 Z " fill="#2A67C4" transform="translate(158.734375,178.84375)"/>
<path d="M0 0 C1.7 1 3.3 2 5 3 C4.9 4 4.8 4.9 4.7 5.9 C4.6 10.7 6.8 14.5 8.9 18.7 C10 21 10 21 10 23 C8.8 22.9 7.5 22.8 6.2 22.7 C-0.2 22.6 -5.7 25.6 -11 29 C-13.3 31.5 -14 32.4 -14.2 35.8 C-14.1 36.5 -14.1 37.3 -14 38 C-14.7 37.7 -15.3 37.4 -16 37 C-16.8 34.6 -16.8 34.6 -17.5 31.5 C-17.8 30.5 -18 29.4 -18.3 28.2 C-18.5 27.2 -18.8 26.1 -19 25 C-19.2 24.2 -19.4 23.4 -19.6 22.5 C-21.1 16.6 -22.3 11.5 -19.3 5.9 C-13.9 -0.8 -8.4 -4 0 0 Z " fill="#B64AEF" transform="translate(140.01171875,102.9609375)"/>
<path d="M0 0 C33.5 -0.2 33.5 -0.2 49.3 0.3 C49.8 0.3 49.8 0.3 52.4 0.4 C57.8 0.6 62.9 0.9 67 5 C68.7 5 70.3 5 72 5 C72 5.7 72 6.3 72 7 C71.6 7.1 71.6 7.1 69.7 7.3 C67 8 67 8 65.6 9.5 C62.8 12.1 59 11.3 55.4 11.2 C54.5 11.2 53.6 11.2 52.7 11.2 C50.5 11.2 48.3 11.1 46.1 11.1 C42.1 11 38.1 11 34.1 10.9 C30.3 10.9 26.5 10.8 22.6 10.7 C20.7 10.7 18.8 10.7 16.8 10.7 C14.1 10.6 11.4 10.6 8.6 10.5 C8.2 10.5 8.2 10.5 6.1 10.5 C3.7 10.4 3.7 10.4 0 10 C-0.7 9 -1.3 8 -2 7 C-1.1 3.3 -1.1 3.3 0 0 Z " fill="#37313B" transform="translate(117,161)"/>
<path d="M0 0 C0.9 0 1.8 0 2.7 0 C7.2 0.1 10.9 0.3 15 2.4 C15 2.8 15 3.1 15 3.4 C14.2 3.5 13.4 3.6 12.5 3.7 C1 5.1 -6.8 8 -14.3 17.1 C-16.7 20.4 -18.4 23.7 -20 27.4 C-19.3 26.4 -18.7 25.5 -18 24.4 C-15.6 23.4 -15.6 23.4 -13 22.4 C-12.3 22.1 -11.7 21.7 -11 21.3 C-8.6 20.2 -6.6 20.3 -4 20.4 C-7.7 29 -17.2 34.1 -25.5 37.4 C-25.9 37.6 -25.9 37.6 -28 38.4 C-32.4 40.1 -36 42.3 -39.9 45 C-44 47.8 -48 50.4 -53 51.4 C-52.6 51 -52.2 50.5 -51.8 50.1 C-49.4 47.3 -47.1 44.7 -45.2 41.5 C-44.8 40.8 -44.4 40.1 -44 39.4 C-43.3 39.4 -42.7 39.4 -42 39.4 C-41.7 38.7 -41.4 38 -41.1 37.3 C-35.7 23.9 -35.7 23.9 -30 21.4 C-29.2 20.9 -28.4 20.4 -27.6 19.8 C-24.7 18.3 -22.3 17.9 -19 17.4 C-17.7 17.1 -16.3 16.8 -15 16.4 C-15 15.2 -15 13.9 -15 12.6 C-15 5.4 -15 5.4 -13.1 2.8 C-8.7 -0.5 -5.3 -0.2 0 0 Z " fill="#65290D" transform="translate(138,17.5625)"/>
<path d="M0 0 C1.5 0.1 3 0.2 4.4 0.4 C5.3 0.4 6.1 0.5 6.9 0.6 C7.6 0.7 8.3 0.9 9 1 C9.3 1.7 9.7 2.3 10 3 C7.4 3 4.7 3 2 3 C-0.3 8.6 -2.6 14.2 -5 20 C-3.3 20.3 -1.7 20.7 0 21 C0.9 23.6 1.1 24.6 0.1 27.2 C-0.1 27.5 -0.1 27.5 -1 29 C-3 28.7 -5 28.3 -7 28 C-7.7 25.7 -8.3 23.4 -9 21 C-9.3 21.3 -9.7 21.7 -10 22 C-9.7 28.2 -9.7 28.2 -7.4 31 C-3.9 32.5 -1.6 32 2 31 C5.3 28.1 6 24.2 7 20 C7.7 20.3 8.3 20.7 9 21 C9.5 26.8 8.4 29.3 5 34 C5 35 5 36 5 37 C1.8 38.9 -0.1 39.2 -3.8 38.6 C-4.5 38.5 -5.3 38.4 -6.2 38.3 C-6.5 38.2 -6.5 38.2 -8 38 C-7.3 39.6 -6.7 41.3 -6 43 C-1.1 42.7 3.9 42.3 9 42 C6 45 3 44.9 -1.2 45.4 C-7.1 44.8 -12.5 42.6 -16.7 38.2 C-21.5 31.7 -21.5 25.8 -21 18 C-19.7 13.8 -18.3 11.9 -14.6 9.8 C-13.4 9.2 -12.2 8.6 -11 8 C-10.3 7.6 -9.6 7.2 -8.9 6.8 C-6.5 5.8 -4.5 5.9 -2 6 C-1.3 4 -0.7 2 0 0 Z " fill="#413136" transform="translate(186,261)"/>
<path d="M0 0 C4.2 3.1 7 6.3 9.7 10.8 C9 11.1 8.4 11.4 7.7 11.8 C7 11.4 6.4 11.1 5.7 10.8 C3.7 10.7 1.7 10.7 -0.3 10.8 C-0.5 11.2 -0.5 11.2 -1.3 13.8 C-4.3 11.1 -7.3 8.5 -10.3 5.8 C-10 5.1 -9.7 4.4 -9.3 3.8 C-6.2 3.1 -6.2 3.1 -3.3 2.8 C-4.4 2.9 -5.5 3 -6.6 3.2 C-10.3 3.8 -10.3 3.8 -12.3 4.3 C-14.3 4.8 -14.3 4.8 -17.7 3.8 C-25.7 1.6 -34.5 2.3 -41.8 6.3 C-46.4 9.5 -49.9 13.3 -53.3 17.8 C-53.6 17.1 -54 16.4 -54.3 15.8 C-60.9 19.6 -60.9 19.6 -62.2 23.4 C-64.6 34 -64.6 43.1 -63.3 53.8 C-68.2 46.4 -67.2 35.6 -65.7 27.2 C-63.6 19.6 -60.1 13.9 -55.3 7.8 C-54.7 6.8 -54 5.8 -53.3 4.8 C-51.7 3.7 -50 2.7 -48.3 1.8 C-47 0.9 -45.7 0.1 -44.4 -0.8 C-30.5 -9.5 -13.8 -9.1 0 0 Z " fill="#A98C87" transform="translate(129.3125,220.25)"/>
<path d="M0 0 C0 3.4 -0.7 4.6 -2.3 7.5 C-2.7 8.3 -3.2 9 -3.6 9.8 C-4.9 11.9 -6.1 13.5 -8 15 C-9 15 -10 15 -11 15 C-11 13.7 -11 12.4 -11 11 C-13.6 12 -16.3 13 -19 14 C-19 14.3 -19 14.3 -19.2 15.9 C-19.4 17.7 -19.5 19.5 -19.7 21.3 C-19.9 23.5 -20.1 25.6 -20.2 27.8 C-21.3 32.2 -23.4 33.4 -27 36 C-27.6 36.6 -28.2 37.3 -28.8 38 C-32.1 41.1 -36 42.5 -40.1 44.3 C-43.3 46.2 -45 48 -47 51 C-47.8 53.8 -47.8 53.8 -48 56 C-48.3 56 -48.7 56 -49 56 C-49.5 48.8 -49.5 48.8 -47.4 45.4 C-44.5 42.5 -41.5 41.1 -37.8 39.7 C-37.1 39.4 -36.5 39.2 -35.8 38.9 C-34.2 38.2 -32.6 37.6 -31 37 C-33.8 37 -36.2 37.4 -39 38 C-37.7 35.1 -36.3 33.1 -34 31 C-34.7 31.2 -35.4 31.4 -36.1 31.6 C-39.6 32.1 -41.8 31.3 -45 30 C-44.6 29.5 -44.1 29.1 -43.7 28.6 C-41.3 25 -40.2 21.1 -39 17 C-38.3 17 -37.7 17 -37 17 C-37 16.3 -37 15.7 -37 15 C-30.8 10.9 -25.2 8.6 -17.9 7.5 C-10.9 6.5 -5.7 4.2 0 0 Z " fill="#501B06" transform="translate(137,61)"/>
<path d="M0 0 C6.9 5.1 11.9 10.1 13.7 18.7 C14.1 19.5 14.4 20.3 14.8 21.1 C16 24.7 15.8 27.9 15.7 31.7 C13.8 28.9 13.1 27 12.2 23.8 C11.9 22.9 11.7 22 11.4 21.1 C11.2 20.3 10.9 19.5 10.7 18.7 C9.8 15.7 9.8 15.7 8.7 13.7 C7 13 5.4 12.3 3.7 11.7 C1.5 9.9 -0.6 8 -2.3 5.7 C-2.3 4.7 -2.3 3.7 -2.3 2.7 C-3 2.7 -3.6 2.7 -4.3 2.7 C-4.3 3.3 -4.3 4 -4.3 4.7 C-8.5 3.4 -12.5 2.1 -16.4 0.1 C-22.9 -3.1 -29.3 -3.7 -36.5 -3.6 C-37.3 -3.6 -38.1 -3.7 -38.9 -3.7 C-43.6 -3.7 -46.4 -3.1 -50.3 -0.3 C-51 -0.3 -51.6 -0.3 -52.3 -0.3 C-52.3 0.3 -52.3 1 -52.3 1.7 C-54 2.7 -55.6 3.7 -57.3 4.7 C-59.4 6.3 -61.3 8 -63.3 9.7 C-63.7 3.9 -62.9 -1.1 -60.3 -6.3 C-46.2 -18.2 -13.2 -8.7 0 0 Z " fill="#F72126" transform="translate(140.3125,214.3125)"/>
<path d="M0 0 C2.4 0.9 2.4 0.9 5.4 2.9 C4.9 7.2 4.2 9.7 1.4 12.9 C7.9 14.9 7.9 14.9 11.2 15.4 C12 15.6 12.7 15.8 13.4 15.9 C13.5 16.3 13.5 16.3 14.4 17.9 C13.7 18 13 18.1 12.2 18.2 C5 19.3 -2.1 20.6 -9.3 22 C-9.8 22.1 -9.8 22.1 -12 22.5 C-12.8 22.7 -13.7 22.9 -14.5 23 C-14.9 23.1 -14.9 23.1 -16.8 23.5 C-18.6 23.9 -18.6 23.9 -20.6 24.9 C-20.6 23.9 -20.6 23 -20.6 21.9 C-20 21.9 -19.3 21.9 -18.6 21.9 C-18.6 21.3 -18.6 20.6 -18.6 19.9 C-20.6 20.3 -22.6 20.6 -24.6 20.9 C-24.8 20.6 -24.8 20.6 -25.6 18.9 C-30.4 16.2 -35.9 16.5 -41.2 16.3 C-42.3 16.3 -43.4 16.2 -44.5 16.2 C-59.8 15.7 -75.2 15.9 -90.6 15.9 C-91 17.9 -91.3 19.9 -91.6 21.9 C-92.3 21.6 -92.9 21.3 -93.6 20.9 C-93.9 18.1 -93.8 16.3 -92.6 13.8 C-90.6 11.9 -90.6 11.9 -87.3 11.7 C-85.8 11.8 -84.3 12 -82.8 12.1 C-81 12.3 -79.3 12.4 -77.5 12.5 C-76.4 12.6 -75.4 12.6 -74.3 12.7 C-67.3 13.1 -60.2 13.4 -53.2 13.6 C-51.4 13.7 -49.7 13.7 -48 13.8 C-45.5 13.9 -43 14 -40.5 14 C-39.8 14.1 -39 14.1 -38.2 14.2 C-33 14.3 -33 14.3 -30.8 12.4 C-30.4 11.9 -30 11.4 -29.6 10.9 C-25.2 10.9 -23.2 11.5 -19.8 14.4 C-17.6 16.9 -17.6 16.9 -16.6 18.9 C-11.1 18.4 -11.1 18.4 -8.9 15.9 C-8.5 15.3 -8.1 14.6 -7.6 13.9 C-6.6 13.6 -5.6 13.3 -4.6 12.9 C-4.8 12.6 -4.8 12.6 -5.6 11.2 C-5.9 10.4 -6.3 9.7 -6.6 8.9 C-6.9 8.3 -7.2 7.7 -7.6 7 C-7.6 4.9 -7.6 4.9 -5.5 2.1 C-2.6 -0.1 -2.6 -0.1 0 0 Z " fill="#69565A" transform="translate(207.625,146.0625)"/>
<path d="M0 0 C2 0.8 2 0.8 4 2 C4.8 5.1 4.8 5.1 5 8 C5.7 8 6.3 8 7 8 C7.8 7.2 8.7 6.4 9.5 5.5 C10.3 4.7 11.2 3.9 12 3 C12.7 3 13.3 3 14 3 C16 6 16 6 17 9 C15.9 11.5 14.5 13.7 13 16 C12 15.7 11 15.5 10 15.2 C5.7 14.6 3.5 16.1 0 18.5 C-2.7 20.5 -5.4 22.6 -8.1 24.7 C-10 26 -10 26 -13.4 27.1 C-14.3 27.4 -15.1 27.7 -16 28 C-16.9 30.1 -16.9 30.1 -17 32 C-17.7 32 -18.3 32 -19 32 C-19 33.3 -19 34.6 -19 36 C-18 36.7 -17 37.3 -16 38 C-17.4 38.8 -18.9 39.7 -20.3 40.5 C-21.1 41 -21.9 41.4 -22.7 41.9 C-25 43 -25 43 -28 43 C-28 42 -28 41 -28 40 C-31 41.1 -33.3 42.2 -36 44 C-35.7 42.7 -35.3 41.4 -35 40 C-35.7 39.7 -36.3 39.3 -37 39 C-31.5 32.5 -23.8 29 -15.9 26.1 C-8.6 23.3 -2.5 18.4 2 12 C1.7 12.1 1.7 12.1 0.2 12.6 C-0.6 12.9 -1.4 13.2 -2.2 13.4 C-3 13.7 -3.8 14 -4.7 14.3 C-7 15 -7 15 -9.9 15.4 C-10.6 15.6 -11.3 15.8 -12 16 C-13.3 18.6 -13.3 18.6 -14 21 C-15 18 -15 18 -13.8 15.5 C-9.9 9.3 -5.9 4.5 0 0 Z " fill="#C87C4D" transform="translate(132,26)"/>
<path d="M0 0 C2.9 0.8 2.9 0.8 6 2 C6.9 4.1 6.9 4.1 7 6 C7.3 6 7.3 6 8.8 6.3 C12.2 7.4 13 9.5 14.8 12.5 C17.2 17.4 18.7 22.6 20.3 27.8 C20.7 28.9 21 30.1 21.4 31.2 C24 39.6 24 39.6 24 43 C24.7 43 25.3 43 26 43 C28.7 46.6 30.5 49.5 31 54 C27.4 56.2 23.9 58.3 20 60 C19.5 59.8 19.5 59.8 17 59 C17.7 58.8 17.7 58.8 21 58 C20.7 56.7 20.4 55.4 20.1 54.1 C20 53.3 19.8 52.6 19.6 51.8 C19 50 19 50 17 49 C16.3 47 16.3 47 15.7 44.5 C15.4 43.5 15.2 42.6 14.9 41.6 C14.7 40.6 14.4 39.6 14.2 38.5 C13.7 36.4 13.1 34.3 12.6 32.2 C12.3 31.1 12 30.1 11.8 29 C6.3 7.6 6.3 7.6 0 0 Z " fill="#3365BB" transform="translate(211,180)"/>
<path d="M0 0 C0.7 0.3 1.3 0.7 2 1 C1.2 1.7 0.3 2.5 -0.6 3.2 C-1 3.7 -1 3.7 -3 6 C-2.8 7.9 -2.8 7.9 -2 10 C-2 13.1 -2 13.1 -3 16 C-6.6 17.9 -10.1 19.2 -14 20 C-17 21 -17 21 -18 23 C-18.7 23 -19.3 23 -20 23 C-21 23.3 -22 23.7 -23 24 C-23.6 25.8 -23.6 25.8 -24 28 C-26.2 33.4 -28.8 36.9 -33 41 C-33.7 42.2 -34.4 43.4 -35 44.7 C-37.1 48.2 -38.1 49 -42 50 C-41 47.5 -40 45 -39 42.5 C-34.3 31 -34.3 31 -33.4 25.3 C-32 19.4 -28 14.5 -24 10 C-23.3 10 -22.7 10 -22 10 C-23.7 14.4 -25.8 18.6 -28 22.8 C-29 25 -29 25 -29 27 C-28.3 25.7 -27.7 24.4 -27 23 C-26.3 23 -25.7 23 -25 23 C-24.7 22 -24.3 21 -24 20 C-23.7 19.9 -23.7 19.9 -22.1 19.6 C-21.4 19.4 -20.7 19.2 -20 19 C-19.3 17.7 -18.6 16.3 -18 15 C-16.4 13.2 -14.8 11.6 -13 10 C-12.2 9.2 -11.4 8.5 -10.6 7.7 C-3.4 1.1 -3.4 1.1 0 0 Z " fill="#9D4B20" transform="translate(126,18)"/>
<path d="M0 0 C4.5 0.2 4.5 0.2 27 1 C25.8 8.2 23.8 12.5 18.3 17.4 C12.9 20 6.9 21.9 1 20 C1.3 17.7 1.7 15.4 2 13 C2.6 12.9 3.3 12.7 3.9 12.6 C6.4 11.9 8.7 11.2 11 10 C12.6 6.8 12.6 6.8 13 4 C12.5 4.4 12.1 4.9 11.6 5.3 C11 5.9 10.3 6.4 9.7 7 C9.1 7.6 8.5 8.1 7.8 8.7 C6 10 6 10 3 10 C2 6.7 1 3.4 0 0 Z " fill="#26171B" transform="translate(205,273)"/>
<path d="M0 0 C-2 2 -2 2 -4.3 2.9 C-7.1 4.1 -9.1 5.4 -11.4 7.3 C-12.2 7.9 -13 8.6 -13.8 9.2 C-15.6 10.6 -17.3 12.2 -18.9 13.7 C-21.7 15.8 -23.6 16.7 -26.8 17.9 C-31.6 19.6 -34.9 22.1 -38.8 25.3 C-48.5 32.6 -60.3 33.2 -72 32 C-84.7 28.9 -93.4 20.9 -100 10 C-101.3 7.9 -101.3 7.9 -102 6 C-101.7 5 -101.3 4 -101 3 C-100.5 4 -100.1 4.9 -99.6 5.9 C-98 9 -98 9 -96 10 C-96 10.7 -96 11.3 -96 12 C-95.3 12 -94.7 12 -94 12 C-93.7 13.3 -93.3 14.6 -93 16 C-92.3 16 -91.7 16 -91 16 C-90.4 16.8 -89.8 17.6 -89.1 18.4 C-87.1 20.9 -85.9 21.9 -83 23 C-83 23.7 -83 24.3 -83 25 C-81.7 25.3 -80.4 25.7 -79 26 C-79 26.7 -79 27.3 -79 28 C-66 30.6 -54.7 31.4 -43 24.5 C-41 23 -41 23 -40 21 C-38.7 20.3 -37.3 19.7 -36 19 C-34.2 17.5 -33.1 16.3 -32.1 14.1 C-30.9 11.9 -29.6 10.2 -27.9 8.2 C-27.3 7.6 -26.8 7 -26.2 6.4 C-25.8 5.9 -25.4 5.5 -25 5 C-24.7 5.2 -24.7 5.2 -23 6 C-17.3 6.4 -14 6 -9 3 C-9.3 2.7 -9.3 2.7 -11 1 C-7.3 0.1 -3.8 -0.1 0 0 Z " fill="#42221C" transform="translate(168,271)"/>
<path d="M0 0 C0 1 0 2 0 3 C-0.7 3 -1.3 3 -2 3 C-2.3 4.7 -2.7 6.3 -3 8 C-1.8 8.4 -0.6 8.7 0.6 9.1 C7.6 11.7 10.8 17.1 13.9 23.6 C16.1 28.5 17.7 33.6 19.3 38.8 C19.5 39.3 19.5 39.3 20.4 42.2 C20.8 43.2 21.1 44.3 21.5 45.4 C21.8 46.4 22.1 47.4 22.4 48.4 C23 51 22.9 52.5 22 55 C21.7 54.1 21.4 53.2 21.1 52.3 C20.1 49.1 19 45.8 17.9 42.5 C17.5 41.1 17 39.7 16.6 38.3 C15.9 36.2 15.2 34.2 14.6 32.1 C14.4 31.5 14.4 31.5 13.4 28.4 C11.9 24.9 10.3 22 8 19 C7 18.7 6 18.3 5 18 C4.7 17 4.3 16 4 15 C1.9 14.3 1.9 14.3 0 14 C0.8 14.9 1.5 15.9 2.3 16.9 C5.4 21.3 6.7 25.8 8.1 31 C8.2 31.5 8.2 31.5 8.8 33.8 C9.3 35.6 9.8 37.5 10.3 39.4 C10.9 41.8 11.6 44.2 12.3 46.6 C15 56.4 15 56.4 15 61 C15.5 61.2 15.5 61.2 18 62 C18.3 64.3 18.7 66.6 19 69 C18.3 68.3 17.7 67.7 17 67 C17 66 17 65 17 64 C15.9 64.6 14.8 65.1 13.7 65.7 C12.3 66.5 10.8 67.2 9.4 67.9 C8.7 68.3 7.9 68.7 7.2 69.1 C3.1 71.1 -0.4 72.5 -5 73 C-1.6 70.3 1.9 68.3 5.8 66.3 C6.4 66 7 65.7 7.6 65.3 C9 64.6 10.5 63.8 12 63 C10.5 44.5 10.5 44.5 7 41 C6.7 39.3 6.4 37.6 6.1 35.9 C5.3 31.1 4 27.3 2 23 C2 22.3 2 21.7 2 21 C1.3 21 0.7 21 0 21 C0 20 0 19 0 18 C-1.3 17.3 -2.6 16.7 -4 16 C-4 15.3 -4 14.7 -4 14 C-5.3 14 -6.6 14 -8 14 C-8 13 -8 12 -8 11 C-7 10.7 -6 10.3 -5 10 C-5.8 9.1 -6.7 8.1 -7.6 7.2 C-9 5.6 -9 5.6 -10 4 C-9.7 3 -9.3 2 -9 1 C-5.8 -0.1 -3.3 -0.1 0 0 Z " fill="#719EE5" transform="translate(213,168)"/>
<path d="M0 0 C0.7 1.8 0.7 1.8 1 4 C0 5.6 0 5.6 -1.5 7.2 C-3.3 9.1 -4.9 10.9 -6.5 13 C-11.9 20.1 -20.2 24.4 -28.8 26.8 C-31 27 -31 27 -32.9 25.8 C-34 24 -34 24 -33.8 21.9 C-33 20 -33 20 -31 19 C-30.7 18 -30.3 17 -30 16 C-27.7 14.6 -27.7 14.6 -24.8 13.1 C-20.4 10.9 -17.4 8.6 -14 5 C-10.3 2.6 -8.6 1.9 -4.1 2.3 C-3.1 2.5 -2.1 2.8 -1 3 C-0.7 2 -0.3 1 0 0 Z " fill="#823E1C" transform="translate(146,38)"/>
<path d="M0 0 C0 0.7 0 1.3 0 2 C-1 2 -2 2 -3 2 C-3 2.3 -3 2.3 -2.8 4.1 C-3 7.4 -4.3 9.2 -6.1 12 C-7.4 14.9 -7.5 17.7 -7.7 20.8 C-8.3 25.1 -9.8 28.7 -12.8 32 C-16.2 33.5 -18.4 33 -22 32 C-24.5 29.9 -24.5 29.9 -26 27 C-25.9 23.2 -25.9 23.2 -25 20 C-24.3 19.7 -23.7 19.3 -23 19 C-22.7 21.6 -22.3 24.3 -22 27 C-20 27.3 -18 27.7 -16 28 C-15.7 25.7 -15.3 23.4 -15 21 C-16.7 20.7 -18.3 20.3 -20 20 C-19.4 15.7 -17.8 12.1 -15.9 8.2 C-15.7 7.6 -15.7 7.6 -14.3 4.7 C-13.9 3.8 -13.4 2.9 -13 2 C-10.7 2 -8.4 2 -6 2 C-7.3 1.3 -8.6 0.7 -10 0 C-3.4 -1.1 -3.4 -1.1 0 0 Z " fill="#413C45" transform="translate(201,261)"/>
<path d="M0 0 C0 1 0 2 0 3 C-2 4.4 -4 5.7 -6 7 C-6.3 7.7 -6.7 8.3 -7 9 C-2.7 9.7 1.6 10.3 6 11 C6 12.3 6 13.6 6 15 C6.4 15.1 6.4 15.1 8.2 15.4 C10.9 16 13.2 16.9 15.7 18 C22.4 20.8 29.9 22.1 37 20 C37.7 19 38.3 18 39 17 C37.9 15.1 37.9 15.1 36 13 C32.3 12.2 32.3 12.2 29 12 C28.3 10.3 27.7 8.7 27 7 C27.7 7 28.3 7 29 7 C29 7.7 29 8.3 29 9 C33.3 9 37.6 9 42 9 C42.3 7.7 42.7 6.4 43 5 C44 4.7 45 4.3 46 4 C46.7 4.3 47.3 4.7 48 5 C45.5 17.8 45.5 17.8 40 22 C39 23 39 23 39 26.3 C39 28.4 39.1 30.5 39.1 32.5 C39.2 34.4 39.1 36.2 39 38 C38.3 38.7 37.7 39.3 37 40 C36.8 37.5 36.8 37.5 36 25 C35.4 25 35.4 25 32.2 24.7 C10.9 23 10.9 23 4 15.9 C1.8 13.8 0.8 13.4 -2.1 12.9 C-4.4 12.4 -5.9 12 -8 10.8 C-9.5 8.2 -9.2 5.9 -9 3 C-2.2 0 -2.2 0 0 0 Z " fill="#CB713B" transform="translate(126,72)"/>
<path d="M0 0 C0.4 0 0.4 0 2.4 0 C16.1 0.5 27.3 5.5 36.8 15.6 C39.4 18.9 41.3 22.6 43.2 26.4 C43.8 27.4 44.4 28.5 44.9 29.5 C46.5 33.1 47.4 36.6 48.2 40.4 C49.9 40.1 51.6 39.8 53.2 39.4 C53.1 39.8 53.1 39.8 52.2 41.4 C49.9 41.4 47.6 41.4 45.2 41.4 C42 35.1 39.1 28.8 36.4 22.3 C31.6 14.3 21.9 8.2 12.9 5.9 C-0.3 3.5 -10.5 4.9 -21.8 12.4 C-22.8 13.4 -23.8 14.4 -24.8 15.4 C-25.4 15.1 -26.1 14.8 -26.8 14.4 C-25.5 13.1 -24.2 11.8 -22.9 10.4 C-22.2 9.7 -21.5 9 -20.8 8.2 C-18.8 6.4 -18.8 6.4 -15.8 6.4 C-15.8 5.8 -15.8 5.1 -15.8 4.4 C-10.3 0.8 -6.5 -0.2 0 0 Z " fill="#4B0807" transform="translate(103.75,209.5625)"/>
<path d="M0 0 C2.2 -0.3 2.2 -0.3 4.6 -0.2 C5.4 -0.2 6.3 -0.1 7.1 -0.1 C7.4 -0.1 7.4 -0.1 9 0 C9 0.3 9 0.7 9 1 C6.7 1.3 4.4 1.7 2 2 C1 5 0 7.9 -1 11 C-0.7 9.7 -0.3 8.4 0 7 C0.3 7 0.7 7 1 7 C1 8.9 1 10.8 1.1 12.8 C1.1 13.8 1.1 14.9 1.1 16 C1 19 1 19 0 23 C4 22.3 7.9 21.7 12 21 C12.3 22.3 12.7 23.6 13 25 C12.4 24.9 11.8 24.9 11.2 24.8 C6.9 24.6 4 24.5 0.6 27.4 C-0.2 28.3 -1.1 29.1 -2 30 C-4.8 30.9 -6.4 31.1 -9.2 31.1 C-9.8 31.1 -9.8 31.1 -13 31 C-12.8 30.4 -12.8 30.4 -12 27.1 C-10.9 22.1 -10.6 17.1 -10.4 11.9 C-10.3 11.1 -10.3 10.2 -10.3 9.3 C-10.2 7.2 -10.1 5.1 -10 3 C-8 3.1 -6 3.2 -3.9 3.3 C-3.6 3.2 -3.6 3.2 -2 3 C-1.3 2 -0.7 1 0 0 Z " fill="#1E1317" transform="translate(158,247)"/>
<path d="M0 0 C2.1 0.4 2.1 0.4 4 1 C4.7 3.3 4.7 3.3 5 6 C3.1 8.4 1 9.7 -1.8 11 C-2.4 11.3 -3 11.6 -3.7 11.9 C-4.4 12.3 -5.2 12.6 -6 13 C-6.5 13.3 -6.5 13.3 -9.1 14.6 C-13.8 16.6 -18.6 16.4 -23.6 16.2 C-24.6 16.2 -25.6 16.2 -26.6 16.2 C-33.7 16.1 -40.9 15.8 -48 15 C-48.3 14 -48.7 13 -49 12 C-49.7 11.3 -50.3 10.7 -51 10 C-49.7 10 -48.4 10 -47 10 C-47 10.7 -47 11.3 -47 12 C-45.3 11.3 -43.7 10.7 -42 10 C-41.7 10.7 -41.3 11.3 -41 12 C-37.9 12.6 -37.9 12.6 -35 13 C-34.7 12.3 -34.3 11.7 -34 11 C-31.4 10.4 -31.4 10.4 -28.1 10 C-21 9 -14 7.8 -7 6 C-7.2 5.3 -7.2 5.3 -8 2 C-7.1 2 -6.1 2.1 -5.1 2.1 C-2 2 -2 2 0 0 Z " fill="#D1C3C4" transform="translate(259,250)"/>
<path d="M0 0 C1.5 0.1 3 0.2 4.4 0.4 C5.3 0.4 6.1 0.5 6.9 0.6 C7.6 0.7 8.3 0.9 9 1 C9.3 1.7 9.7 2.3 10 3 C7.4 3 4.7 3 2 3 C-0.3 8.6 -2.6 14.2 -5 20 C-3.3 20.3 -1.7 20.7 0 21 C0.9 23.6 1.1 24.6 0.1 27.2 C-0.1 27.5 -0.1 27.5 -1 29 C-3 28.7 -5 28.3 -7 28 C-7.7 25.7 -8.3 23.4 -9 21 C-9.3 21.3 -9.7 21.7 -10 22 C-9.7 28.2 -9.7 28.2 -7.4 31 C-3.9 32.5 -1.6 32 2 31 C5.3 28.1 6 24.2 7 20 C7.7 20.3 8.3 20.7 9 21 C9.5 26.7 8.7 29.6 5 34 C2 36.4 -1.3 36.4 -5 36.3 C-8.9 35.7 -11 33.3 -13.3 30.2 C-14.4 26.8 -14.6 23.5 -14 20 C-11.6 16 -8.9 14.3 -5 12 C-4.7 11 -4.3 10 -4 9 C-9.4 9.8 -13.3 11.9 -17 16 C-16.4 12.9 -15.9 10.7 -13.3 8.7 C-9.5 6.7 -6.4 5.5 -2 6 C-1.3 4 -0.7 2 0 0 Z " fill="#7B6E77" transform="translate(186,261)"/>
<path d="M0 0 C0.3 0 0.7 0 1 0 C1.4 2.7 1.4 2.7 1 6 C-0.4 7.2 -1.9 8.5 -3.4 9.6 C-6.9 12.7 -8.8 16.7 -9.2 21.3 C-8.9 25.4 -8.2 27.7 -5.9 31.2 C-4 34 -4 34 -4 37.2 C-5 40 -5 40 -6.9 41.4 C-9 42 -9 42 -12 42 C-12.3 39 -12.7 36.1 -13 33 C-13.4 33 -13.4 33 -15.5 33.1 C-16.6 33.1 -17.6 33.2 -18.8 33.2 C-19.3 33.2 -19.3 33.2 -22 33.3 C-25.3 33 -26.7 32.5 -29 30 C-29 28.7 -29 27.4 -29 26 C-27.8 25.9 -26.5 25.9 -25.2 25.8 C-21.9 25.4 -21.2 25.2 -18.8 22.8 C-18.2 21.8 -17.6 20.9 -17 20 C-15 17.2 -15 17.2 -13 15 C-11.7 15 -10.4 15 -9 15 C-8.8 14.3 -8.6 13.6 -8.4 12.9 C-6.8 9.6 -4.8 7.3 -2.3 4.6 C-1 3 -1 3 0 0 Z " fill="#491602" transform="translate(89,87)"/>
<path d="M0 0 C5.9 3.7 10.1 9.8 11.8 16.6 C13.2 26.5 11.6 34.9 5.6 43.2 C-0 49.3 -6.5 52.2 -14.8 52.6 C-23 52.3 -29.1 49.2 -34.8 43.2 C-41.4 34.8 -41.8 26.6 -40.8 16 C-39 8.6 -33 2.7 -26.7 -1.4 C-17.5 -6 -8.8 -4.6 0 0 Z M-26.8 1 C-26.2 1.4 -25.5 1.7 -24.8 2 C-23.2 1.4 -21.5 0.7 -19.8 0 C-18.8 0 -17.9 0 -16.8 0 C-17.4 0.2 -18 0.4 -18.7 0.6 C-23 1.9 -26.3 3.2 -29.8 6 C-30.8 6 -31.8 6 -32.8 6 C-38.1 11 -39.4 18 -40.3 24.9 C-40 31.3 -37.3 38.1 -33.2 43 C-26.2 49.3 -19.7 50.7 -10.5 50.4 C-3.7 49.7 -0 46.5 4.5 41.7 C10.5 33.9 11.3 26.8 10.2 17 C8 10 4.2 5.2 -1.8 1 C-2.7 0.4 -3.6 -0.2 -4.5 -0.8 C-11.8 -3.3 -20.3 -3.4 -26.8 1 Z " fill="#B0BBCB" transform="translate(117.83984375,233.9609375)"/>
<path d="M0 0 C12.9 0.6 23 2.3 33 11 C35 13.3 36.4 15.4 38 18 C37.7 18.2 37.7 18.2 36 19 C35.3 18.7 34.7 18.3 34 18 C32 18 30 18 28 18 C27.8 18.5 27.8 18.5 27 21 C25.5 19.7 25.5 19.7 18 13 C18.3 12.3 18.7 11.7 19 11 C22.1 10.4 22.1 10.4 25 10 C24.5 10.1 24.5 10.1 21.8 10.4 C18 11 18 11 16 11.6 C12.5 12.3 9.4 11 6 10 C5.7 8.7 5.3 7.4 5 6 C2.7 5.4 2.7 5.4 0 5 C-1 5.7 -2 6.3 -3 7 C-3 6.3 -3 5.7 -3 5 C-3.7 4.3 -4.3 3.7 -5 3 C-3.3 2.3 -1.7 1.7 0 1 C0 0.7 0 0.3 0 0 Z " fill="#6C6875" transform="translate(101,213)"/>
<path d="M0 0 C0.7 0 1.3 0 2 0 C2.4 0.7 2.7 1.4 3.1 2.1 C5 5 6.2 6 8.9 7.9 C15.4 12.6 17.4 18.3 19 26 C18.2 19.5 18.2 19.5 16.9 16.9 C16 15 16 15 16 10 C19.6 10 23.3 10 27 10 C27 10.3 27 10.7 27 11 C25.3 11.3 23.7 11.7 22 12 C21.7 17 21.9 19.2 25 23 C25 24.7 25 26.3 25 28 C30.3 28.7 35.6 29.3 41 30 C41 30.3 41 30.7 41 31 C34.6 31.1 28.4 30.8 22 30 C22 30.7 22 31.3 22 32 C21 32.2 21 32.2 16 33 C14 30 14 30 13.2 26.9 C10.2 16.2 3.8 8.7 -4 1 C-2.7 1.3 -1.4 1.7 0 2 C0 1.3 0 0.7 0 0 Z " fill="#E1070B" transform="translate(136,217)"/>
<path d="M0 0 C0.7 0.3 1.3 0.7 2 1 C1.3 1.7 0.7 2.3 0 3 C0.3 8 2.1 11.4 4.7 15.6 C5.4 16.7 6 17.8 6.7 19 C9.3 22.3 11.3 24 15 26 C17.8 26.3 20.2 26.4 22.9 26.3 C23.7 26.3 24.4 26.3 25.2 26.3 C27.5 26.3 29.8 26.2 32.2 26.1 C34.5 26.1 36.9 26 39.2 26 C40.7 26 42.2 25.9 43.6 25.9 C47.4 25.8 48.8 25.9 52 28 C51.7 28.7 51.3 29.3 51 30 C45.2 29.9 39.4 29.8 33.6 29.6 C31.6 29.6 29.6 29.5 27.7 29.5 C15.4 29.3 3.2 28.8 -9 28 C-9.3 27.3 -9.7 26.7 -10 26 C-7 25.7 -4.1 25.3 -1 25 C-1.1 24.5 -1.1 24.5 -1.7 21.9 C-1.9 20.5 -2.2 19.2 -2.5 17.8 C-2.6 17.1 -2.8 16.5 -2.9 15.8 C-3.7 12.1 -4.4 8.7 -4 5 C-2 2.2 -2 2.2 0 0 Z " fill="#403033" transform="translate(129,131)"/>
<path d="M0 0 C-4.3 1.6 -8.6 3.3 -13 5 C-12 4.7 -11 4.3 -10 4 C-7.8 4.4 -7.8 4.4 -6 5 C-14.9 16.4 -14.9 16.4 -20.5 20.8 C-22 22 -22 22 -23.6 23.7 C-25 25 -25 25 -27 25 C-27.7 27 -28.3 29 -29 31 C-30 28.4 -30.1 27.3 -29.1 24.6 C-28.9 24.2 -28.9 24.2 -27.8 22.1 C-27.3 21.2 -26.8 20.3 -26.3 19.4 C-25 16.9 -23.5 14.4 -22 12 C-28.9 18.3 -32.2 24.2 -33.5 33.5 C-34.1 36.5 -35.3 38.5 -37 41 C-37.8 43.1 -38.5 45.2 -39.3 47.3 C-40 49 -40 49 -42 50 C-41.3 47.7 -40.7 45.5 -40 43.3 C-39.3 40.9 -38.6 38.5 -37.9 36.1 C-35.6 28.2 -33.2 21.6 -28 15 C-27.7 14.6 -27.7 14.6 -26.2 12.4 C-20 5.8 -9.4 -2.4 0 0 Z " fill="#F0A873" transform="translate(126,16)"/>
<path d="M0 0 C3.3 4.9 2.5 10.3 2 16 C0.5 21.3 -2.2 25.1 -7 28 C-8.7 28.4 -10.3 28.7 -12 29 C-12.9 14.5 -12.9 14.5 -8.6 8.8 C-5.8 5.7 -3 2.8 0 0 Z " fill="#242637" transform="translate(121,248)"/>
<path d="M0 0 C-1.1 3.4 -2 6 -4 9 C-4.7 14.9 -3.8 20.3 -2.4 26 C-1.9 28.6 -2.1 30.5 -3 33 C-5.8 34.4 -8.2 34.2 -11.4 34.2 C-11.9 34.3 -11.9 34.3 -14.8 34.3 C-18.3 34 -19.7 33.5 -22 31 C-22 30 -22 29 -22 28 C-18 27 -14 26 -10 25 C-10.1 23.8 -10.1 22.7 -10.2 21.5 C-10.2 20 -10.3 18.4 -10.3 16.9 C-10.4 16.1 -10.4 15.4 -10.4 14.6 C-10.5 10.5 -10.3 7.8 -7.7 4.6 C-2.9 0 -2.9 0 0 0 Z " fill="#461504" transform="translate(99,104)"/>
<path d="M0 0 C1 0.3 2 0.7 3 1 C1.5 5.6 -0.9 8.4 -4 12 C-5.3 11.3 -6.6 10.7 -8 10 C-7.3 11.3 -6.7 12.6 -6 14 C-7.3 14.5 -8.5 15 -9.8 15.5 C-10.5 15.8 -11.2 16.1 -12 16.3 C-14 17 -14 17 -17 17 C-17.3 16.3 -17.7 15.7 -18 15 C-18.3 15.7 -18.7 16.3 -19 17 C-19.6 16.5 -20.3 16 -20.9 15.5 C-21.7 14.9 -22.5 14.2 -23.4 13.6 C-24.2 12.9 -25 12.3 -25.8 11.6 C-28 10 -28 10 -30 9 C-28.6 3.3 -28.6 3.3 -26.2 1.9 C-24 2 -24 2 -21.4 3.4 C-16.8 5.5 -12.9 5.9 -8 5 C-5.7 3.8 -3.7 2.6 -1.7 1 C-1.1 0.7 -0.6 0.3 0 0 Z " fill="#A8A6B4" transform="translate(115,243)"/>
<path d="M0 0 C0.7 0.3 1.3 0.7 2 1 C-0.6 5.5 -2.2 7.2 -7 9 C-8.5 9.8 -10 10.7 -11.5 11.5 C-16.6 14.1 -21.3 14.7 -26.9 15.4 C-30.9 16.2 -33.9 17.8 -37.3 20 C-39 21 -39 21 -41 21 C-41 21.7 -41 22.3 -41 23 C-41.7 23 -42.3 23 -43 23 C-43.1 23.4 -43.1 23.4 -43.5 25.3 C-43.8 26.3 -44 27.2 -44.2 28.2 C-44.5 29.2 -44.7 30.2 -45 31.2 C-46.1 34.3 -47.5 35.9 -50 38 C-50.3 38 -50.7 38 -51 38 C-52 31.9 -52.9 25.7 -50 20 C-47.2 17.5 -44.3 15.7 -41 14 C-41 15.7 -41 17.3 -41 19 C-40.5 18.5 -39.9 18 -39.4 17.5 C-38.7 16.9 -38 16.3 -37.2 15.6 C-36.6 15 -35.9 14.4 -35.1 13.7 C-32 11.2 -30 10 -26 10 C-26 10.7 -26 11.3 -26 12 C-15.4 10.3 -7.5 7.8 0 0 Z " fill="#853A14" transform="translate(141,55)"/>
<path d="M0 0 C6.8 2.6 11.2 6 14.3 12.7 C15.6 17 15.8 21.5 16 26 C10.8 25.6 7.5 23.9 4 20 C-0.7 13.8 -0.5 7.5 0 0 Z " fill="#242940" transform="translate(85,252)"/>
<path d="M0 0 C7.4 0.5 13.4 3.2 18.5 8.7 C21.1 12.6 21.1 14.9 21.1 19.6 C21.1 20.8 21 22 21 23.2 C21 24.1 21 25.1 21 26 C18 23 17.9 19.6 17 15.5 C16 13 16 13 14 11.6 C12 11 12 11 9.8 11.9 C9.5 12.1 9.5 12.1 8 13 C7.3 12.3 6.7 11.7 6 11 C5.7 11.2 5.7 11.2 4 12 C0.5 10.9 -1.6 9.7 -4 7 C-4.7 6.7 -5.3 6.3 -6 6 C-6 5.3 -6 4.7 -6 4 C-6.6 3.9 -6.6 3.9 -9.9 3.6 C-13.8 3.2 -13.8 3.2 -16 1 C-10.7 1 -5.4 1 0 1 C0 0.7 0 0.3 0 0 Z " fill="#F53A3E" transform="translate(177,231)"/>
<path d="M0 0 C1 0.7 2 1.3 3 2 C3 3 3 4 3 5 C3.7 5 4.3 5 5 5 C7.4 8.4 8 9.7 8 14 C8.7 14 9.3 14 10 14 C11.7 15.6 13.4 17.3 15 19 C17.5 21.5 19.7 22 23 23 C23 25.6 23 28.3 23 31 C21.8 31 20.6 31.1 19.3 31.1 C18.6 31.1 17.9 31.2 17.2 31.2 C14.4 30.9 12.5 30.4 10 29 C8.2 26.2 8.2 26.2 6.7 22.9 C6.2 21.8 5.7 20.7 5.1 19.6 C4.8 18.7 4.4 17.9 4 17 C-0.8 16.9 -5.2 17 -10 18 C-6.3 14.3 -2 14 3 14 C4 14.3 5 14.7 6 15 C5.8 14.5 5.8 14.5 4.7 12.2 C4.4 11.6 4.4 11.6 3 8.6 C2.4 7.4 1.9 6.3 1.3 5 C0 2 0 2 0 0 Z " fill="#7321A5" transform="translate(144,111)"/>
<path d="M0 0 C3.6 -0.1 7.2 -0.2 10.8 -0.3 C11.8 -0.4 12.9 -0.4 13.9 -0.4 C16.7 -0.5 19.3 -0.5 22 0 C23.9 2.5 23.9 2.5 25 5 C31.9 7.4 41.4 6.9 48 4 C48 5 48 6 48 7 C39.5 10.2 29.5 10.4 21 7 C20.3 6.3 19.7 5.7 19 5 C9.8 4.2 -3 3.7 -11 9 C-11.8 12.6 -11.8 12.6 -12 16 C-11.3 16.3 -10.7 16.7 -10 17 C-11.7 17 -13.3 17 -15 17 C-16.3 13.6 -16 11.1 -14.8 7.8 C-13.2 4.8 -12.4 4.1 -9.1 3 C-6 2.5 -3.1 2.2 0 2 C0 1.3 0 0.7 0 0 Z " fill="#0C3377" transform="translate(151,175)"/>
<path d="M0 0 C1.9 1.1 1.9 1.1 4.7 3.1 C3.5 6.8 1.3 8.5 -2.1 10.3 C-7 12.1 -11.9 12 -16.7 10.2 C-18.6 9.2 -20.4 8.2 -22.3 7.1 C-16.7 -0.6 -9.3 -3.7 0 0 Z " fill="#25293B" transform="translate(111.26953125,237.90234375)"/>
<path d="M0 0 C1.7 1.3 3.3 2.6 5 4 C4.4 4.4 3.8 4.8 3.1 5.2 C0.9 7.1 0.1 8.4 -1 11 C-2 11 -3 11 -4 11 C-4.1 11.6 -4.2 12.2 -4.3 12.9 C-5 15 -5 15 -6.6 16 C-10.9 17.5 -14.4 18.3 -19 18 C-18 16.3 -17 14.7 -16 13 C-19.8 14.3 -21.9 16.7 -24.1 19.9 C-26.3 25 -24.4 30.8 -23 36 C-26.5 32.6 -27.2 30.6 -27.3 25.8 C-27.2 19.1 -25.1 16.1 -20.5 11.4 C-16.8 8.5 -12.3 7 -7.9 5.3 C-4.8 3.9 -2.5 2.2 0 0 Z " fill="#DA7939" transform="translate(83,66)"/>
<path d="M0 0 C-1.1 3.3 -2.5 4.6 -5 7 C-2 6 0.9 5 4 4 C3 7 3 7 -0.1 8.5 C-1.3 9.1 -2.6 9.6 -3.9 10.1 C-7.5 11.5 -10.8 12.8 -14 15 C-14.3 14 -14.7 13 -15 12 C-16.3 12 -17.6 12 -19 12 C-19.3 13.3 -19.7 14.6 -20 16 C-20.7 16 -21.3 16 -22 16 C-22.3 16.7 -22.7 17.3 -23 18 C-23.6 13.3 -23.2 10.7 -20.4 6.8 C-14.3 -0.6 -9.4 -1.7 0 0 Z " fill="#AE5D2F" transform="translate(103,92)"/>
<path d="M0 0 C0.7 -0 1.4 -0 2.1 -0 C7 -0.1 7 -0.1 9.3 1.7 C9.5 2 9.5 2 10.5 3.3 C12.5 4.4 14.5 5.4 16.5 6.3 C16.2 7.3 15.8 8.3 15.5 9.3 C13.5 9.6 11.5 10 9.5 10.3 C9.5 9.7 9.5 9 9.5 8.3 C9 8.5 8.4 8.6 7.9 8.8 C-0.5 10.7 -7.6 10.8 -15.5 7.3 C-14.5 7 -13.5 6.7 -12.5 6.3 C-11.8 5 -11.2 3.7 -10.5 2.3 C-6.9 -0.1 -4.2 -0 0 0 Z M2.5 9.3 C5.5 10.3 5.5 10.3 5.5 10.3 Z " fill="#3777D8" transform="translate(162.5,178.6875)"/>
<path d="M0 0 C0.4 -0 0.4 -0 2.2 -0 C14 0 14 0 18.6 3.1 C18.6 3.8 18.6 4.4 18.6 5.1 C8.1 5.5 8.1 5.5 3.6 3.1 C3.6 2.8 3.6 2.5 3.6 2.1 C0.3 2.1 -3 2.1 -6.4 2.1 C-5.7 2.8 -5.1 3.4 -4.4 4.1 C-5 4.1 -5.7 4.1 -6.4 4.1 C-6.5 4.4 -6.5 4.4 -7.2 5.9 C-7.4 6.2 -7.4 6.2 -8.4 8.1 C-8.6 8.8 -8.9 9.5 -9.2 10.2 C-10.8 12.8 -12.7 13.6 -15.4 15.1 C-17.4 16.7 -19.4 18.4 -21.4 20.1 C-21.7 14.4 -21 9.3 -18.4 4.1 C-13.1 -0.3 -6.6 -0 0 0 Z " fill="#F77B48" transform="translate(98.375,203.875)"/>
<path d="M0 0 C1.2 0 2.3 0 3.5 0 C15.8 0.2 28.4 1.1 40 5.3 C38 7.3 38 7.3 35.5 7.3 C34.5 7.2 33.5 7.1 32.5 7 C31.5 6.9 30.5 6.8 29.5 6.7 C27.6 6.5 25.7 6.3 23.8 6 C16.6 5.2 9.5 5.2 2.2 5.2 C1.7 5.2 1.7 5.2 -1.4 5.2 C-2.5 5.2 -3.7 5.2 -4.9 5.2 C-5.4 5.2 -5.4 5.2 -8 5.2 C-11.1 5.3 -14 5.7 -17 6.3 C-16.8 4.4 -16.8 4.4 -16 2.3 C-11.2 -0.8 -5.5 -0 0 0 Z " fill="#5A5663" transform="translate(144,195.6875)"/>
<path d="M0 0 C0.5 0.2 1.1 0.4 1.6 0.6 C7.6 2.8 13.2 3.7 19.6 4.2 C20.5 4.3 21.4 4.4 22.3 4.4 C24.6 4.6 26.8 4.8 29 5 C29 10.9 29 16.9 29 23 C28 23.3 27 23.7 26 24 C25.6 23.5 25.2 22.9 24.9 22.4 C20.5 16.3 20.5 16.3 17.1 14.4 C16.4 14 15.7 13.5 15 13 C14.7 9.3 14.7 9.3 15 6 C13.8 5.9 12.6 5.8 11.4 5.6 C7.7 5.2 4.5 4.3 1 3 C0.7 3.7 0.3 4.3 0 5 C0 3.3 0 1.7 0 0 Z " fill="#390F05" transform="translate(134,91)"/>
<path d="M0 0 C0.7 0.3 1.3 0.7 2 1 C-9.8 12 -9.8 12 -15 12 C-15.3 13.3 -15.7 14.6 -16 16 C-16.7 16 -17.3 16 -18 16 C-18 17.3 -18 18.6 -18 20 C-17 20.7 -16 21.3 -15 22 C-16.4 22.8 -17.9 23.7 -19.3 24.5 C-20.1 25 -20.9 25.4 -21.7 25.9 C-24 27 -24 27 -27 27 C-27 26 -27 25 -27 24 C-30 25.1 -32.3 26.2 -35 28 C-34.7 26.7 -34.3 25.4 -34 24 C-34.7 23.7 -35.3 23.3 -36 23 C-30.5 16.5 -22.8 13 -14.9 10.1 C-9.2 7.9 -4.3 4.3 0 0 Z " fill="#DA844B" transform="translate(131,42)"/>
<path d="M0 0 C1 0 2 0 3 0 C2.5 1.5 2.1 2.9 1.6 4.4 C1.4 5.2 1.1 6 0.9 6.8 C0 9 0 9 -2 11 C-2.4 15.3 -2 17 0 21 C11.6 21 23.1 21 35 21 C35 21.3 35 21.7 35 22 C33.9 22 32.9 22 31.8 22.1 C27.8 22.1 23.8 22.2 19.8 22.3 C18.1 22.4 16.4 22.4 14.7 22.4 C12.2 22.5 9.7 22.5 7.3 22.6 C6.5 22.6 5.7 22.6 4.9 22.6 C-1.9 22.8 -1.9 22.8 -5 25 C-5.8 26.9 -5.8 26.9 -6.2 29.1 C-6.5 30.4 -6.7 31.7 -7 33 C-6.1 33.1 -5.1 33.2 -4.2 33.3 C-0.9 34 -0.2 34.6 2 37 C0.2 36.5 -1.6 36 -3.4 35.6 C-4.4 35.3 -5.5 35 -6.5 34.8 C-9 34 -9 34 -10 33 C-11 26.2 -11.8 19.1 -7.8 13.2 C-6 10.9 -4.1 8.8 -2.2 6.7 C0 4 0 4 0 0 Z " fill="#1A1016" transform="translate(133,174)"/>
<path d="M0 0 C1.9 1.1 1.9 1.1 4 3 C4.4 5.3 4.7 7.7 5 10 C5.7 10.3 6.3 10.7 7 11 C7.4 13.3 7.7 15.7 8 18 C8.6 20.4 9.3 22.7 10 25 C11 25 12 25 13 25 C13.5 26.9 14 28.9 14.5 30.8 C14.8 31.9 15.1 33 15.3 34.1 C16 37 16 37 16 40 C16.7 40.3 17.3 40.7 18 41 C17.7 41.2 17.7 41.2 16 42 C16.7 44 17.3 46 18 48 C19.7 48 21.3 48 23 48 C20.1 50 17.2 51.6 14 53 C13 52.7 12 52.3 11 52 C11.7 51.8 11.7 51.8 15 51 C14.7 49.7 14.4 48.4 14.1 47.1 C14 46.3 13.8 45.6 13.6 44.8 C13 43 13 43 11 42 C10.3 40 10.3 40 9.7 37.5 C9.4 36.5 9.2 35.6 8.9 34.6 C8.7 33.6 8.4 32.6 8.2 31.5 C7.7 29.4 7.1 27.3 6.6 25.2 C6.3 24.2 6.1 23.1 5.8 22 C4.5 17 3 12 1.5 7.1 C0 2.2 0 2.2 0 0 Z " fill="#123B82" transform="translate(217,187)"/>
<path d="M0 0 C0 4.1 -1.7 5.2 -4.4 8.2 C-10.1 15.1 -10.3 21.3 -10 30 C-24.4 30.3 -24.4 30.3 -28.4 27 C-30.6 22.9 -30.4 19.5 -30 15 C-26.5 17.3 -25.8 19.3 -24 23 C-23.3 23.3 -22.7 23.7 -22 24 C-22 24.7 -22 25.3 -22 26 C-18.6 25 -17.2 24.3 -15.2 21.4 C-14.9 20.9 -14.9 20.9 -13.5 18.2 C-11 13.7 -8.4 9.9 -5 6 C-4.4 5.1 -3.9 4.1 -3.3 3.2 C-2 1 -2 1 0 0 Z " fill="#3F292E" transform="translate(133,176)"/>
<path d="M0 0 C-0.3 0.2 -0.3 0.2 -2 1 C-2.3 8.6 -2 14.9 1 22 C0.3 22.3 -0.3 22.7 -1 23 C-1.3 22.7 -1.7 22.3 -2 22 C-2.3 23 -2.7 24 -3 25 C-3.3 23.7 -3.7 22.4 -4 21.1 C-4.2 20.3 -4.4 19.6 -4.6 18.8 C-5.2 16.1 -5 16 -4 13 C-5 13 -6 13 -7 13 C-7 12.3 -7 11.7 -7 11 C-8.1 11.5 -9.2 12 -10.4 12.6 C-11.6 13 -12.8 13.5 -14 14 C-14.7 13.7 -15.3 13.3 -16 13 C-16.7 5.9 -16.7 5.9 -14.8 3.4 C-9.6 -0.9 -6.4 -1.1 0 0 Z " fill="#726E7A" transform="translate(111,106)"/>
<path d="M0 0 C0.6 0.4 1.2 0.7 1.8 1.1 C-2.4 6.1 -6.8 8.7 -13.2 10.1 C-19.9 10.7 -26.6 10.4 -33.2 10.1 C-34.1 10.1 -35 10.1 -35.9 10 C-38.5 9.9 -41.1 9.8 -43.7 9.7 C-44.5 9.7 -45.3 9.7 -46.1 9.6 C-49.9 9.4 -53 9.2 -56.2 7.1 C-47.7 5.7 -39.2 6.1 -30.6 6.3 C-28.5 6.3 -26.5 6.3 -24.4 6.4 C-23.2 6.4 -22 6.4 -20.8 6.4 C-14.5 5.9 -9.5 2.8 -4.1 -0.3 C-2.2 -0.9 -2.2 -0.9 0 0 Z " fill="#88818C" transform="translate(263.23828125,258.89453125)"/>
<path d="M0 0 C0.3 0 0.7 0 1 0 C1 1.7 1 3.3 1 5 C1.7 5 2.3 5 3 5 C3 5.7 3 6.3 3 7 C4.3 6.7 5.6 6.3 7 6 C7.2 7.5 7.2 7.5 8 15 C7.2 14.8 7.2 14.8 3 14 C2.7 15.6 2.3 17.3 2 19 C1 18.7 0 18.3 -1 18 C-1 17.3 -1 16.7 -1 16 C-0.3 16 0.3 16 1 16 C0.7 14.4 0.3 12.7 0 11 C-4.6 11 -9.2 11 -14 11 C-14.3 12.3 -14.7 13.6 -15 15 C-17.7 15.7 -20.3 16.3 -23 17 C-23.7 17.2 -24.5 17.4 -25.3 17.6 C-25.8 17.7 -26.4 17.9 -27 18 C-26.1 14.4 -25.6 12.5 -22.6 10.1 C-20 9 -20 9 -16 9 C-16 6.7 -16 4.4 -16 2 C-15.3 2.3 -14.7 2.7 -14 3 C-13.4 6.1 -13.4 6.1 -13 9 C-11 8.8 -11 8.8 -1 8 C-0.7 5.4 -0.3 2.7 0 0 Z " fill="#150C10" transform="translate(200,250)"/>
<path d="M0 0 C0.6 0 0.6 0 3.6 0.1 C4.5 0.1 5.4 0.2 6.3 0.2 C6 1.2 5.7 2.2 5.3 3.2 C1 4.5 -2.2 5.2 -6.7 5.2 C-9.7 15.6 -9.7 15.6 -9.7 18.2 C-1.7 18.9 6.3 19.6 14.3 20.2 C14.3 20.5 14.3 20.8 14.3 21.2 C9.9 21.3 5.4 21.4 1 21.4 C-0.3 21.5 -1.5 21.5 -2.8 21.5 C-3.4 21.5 -3.4 21.5 -6.5 21.6 C-7 21.6 -7 21.6 -9.9 21.6 C-12.7 21.2 -12.7 21.2 -14.6 19.4 C-16.1 16.4 -16.1 14.4 -15.7 11.2 C-14.4 9.6 -14.4 9.6 -12.7 8.2 C-12.2 7.4 -11.7 6.5 -11.2 5.7 C-8 0.4 -6.2 -0.2 0 0 Z " fill="#071F52" transform="translate(145.6875,173.8125)"/>
<path d="M0 0 C1.1 1.9 1.1 1.9 2 4 C1.7 4.7 1.3 5.3 1 6 C0.8 11.4 1.2 16.5 2.1 21.8 C2 24 2 24 0.6 25.7 C-1.3 27.2 -2.5 27.8 -5 28 C-6.8 26.6 -6.8 26.6 -8 25 C-7 24.7 -6 24.3 -5 24 C-4.2 21.4 -4.2 21.4 -4 18 C-4.6 17.1 -5.2 16.1 -5.9 15.2 C-8.6 11.1 -8.8 7.8 -9 3 C-8.3 3.7 -7.7 4.3 -7 5 C-6.3 4.7 -5.7 4.3 -5 4 C-4.7 3 -4.3 2 -4 1 C-1.9 0.3 -1.9 0.3 0 0 Z " fill="#873C15" transform="translate(88,103)"/>
<path d="M0 0 C0 -0.7 0 -1.3 0 -2 C6.6 -2 13.2 -2 20 -2 C20.2 -1.7 20.2 -1.7 21 0 C24.1 -0.5 27 -1 30 -2 C31.3 -1.3 32.7 -0.7 34 0 C36.3 0.4 38.7 0.7 41 1 C41.2 1.5 41.2 1.5 42 4 C43 3.3 44 2.7 45 2 C44.3 3.7 43.7 5.3 43 7 C42.3 6.7 41.6 6.4 40.9 6 C37.8 4.9 35.4 4.6 32.2 4.5 C25.1 4 18.1 3.4 11.1 2.7 C9 2.5 7 2.3 4.9 2.1 C3.6 2 2.2 1.8 0.9 1.7 C-0.3 1.6 -1.5 1.5 -2.7 1.4 C-5.8 1 -8.9 0.5 -12 0 C-12 -0.3 -12 -0.7 -12 -1 C-7.3 -2.1 -4.5 -1.8 0 0 Z " fill="#164A9E" transform="translate(153,193)"/>
<path d="M0 0 C0.7 0.7 1.3 1.3 2 2 C1.6 8.8 -2.1 14.5 -7 18.9 C-12.2 23.3 -15.6 24.3 -22.5 24.2 C-23.8 24.3 -25.1 24.3 -26.5 24.3 C-29.7 24 -31.4 23.9 -34 22 C-34.3 21 -34.7 20 -35 19 C-34.1 19.2 -33.1 19.4 -32.1 19.6 C-25.6 20.5 -19 19.7 -13 17 C-12 17 -11 17 -10 17 C-10 16.7 -10 16.7 -9.8 15.2 C-9 13 -9 13 -6.7 11.9 C-2.5 9 -1.6 4.7 0 0 Z " fill="#46D2FA" transform="translate(126,260)"/>
<path d="M0 0 C-2.7 3.1 -4.3 4.8 -8.4 5.9 C-12.7 7.2 -13.8 8.9 -16.5 12.4 C-18 14 -18 14 -21.8 15.1 C-22.3 15.2 -22.3 15.2 -25 16 C-26.3 19 -26.3 19 -27 22 C-27.7 22.7 -28.3 23.3 -29 24 C-28.6 26.1 -28.6 26.1 -28 28 C-29.3 27.7 -30.6 27.3 -32 27 C-31.9 24.9 -31.8 22.8 -31.7 20.7 C-31.6 19.5 -31.6 18.3 -31.5 17.1 C-30.9 13.7 -30.6 13.2 -28 11 C-25.5 9.6 -23 8.3 -20.4 7.1 C-19.7 6.7 -19 6.4 -18.3 6 C-2.9 -1.5 -2.9 -1.5 0 0 Z " fill="#AE7761" transform="translate(239,237)"/>
<path d="M0 0 C1.9 0.3 1.9 0.3 4 1 C4.7 2 5.3 3 6 4 C10.6 6 14.9 6.3 19.8 6.2 C20.2 6.2 20.2 6.2 22.1 6.2 C29.4 6.1 36.6 5.3 43.9 4.3 C46 4 48.1 3.7 50.2 3.5 C60.9 2.1 60.9 2.1 66 1 C65 4 65 4 63.3 5.1 C50.5 10 33.3 9.3 19.8 9.6 C18.8 9.6 17.8 9.6 16.8 9.7 C10.7 9.7 7.2 8.5 2.5 4.6 C1 3 1 3 0 0 Z " fill="#CB713C" transform="translate(135,149)"/>
<path d="M0 0 C0 1 0 2 0 3 C-0.7 3 -1.3 3 -2 3 C-2.3 4.7 -2.7 6.3 -3 8 C-1.8 8.4 -0.6 8.7 0.6 9.1 C7.6 11.7 10.8 17.1 13.9 23.6 C16.1 28.5 17.7 33.6 19.3 38.8 C19.5 39.3 19.5 39.3 20.4 42.2 C20.8 43.2 21.1 44.3 21.5 45.4 C21.8 46.4 22.1 47.4 22.4 48.4 C23 51 22.9 52.5 22 55 C21.7 54.1 21.4 53.2 21.1 52.3 C20.1 49.1 19 45.8 17.9 42.5 C17.5 41.1 17 39.7 16.6 38.3 C15.9 36.2 15.2 34.2 14.6 32.1 C14.4 31.5 14.4 31.5 13.4 28.4 C11.9 24.9 10.3 22 8 19 C7 18.7 6 18.3 5 18 C4.7 17 4.3 16 4 15 C3.1 14.7 2.1 14.4 1.2 14.1 C-2.3 12.9 -3.6 11.8 -6 9 C-6.8 8.2 -7.5 7.3 -8.3 6.4 C-8.9 5.6 -9.4 4.8 -10 4 C-9.7 3 -9.3 2 -9 1 C-5.8 -0.1 -3.3 -0.1 0 0 Z " fill="#6390D0" transform="translate(213,168)"/>
<path d="M0 0 C4.8 0.7 9.3 1.8 14 3 C14.1 4.1 14.2 5.1 14.3 6.2 C15 10 15.8 11.2 18 14 C17.7 15 17.3 16 17 17 C16.5 16.7 16.5 16.7 13.9 15.2 C13.3 14.9 12.7 14.5 12 14.1 C10.7 13.4 9.5 12.7 8.2 11.9 C4.6 9.8 1.1 8.2 -3 7 C-2 4.7 -1 2.4 0 0 Z " fill="#F5A870" transform="translate(135,94)"/>
<path d="M0 0 C2.4 2.5 3.7 5 5 8.2 C5.8 9.8 5.8 9.8 7.8 10.8 C7.8 14.5 7.8 18.1 7.8 21.8 C7.1 21.8 6.5 21.8 5.8 21.8 C4.5 24.8 3.2 27.8 1.8 30.8 C1.1 30.8 0.5 30.8 -0.2 30.8 C0.1 29.9 0.5 29.1 0.8 28.1 C2.7 21.3 3.1 13 0.4 6.3 C-2.3 1.8 -6.4 -0.4 -11.2 -2.2 C-14.3 -2.8 -17.1 -3 -20.2 -3.2 C-20.2 -3.5 -20.2 -3.8 -20.2 -4.2 C-12 -5.7 -6.5 -5.2 0 0 Z " fill="#0799F3" transform="translate(120.20703125,240.171875)"/>
<path d="M0 0 C4 2 5.7 7.2 7.2 11.1 C8 13.9 8.2 16.2 8 19 C7.8 18.8 7.8 18.8 6.6 17.7 C6 17.1 5.3 16.6 4.7 16 C4.1 15.4 3.5 14.9 2.8 14.3 C1 13 1 13 -2 13 C-3 13 -4 13 -5 13 C-9 6.5 -9 6.5 -9 2 C-9.7 1.7 -10.3 1.3 -11 1 C-9.7 1 -8.5 1 -7.2 0.9 C-6.5 0.9 -5.8 0.9 -5 0.9 C-3 1 -3 1 0 2 C0 1.3 0 0.7 0 0 Z " fill="#534B56" transform="translate(138,229)"/>
<path d="M0 0 C1.1 0 2.3 0 3.5 0 C6.4 0.2 6.4 0.2 8.4 1.2 C8.4 2.2 8.4 3.2 8.4 4.2 C10.4 4.2 12.3 4.2 14.4 4.2 C14.4 4.8 14.4 5.5 14.4 6.2 C13.3 6.1 12.2 6.1 11.1 6 C7.2 6.2 6 6.4 3.4 9.2 C2.7 10.8 2 12.5 1.4 14.2 C1 14.4 1 14.4 -0.6 15.2 C-0.3 13.5 0 11.9 0.4 10.2 C-0.3 9.9 -0.9 9.5 -1.6 9.2 C-1.6 8.2 -1.6 7.2 -1.6 6.2 C-3.9 7.5 -6.2 8.8 -8.6 10.2 C-9.3 7.5 -9.9 4.9 -10.6 2.2 C-7.1 -0 -4.1 -0.1 0 0 Z " fill="#843E1A" transform="translate(147.625,22.8125)"/>
<path d="M0 0 C0.7 0.3 1.3 0.7 2 1 C1.3 2 0.6 3 -0.1 4.1 C-1.8 7.1 -2 8.1 -2 11.8 C-1 15 -1 15 0.6 17 C4.1 18.5 6.4 18 10 17 C13.3 14.1 14 10.2 15 6 C15.7 6.3 16.3 6.7 17 7 C17.5 12.7 16.7 15.6 13 20 C10 22.4 6.7 22.4 3 22.3 C-0.9 21.7 -3 19.3 -5.3 16.2 C-6.4 12.8 -6.6 9.5 -6 6 C-4.2 3.2 -3 1.5 0 0 Z " fill="#8F8C9A" transform="translate(178,275)"/>
<path d="M0 0 C0.3 0.2 0.3 0.2 2.1 1 C5.3 2.1 8 2.4 11.3 2.6 C11.8 2.7 11.8 2.7 14.6 2.9 C15.4 2.9 16.2 2.9 17 3 C19.1 9.8 19.1 9.8 18 12 C19.7 12 21.3 12 23 12 C23.3 13 23.7 14 24 15 C22 15 20 15 18 15 C19.8 18.9 19.8 18.9 22 20 C23.9 20.2 25.7 20.4 27.6 20.6 C28.6 20.6 29.6 20.7 30.7 20.8 C31.4 20.9 32.2 20.9 33 21 C33 21.3 33 21.7 33 22 C19.9 22.6 19.9 22.6 15 19 C11.2 15.2 9.4 12.5 9 7 C11 7 13 7 15 7 C15.3 6.3 15.7 5.7 16 5 C15.7 5 15.7 5 14.2 5.1 C9 5.3 5.5 4.9 1 2 C0.7 1.3 0.3 0.7 0 0 Z " fill="#BB541A" transform="translate(59,117)"/>
<path d="M0 0 C0.4 0 0.4 0 2.4 0 C8.1 0.2 13.6 0.8 18.1 4.5 C18.3 5 18.3 5 19.1 7.5 C18.1 7.3 17.1 7.1 16.1 6.8 C14.7 6.6 13.4 6.3 12.1 6 C11.7 5.9 11.7 5.9 10.1 5.6 C-1.2 3.2 -10.1 5.6 -20 11.2 C-21.9 12.5 -23.3 13.8 -24.9 15.5 C-25.5 15.2 -26.2 14.8 -26.9 14.5 C-25.6 13.2 -24.3 11.8 -23.1 10.5 C-22.4 9.8 -21.6 9 -20.9 8.2 C-18.9 6.5 -18.9 6.5 -15.9 6.5 C-15.9 5.8 -15.9 5.2 -15.9 4.5 C-10.4 0.8 -6.5 -0.2 0 0 Z " fill="#4B0909" transform="translate(103.875,209.5)"/>
<path d="M0 0 C5.6 2.9 10.7 7.1 13.2 13.1 C13.7 15.1 13.7 15.1 14.4 18.1 C11.8 16.9 11.7 15.9 10.7 13.4 C8.5 8.9 5.9 6.3 1.4 4.1 C-5.3 2.3 -11.3 3.4 -17.3 6.5 C-19 7.6 -20.7 8.6 -22.4 9.7 C-24.6 11.1 -24.6 11.1 -26.8 12.2 C-29.2 13.4 -30.2 15 -31.6 17.1 C-32 14.5 -32.1 12.7 -30.5 10.5 C-29.3 9 -28 7.5 -26.6 6.1 C-26 6.5 -25.3 6.8 -24.6 7.1 C-23.8 6.5 -23 5.9 -22.1 5.3 C-18.7 3 -15.6 2.1 -11.6 1.1 C-15 1.7 -18.3 2.2 -21.6 3.1 C-16.4 -2.6 -7 -2.3 0 0 Z " fill="#3CC5F6" transform="translate(112.64453125,232.87109375)"/>
<path d="M0 0 C4.4 5.5 4.6 6.8 4.3 13.3 C3.9 16.9 2.4 19.7 1 23 C0.4 27.3 0.2 31.6 0 36 C-1.3 36 -2.6 36 -4 36 C-4.8 33.1 -5.2 30.5 -5.2 27.4 C-5.2 26.7 -5.2 25.9 -5.2 25.1 C-5 23 -5 23 -3 20 C-2.3 20 -1.7 20 -1 20 C-1 19 -1 18 -1 17 C-2.3 16.7 -3.6 16.3 -5 16 C-5 15 -5 14 -5 13 C-3.3 13 -1.7 13 0 13 C0 8.7 0 4.4 0 0 Z " fill="#522D22" transform="translate(172,32)"/>
<path d="M0 0 C9.1 1 15.9 7.1 21.7 14 C23.6 16.9 24.3 19.7 25 23 C25.2 23.4 25.2 23.4 26.1 25.4 C27.4 29.1 27.1 32.2 27 36 C25.1 33.2 24.4 31.3 23.5 28.1 C23.4 27.7 23.4 27.7 22.7 25.4 C22.5 24.6 22.2 23.8 22 23 C21.1 20 21.1 20 20 18 C18.3 17.3 16.7 16.6 15 16 C12.8 14.2 10.7 12.3 9 10 C9 9 9 8 9 7 C8.3 7 7.7 7 7 7 C6.7 6 6.3 5 6 4 C2.9 2.3 2.9 2.3 0 1 C0 0.7 0 0.3 0 0 Z " fill="#F95158" transform="translate(129,210)"/>
<path d="M0 0 C0.7 0.3 1.3 0.7 2 1 C1.3 1.7 0.7 2.3 0 3 C0.2 8.1 2.2 11.5 4.9 15.7 C5.6 16.8 6.3 17.9 7 19.1 C9 22 9 22 12 25 C7.7 25 3.4 25 -1 25 C-1.5 22.6 -2 20.2 -2.5 17.8 C-2.6 17.1 -2.8 16.5 -2.9 15.8 C-3.7 12.1 -4.4 8.7 -4 5 C-2 2.2 -2 2.2 0 0 Z " fill="#521171" transform="translate(129,131)"/>
<path d="M0 0 C0.5 0.3 0.5 0.3 3 2 C5 2 5 2 7.2 1.6 C7.8 1.5 7.8 1.5 11 1 C11 5.6 11 10.2 11 15 C13.3 14.3 15.6 13.7 18 13 C18 13.7 18 14.3 18 15 C16.3 15.4 14.5 15.7 12.8 16.1 C12.3 16.2 12.3 16.2 9.8 16.7 C7 17 7 17 3 16 C2 10.7 1 5.4 0 0 Z " fill="#98A1B8" transform="translate(98,262)"/>
<path d="M0 0 C-1.3 1.7 -2.6 3.3 -4 5 C-3.3 5.6 -2.6 6.2 -1.9 6.8 C-1.3 7.5 -0.7 8.2 0 9 C-0.2 11.2 -0.2 11.2 -1 13 C-1.9 12.8 -2.7 12.7 -3.6 12.5 C-7 12 -7 12 -10.2 12 C-13 12 -13 12 -15 11 C-15 8.7 -15 6.4 -15 4 C-9.8 1 -6.1 -0.5 0 0 Z " fill="#225DB9" transform="translate(154,180)"/>
<path d="M0 0 C0.7 0 1.3 0 2 0 C0.6 3.7 -1.1 7.2 -3 10.8 C-5.6 15.9 -7.2 20.3 -8 26 C-7.7 27 -7.3 28 -7 29 C-8.3 31.4 -8.3 31.4 -10.2 34.1 C-10.8 35 -11.4 35.9 -12 36.8 C-14.1 39.1 -15 39.7 -18 40 C-17 37.5 -16 35 -15 32.5 C-10.3 21 -10.3 21 -9.4 15.3 C-8 9.4 -4 4.5 0 0 Z " fill="#9C4111" transform="translate(102,28)"/>
<path d="M0 0 C1 0.3 2 0.7 3 1 C0.4 14.2 0.4 14.2 -5 18 C-7.3 18.8 -7.3 18.8 -9 19 C-8 17 -7 15 -6 13 C-7.1 11.1 -7.1 11.1 -9 9 C-12.7 8.2 -12.7 8.2 -16 8 C-16.7 6.3 -17.3 4.7 -18 3 C-17.3 3 -16.7 3 -16 3 C-16 3.7 -16 4.3 -16 5 C-11.7 5 -7.4 5 -3 5 C-2.7 3.7 -2.3 2.4 -2 1 C-1.3 0.7 -0.7 0.3 0 0 Z " fill="#AD5D3A" transform="translate(171,76)"/>
<path d="M0 0 C2.5 1.7 2.5 1.7 4 4 C3.8 7.2 3.8 7.2 3 10 C2.5 9.5 2 8.9 1.4 8.4 C-1 7 -1 7 -4.6 7.9 C-5.1 8.1 -5.1 8.1 -8 9 C-9 8.7 -10 8.3 -11 8 C-11.7 5.9 -11.7 5.9 -12 4 C-14 4.7 -16 5.3 -18 6 C-12.6 -0 -8 -2.1 0 0 Z " fill="#F5AB71" transform="translate(211,136)"/>
<path d="M0 0 C1 0 2 0 3 0 C3.3 1.3 3.7 2.6 4 4 C3 4 2 4 1 4 C1.2 4.4 1.2 4.4 2 6.3 C3 9 3 9 3 12 C4 12 5 12 6 12 C5.7 15.3 5.3 18.6 5 22 C4.3 21.3 3.7 20.7 3 20 C2 20 1 20 0 20 C0 19.3 0 18.7 0 18 C-0.7 18 -1.3 18 -2 18 C-2.7 19 -3.3 20 -4 21 C-4.2 18.8 -4.5 16.5 -4.7 14.2 C-4.8 13.6 -4.8 13.6 -5.1 10.5 C-5 7 -5 7 -3.6 4.5 C-2 3 -2 3 0 3 C0 2 0 1 0 0 Z " fill="#251A25" transform="translate(203,237)"/>
<path d="M0 0 C-3.2 7.3 -10.3 11.4 -16.9 15.2 C-19.4 16.1 -20.6 15.9 -23 15 C-15.6 4.3 -15.6 4.3 -9 2 C-8.3 1.6 -7.7 1.3 -7 0.9 C-4.6 -0.2 -2.6 -0.1 0 0 Z " fill="#884220" transform="translate(134,38)"/>
<path d="M0 0 C1 0.7 2 1.3 3 2 C4 1.7 5 1.3 6 1 C5.3 3 4.7 5 4 7 C3.4 6.9 2.9 6.7 2.3 6.6 C1.5 6.4 0.8 6.2 0 6 C-0.8 5.8 -1.7 5.5 -2.6 5.2 C-3.4 5.2 -4.2 5.1 -5 5 C-6.4 6.3 -6.4 6.3 -8 8 C-13.4 10.4 -19.2 10.6 -25 11 C-22.8 7.6 -20.7 6 -17 4.2 C-16.6 4 -16.6 4 -14.4 3 C-12 2 -12 2 -9 2 C-1.3 1.3 -1.3 1.3 0 0 Z " fill="#EA9457" transform="translate(210,142)"/>
<path d="M0 0 C0.7 1.3 1.3 2.6 2 4 C0.7 4 -0.6 4 -2 4 C-1 5 -0 6 1 7 C1.3 6.3 1.7 5.7 2 5 C3.9 6.9 3.2 9.5 3.2 12 C3 14 3 14 1 17 C-1.4 16.6 -1.4 16.6 -4 16 C-5.2 13.6 -5.1 12.1 -5.1 9.4 C-5.1 9 -5.1 9 -5 6.9 C-5 6.3 -5 5.6 -5 5 C-5.5 5.5 -5.9 5.9 -6.4 6.4 C-7 7 -7 7 -10 10 C-9.7 6.6 -9.3 4.4 -7.2 1.6 C-4.6 -0.3 -3.2 -0.4 0 0 Z " fill="#3E1B13" transform="translate(156,55)"/>
<path d="M0 0 C3.1 0.5 5.3 1.1 8.1 2.6 C15.3 5.7 23.1 4.6 30.2 2 C31.8 1.4 33.4 0.7 35 0 C35 3 35 3 33.6 5.1 C29.9 7.8 26.6 8 22.2 8.4 C21.4 8.5 20.6 8.6 19.8 8.7 C14.8 9.2 10.8 8.9 6 7 C3.5 4.8 1.5 3 0 0 Z " fill="#686571" transform="translate(85,281)"/>
<path d="M0 0 C0.7 0 1.3 0 2 0 C2 0.7 2 1.3 2 2 C3 2 4 2 5 2 C5.3 2.8 5.5 3.6 5.8 4.4 C6.2 5.5 6.5 6.6 6.9 7.7 C7 8.2 7 8.2 7.9 10.9 C8.6 12.8 9.3 14.8 10.1 16.7 C11 19 11 19 11 22 C11.7 22 12.3 22 13 22 C13 26.3 13 30.7 13 35 C10 32 10.4 29.2 10 25 C9.3 25 8.7 25 8 25 C4.7 15.6 4.7 15.6 4 11 C3.3 11 2.7 11 2 11 C1.3 7.4 0.7 3.7 0 0 Z " fill="#3F3037" transform="translate(95,148)"/>
<path d="M0 0 C0.4 0.3 0.4 0.3 2.2 2 C7.1 5.4 13.3 4.3 19 4 C16 7.4 13.6 7.7 9 8 C6.6 7.6 6.6 7.6 5 7 C5.7 8.6 6.3 10.3 7 12 C11.9 11.7 16.9 11.3 22 11 C19 14 16 13.9 11.8 14.4 C6.6 13.9 2.3 12 -2 9 C-3.3 6.8 -3.3 6.8 -4 5 C-3 5 -2 5 -1 5 C-0.7 3.4 -0.3 1.7 0 0 Z " fill="#4C373A" transform="translate(173,292)"/>
<path d="M0 0 C-0.4 3.5 -1.2 6.6 -2.4 9.8 C-4.1 14.1 -5.1 18.5 -6 23 C-7 22.7 -8 22.3 -9 22 C-9.3 24 -9.7 26 -10 28 C-10.3 28 -10.7 28 -11 28 C-11.5 20.3 -11.6 9.5 -6.6 3.2 C-2.5 0 -2.5 0 0 0 Z " fill="#6C5D65" transform="translate(75,236)"/>
<path d="M0 0 C1.5 0.1 3 0.2 4.5 0.4 C6.3 0.5 8.1 0.7 9.8 0.8 C10.9 0.9 11.9 0.9 13 1 C17.3 1.2 21.7 1.4 26.1 1.4 C26.9 1.5 27.7 1.5 28.6 1.5 C32 1.6 35.4 1.6 38.7 1.7 C41.1 1.7 43.5 1.8 45.9 1.8 C46.7 1.8 47.4 1.8 48.2 1.9 C51.8 1.9 53.5 2.1 56.6 4.2 C36.8 4.2 17 4.2 -3.4 4.2 C-3.7 6.2 -4 8.2 -4.4 10.2 C-5 9.9 -5.7 9.5 -6.4 9.2 C-6.6 6.4 -6.5 4.6 -5.3 2 C-3.4 0.2 -3.4 0.2 0 0 Z " fill="#9E9093" transform="translate(120.3671875,157.79296875)"/>
<path d="M0 0 C2.4 0.9 2.4 0.9 5.4 2.9 C5 8.3 3.4 10.4 -0.6 13.9 C-0.6 13.3 -0.6 12.6 -0.6 11.9 C-1.3 11.9 -1.9 11.9 -2.6 11.9 C-2.6 12.9 -2.6 13.9 -2.6 14.9 C-3.9 14.6 -5.3 14.3 -6.6 13.9 C-6 13.6 -5.3 13.3 -4.6 12.9 C-4.9 12.4 -5.2 11.8 -5.6 11.2 C-5.9 10.4 -6.3 9.7 -6.6 8.9 C-6.9 8.3 -7.2 7.7 -7.6 7 C-7.6 4.9 -7.6 4.9 -5.5 2.1 C-2.6 -0.1 -2.6 -0.1 0 0 Z " fill="#382A2F" transform="translate(207.625,146.0625)"/>
<path d="M0 0 C2.8 1.4 2.9 3.2 4 6 C4.7 6.3 5.3 6.7 6 7 C6 7.7 6 8.3 6 9 C6.7 9 7.3 9 8 9 C8.3 10.3 8.7 11.6 9 13 C9.7 13 10.3 13 11 13 C11.6 13.8 12.2 14.6 12.9 15.4 C14.9 17.9 16.1 18.9 19 20 C19 20.7 19 21.3 19 22 C20.3 22.3 21.6 22.7 23 23 C23 23.7 23 24.3 23 25 C31.3 26.4 39.6 27.4 48 28 C48 28.3 48 28.7 48 29 C33.6 29.7 22.6 28.6 11 19 C6.5 14.5 2.5 8.9 0 3 C0 2 0 1 0 0 Z " fill="#7A3E2A" transform="translate(66,274)"/>
<path d="M0 0 C0.7 0.1 1.4 0.2 2.2 0.3 C2.8 1.6 3.5 3 4.2 4.3 C2.9 4.6 1.5 5 0.2 5.3 C0.2 6.3 0.2 7.3 0.2 8.3 C2.2 7.7 4.1 7 6.2 6.3 C5.9 7.3 5.5 8.3 5.2 9.3 C5.8 10 6.5 10.6 7.2 11.3 C6.5 11.3 5.9 11.3 5.2 11.3 C5.2 12 5.2 12.6 5.2 13.3 C1.2 15.1 -2.4 16.6 -6.8 17.3 C-2.1 13.4 -2.1 13.4 0.2 12.3 C-1.8 12.3 -3.8 12.3 -5.8 12.3 C-5.2 11.3 -4.5 10.3 -3.8 9.3 C-5.1 8 -6.5 6.7 -7.8 5.3 C-3.5 0.4 -3.5 0.4 0 0 Z " fill="#CEC0C4" transform="translate(240.8125,236.6875)"/>
<path d="M0 0 C2.8 2.1 3 3.1 3.7 6.7 C3.8 7.8 3.9 8.9 4 10 C3.3 10 2.7 10 2 10 C2 9.3 2 8.7 2 8 C1.3 8 0.7 8 0 8 C0.3 9.3 0.7 10.5 1 11.8 C1.7 14.4 2 16.3 2 19 C2.7 19 3.3 19 4 19 C4.7 20.6 5.3 22.2 6 23.8 C6.4 24.6 6.7 25.5 7.1 26.4 C8 29 8 29 8 33 C8.7 33 9.3 33 10 33 C10.7 36 11.3 38.9 12 42 C9 41 9 41 8 39.3 C5.4 33.3 3.2 27.2 1.2 20.9 C0.9 20 0.6 19.1 0.3 18.1 C-1.5 12.5 -2.6 7.8 -2 2 C-1.3 1.3 -0.7 0.7 0 0 Z " fill="#87503D" transform="translate(95,140)"/>
<path d="M0 0 C0.7 0 1.3 0 2 0 C1.7 1.7 1.3 3.3 1 5 C1.7 5.2 2.4 5.5 3.2 5.8 C7.6 7.7 10.3 9.9 12.9 14 C14 17 14.2 18.1 13 21 C12.2 20.7 12.2 20.7 8 19 C8 18 8 17 8 16 C7 16 6 16 5 16 C1.9 13.7 0.4 10.6 -1 7 C-0.7 3.1 -0.7 3.1 0 0 Z " fill="#E04C42" transform="translate(188,218)"/>
<path d="M0 0 C0.8 0.3 1.6 0.7 2.4 1 C6.7 2.2 10.6 2.2 15 2 C15 2.7 15 3.3 15 4 C16.3 4.3 17.6 4.7 19 5 C18.1 5.1 17.1 5.2 16.1 5.3 C13 6 13 6 11 9 C8 9.1 5.3 9 2.4 8.7 C1.6 8.6 0.8 8.6 -0.1 8.5 C-2 8.3 -4 8.2 -6 8 C-6 6.7 -6 5.4 -6 4 C-5.3 4.2 -5.3 4.2 -2 5 C-1.3 3.3 -0.7 1.7 0 0 Z " fill="#F8C599" transform="translate(153,139)"/>
<path d="M0 0 C1 3 1 3 -0.5 6.2 C-6.4 15.7 -14.3 22.5 -25 26 C-27.9 26.2 -27.9 26.2 -30.8 26.1 C-31.3 26.1 -31.3 26.1 -33.8 26.1 C-34.5 26 -35.2 26 -36 26 C-36 25.7 -36 25.3 -36 25 C-35.2 24.9 -34.5 24.8 -33.7 24.7 C-26.8 23.8 -21.3 22.6 -16 18 C-15.7 17.3 -15.3 16.7 -15 16 C-13.7 15.3 -12.3 14.7 -11 14 C-9.2 12.5 -8.1 11.3 -7.1 9.1 C-5.9 6.9 -4.6 5.2 -2.9 3.2 C-2.3 2.6 -1.8 2 -1.2 1.4 C-0.8 0.9 -0.4 0.5 0 0 Z " fill="#4C2B2B" transform="translate(143,276)"/>
<path d="M0 0 C2.2 2.5 4.1 5.2 6 8 C5.7 8.2 5.7 8.2 4 9 C3.3 8.7 2.7 8.3 2 8 C0 8 -2 8 -4 8 C-4.3 9 -4.7 10 -5 11 C-8 8.4 -10.9 5.7 -14 3 C-13.7 2.3 -13.3 1.7 -13 1 C-3.9 -1.9 -3.9 -1.9 0 0 Z " fill="#635D6B" transform="translate(133,223)"/>
<path d="M0 0 C4.5 3 6.2 5.9 8 11 C8 12 8 13 8 14 C13.8 11.4 13.8 11.4 16 8 C16.7 8 17.3 8 18 8 C17.8 10.8 17.8 10.8 17 14 C13.7 16.7 11.2 17.4 7 17 C6.9 17.5 6.9 17.5 6.7 20.3 C6 24.1 5.7 24.7 3 27 C3 26.3 3 25.7 3 25 C3.1 22.1 3.1 19.1 3.2 16.2 C3.2 15.2 3.2 14.1 3.3 13.1 C3.3 12.1 3.3 11.1 3.3 10.1 C3.3 9.2 3.3 8.3 3.3 7.4 C2.9 4.5 2.1 3.8 0 2 C0 1.3 0 0.7 0 0 Z " fill="#5F4342" transform="translate(200,269)"/>
<path d="M0 0 C0.7 0.3 1.3 0.7 2 1 C1.4 1.6 0.7 2.2 0.1 2.8 C-3.5 6.6 -3.1 10 -3.1 14.9 C-3.1 16.2 -3.1 17.4 -3.1 18.7 C-3 21.3 -2.8 23.5 -2 26 C-3.3 26.3 -4.6 26.7 -6 27 C-9.4 20.8 -9.3 15.9 -8 9 C-6.6 5.1 -5.7 3.5 -2.4 1.1 C-1.6 0.7 -0.8 0.4 0 0 Z " fill="#0693F3" transform="translate(89,242)"/>
<path d="M0 0 C0.7 0 1.3 0 2 0 C6.3 12.2 10.6 24.4 15 37 C13.7 38.3 12.4 39.6 11 41 C9.6 36.9 10.4 34.2 11 30 C10.3 30 9.7 30 9 30 C6.8 24.2 4.8 18.4 2.9 12.4 C2 10 2 10 1 9 C0.8 7.5 0.6 6 0.4 4.4 C0.4 3.6 0.3 2.8 0.2 1.9 C0.1 1.3 0.1 0.7 0 0 Z " fill="#1A1115" transform="translate(97,140)"/>
<path d="M0 0 C1.7 0 3.3 0 5 0 C4.7 1 4.3 2 4 3 C10.3 3.3 16.5 3.7 23 4 C22.3 5.7 21.7 7.3 21 9 C16.6 10.5 12.6 11.1 8 10 C4.8 7.4 2.3 4.4 0 1 C0 0.7 0 0.3 0 0 Z " fill="#1B0B10" transform="translate(144,217)"/>
<path d="M0 0 C0 3.6 -0.9 5.1 -3 8 C-5.8 8.9 -7.5 9.1 -10.4 9.1 C-11.3 9.1 -12.1 9.1 -13 9.1 C-13.9 9.1 -14.8 9.1 -15.7 9.1 C-16.6 9.1 -17.5 9.1 -18.4 9 C-20.6 9 -22.8 9 -25 9 C-24.7 8 -24.3 7 -24 6 C-21.2 4.6 -18.5 4.5 -15.4 4.1 C-9.8 3.4 -5.1 2.3 0 0 Z " fill="#E9E4E7" transform="translate(252,257)"/>
<path d="M0 0 C5.5 0.6 9.5 1.3 13.2 5.5 C15.5 9.9 16.2 14.1 16 19 C15 21.3 15 21.3 14 23 C14 22.4 13.9 21.8 13.9 21.2 C13.2 12.4 13.2 12.4 10 9 C8.9 8.9 7.7 8.8 6.6 8.6 C3 8 3 8 1.7 6.4 C0.7 4.6 -0.2 2.8 -1 1 C-0.7 0.7 -0.3 0.3 0 0 Z " fill="#A85B2D" transform="translate(162,23)"/>
<path d="M0 0 C1 0.3 2 0.7 3 1 C-5.1 5.3 -13 6.2 -22 7 C-22.3 8 -22.7 9 -23 10 C-28.3 9.7 -33.6 9.3 -39 9 C-39.3 8 -39.7 7 -40 6 C-40.7 5.3 -41.3 4.7 -42 4 C-40.7 4 -39.4 4 -38 4 C-38 4.7 -38 5.3 -38 6 C-36.3 5.3 -34.7 4.7 -33 4 C-32.7 4.7 -32.3 5.3 -32 6 C-28.9 6.6 -28.9 6.6 -26 7 C-25.7 6.3 -25.3 5.7 -25 5 C-22.4 4.4 -22.4 4.4 -19.1 4 C-3.7 1.9 -3.7 1.9 0 0 Z " fill="#DAD2D8" transform="translate(250,256)"/>
<path d="M0 0 C-2 3 -2 3 -5 4 C-6.3 6 -6.3 6 -7.5 8.4 C-11 15.3 -11 15.3 -15.1 16.8 C-17 17 -17 17 -19 16 C-19.3 17 -19.7 18 -20 19 C-21.5 16 -21.1 13.3 -21 10 C-18.7 10.3 -16.4 10.7 -14 11 C-13.6 10.3 -13.2 9.6 -12.8 8.9 C-12.5 8.4 -12.5 8.4 -11 6 C-10.4 4.9 -9.7 3.9 -9.1 2.8 C-7 0 -7 0 -4.9 -0.9 C-3 -1 -3 -1 0 0 Z " fill="#DC7B3C" transform="translate(76,95)"/>
<path d="M0 0 C3 0 3 0 5.4 2.2 C6.3 3.1 7.1 4 8 5 C8.8 5.8 9.5 6.6 10.3 7.4 C12.4 10.6 12.5 12.3 12 16 C11.3 16.7 10.7 17.3 10 18 C8.3 16.4 6.7 14.7 5 13 C4.7 13.5 4.7 13.5 3 16 C2.5 13.9 2 11.8 1.5 9.7 C1.4 9.1 1.4 9.1 0.7 6.1 C0 3 0 3 0 0 Z " fill="#45404B" transform="translate(134,240)"/>
<path d="M0 0 C3.8 0.7 7.4 1.7 11 3 C11 3.7 11 4.3 11 5 C12.2 5.5 12.2 5.5 18 8 C17.7 9.7 17.3 11.3 17 13 C11.7 11.4 6.9 9.5 2 7 C-0.9 6.3 -0.9 6.3 -3 6 C-1.7 5.7 -0.4 5.3 1 5 C1.3 3.7 1.7 2.4 2 1 C1.3 0.7 0.7 0.3 0 0 Z " fill="#ED181B" transform="translate(119,206)"/>
<path d="M0 0 C0.5 0.2 0.5 0.2 2.8 1 C3.8 1.3 4.7 1.6 5.7 1.9 C8.5 3.3 9.6 4.6 11.2 7.2 C8.8 8.9 8.8 8.9 5.2 10.2 C1.9 9.4 -1 8.1 -3.8 6.2 C-5.1 4 -5.1 4 -5.8 2.2 C-6.4 2.2 -7.1 2.2 -7.8 2.2 C-8.4 2.2 -9.1 2.2 -9.8 2.2 C-9.8 1.2 -9.8 0.2 -9.8 -0.8 C-6.5 -2.5 -3.4 -1 0 0 Z " fill="#F4EFEF" transform="translate(250.7890625,242.83203125)"/>
<path d="M0 0 C1 0.3 2 0.7 3 1 C1.7 2.5 0.4 3.9 -0.9 5.4 C-2 7 -2 7 -2 10 C-1 10.3 -0 10.7 1 11 C0.5 11.6 0 12.2 -0.5 12.8 C-2.7 17.5 -2.2 21.9 -2 27 C-5.3 24.8 -5.6 24.3 -6.7 20.8 C-6.9 20 -7.2 19.3 -7.4 18.5 C-8.4 14 -8.7 11.2 -6.2 7.2 C-5.5 6.4 -4.8 5.5 -4 4.6 C-3.3 3.8 -2.5 2.9 -1.8 2 C-1.2 1.3 -0.6 0.7 0 0 Z " fill="#92380B" transform="translate(65,78)"/>
<path d="M0 0 C9.2 0 18.5 0 28 0 C28.3 0.7 28.7 1.3 29 2 C25.7 2.3 22.4 2.7 19 3 C19 3.7 19 4.3 19 5 C14.1 5 9.1 5 4 5 C4 4.3 4 3.7 4 3 C2.7 2.7 1.4 2.3 0 2 C0 1.3 0 0.7 0 0 Z " fill="#504954" transform="translate(144,215)"/>
<path d="M0 0 C0.3 0.7 0.7 1.3 1 2 C1.7 2 2.3 2 3 2 C1.7 6.7 -0.2 10 -3.1 13.9 C-3.8 14.8 -4.6 15.8 -5.3 16.8 C-5.9 17.5 -6.4 18.3 -7 19 C-8.3 18.7 -9.6 18.3 -11 18 C-10 16.7 -9 15.4 -8 14 C-8.7 13.7 -9.3 13.3 -10 13 C-9 11.3 -8 9.7 -7 8 C-7.7 7.7 -8.3 7.3 -9 7 C-8.3 6.6 -7.5 6.2 -6.8 5.8 C-4.1 4.1 -2.1 2.3 0 0 Z " fill="#6E3012" transform="translate(87,83)"/>
<path d="M0 0 C1.9 1.5 1.9 1.5 2.8 5.1 C2.8 6.2 2.9 7.3 2.9 8.5 C1.1 10.3 -1.7 10.2 -4.1 10.6 C-5.2 10.7 -6.3 10.9 -7.5 11.1 C-8.3 11.2 -9.2 11.4 -10.1 11.5 C-10.4 10.5 -10.7 9.5 -11.1 8.5 C-9.7 6.5 -9.7 6.5 -7.8 4.4 C-7.1 3.7 -6.5 3 -5.8 2.2 C-2.9 -0.7 -2.9 -0.7 0 0 Z " fill="#EAB48B" transform="translate(134.0625,26.5)"/>
<path d="M0 0 C11.3 -0.3 22.1 -0.3 33 3 C33.7 3.7 34.3 4.3 35 5 C28 8.5 13.7 4.1 6 3 C6 2.7 6 2.3 6 2 C5 1.8 5 1.8 0 1 C0 0.7 0 0.3 0 0 Z " fill="#625F6C" transform="translate(149,197)"/>
<path d="M0 0 C0.7 2.7 1.3 5.3 2 8 C3 8.2 3 8.2 8 9 C8.2 8.4 8.5 7.7 8.8 7.1 C10 5 10 5 12.1 4.2 C12.7 4.2 13.4 4.1 14 4 C14.3 6.8 14.3 6.8 14 10 C11.9 12.4 11.9 12.4 9 14 C4.7 14.1 2.8 13.6 -0.5 10.9 C-2.4 7.1 -2 5 -1 1 C-0.7 0.7 -0.3 0.3 0 0 Z " fill="#262028" transform="translate(177,280)"/>
<path d="M0 0 C0.7 0.3 1.3 0.7 2 1 C2 1.7 2 2.3 2 3 C4.3 3 6.6 3 9 3 C9.2 4.7 9.3 6.5 9.5 8.2 C9.6 9.2 9.7 10.1 9.8 11.1 C10 13.8 10 16.3 10 19 C7.5 15.9 5.8 12.6 4 9 C1.5 6.5 0.3 6.6 -3.1 6.4 C-4 6.3 -4.9 6.2 -5.9 6.1 C-6.6 6.1 -7.3 6.1 -8 6 C-8 5.7 -8 5.3 -8 5 C-6.9 4.7 -5.7 4.5 -4.6 4.2 C-3.4 3.8 -2.2 3.4 -1 3 C-0.7 2 -0.3 1 0 0 Z " fill="#340C02" transform="translate(163,28)"/>
<path d="M0 0 C1 0 2 0 3 0 C3 1 3 2 3 3 C3.4 2.5 3.8 2 4.2 1.5 C6 0 6 0 10 0 C10 1 10 2 10 3 C10.7 3.3 11.3 3.7 12 4 C9.7 5.7 7.4 7.3 5 9 C5 7.3 5 5.7 5 4 C4.5 4.4 4.5 4.4 2.1 6.5 C-0.8 9 -0.8 9 -3 9 C-3.3 12 -3.7 14.9 -4 18 C-4.3 18 -4.7 18 -5 18 C-5.6 11.4 -5.1 7 -1.4 1.4 C-1.2 1.2 -1.2 1.2 0 0 Z " fill="#CC6E34" transform="translate(94,66)"/>
<path d="M0 0 C3.6 0 7.3 0 11 0 C11 0.3 11 0.7 11 1 C9.3 1.3 7.7 1.7 6 2 C5.7 7 5.9 9.2 9 13 C9 14.7 9 16.3 9 18 C14.3 18.7 19.6 19.3 25 20 C25 20.3 25 20.7 25 21 C18.6 21.1 12.4 20.8 6 20 C5.8 19.1 5.6 18.2 5.4 17.3 C5.2 16.2 4.9 15 4.7 13.8 C4.4 12.7 4.2 11.5 3.9 10.3 C3 7.1 1.8 4.8 0 2 C0 1.3 0 0.7 0 0 Z " fill="#8A0202" transform="translate(152,227)"/>
<path d="M0 0 C0.6 0.1 1.1 0.1 1.7 0.2 C10.6 1.2 19.5 1.3 28.5 1.5 C36.2 1.7 42.7 2.6 50 5 C49.3 6.3 48.7 7.6 48 9 C47 8.3 46 7.7 45 7 C42.3 6.9 42.3 6.9 40 7 C40 6.3 40 5.7 40 5 C36.6 3.9 33.8 3.8 30.1 3.7 C29.5 3.7 28.8 3.6 28.1 3.6 C26 3.6 23.9 3.5 21.8 3.4 C20.4 3.4 18.9 3.4 17.5 3.3 C14 3.2 10.5 3.1 7 3 C6.7 3.7 6.3 4.3 6 5 C4 3.7 2 2.4 0 1 C0 0.7 0 0.3 0 0 Z " fill="#140507" transform="translate(137,212)"/>
<path d="M0 0 C1 0.3 2 0.7 3 1 C-0.4 9.2 -4.8 12.7 -12.6 16.2 C-16.9 18.2 -19.4 20 -22 24 C-22.8 26.8 -22.8 26.8 -23 29 C-23.3 29 -23.7 29 -24 29 C-24.5 21.8 -24.5 21.8 -22.4 18.4 C-19.5 15.5 -16.9 14.5 -13.1 13.1 C-7.1 10.8 -3.9 8.8 -1 3 C-0.7 2 -0.3 1 0 0 Z " fill="#64280B" transform="translate(112,88)"/>
<path d="M0 0 C-0.3 2 -0.7 4 -1 6 C-0 6.3 1 6.7 2 7 C-3.6 11 -3.6 11 -7 11 C-7 10 -7 9 -7 8 C-9 8.3 -11 8.7 -13 9 C-11.1 3.2 -5.8 0 0 0 Z " fill="#F1BD94" transform="translate(111,58)"/>
<path d="M0 0 C0 3 0 3 -1.4 4.5 C-2 5 -2.6 5.5 -3.2 6.1 C-3.8 6.6 -4.4 7.1 -5 7.6 C-10.9 11.7 -17 11.6 -24 11 C-26.4 10.2 -27.9 9.4 -30 8 C-28 7 -28 7 -26 7.5 C-19.8 8.5 -13.7 7.6 -8 5 C-7 5 -6 5 -5 5 C-5 4.3 -5 3.7 -5 3 C-2.5 1.4 -2.5 1.4 0 0 Z " fill="#9DF0FB" transform="translate(121,272)"/>
<path d="M0 0 C4.9 0 8.8 0.5 13.4 2.2 C13.4 2.8 13.4 3.5 13.4 4.2 C14 4.5 14.7 4.8 15.4 5.2 C8.8 4.5 2.2 3.9 -4.6 3.2 C-3.3 7.1 -2 11.1 -0.6 15.2 C-1.3 15.8 -1.9 16.5 -2.6 17.2 C-2.8 16.7 -2.8 16.7 -3.5 14.4 C-4.6 11.2 -4.6 11.2 -6.6 8.2 C-6.8 4.6 -6.8 4.6 -6.6 1.2 C-4.9 -0.6 -2.4 0 0 0 Z " fill="#CD0406" transform="translate(163.625,227.8125)"/>
<path d="M0 0 C1 1 2 2 3 3 C3 4 3 5 3 6 C4 6.3 5 6.7 6 7 C6 7.7 6 8.3 6 9 C7 9 8 9 9 9 C9.3 10 9.7 11 10 12 C11.9 12.8 11.9 12.8 14 13 C14.7 12.7 15.3 12.3 16 12 C16 15 16 15 14.1 17.2 C12 19 12 19 10 19 C9.4 18.1 8.9 17.2 8.3 16.2 C5.5 12.3 3.3 11.1 -1 9 C-0.7 6 -0.3 3.1 0 0 Z " fill="#8D0605" transform="translate(187,225)"/>
<path d="M0 0 C2 3 2 3 3 6 C1.9 8.5 0.5 10.7 -1 13 C-2.1 12.8 -3.1 12.6 -4.2 12.4 C-8 12 -9.7 12.3 -13 14 C-8.8 8.3 -8.8 8.3 -5 7 C-3.7 7 -2.4 7 -1 7 C-1 6.3 -1 5.7 -1 5 C-2.7 4.7 -4.3 4.3 -6 4 C-2.2 0 -2.2 0 0 0 Z " fill="#AB633E" transform="translate(146,29)"/>
<path d="M0 0 C0.5 0.2 1.1 0.4 1.6 0.6 C7.6 2.8 13.2 3.7 19.6 4.2 C20.5 4.3 21.4 4.4 22.3 4.4 C24.6 4.6 26.8 4.8 29 5 C29 10.9 29 16.9 29 23 C28 23 27 23 26 23 C26.7 21 27.3 19 28 17 C27.3 17 26.7 17 26 17 C26 13.4 26 9.7 26 6 C25.5 6 25.5 6 23.1 6.1 C15.1 6.3 8.5 6 1 3 C0.7 3.7 0.3 4.3 0 5 C0 3.3 0 1.7 0 0 Z " fill="#853D18" transform="translate(134,91)"/>
<path d="M0 0 C3 1.7 4 2.5 5.1 5.8 C4.2 5.6 4.2 5.6 0.1 4.8 C0.1 3.8 0.1 2.8 0.1 1.8 C-2.4 1.7 -4.8 1.7 -7.2 1.7 C-7.9 1.7 -8.6 1.7 -9.3 1.7 C-12.7 1.6 -15.5 1.9 -18.9 2.8 C-17.9 5.7 -17 8.7 -15.9 11.8 C-17.3 11.8 -18.6 11.8 -19.9 11.8 C-19.9 9.8 -19.9 7.8 -19.9 5.8 C-20.9 5.4 -21.9 5.1 -22.9 4.8 C-22.9 4.1 -22.9 3.4 -22.9 2.8 C-15.2 -0.9 -8.3 -3.1 0 0 Z " fill="#C06F3E" transform="translate(155.9375,22.25)"/>
<path d="M0 0 C0.2 0.5 0.2 0.5 1 3 C2 2.3 3 1.7 4 1 C3.3 2.7 2.7 4.3 2 6 C1.3 5.7 0.6 5.4 -0.1 5 C-3.1 4 -5.5 3.7 -8.7 3.5 C-14.4 3.1 -20.1 2.6 -25.8 1.9 C-26.6 1.8 -27.4 1.8 -28.3 1.7 C-30.2 1.4 -32.1 1.2 -34 1 C-34 0.7 -34 0.3 -34 0 C-33.3 0 -32.6 0 -31.8 0 C-28.6 0 -25.4 0 -22.2 0.1 C-21.1 0.1 -19.9 0.1 -18.8 0.1 C-17.7 0.1 -16.6 0.1 -15.5 0.1 C-14.6 0.1 -13.6 0.1 -12.5 0.1 C-2.1 -0.4 -2.1 -0.4 0 0 Z " fill="#0C347A" transform="translate(194,194)"/>
<path d="M0 0 C2.5 0.2 2.5 0.2 4.5 2.2 C4.8 5.2 4.8 5.2 4.5 8.2 C2.5 10.2 2.5 10.2 0 10.5 C-2.5 10.2 -2.5 10.2 -4.5 8.2 C-4.8 5.2 -4.8 5.2 -4.5 2.2 C-2.5 0.2 -2.5 0.2 0 0 Z " fill="#887E88" transform="translate(111.5,189.75)"/>
<path d="M0 0 C0.7 0.3 1.3 0.7 2 1 C-2.7 6.4 -7.3 11.6 -13 16 C-13.6 16.6 -14.2 17.2 -14.8 17.8 C-16 19 -16 19 -18 19 C-18.7 21 -19.3 23 -20 25 C-20.8 22.7 -21.1 21.3 -20.4 18.9 C-17.6 13.3 -17.6 13.3 -14.6 11.8 C-13.7 11.5 -12.9 11.3 -12 11 C-10.3 9.4 -8.6 7.7 -7 6 C-4.7 4 -2.4 2 0 0 Z " fill="#E78A48" transform="translate(117,22)"/>
<path d="M0 0 C1 2 1 2 0.4 4.4 C-1.4 7.7 -3.1 8.6 -6.4 10.4 C-6.9 10.6 -6.9 10.6 -9.3 12 C-12.1 13.1 -13.2 13.1 -16 12 C-14.6 7.4 -14.6 7.4 -11.8 5.7 C-10.9 5.5 -10 5.2 -9.1 4.9 C-5.6 3.7 -2.9 2.4 0 0 Z " fill="#553534" transform="translate(264,261)"/>
<path d="M0 0 C8.9 2.4 13.3 6.7 17.8 14.5 C19.8 18.7 20.2 22.6 20.2 27.2 C20.2 28 20.2 28.9 20.2 29.8 C20 32 20 32 18 34 C18 33.1 18 32.2 18 31.3 C17.6 22.5 16.6 15.1 10.5 8.4 C7.4 5.6 3.8 3.7 0 2 C0 1.3 0 0.7 0 0 Z " fill="#999DB2" transform="translate(110,231)"/>
<path d="M0 0 C6.5 -0.1 12.8 0.3 19.3 0.9 C22 1 22 1 24 0 C24 1 24 2 24 3 C24.7 3 25.3 3 26 3 C25.7 7.9 25.3 12.9 25 18 C24.3 18 23.7 18 23 18 C23 13.7 23 9.4 23 5 C21.7 4.9 20.4 4.8 19 4.6 C14.5 4.1 10.4 3.1 6 2 C4 1.6 2 1.3 0 1 C0 0.7 0 0.3 0 0 Z " fill="#0C142E" transform="translate(169,196)"/>
<path d="M0 0 C0.3 1.3 0.7 2.6 1 4 C-3.7 7.7 -7 8.6 -13 9 C-11.6 4.6 -9.8 2.6 -6 0 C-3.5 -1.2 -2.6 -0.8 0 0 Z " fill="#E9A573" transform="translate(95,93)"/>
<path d="M0 0 C1 0.7 2 1.3 3 2 C2.4 2.7 1.8 3.3 1.2 4 C-6 12 -6 12 -8.9 15.6 C-9.6 16.4 -10.3 17.2 -11 18 C-11.7 18 -12.3 18 -13 18 C-13 20.3 -13 22.6 -13 25 C-13.3 25 -13.7 25 -14 25 C-14.5 17.2 -12.6 14 -7.4 8 C-6.5 7.1 -5.7 6.1 -4.8 5.1 C-3.9 4.2 -3 3.2 -2 2.2 C-1.4 1.5 -0.7 0.7 0 0 Z " fill="#AF806B" transform="translate(116,173)"/>
<path d="M0 0 C3.1 1.7 5.6 3.4 8 6 C7.3 8 6.7 10 6 12 C5 11.8 5 11.8 0 11 C-2.2 4.6 -2.2 4.6 -1.1 1.6 C-0.8 1 -0.4 0.5 0 0 Z " fill="#6B6570" transform="translate(179,278)"/>
<path d="M0 0 C0.4 -0 0.4 -0 2.2 -0 C14 0 14 0 18.6 3.1 C18.6 3.8 18.6 4.4 18.6 5.1 C8.1 5.5 8.1 5.5 3.6 3.1 C3.6 2.8 3.6 2.5 3.6 2.1 C-2.8 2 -9 2.3 -15.4 3.1 C-11.3 -0.9 -5.4 -0 0 0 Z " fill="#F87271" transform="translate(98.375,203.875)"/>
<path d="M0 0 C4.8 0.7 9.3 1.8 14 3 C14.3 5.6 14.7 8.3 15 11 C12.8 10 11.2 9.3 9.7 7.4 C7 5.2 4.4 5.2 1 5 C-1.4 5.9 -1.4 5.9 -3 7 C-2 4.7 -1 2.4 0 0 Z " fill="#CC723C" transform="translate(135,94)"/>
<path d="M0 0 C0.7 0.3 1.3 0.7 2 1 C-0.6 5.5 -2.2 7.2 -7 9 C-8.6 9.8 -10.1 10.7 -11.7 11.6 C-16.8 14.2 -21.3 14.9 -27 15 C-27.7 14 -28.3 13 -29 12 C-28.7 11.3 -28.3 10.7 -28 10 C-27.3 10 -26.7 10 -26 10 C-26 10.7 -26 11.3 -26 12 C-15.4 10.3 -7.5 7.8 0 0 Z " fill="#7D3816" transform="translate(141,55)"/>
<path d="M0 0 C6.6 0.5 11.9 2.3 18 5 C13.1 8.2 13.1 8.2 11 9 C7.5 8.1 5.4 6.7 3 4 C2.4 3.5 1.9 2.9 1.3 2.4 C0 1 0 1 0 0 Z " fill="#FA8E96" transform="translate(170,234)"/>
<path d="M0 0 C0.8 0 1.7 0 2.5 0.1 C4.5 0.1 6.5 0.2 8.6 0.2 C8.6 0.6 8.6 0.9 8.6 1.2 C3 1.2 -2.7 1.2 -8.4 1.2 C-8.8 2.6 -9.1 3.9 -9.4 5.2 C-12.3 7.1 -12.3 7.1 -15.8 8.8 C-23 12.4 -23 12.4 -25.4 15.2 C-26.1 14.9 -26.8 14.6 -27.4 14.2 C-26.2 12.9 -24.9 11.6 -23.6 10.2 C-22.9 9.5 -22.2 8.8 -21.5 8 C-19.4 6.2 -19.4 6.2 -16.4 6.2 C-16.4 5.6 -16.4 4.9 -16.4 4.2 C-10.8 0.4 -6.8 -0.3 0 0 Z " fill="#7E1817" transform="translate(104.4375,209.75)"/>
<path d="M0 0 C1 0.3 2 0.7 3 1 C2.4 1.6 1.8 2.2 1.2 2.8 C-1.9 6 -3.8 8.4 -5.3 12.6 C-7 16 -7 16 -10.2 17.4 C-11.1 17.6 -12 17.8 -13 18 C-12.3 16 -11.7 14 -11 12 C-10.7 11.1 -10.4 10.1 -10.1 9.2 C-9.7 8.5 -9.4 7.7 -9 7 C-8 6.7 -7 6.3 -6 6 C-4.3 4.4 -2.6 2.7 -1 1 C-0.7 0.7 -0.3 0.3 0 0 Z " fill="#8A411B" transform="translate(93,64)"/>
<path d="M0 0 C-0.3 0.2 -0.3 0.2 -2 1 C-2.6 3.1 -2.6 3.1 -3 5 C-3.7 5 -4.3 5 -5 5 C-5 5.7 -5 6.3 -5 7 C-8.8 8.8 -11.8 9.2 -16 9 C-12.8 2.2 -7.4 -0.7 0 0 Z " fill="#EFB285" transform="translate(80,75)"/>
<path d="M0 0 C-0.2 1.8 -0.2 1.8 -1 4 C-2.9 5.4 -2.9 5.4 -5.2 6.7 C-6 7.1 -6.8 7.5 -7.6 7.9 C-11.6 9.7 -15.4 10.1 -19.8 10.1 C-20.6 10.1 -21.4 10 -22.2 10 C-22.8 10 -23.4 10 -24 10 C-21.6 7.6 -20 7.4 -16.7 6.6 C-12.6 5.5 -9.5 4.4 -6 2 C-2.3 0 -2.3 0 0 0 Z " fill="#433A43" transform="translate(263,258)"/>
<path d="M0 0 C1 0.7 2 1.3 3 2 C3 2.7 3 3.3 3 4 C4 4 5 4 6 4 C8.4 7.6 8.2 9.7 8 14 C10.6 14.3 13.3 14.7 16 15 C16 15.3 16 15.7 16 16 C13.4 16 10.7 16 8 16 C6.8 13.9 6.8 13.9 1 3 C-3.8 2.9 -8.2 3 -13 4 C-8.7 0.6 -5.5 -0.3 0 0 Z " fill="#5F1E6F" transform="translate(147,125)"/>
<path d="M0 0 C4.5 5.7 4.5 5.7 4.4 10.6 C4.4 11.5 4.3 12.4 4.3 13.4 C4 16 3.3 17.7 2 20 C1.3 20 0.7 20 0 20 C-0.3 19 -0.7 18 -1 17 C-3.1 16.3 -3.1 16.3 -5 16 C-5 15 -5 14 -5 13 C-3.3 13 -1.7 13 0 13 C0 8.7 0 4.4 0 0 Z " fill="#6A290C" transform="translate(172,32)"/>
<path d="M0 0 C0.7 0.3 1.3 0.7 2 1 C2.5 6.7 1.7 9.6 -2 14 C-5.2 16.4 -8.1 16.2 -12 16 C-12 15 -12 14 -12 13 C-11.5 12.9 -11.5 12.9 -8.7 12.2 C-4.8 10.9 -3.8 10.5 -2 7 C-1.3 4.7 -0.6 2.4 0 0 Z " fill="#9895A3" transform="translate(193,281)"/>
<path d="M0 0 C2.1 0.1 4.2 0.2 6.3 0.4 C7.5 0.4 8.7 0.5 9.9 0.6 C13 1 13 1 16 3 C15.1 3.1 14.2 3.2 13.2 3.2 C9.6 4.1 8.4 5.2 6 8 C5.7 7.3 5.3 6.7 5 6 C2.6 5.2 2.6 5.2 0 5 C-1 5.7 -2 6.3 -3 7 C-3 6.3 -3 5.7 -3 5 C-3.7 4.3 -4.3 3.7 -5 3 C-3.3 2.3 -1.7 1.7 0 1 C0 0.7 0 0.3 0 0 Z " fill="#78727F" transform="translate(101,213)"/>
<path d="M0 0 C-0.7 0.3 -0.7 0.3 -4 2 C-3.7 3.7 -3.3 5.3 -3 7 C-6.5 9.3 -7.9 9.3 -12 9 C-12.7 8.7 -13.3 8.3 -14 8 C-12.6 4.6 -11.1 3 -8 1 C-5.1 0 -3 -0.1 0 0 Z " fill="#D87AF0" transform="translate(136,101)"/>
<path d="M0 0 C0.5 0.3 1.1 0.5 1.6 0.8 C1.6 3.6 1.6 3.6 0.6 6.8 C-2.7 8.7 -5 10 -8.8 9.5 C-9.3 9.3 -9.8 9 -10.4 8.8 C-8.8 4.5 -4.9 -0.4 0 0 Z " fill="#BB7146" transform="translate(122.375,27.1875)"/>
<path d="M0 0 C1 0.3 2 0.7 3 1 C1.5 5.6 -0.9 8.4 -4 12 C-6 10.3 -8 8.7 -10 7 C-6.8 4.5 -3.5 2.1 0 0 Z " fill="#BFBCC7" transform="translate(115,243)"/>
<path d="M0 0 C0.3 0.7 0.7 1.3 1 2 C3.1 3.1 3.1 3.1 5 4 C3.1 4.8 1.2 5.6 -0.7 6.4 C-1.7 6.8 -2.8 7.3 -3.9 7.7 C-6.6 8.8 -9.3 9.9 -12 11 C-12 11.7 -12 12.3 -12 13 C-13.3 13.3 -14.6 13.7 -16 14 C-14.5 9.3 -14.5 9.3 -12.2 8 C-11.5 7.7 -10.7 7.3 -10 7 C-8.6 6 -7.2 5 -5.9 3.9 C-2.2 1.1 -2.2 1.1 0 0 Z " fill="#9B5029" transform="translate(112,65)"/>
<path d="M0 0 C0.6 0 0.6 0 3.6 0.1 C4.2 0.1 4.2 0.1 7.2 0.1 C8.1 0.1 9 0.2 10 0.2 C9.6 1.2 9.3 2.2 9 3.2 C6.4 4.1 6.4 4.1 3.1 4.9 C2.6 5 2.6 5 -0.1 5.6 C-3 6.2 -3 6.2 -7 6.2 C-4.3 0.3 -4.3 0.3 0 0 Z " fill="#350B5C" transform="translate(142.0390625,173.8046875)"/>
<path d="M0 0 C0.3 1 0.7 2 1 3 C0 3.3 -1 3.7 -2 4 C-0.7 4.7 0.6 5.3 2 6 C-0.8 6.9 -2.4 7.1 -5.2 7.1 C-5.8 7.1 -5.8 7.1 -9 7 C-9 6.3 -9 5.7 -9 5 C-11 5.7 -13 6.3 -15 7 C-10.4 1.9 -6.9 0 0 0 Z " fill="#FBCB9E" transform="translate(208,135)"/>
<path d="M0 0 C0 4.1 -1.5 5.8 -4 9 C-8.2 12 -8.2 12 -11 12 C-11 12.7 -11 13.3 -11 14 C-10.6 14 -10.6 14 -8.6 14.1 C-7.6 14.2 -6.6 14.3 -5.6 14.4 C-4.6 14.4 -3.5 14.5 -2.5 14.6 C-2.1 14.7 -2.1 14.7 0 15 C0.3 15.7 0.7 16.3 1 17 C-0.9 17.1 -2.8 17.1 -4.8 17.2 C-5.3 17.2 -5.3 17.2 -8 17.3 C-11.3 17 -12.7 16.5 -15 14 C-15 12.7 -15 11.4 -15 10 C-13.8 9.9 -12.5 9.9 -11.2 9.8 C-7.9 9.4 -7.2 9.2 -4.7 6.7 C-4.4 6.2 -4.4 6.2 -3 4 C-2.4 3.2 -1.8 2.5 -1.2 1.7 C-0.8 1.1 -0.4 0.6 0 0 Z " fill="#6A2505" transform="translate(75,103)"/>
</svg>
