<?xml version="1.0" encoding="UTF-8"?>
<!-- Generator: visioncortex VTracer 0.6.12 -->
<svg version="1.1" xmlns="http://www.w3.org/2000/svg" viewBox="0 0 320 320" width="320" height="320">
<path d="M0 0 C1.2 -0 2.3 -0 3.5 -0 C21.2 0 38.5 0.6 56 3.2 C56.5 3.3 56.5 3.3 59 3.7 C115.4 11.9 115.4 11.9 130.8 31.4 C134.1 36.4 135.8 41.3 134.7 47.2 C132.5 53.5 128 57.9 122.4 61.1 C113.6 65.3 104.5 68.1 95 70.2 C95 70.9 95 71.6 95 72.2 C96.5 73.7 96.5 73.7 98.6 75.4 C123.4 96.6 136.3 129.3 139 161.2 C141.1 191.4 129 220.4 109.7 243 C107.5 245.4 105.3 247.9 103 250.2 C102.5 250.8 102 251.3 101.5 251.9 C77.2 276.9 40.5 291.6 5.9 292.5 C-7.7 292.6 -20.7 292.2 -34 289.2 C-35.3 289 -36.5 288.7 -37.8 288.4 C-71 280.5 -103.5 259.3 -121.8 230.2 C-138.6 202.6 -145 172 -137.8 140 C-131.3 113.6 -117 89.8 -96 72.2 C-95.7 71.6 -95.3 70.9 -95 70.2 C-95.5 70.2 -95.5 70.2 -98.1 70.1 C-110 68.5 -123.1 63.7 -131.5 54.9 C-135 50.4 -136.4 45.7 -135.8 40 C-133.9 32.5 -128.7 27.2 -122.3 23.2 C-86.5 2.4 -40.3 0 0 0 Z M-62.3 28.6 C-63.2 28.8 -64 29 -64.9 29.2 C-71.1 30.7 -76.4 33.2 -82 36.2 C-82 37.2 -82 38.2 -82 39.2 C-78.2 40.1 -74.4 40.9 -70.6 41.8 C-70.1 41.9 -70.1 41.9 -67.4 42.5 C-57.3 44.6 -49.1 45 -39.2 41.9 C-26.4 37.9 -13.8 36.8 -0.4 36.9 C0.3 36.9 1 36.9 1.8 36.9 C16.8 36.9 30.4 39.1 44.7 43.7 C52.2 45.6 60 44 67.4 42.4 C68.3 42.2 69.1 42 70 41.8 C74 41 77.4 40.2 81 38.2 C80 35.7 79.4 34.5 77.1 33.1 C35 18.4 -19.1 19.2 -62.3 28.6 Z " fill="#F7B515" transform="translate(161,13.75)"/>
<path d="M0 0 C1.2 -0 2.3 -0 3.5 -0 C21.2 0 38.5 0.6 56 3.2 C56.5 3.3 56.5 3.3 59 3.7 C115.4 11.9 115.4 11.9 130.8 31.4 C134.1 36.4 135.8 41.3 134.7 47.2 C132.2 54.5 126.6 58.9 120 62.2 C119.4 62.6 118.7 62.9 118 63.3 C113.5 65.4 113.5 65.4 110 64.2 C112 63.6 114 62.9 116 62.2 C116 61.6 116 60.9 116 60.2 C112.5 60.7 109 61.1 105.4 61.6 C104.4 61.7 103.5 61.8 102.4 61.9 C96.8 62.7 92.3 63.9 87 66.2 C84.1 67 81.1 67.4 78.1 67.9 C70.1 69.1 70.1 69.1 69 70.2 C66.5 70.5 64 70.6 61.5 70.8 C60.7 70.8 60 70.8 59.2 70.9 C56.8 71 54.3 71.1 51.9 71.2 C49.5 71.4 47 71.5 44.6 71.6 C43.1 71.7 41.6 71.8 40.1 71.9 C39.4 71.9 38.7 71.9 38 72 C37.4 72 36.8 72 36.2 72.1 C34.3 72.2 32.5 72.5 30.7 72.8 C27.2 73.2 23.9 73.4 20.4 73.4 C19.7 73.4 19.7 73.4 16.5 73.5 C15.1 73.5 13.7 73.5 12.3 73.5 C11.6 73.5 10.9 73.5 10.1 73.5 C6.3 73.5 2.5 73.5 -1.3 73.5 C-4.4 73.6 -7.5 73.6 -10.6 73.6 C-37.2 73.9 -62.8 71.8 -88.9 66.1 C-95.1 64.8 -100.9 64.2 -107.2 64.5 C-116.9 64.9 -122.5 63.1 -129.9 56.6 C-133.9 52.5 -135.8 48.1 -136 42.2 C-135.3 35.5 -131.7 30.9 -126.9 26.4 C-93.4 1 -40 0 0 0 Z M-62.3 28.6 C-63.2 28.8 -64 29 -64.9 29.2 C-71.1 30.7 -76.4 33.2 -82 36.2 C-82 37.2 -82 38.2 -82 39.2 C-78.2 40.1 -74.4 40.9 -70.6 41.8 C-70.1 41.9 -70.1 41.9 -67.4 42.5 C-57.3 44.6 -49.1 45 -39.2 41.9 C-26.4 37.9 -13.8 36.8 -0.4 36.9 C0.3 36.9 1 36.9 1.8 36.9 C16.8 36.9 30.4 39.1 44.7 43.7 C52.2 45.6 60 44 67.4 42.4 C68.3 42.2 69.1 42 70 41.8 C74 41 77.4 40.2 81 38.2 C80 35.7 79.4 34.5 77.1 33.1 C35 18.4 -19.1 19.2 -62.3 28.6 Z " fill="#129EFB" transform="translate(161,13.75)"/>
<path d="M0 0 C1.2 -0 2.3 -0 3.5 -0 C21.2 0 38.5 0.6 56 3.2 C56.5 3.3 56.5 3.3 59 3.7 C115.4 11.9 115.4 11.9 130.8 31.4 C134.1 36.4 135.8 41.3 134.7 47.2 C133.3 51.2 131 54.4 128 57.2 C125.1 58.2 125.1 58.2 123 58.2 C122 55.2 122 55.2 123 52.2 C122.2 52.4 122.2 52.4 118 53.2 C118 52.6 118 51.9 118 51.2 C118.7 51.2 119.3 51.2 120 51.2 C120.3 50.6 120.5 50 120.8 49.3 C122 47.2 122 47.2 125 46.2 C125.3 43.3 125.7 40.3 126 37.2 C126.3 38.2 126.7 39.2 127 40.2 C129.1 40.9 129.1 40.9 131 41.2 C129.2 35.7 128.1 32.6 123 29.2 C122.7 29.9 122.3 30.6 122 31.2 C119.1 27.7 119.1 27.7 118.7 25.3 C118 23.2 118 23.2 115.7 21.8 C114.8 21.3 113.9 20.9 112.9 20.5 C112.5 20.3 112.5 20.3 110.2 19.2 C109.8 19 109.8 19 108 18.2 C108 18.9 108 19.6 108 20.2 C104.1 19.2 100.5 18.1 96.8 16.4 C83.2 10.9 68.6 8.5 54 7.2 C54.9 7.4 55.8 7.6 56.8 7.8 C58 8 59.2 8.3 60.4 8.5 C61.6 8.7 62.7 9 64 9.2 C67 10.3 67 10.3 68.4 12.4 C68.6 13 68.8 13.6 69 14.2 C68.2 14.6 68.2 14.6 64 16.2 C64.6 16.4 65.1 16.6 65.7 16.8 C70.3 18.2 74 19.8 78 22.3 C80.6 23.5 83 23.8 85.7 24.2 C89.2 24.8 90.7 25 93.6 27.2 C95 29.2 95 29.2 96 31.2 C96.2 28.9 96.2 28.9 96 26.2 C94.6 24.7 94.6 24.7 93 23.2 C92.3 21.1 92.3 21.1 92 19.2 C94.5 18.4 95.6 18.1 98.1 19 C98.8 19.4 99.5 19.8 100.2 20.2 C101 20.6 101.7 20.9 102.4 21.3 C102.9 21.6 103.5 21.9 104 22.2 C104.1 25.2 104.2 26.6 103 29.2 C99.9 32 96.5 34.1 93 36.2 C91 35.2 91 35.2 88.4 33.3 C84.7 30.8 80.7 29.8 76.4 28.7 C75.6 28.5 74.9 28.3 74.2 28.1 C72.7 27.7 71.2 27.3 69.7 26.9 C67.9 26.5 66.1 26 64.3 25.5 C43.8 20.2 23.4 18.6 2.3 18.8 C-1.4 18.9 -5.2 18.9 -8.9 18.9 C-11.3 18.9 -13.8 18.9 -16.2 18.9 C-16.8 18.9 -16.8 18.9 -19.5 18.9 C-26.1 19 -32.5 19.6 -39 20.8 C-45.2 21.8 -51.4 22 -57.7 22.4 C-69.1 23.2 -80.8 25.1 -90 32.2 C-90.7 32.2 -91.3 32.2 -92 32.2 C-92 32.9 -92 33.6 -92 34.2 C-93.7 33.6 -95.3 32.9 -97 32.2 C-97.4 32.1 -97.4 32.1 -99.6 31.3 C-102.1 30.2 -104 29.1 -106 27.2 C-106 26.6 -106 25.9 -106 25.2 C-105.6 25.2 -105.6 25.2 -103.7 24.8 C-102.7 24.7 -101.7 24.5 -100.7 24.3 C-99.7 24.1 -98.7 24 -97.7 23.8 C-95 23.2 -95 23.2 -92 22.2 C-91.7 21.6 -91.3 20.9 -91 20.2 C-89 19.5 -87 18.9 -85 18.2 C-85 17.3 -85 16.3 -85 15.2 C-85.6 15.4 -86.2 15.6 -86.9 15.8 C-91.1 17.1 -95.3 18.4 -99.6 19.2 C-104.2 20.2 -108.6 21.7 -113 23.2 C-113 22.3 -113 21.3 -113 20.2 C-111.3 19.6 -109.7 18.9 -108 18.2 C-108 17.6 -108 16.9 -108 16.2 C-73.3 3.6 -36.7 0 0 0 Z " fill="#0784FB" transform="translate(161,13.75)"/>
<path d="M0 0 C0 0.7 0 1.3 0 2 C-2 2.7 -4 3.3 -6 4 C-6 4.7 -6 5.3 -6 6 C-10.9 7.3 -15.9 8.6 -21 10 C-21 10.7 -21 11.3 -21 12 C-19.5 13.4 -19.5 13.4 -17.4 15.1 C7.4 36.4 20.3 69.1 23 101 C25.1 131.2 13 160.1 -6.3 182.7 C-8.5 185.2 -10.7 187.6 -13 190 C-13.5 190.5 -14 191.1 -14.5 191.6 C-35.5 213.2 -65.5 226.6 -95 231 C-95.6 231.1 -96.3 231.2 -96.9 231.3 C-104 232.2 -111 232.1 -118.1 232.1 C-119.3 232.1 -120.6 232.1 -121.8 232 C-124.9 232 -127.9 232 -131 232 C-131.3 231.3 -131.7 230.7 -132 230 C-131.4 230 -130.9 230 -130.3 230 C-104.5 230.2 -104.5 230.2 -100 228 C-98.1 228 -96.2 228.1 -94.3 228.2 C-91.3 228 -88.8 226.9 -86 226 C-83.5 225.6 -81.1 225.2 -78.6 224.9 C-77.4 224.7 -76.1 224.5 -74.9 224.4 C-73.9 224.2 -73 224.1 -72 224 C-72 223.3 -72 222.7 -72 222 C-71.3 221.9 -70.6 221.8 -69.9 221.6 C-62.6 220 -55.6 216.4 -49 213 C-47.7 212.5 -46.5 212 -45.2 211.4 C-42 210 -42 210 -41 208 C-40.3 207.6 -39.6 207.2 -38.8 206.7 C-34.8 204.3 -31.7 201.1 -28.3 197.9 C-25.9 195.6 -24.2 194.1 -21 193 C-20.7 192 -20.3 191 -20 190 C-18.7 188.6 -17.4 187.3 -16 186 C-14.4 184.1 -12.7 182.3 -11.1 180.4 C-9.6 178.6 -8 177 -6.3 175.3 C0.3 168.5 6.2 161.3 9 152 C8.2 149.1 8.2 149.1 7 147 C7.7 146.2 8.4 145.5 9.1 144.7 C9.7 143.8 10.3 142.9 11 142 C10.7 141 10.3 140 10 139 C11 139 12 139 13 139 C13 138.6 13 138.6 12.9 136.7 C12.9 135.7 12.9 134.7 12.9 133.7 C12.9 132.7 12.8 131.7 12.8 130.7 C13 128 13 128 15 125 C15.4 122.6 15.4 122.6 15.6 119.7 C15.7 118.7 15.8 117.7 15.9 116.7 C16 115.6 16 114.5 16.1 113.4 C16.2 112.9 16.2 112.9 16.4 110.2 C17 102.5 17 102.5 17 100 C16.7 100 16.3 100 16 100 C15.2 95.9 14.3 91.9 13.5 87.8 C13.4 87.2 13.4 87.2 12.8 84.3 C12.6 83.2 12.3 82.1 12.1 81 C11.9 79.9 11.7 78.9 11.5 77.9 C11 75.2 10.9 72.7 11 70 C10.3 70 9.7 70 9 70 C8.9 69.3 8.8 68.6 8.6 68 C8.5 67.1 8.3 66.2 8.1 65.2 C8 64.8 8 64.8 7.6 62.6 C7 60.1 6.1 58.2 5 56 C4.9 54.8 4.8 53.6 4.6 52.4 C4 49 4 49 2.1 47.3 C1.4 46.9 0.7 46.4 0 46 C-1.2 43.8 -1.2 43.8 -2 42 C-2.3 42.7 -2.7 43.3 -3 44 C-6 39.4 -6 39.4 -6 36 C-6.6 35.8 -7.1 35.6 -7.7 35.4 C-11 33.4 -12.7 31.1 -15 28 C-15 27.3 -15 26.7 -15 26 C-15.6 25.7 -16.2 25.5 -16.8 25.2 C-19 24 -20.4 22.9 -22 21 C-22 20.3 -22 19.7 -22 19 C-23 19 -24 19 -25 19 C-25.3 18 -25.3 18 -27 13 C-27.7 13 -28.3 13 -29 13 C-29 12.3 -29 11.7 -29 11 C-29.7 11.1 -30.4 11.3 -31.2 11.4 C-34.7 12.1 -38.1 12.7 -41.6 13.4 C-42.8 13.6 -43.9 13.8 -45.1 14 C-69.1 18.4 -93.8 18.3 -118.1 18.3 C-121.8 18.2 -125.5 18.3 -129.2 18.3 C-150.2 18.3 -170.8 17.5 -191.6 13.9 C-192.6 13.8 -193.7 13.6 -194.7 13.4 C-199.2 12.7 -203.6 11.9 -208 11 C-208.3 12 -208.7 13 -209 14 C-209.7 14 -210.3 14 -211 14 C-211.2 14.5 -211.4 15.1 -211.6 15.6 C-213.5 18.9 -216.1 21.2 -218.8 23.7 C-223 27.8 -226.3 31.5 -228.9 36.8 C-230.1 39.3 -231.6 41.5 -233.1 43.8 C-233.6 44.5 -234.1 45.2 -234.7 46 C-235.1 46.7 -235.5 47.3 -236 48 C-238.5 51.8 -240.2 55.8 -242 60 C-242.3 60.6 -242.6 61.1 -242.9 61.7 C-251.2 79.2 -252.2 98.9 -252.2 117.8 C-252.2 119 -252.2 120.1 -252.2 121.3 C-252.2 126.2 -252.2 130.8 -250.9 135.6 C-250 138.9 -250 139.9 -251 143 C-251.7 140.8 -252.3 138.6 -252.9 136.4 C-253.3 135.2 -253.7 134 -254 132.7 C-262 101.9 -253.8 68.9 -238.2 41.9 C-231.3 30.5 -222.2 20.5 -212 12 C-211.7 11.3 -211.3 10.7 -211 10 C-212.1 9.9 -213.1 9.8 -214.2 9.8 C-220.3 9 -226.1 6.9 -232 5 C-232 4.3 -232 3.7 -232 3 C-218.7 2.2 -206.1 4.6 -193 7 C-191.4 7.3 -189.9 7.6 -188.3 7.9 C-187.7 8 -187.1 8.1 -186.4 8.2 C-165.9 11.9 -145.9 12.3 -125.2 12.2 C-122 12.2 -118.8 12.2 -115.6 12.2 C-112.5 12.2 -109.5 12.2 -106.4 12.2 C-104.9 12.2 -103.4 12.2 -102 12.2 C-99.9 12.2 -97.9 12.2 -95.8 12.1 C-94.7 12.1 -93.5 12.1 -92.3 12.1 C-88.8 12 -85.5 11.5 -82 11 C-80.7 10.9 -79.3 10.8 -78 10.7 C-77.3 10.7 -76.6 10.6 -75.9 10.6 C-75.2 10.6 -74.4 10.5 -73.7 10.5 C-72.1 10.4 -70.6 10.3 -69 10.2 C-66.5 10.1 -64.1 10 -61.6 9.9 C-59.3 9.8 -56.9 9.6 -54.5 9.5 C-53.8 9.5 -53 9.4 -52.3 9.4 C-47.1 9.1 -47.1 9.1 -46 8 C-42.5 7.4 -39.1 6.8 -35.6 6.3 C-30.7 5.5 -26.6 4 -22 2 C-14.7 0.2 -7.5 -0.3 0 0 Z " fill="#FBF871" transform="translate(277,74)"/>
<path d="M0 0 C2.7 0.4 2.7 0.4 3.7 1.4 C3.7 11 -3.6 18 -9.9 24.5 C-23.2 37.7 -41.8 45.5 -60.6 45.7 C-61.4 45.7 -62.2 45.7 -63.1 45.7 C-63.5 45.7 -63.5 45.7 -65.7 45.7 C-85.5 45.3 -102.6 37 -116.8 23.4 C-127.6 11.9 -127.6 11.9 -127.7 4.8 C-127.6 3.7 -127.4 2.5 -127.3 1.4 C-122.6 0.9 -120.3 1.7 -116.6 4.6 C-116 5.1 -115.5 5.5 -114.9 6 C-95.9 20.4 -71.1 23.7 -47.9 20.9 C-33.2 18.7 -17 12.5 -5.9 2.4 C-3.3 0.4 -3.3 0.4 0 0 Z " fill="#762608" transform="translate(222.3125,203.625)"/>
<path d="M0 0 C5.5 -0.1 10.6 0.2 15.9 1.2 C16.7 1.4 17.4 1.5 18.1 1.7 C52.4 8.1 52.4 8.1 60.8 16.3 C63.1 19.6 63.6 23 63 27 C61 29.3 61 29.3 58 31 C57.4 31.4 56.9 31.7 56.3 32.1 C52.3 34.7 49.6 35.2 45 35 C44 35.7 43 36.3 42 37 C40.2 37.4 38.5 37.7 36.7 38 C32.6 38.6 28.9 39.7 25 41 C16.6 43.5 8.9 44.3 0.2 44 C-2.6 44 -4.3 44.3 -7 45 C-15.4 46 -23.8 46.1 -32.2 46.1 C-33.4 46.1 -34.5 46.1 -35.7 46 C-38.5 46 -41.2 46 -44 46 C-44.3 45.3 -44.7 44.7 -45 44 C-43.7 43.9 -42.4 43.8 -41.1 43.7 C1.9 40.5 1.9 40.5 18.3 37.4 C19.4 37.2 20.5 37 21.6 36.8 C28.7 35.3 28.7 35.3 31 33 C30.9 31 30.9 31 30 29 C-5.1 7.5 -75.9 15.4 -114 24 C-119.5 25.4 -125 27.2 -130 30 C-130.3 30.7 -130.7 31.3 -131 32 C-133 31.7 -135 31.3 -137 31 C-136.8 27.8 -135.8 26.8 -133.6 24.6 C-129.5 21.3 -125.2 20.2 -120.3 18.9 C-119.4 18.6 -118.4 18.4 -117.5 18.1 C-106.3 15.3 -94.9 14.3 -83.5 13.3 C-81 13 -81 13 -78 12 C-76.3 11.9 -74.6 11.8 -72.9 11.8 C-71.9 11.8 -70.8 11.8 -69.8 11.8 C-68.6 11.7 -67.5 11.7 -66.3 11.7 C-65.2 11.7 -64 11.7 -62.8 11.7 C-38 11.5 -14.2 11.3 10 17 C11 17.2 12 17.4 13 17.7 C36.1 22.7 36.1 22.7 44 29 C52.3 24.3 52.3 24.3 54 21 C54.6 19.1 54.6 19.1 55 16 C51.3 14.4 47.9 13.6 44 13 C45.1 15.9 45.8 17.8 48 20 C48.1 22.6 48.1 22.6 48 25 C47.3 25.3 46.7 25.7 46 26 C45.9 25.6 45.9 25.6 45.3 23.6 C44 21 44 21 41.9 19.8 C39 19 39 19 35.1 18.6 C31.5 18.2 29 17 25.9 15 C23 13.5 20 12.6 16.9 11.7 C15 11 15 11 13 9 C15 8.7 17 8.3 19 8 C18.7 7 18.3 6 18 5 C16.2 4.3 16.2 4.3 14 3.8 C13.2 3.7 12.3 3.5 11.5 3.3 C10.7 3.1 9.8 3 8.9 2.8 C8.1 2.6 7.2 2.5 6.3 2.3 C4.2 1.8 2.1 1.4 0 1 C0 0.7 0 0.3 0 0 Z " fill="#38B0FA" transform="translate(210,20)"/>
<path d="M0 0 C24.2 18.4 38.7 49.7 43 79.2 C46.8 108.9 39.2 138.2 21.5 162.4 C17.2 167.8 12.7 173 8 178 C7.5 178.5 7 179.1 6.5 179.6 C-14.5 201.2 -44.5 214.6 -74 219 C-74.6 219.1 -75.3 219.2 -75.9 219.3 C-83 220.2 -90 220.1 -97.1 220.1 C-98.3 220.1 -99.6 220.1 -100.8 220 C-103.9 220 -106.9 220 -110 220 C-110.3 219.3 -110.7 218.7 -111 218 C-110.4 218 -109.9 218 -109.3 218 C-83.5 218.2 -83.5 218.2 -79 216 C-77.1 216 -75.2 216.1 -73.3 216.2 C-70.3 216 -67.8 214.9 -65 214 C-62.5 213.6 -60.1 213.2 -57.6 212.9 C-56.4 212.7 -55.1 212.5 -53.9 212.4 C-52.9 212.2 -52 212.1 -51 212 C-51 211.3 -51 210.7 -51 210 C-50.3 209.9 -49.6 209.8 -48.9 209.6 C-41.6 208 -34.6 204.4 -28 201 C-26.7 200.5 -25.5 200 -24.2 199.4 C-21 198 -21 198 -20 196 C-19.3 195.6 -18.6 195.2 -17.8 194.7 C-13.8 192.3 -10.7 189.1 -7.3 185.9 C-4.9 183.6 -3.2 182.1 0 181 C0.3 180 0.7 179 1 178 C2.3 176.6 3.6 175.3 5 174 C6.6 172.1 8.3 170.3 9.9 168.4 C11.4 166.6 13 165 14.7 163.3 C21.3 156.5 27.2 149.3 30 140 C29.2 137.1 29.2 137.1 28 135 C28.7 134.2 29.4 133.5 30.1 132.7 C30.7 131.8 31.3 130.9 32 130 C31.7 129 31.3 128 31 127 C32 127 33 127 34 127 C34 126.2 34 125.5 33.9 124.7 C33.9 123.7 33.9 122.7 33.9 121.7 C33.9 120.7 33.8 119.7 33.8 118.7 C34 116 34 116 36 113 C36.4 110.6 36.4 110.6 36.6 107.7 C36.7 106.7 36.8 105.7 36.9 104.7 C37 103.6 37 102.5 37.1 101.4 C37.2 100.9 37.2 100.9 37.4 98.2 C38 90.5 38 90.5 38 88 C37.7 88 37.3 88 37 88 C36.2 83.9 35.3 79.9 34.5 75.8 C34.3 74.7 34 73.5 33.8 72.3 C33.6 71.2 33.3 70.1 33.1 69 C32.9 67.9 32.7 66.9 32.5 65.9 C32 63.2 31.9 60.7 32 58 C31.3 58 30.7 58 30 58 C29.9 57.3 29.8 56.6 29.6 56 C29.5 55.5 29.5 55.5 29.1 53.2 C29 52.4 28.8 51.5 28.6 50.6 C28 48.1 27.1 46.2 26 44 C25.9 42.8 25.8 41.6 25.6 40.4 C25 37 25 37 23.1 35.3 C22.4 34.9 21.7 34.4 21 34 C19.8 31.8 19.8 31.8 19 30 C18.7 30.7 18.3 31.3 18 32 C15 27.4 15 27.4 15 24 C14.4 23.8 13.9 23.6 13.3 23.4 C10 21.4 8.3 19.1 6 16 C6 15.3 6 14.7 6 14 C5.4 13.7 4.8 13.5 4.2 13.2 C2 12 0.6 10.9 -1 9 C-1 8.3 -1 7.7 -1 7 C-2 7 -3 7 -4 7 C-4.3 6 -4.3 6 -6 1 C-6.7 1 -7.3 1 -8 1 C-8 0.3 -8 -0.3 -8 -1 C-4.5 -2.2 -3.1 -1.8 0 0 Z " fill="#F68C81" transform="translate(256,86)"/>
<path d="M0 0 C9.1 4.1 15.7 11.9 19.2 21.2 C20.1 24.1 20.4 26.7 20.4 29.8 C20.4 30.5 20.4 31.3 20.4 32.1 C20.2 34.2 20.2 34.2 18.2 37.2 C15.1 36.9 13.6 36.6 11.4 34.3 C10.9 33.5 10.4 32.8 9.8 31.9 C6.1 26.8 2.3 23.2 -3.8 21.2 C-10.8 20.4 -15.6 20.9 -21.2 25.1 C-22.8 26.2 -22.8 26.2 -24.8 26.2 C-24.9 26.5 -24.9 26.5 -25.5 27.8 C-27.2 31 -29.4 33.5 -31.8 36.2 C-33.5 35.9 -35.1 35.5 -36.8 35.2 C-37.5 24.2 -35.4 16.8 -28.6 8.1 C-20.7 -0.2 -11.1 -3.2 0 0 Z " fill="#5D1D07" transform="translate(215.80078125,141.80078125)"/>
<path d="M0 0 C8.6 3.8 14 11.2 17.5 19.7 C18.8 24.5 18.8 29.4 18.2 34.2 C17.5 34.9 16.8 35.5 16.2 36.2 C14.2 36.1 14.2 36.1 12.2 35.2 C10.6 33.3 10.6 33.3 9 30.9 C4.8 25.4 0.5 21.9 -6.6 20.8 C-14.1 20.4 -19.4 22.1 -25 27.1 C-28.3 30.3 -31.2 33.5 -33.8 37.2 C-35.5 36.9 -37.1 36.5 -38.8 36.2 C-39.6 25.5 -37.6 18.1 -30.6 9.9 C-21.9 0.8 -12.6 -3.6 0 0 Z " fill="#65240E" transform="translate(123.8359375,141.80078125)"/>
<path d="M0 0 C1.3 0.7 2.6 1.4 3.9 2.1 C3.2 7.3 1.5 8.9 -2.4 12.1 C-7.5 15.9 -12.7 19.4 -18 22.8 C-20.1 24.2 -22.2 25.6 -24.3 27 C-25.7 27.9 -27.1 28.8 -28.5 29.7 C-29.1 30.1 -29.7 30.6 -30.4 31 C-35 34 -39.5 35.5 -45.1 35.1 C-46.1 34.5 -47.1 33.8 -48.1 33.1 C-49.3 26.9 -48.1 20.1 -44.5 14.8 C-31.8 -1.9 -20.3 -8.4 0 0 Z " fill="#FAFAC6" transform="translate(103.09375,96.8671875)"/>
<path d="M0 0 C0.4 -0 0.4 -0 2.1 -0 C5.9 -0 9.4 0.2 13.1 1.1 C13.1 1.8 13.1 2.4 13.1 3.1 C14.1 2.9 15.1 2.7 16.1 2.4 C20.8 2.1 22.9 3.1 27.1 5.1 C29.4 5.9 31.7 6.5 34.1 7.1 C34.7 7.3 35.4 7.5 36.1 7.7 C43.7 9.4 51.1 9.3 58.8 9.2 C67.6 9.1 76.3 9.2 85.1 10 C88.6 10.2 91.6 9.7 95.1 9.1 C95.7 9.3 96.3 9.5 96.9 9.6 C99.5 10.2 101.5 10 104.2 9.6 C108.8 9 108.8 9 111.1 10.1 C113.4 10.2 115.6 10.3 117.9 10.2 C119.2 10.3 120.4 10.3 121.7 10.3 C124.4 10.2 126.5 9.8 129.1 9.1 C129.8 9.3 130.6 9.5 131.4 9.6 C134.6 10.2 136.9 9.7 140.1 9.1 C142.1 9.1 144.1 9.1 146.1 9.1 C146.8 9 147.6 8.8 148.4 8.6 C150.9 8.2 153 8.2 155.6 8.2 C159.6 8.3 161.7 7.5 165.1 5.1 C166.1 5.1 167 5.1 168.1 5.1 C168.4 4.5 168.7 3.8 169.1 3.1 C170.1 3.1 171.2 3.2 172.2 3.2 C176.1 3.1 176.1 3.1 178.4 2.6 C181.4 2.1 184.3 2 187.4 2.1 C187.9 2.1 187.9 2.1 190.6 2.1 C191.4 2.1 192.2 2.1 193.1 2.1 C193.4 2.8 193.7 3.4 194.1 4.1 C194.8 4 195.5 3.8 196.2 3.6 C199.2 3.1 201.9 3 204.9 3.1 C205.9 3.1 206.8 3.1 207.8 3.1 C208.2 3.1 208.2 3.1 210.1 3.1 C210.1 3.5 210.1 3.8 210.1 4.1 C209.1 4.4 208.1 4.7 207.1 4.9 C204.3 5.7 201.7 6.6 198.9 7.6 C194 9.3 188.9 10 183.7 10.7 C181.1 11.1 181.1 11.1 180.1 12.1 C177.6 12.3 175.1 12.5 172.6 12.6 C172.2 12.6 172.2 12.6 170.3 12.7 C167.8 12.9 165.4 13 162.9 13.1 C160.5 13.2 158.1 13.4 155.7 13.5 C154.2 13.6 152.7 13.7 151.2 13.7 C150.5 13.8 149.8 13.8 149.1 13.8 C148.5 13.9 147.8 13.9 147.2 13.9 C145.4 14.1 143.6 14.4 141.7 14.6 C138.2 15.1 134.9 15.3 131.4 15.3 C130.8 15.3 130.8 15.3 127.5 15.3 C126.2 15.3 124.8 15.4 123.4 15.4 C122.7 15.4 121.9 15.4 121.2 15.4 C117.4 15.4 113.6 15.4 109.8 15.4 C106.7 15.4 103.6 15.4 100.5 15.5 C73.9 15.8 48.2 13.7 22.1 8 C14.4 6.3 7 6 -0.9 6.3 C-8 6.4 -8 6.4 -10.9 4.1 C-11.3 3.1 -11.6 2.1 -11.9 1.1 C-8 -0.2 -4.1 -0 0 0 Z " fill="#50DDFB" transform="translate(49.9375,71.875)"/>
<path d="M0 0 C1 -0 2.1 -0 3.2 -0 C4.3 -0.1 5.4 -0.1 6.6 -0.1 C7.8 -0.1 8.9 -0.1 10.2 -0.1 C34.9 -0.3 58.7 -0.4 82.9 5.2 C84.9 5.6 87 6.1 89 6.5 C102.7 9.6 102.7 9.6 108.9 14.2 C109.9 14.9 110.9 15.5 111.9 16.2 C111.9 16.9 111.9 17.5 111.9 18.2 C109.3 19.7 108 20.2 104.9 20.2 C104.3 19.6 103.7 19 103.1 18.3 C86.7 2.3 40.5 5.7 18.7 5.8 C-36.5 6.5 -36.5 6.5 -57.1 18.2 C-57.4 18.9 -57.7 19.5 -58.1 20.2 C-60.1 19.9 -62 19.5 -64.1 19.2 C-63.8 16 -62.9 15 -60.6 12.7 C-56.6 9.5 -52.3 8.3 -47.4 7.1 C-46.5 6.8 -45.5 6.6 -44.5 6.3 C-33.4 3.5 -22 2.5 -10.6 1.5 C-6.9 1 -3.8 0.1 0 0 Z " fill="#F8DA54" transform="translate(137.0810546875,31.80712890625)"/>
<path d="M0 0 C1.2 -0 2.3 -0 3.5 -0 C21.2 0 38.5 0.6 56 3.2 C56.5 3.3 56.5 3.3 59 3.7 C115.4 11.9 115.4 11.9 130.8 31.4 C134.1 36.4 135.8 41.3 134.7 47.2 C133.3 51.2 131 54.4 128 57.2 C125.1 58.2 125.1 58.2 123 58.2 C122 55.2 122 55.2 123 52.2 C122.2 52.4 122.2 52.4 118 53.2 C118 52.6 118 51.9 118 51.2 C118.7 51.2 119.3 51.2 120 51.2 C120.3 50.6 120.5 50 120.8 49.3 C122 47.2 122 47.2 125 46.2 C125.3 43.3 125.7 40.3 126 37.2 C126.3 38.2 126.7 39.2 127 40.2 C129.1 40.9 129.1 40.9 131 41.2 C129.2 35.7 128.1 32.6 123 29.2 C122.7 29.9 122.3 30.6 122 31.2 C119.1 27.7 119.1 27.7 118.7 25.3 C118 23.2 118 23.2 115.7 21.8 C114.8 21.3 113.9 20.9 112.9 20.5 C112.5 20.3 112.5 20.3 110.2 19.2 C109.8 19 109.8 19 108 18.2 C108 18.9 108 19.6 108 20.2 C104.1 19.2 100.5 18.1 96.8 16.4 C84.2 11.3 70.4 8.8 57 7.2 C55.1 7 53.2 6.8 51.2 6.5 C48.6 6.2 45.9 5.8 43.2 5.5 C41.1 5.3 39 5 36.9 4.7 C26 3.4 15.2 2.9 4.2 2.9 C3.4 2.9 2.6 2.9 1.7 2.9 C-18.4 3 -38.2 4.8 -58 8.2 C-58.8 8.4 -59.5 8.5 -60.3 8.7 C-62.4 9 -64.4 9.4 -66.4 9.8 C-67 9.9 -67.7 10 -68.4 10.1 C-71.4 10.7 -74.2 11.3 -77.1 12.3 C-80 13.3 -82.7 13.7 -85.8 14.1 C-90.7 14.9 -94.9 16.2 -99.5 18.2 C-103.9 20.1 -108.5 21.6 -113 23.2 C-113 22.3 -113 21.3 -113 20.2 C-111.3 19.6 -109.7 18.9 -108 18.2 C-108 17.6 -108 16.9 -108 16.2 C-73.3 3.6 -36.7 0 0 0 Z " fill="#1765FC" transform="translate(161,13.75)"/>
<path d="M0 0 C2.2 0.8 4.4 1.5 6.6 2.3 C15.8 5.6 25.4 7.5 35 9.4 C37.1 9.8 37.1 9.8 39.1 10.8 C41 11.1 43 11.4 45 11.6 C46.1 11.7 47.3 11.9 48.5 12 C49.7 12.1 50.9 12.3 52.2 12.4 C53.4 12.5 54.7 12.7 55.9 12.8 C59 13.2 62 13.5 65.1 13.8 C64.8 14 64.8 14 63.1 14.7 C61.1 15.8 61.1 15.8 60.1 17.8 C60.6 18 60.6 18 63.1 18.8 C63.1 19.2 63.1 19.5 63.1 19.8 C62.5 19.8 61.9 19.8 61.2 19.8 C54.4 19.7 47.4 19.7 40.8 21.4 C37.1 22 33.5 21.5 29.8 21.1 C29 21 28.2 20.9 27.4 20.8 C-3.7 16.9 -3.7 16.9 -15.9 7.8 C-17.9 4.8 -17.9 4.8 -17.7 2.2 C-17.4 1.4 -17.2 0.6 -16.9 -0.2 C-11.7 -2.8 -5.3 -1.7 0 0 Z " fill="#3FCBFC" transform="translate(57.921875,52.1640625)"/>
<path d="M0 0 C0.4 -0 0.4 -0 2.3 -0 C18.8 0 34 2.5 49.4 8.4 C49.4 8.7 49.4 9 49.4 9.4 C19.7 13.2 -10.8 14.4 -40.6 10.4 C-43.9 10 -47.2 9.7 -50.6 9.4 C-47 7 -43.3 6 -39.2 4.9 C-38.5 4.7 -37.7 4.4 -37 4.2 C-24.7 0.8 -12.6 -0 0 0 Z " fill="#F3D023" transform="translate(160.5625,49.625)"/>
<path d="M0 0 C13.8 1.3 27.4 3.5 41 6 C41 6.3 41 6.7 41 7 C30.7 8.5 22 7.3 12 5 C11.7 6 11.3 7 11 8 C10.3 8 9.7 8 9 8 C8.8 8.5 8.6 9.1 8.4 9.6 C6.5 12.9 3.9 15.2 1.2 17.7 C-3 21.8 -6.3 25.5 -8.9 30.8 C-10.1 33.3 -11.6 35.5 -13.1 37.8 C-13.6 38.5 -14.1 39.2 -14.7 40 C-15.1 40.7 -15.5 41.3 -16 42 C-18.5 45.8 -20.2 49.8 -22 54 C-22.3 54.6 -22.6 55.1 -22.9 55.7 C-31.2 73.2 -32.2 92.9 -32.2 111.8 C-32.2 113 -32.2 114.1 -32.2 115.3 C-32.2 120.2 -32.2 124.8 -30.9 129.6 C-30 132.9 -30 133.9 -31 137 C-31.7 134.8 -32.3 132.6 -32.9 130.4 C-33.3 129.2 -33.7 128 -34 126.7 C-42 95.9 -33.8 62.9 -18.2 35.9 C-11.3 24.5 -2.2 14.5 8 6 C8.3 5.3 8.7 4.7 9 4 C7.7 4 6.4 4 5 4 C5 3.3 5 2.7 5 2 C4.2 1.8 4.2 1.8 0 1 C0 0.7 0 0.3 0 0 Z " fill="#FBDE44" transform="translate(57,80)"/>
<path d="M0 0 C1.4 2.4 2.1 4.2 1.7 6.9 C-0.8 15.9 -7.1 23.8 -14 30 C-14.5 30.5 -15.1 31.1 -15.7 31.6 C-22.6 38.1 -32.5 45.8 -42.3 46.1 C-43.2 46.1 -44.1 46 -45 46 C-42.4 44.3 -40.5 43.4 -37.6 42.4 C-23.1 36.6 -10.7 25.6 -2.9 12.3 C-1.9 9.7 -1.8 7.7 -2 5 C-5.1 4.4 -7.2 4.5 -9.8 6.3 C-10.2 6.6 -10.2 6.6 -11.9 8 C-21.6 16.1 -33.8 21 -46 24 C-46.8 24.2 -47.6 24.4 -48.5 24.7 C-68.3 29.3 -89.5 25.7 -108 18 C-105 16 -105 16 -102.9 16.1 C-102.1 16.3 -101.3 16.5 -100.5 16.6 C-99.7 16.8 -98.8 17 -97.9 17.2 C-97 17.4 -96 17.6 -95.1 17.8 C-93.1 18.2 -91.2 18.6 -89.3 19 C-88.4 19.2 -87.5 19.3 -86.5 19.5 C-65.4 23.5 -39.2 21 -21.1 8.7 C-18.6 6.9 -16.2 5.1 -13.8 3.2 C-9 -0.4 -5.9 -1 0 0 Z " fill="#FAA302" transform="translate(227,200)"/>
<path d="M0 0 C1 0.3 2 0.7 3 1 C-2.9 16.6 -16.1 29.2 -31 36 C-31.7 36.3 -32.4 36.6 -33.1 37 C-40.2 40.2 -47.2 43 -55 44 C-55.5 44.1 -55.5 44.1 -57.8 44.5 C-72.4 46.8 -87.2 43.6 -100.5 37.5 C-100.8 37.4 -100.8 37.4 -102.4 36.6 C-105.1 35.3 -106.8 34.3 -108.4 31.8 C-108.6 31.2 -108.8 30.6 -109 30 C-105.7 30 -105.1 30.5 -102.4 32.2 C-90.8 38.7 -78.4 39.4 -65.4 39.4 C-64.2 39.4 -63 39.5 -61.7 39.5 C-55.3 39.4 -50.7 39 -45 36 C-43.8 35.7 -42.6 35.5 -41.3 35.2 C-29.2 32.3 -18.5 24.7 -11 15 C-10.2 14.2 -9.4 13.4 -8.6 12.6 C-4.9 8.9 -1.7 5 0 0 Z " fill="#FBEF48" transform="translate(227,210)"/>
<path d="M0 0 C0.3 0.7 0.7 1.3 1 2 C0.1 4.1 0.1 4.1 -1.2 6.7 C-2.8 9.6 -4.1 12.4 -5.3 15.4 C-9.7 24.8 -16.9 32.6 -24 40 C-24.5 40.5 -25 41.1 -25.5 41.6 C-46.5 63.2 -76.6 76.6 -106 81 C-106.6 81.1 -107.3 81.2 -107.9 81.3 C-115 82.2 -122 82.1 -129.1 82.1 C-130.3 82.1 -131.6 82.1 -132.8 82 C-135.9 82 -138.9 82 -142 82 C-142.3 81.3 -142.7 80.7 -143 80 C-142.7 80 -142.7 80 -141.3 80 C-115.5 80.2 -115.5 80.2 -111 78 C-109.1 78 -107.2 78.1 -105.3 78.2 C-102.3 78 -99.8 76.9 -97 76 C-94.5 75.6 -92.1 75.2 -89.6 74.9 C-88.4 74.7 -87.1 74.5 -85.9 74.4 C-84.9 74.2 -84 74.1 -83 74 C-83 73.3 -83 72.7 -83 72 C-82.3 71.9 -81.6 71.8 -80.9 71.6 C-73.6 70 -66.6 66.4 -60 63 C-58.7 62.5 -57.5 62 -56.2 61.4 C-53 60 -53 60 -52 58 C-51.3 57.6 -50.6 57.2 -49.8 56.7 C-45.8 54.3 -42.7 51.1 -39.3 47.9 C-36.9 45.6 -35.2 44.1 -32 43 C-31.7 42 -31.3 41 -31 40 C-29.7 38.6 -28.4 37.3 -27 36 C-25.4 34.1 -23.7 32.3 -22.1 30.4 C-20.6 28.6 -19 27 -17.3 25.3 C-11.1 19 -7 12.9 -3.3 4.8 C-2 2 -2 2 0 0 Z " fill="#F07163" transform="translate(288,224)"/>
<path d="M0 0 C0 0.7 0 1.3 0 2 C-2 2.7 -4 3.3 -6 4 C-6 4.7 -6 5.3 -6 6 C-17.8 9.5 -28.7 11.8 -41 12 C-41 11.7 -41 11.3 -41 11 C-45.8 11.5 -50.6 11.9 -55.4 12.5 C-73.6 14.6 -91.9 14.2 -110.2 14.1 C-114.7 14.1 -119.2 14.1 -123.7 14.1 C-132.5 14.1 -141.2 14 -150 14 C-150 13.7 -150 13.3 -150 13 C-149.3 13 -148.5 13 -147.7 13 C-140.7 12.9 -133.6 12.8 -126.5 12.7 C-122.9 12.6 -119.2 12.6 -115.6 12.5 C-112.1 12.5 -108.6 12.4 -105 12.3 C-103.1 12.3 -101.1 12.3 -99.1 12.3 C-93.3 12.2 -87.7 11.9 -82 11 C-79.2 10.8 -76.5 10.6 -73.7 10.5 C-72.1 10.4 -70.6 10.3 -69 10.2 C-66.5 10.1 -64.1 10 -61.6 9.9 C-59.3 9.8 -56.9 9.6 -54.5 9.5 C-53.8 9.5 -53 9.4 -52.3 9.4 C-47.1 9.1 -47.1 9.1 -46 8 C-42.5 7.4 -39.1 6.8 -35.6 6.3 C-30.7 5.5 -26.6 4 -22 2 C-14.7 0.2 -7.5 -0.3 0 0 Z " fill="#FAE47F" transform="translate(277,74)"/>
<path d="M0 0 C0 0.7 0 1.3 0 2 C-2 2.7 -4 3.3 -6 4 C-6 4.7 -6 5.3 -6 6 C-11 9.4 -15.3 10.7 -21.3 11.5 C-24.3 12.1 -27.1 13 -30 14 C-38.4 16.5 -46.1 17.3 -54.8 17 C-57.6 17 -59.3 17.3 -62 18 C-70.4 19 -78.8 19.1 -87.2 19.1 C-88.4 19.1 -89.5 19.1 -90.7 19 C-93.5 19 -96.2 19 -99 19 C-99.3 18.3 -99.7 17.7 -100 17 C-98.7 16.9 -97.4 16.8 -96.1 16.7 C-37.6 12.3 -37.6 12.3 -19 5.7 C-16.9 5 -14.9 4.5 -12.8 4 C-8.3 2.8 -4.6 0 0 0 Z " fill="#45CCFB" transform="translate(265,47)"/>
<path d="M0 0 C5 -0.1 9.5 0.3 14.4 1.4 C14.7 1.4 14.7 1.4 16.4 1.8 C18.2 2.2 20.1 2.6 22 3 C22.9 3.2 23.9 3.4 24.8 3.5 C30.6 4.7 30.6 4.7 32.9 6.5 C35.5 8.4 37.6 8.7 40.8 9.2 C41.7 9.3 42.7 9.5 43.7 9.7 C44.5 9.8 45.2 9.9 46 10 C45.7 11 45.3 12 45 13 C41 13.1 37 13.1 33.1 13.1 C31.9 13.1 30.8 13.2 29.7 13.2 C21 13.2 13.4 12.6 5.6 8.5 C4.7 8.1 3.9 7.7 3.1 7.2 C1 6 1 6 -1 4 C-0.6 1.9 -0.6 1.9 0 0 Z " fill="#ECFBF9" transform="translate(50,54)"/>
<path d="M0 0 C1.1 0 2.1 0 3.2 0 C19.4 0 35.6 0.3 51.8 1.1 C51.8 1.8 51.8 2.4 51.8 3.1 C52.7 2.8 53.7 2.5 54.8 2.1 C56.8 2.7 58.8 3.4 60.8 4.1 C64.1 5 67.4 5.8 70.7 6.5 C75.3 7.6 79.5 9 83.8 11.1 C84.1 12.1 84.4 13.1 84.8 14.1 C81 13.2 77.2 12.2 73.4 11.3 C72.7 11.1 72 10.9 71.3 10.8 C69.6 10.3 67.8 9.9 66.1 9.4 C45.6 4.1 25.2 2.5 4.1 2.7 C0.3 2.8 -3.4 2.8 -7.2 2.8 C-9.6 2.8 -12 2.8 -14.5 2.8 C-15 2.8 -15 2.8 -17.8 2.8 C-24.4 2.9 -30.8 3.5 -37.4 4.7 C-41.4 5.3 -45.5 5.6 -49.6 5.8 C-50.3 5.8 -51.1 5.8 -51.8 5.9 C-53.6 6 -55.4 6 -57.2 6.1 C-53.5 3.6 -50.4 3.7 -46.1 3.5 C-45.3 3.5 -44.6 3.4 -43.8 3.4 C-41.9 3.3 -40.1 3.2 -38.2 3.1 C-38.2 2.5 -38.2 1.8 -38.2 1.1 C-25.5 0 -12.8 -0 0 0 Z " fill="#2BAFFA" transform="translate(159.25,29.875)"/>
<path d="M0 0 C0 0.3 0 0.7 0 1 C-4.3 1.3 -8.6 1.7 -13 2 C-13 1.3 -13 0.7 -13 0 C-14.6 -0.3 -16.1 -0.7 -17.7 -1 C-18.6 -1.2 -19.4 -1.4 -20.3 -1.6 C-22.9 -2 -25.4 -2.1 -28 -2 C-28 -2.7 -28 -3.3 -28 -4 C-33.2 -4 -38.5 -4.1 -43.7 -4.1 C-45.5 -4.1 -47.3 -4.1 -49.1 -4.2 C-51.7 -4.2 -54.2 -4.2 -56.8 -4.2 C-57.6 -4.2 -58.4 -4.2 -59.2 -4.2 C-64 -4.2 -68.3 -3.7 -73 -2.5 C-80.7 -0.6 -80.7 -0.6 -83.9 -1.6 C-86.7 -2.1 -88.3 -1.4 -91 -0.5 C-94.5 0.7 -96.5 1.2 -100 0 C-67.9 -11.1 -32.1 -12.2 0 0 Z " fill="#FADD57" transform="translate(210,58)"/>
<path d="M0 0 C-1 0.7 -2 1.3 -3 2 C-3.3 2.7 -3.7 3.3 -4 4 C-7.1 4.6 -7.1 4.6 -10 5 C-10.3 6 -10.7 7 -11 8 C-15.8 10.2 -19.9 10.2 -25 10 C-13.5 22.6 2 25.4 18 29 C18 29.3 18 29.7 18 30 C11 30.4 4.9 29 -1.9 27.2 C-3 27 -4 26.7 -5.1 26.5 C-13.7 24.3 -23.5 21.5 -30 15 C-30.2 12 -30.2 12 -30 9 C-29.3 8.3 -28.7 7.7 -28 7 C-27 7 -26 7 -25 7 C-25 6.3 -25 5.7 -25 5 C-22.1 3.4 -19.5 2.6 -16.2 2 C-13.1 1.4 -10.1 0.8 -7.1 -0.2 C-4.1 -1 -2.8 -1.1 0 0 Z " fill="#69DFFB" transform="translate(80,29)"/>
<path d="M0 0 C18.6 8.7 31.4 33.2 38.8 51.4 C49.3 80.4 50.1 111.3 38 140 C35.9 144.5 33.5 148.8 31 153 C30.8 152.7 30.8 152.7 30 151 C31.2 148.4 32.4 145.9 33.7 143.4 C37.8 135.1 40 127 42 118 C42.4 117 42.7 115.9 43.1 114.9 C44.4 109.2 44.3 103.7 44.2 97.9 C44.2 96.7 44.2 95.5 44.2 94.3 C43.9 71.8 38.5 43.3 21.8 26.9 C20 25 20 25 18.4 22.3 C16.8 19.7 15.7 19.3 13 18 C12.7 17 12.3 16 12 15 C11.3 14.7 10.7 14.3 10 14 C9.1 12.3 8.1 10.7 7.2 9 C5.2 5.7 2.6 2.9 0 0 Z " fill="#FBA5A2" transform="translate(253,85)"/>
<path d="M0 0 C0 1 0 2 0 3 C-0.8 2.9 -1.6 2.7 -2.4 2.6 C-6.3 3 -7 3.6 -9.9 6 C-19.6 14.1 -31.8 19 -44 22 C-44.8 22.2 -45.6 22.4 -46.5 22.7 C-66.3 27.3 -87.5 23.7 -106 16 C-103 14 -103 14 -100.7 14.2 C-100.3 14.3 -100.3 14.3 -98.3 14.9 C-97.5 15.1 -96.7 15.3 -95.9 15.5 C-95.2 15.7 -94.6 15.8 -94 16 C-94 16.7 -94 17.3 -94 18 C-93.7 18 -93.7 18 -92.2 18.2 C-91.5 18.3 -90.7 18.4 -89.9 18.4 C-89.1 18.5 -88.3 18.6 -87.6 18.7 C-85.8 18.9 -84 19.2 -82.2 19.5 C-61.4 22.7 -40.3 19.7 -21.8 9.8 C-19.9 8.9 -18 8.4 -16 8 C-16 7.3 -16 6.7 -16 6 C-11 1.6 -6.7 -0.9 0 0 Z " fill="#DF6601" transform="translate(225,202)"/>
<path d="M0 0 C9.3 -0.3 18.2 -0.1 27.4 1.4 C27.8 1.4 27.8 1.4 29.9 1.8 C35.7 2.7 35.7 2.7 38 5 C37 5 36 5 35 5 C35 5.7 35 6.3 35 7 C33.9 6.7 32.8 6.4 31.6 6.1 C12 1.1 12 1.1 5.6 4.1 C-3.1 9.5 -12.2 18 -14.8 28.2 C-15.3 31.2 -15.7 34.1 -16 37 C-16.3 37 -16.7 37 -17 37 C-17.3 35 -17.7 33 -18 31 C-19 31 -20 31 -21 31 C-20.7 24.5 -19.4 21.3 -14.9 16.5 C-14.4 15.9 -14 15.4 -13.4 14.8 C-9.9 10.9 -6.3 7.1 -2.5 3.5 C-1 2 -1 2 0 0 Z " fill="#FBE938" transform="translate(71,91)"/>
<path d="M0 0 C9.6 1.5 18.8 7.7 25 15 C28 20 29.9 25.2 28.7 31 C27.3 34.9 25 38.1 22 41 C19.1 42 19.1 42 17 42 C16 39 16 39 17 36 C16.2 36.2 16.2 36.2 12 37 C12 36.3 12 35.7 12 35 C12.7 35 13.3 35 14 35 C14.3 34.4 14.5 33.7 14.8 33.1 C16 31 16 31 19 30 C19.3 27 19.7 24.1 20 21 C20.3 22 20.7 23 21 24 C23.1 24.7 23.1 24.7 25 25 C23.2 19.4 22.1 16.3 17 13 C16.7 13.7 16.3 14.3 16 15 C13 11.4 13 11.4 12.8 9.1 C11.5 5.8 9 5.2 5.9 3.8 C4.8 3.2 3.7 2.7 2.6 2.2 C1.7 1.8 0.9 1.4 0 1 C0 0.7 0 0.3 0 0 Z " fill="#2569FC" transform="translate(267,30)"/>
<path d="M0 0 C2.7 4.1 3.2 8.3 4.1 13.1 C5 16 5 16 8 18 C9.2 20.8 9.2 20.8 10.4 24.2 C11.8 28 13.1 31.5 15.2 34.9 C17.2 38.3 17.5 41.1 18 45 C18.5 45.5 19 46 19.5 46.5 C21.9 48.9 21.7 51.7 22 55 C22.7 55 23.3 55 24 55 C27.6 57.9 28.8 60.6 30 65 C14.2 52.6 3.2 30.8 0.2 11.1 C-0.2 7.4 -0.1 3.7 0 0 Z " fill="#FA9641" transform="translate(24,196)"/>
<path d="M0 0 C-2.9 1.9 -4.8 2.6 -8.1 3.4 C-23.5 7.5 -23.5 7.5 -28 12 C-28.3 13 -28.7 14 -29 15 C-21.4 16.8 -13.7 18.2 -6.1 19.6 C-4.9 19.8 -3.6 20 -2.4 20.2 C3.8 21.3 9.9 22.3 16.2 22.7 C16.8 22.8 17.4 22.9 18 23 C18.2 23.3 18.2 23.3 19 25 C21.4 25.3 21.4 25.3 24.4 25.5 C29.8 25.8 29.8 25.8 32 28 C28.9 29 26.5 29 23.3 28.5 C22.3 28.4 21.4 28.3 20.5 28.1 C19.5 28 18.6 27.8 17.6 27.7 C16.6 27.5 15.6 27.4 14.6 27.3 C12.6 27 10.7 26.7 8.7 26.4 C6.4 26.1 4 25.7 1.7 25.4 C1.1 25.3 1.1 25.3 -1.8 24.9 C-2.8 24.8 -3.8 24.7 -4.8 24.5 C-5.2 24.4 -5.2 24.4 -7 24 C-7.3 23.3 -7.7 22.7 -8 22 C-9.8 21.4 -9.8 21.4 -12.1 20.9 C-13 20.7 -13.8 20.5 -14.7 20.3 C-15.6 20.1 -16.5 19.9 -17.4 19.7 C-24.8 18 -31.5 16 -38 12 C-38 11 -38 10 -38 9 C-36.3 10 -34.7 11 -33 12 C-33 11.3 -33 10.7 -33 10 C-23.8 2 -11.9 -0.2 0 0 Z " fill="#39A1F4" transform="translate(102,36)"/>
<path d="M0 0 C2.1 0.3 4.3 0.6 6.4 0.9 C7.6 1.1 8.7 1.3 10 1.5 C13 2 13 2 15 3 C17 3.3 18.9 3.5 20.9 3.8 C22 3.9 23.2 4 24.4 4.2 C25.6 4.3 26.9 4.4 28.1 4.6 C29.4 4.7 30.6 4.8 31.9 5 C34.9 5.3 38 5.7 41 6 C32.2 10.5 24.9 11.4 15 11 C13 10.9 11 10.9 9.1 10.8 C6.9 10.7 4.8 10.6 2.6 10.6 C2.1 10.5 2.1 10.5 -0.5 10.4 C-15 9.8 -15 9.8 -18.4 6.9 C-19 6.3 -19.5 5.7 -20 5 C-18.9 5.2 -17.9 5.3 -16.8 5.5 C-10.9 6.2 -5 6.1 1 6.1 C2.2 6.1 3.3 6.1 4.5 6 C7.3 6 10.2 6 13 6 C13.3 5.3 13.7 4.7 14 4 C13.2 4 12.5 3.9 11.7 3.9 C10.7 3.8 9.7 3.8 8.7 3.7 C7.7 3.6 6.7 3.6 5.7 3.5 C2.8 3 1.8 2.3 0 0 Z " fill="#56DCFB" transform="translate(82,60)"/>
<path d="M0 0 C13.3 -0.8 25.9 1.6 39 4 C42 4.5 44.9 5.1 47.9 5.6 C48.2 5.7 48.2 5.7 49.9 6 C57.9 7.4 65.9 8.2 74 9 C74 9.3 74 9.7 74 10 C69.4 10.3 64.8 10.7 60 11 C60 11.3 60 11.7 60 12 C58.3 12 56.5 12 54.8 12.1 C54.3 12.1 54.3 12.1 51.9 12.1 C49.1 12 46.7 11.6 44 11 C45.3 10.3 46.6 9.7 48 9 C37.4 7.3 26.9 5.7 16 4 C16.3 4.3 16.7 4.7 17 5 C13 6.6 10.2 5.4 6.2 4.1 C5.7 3.9 5.7 3.9 2.7 2.9 C1.8 2.6 0.9 2.3 0 2 C0 1.3 0 0.7 0 0 Z " fill="#ECDC9E" transform="translate(45,77)"/>
<path d="M0 0 C0.4 -0 0.4 -0 2.1 -0 C5.9 -0 9.4 0.2 13.1 1.1 C13.1 1.8 13.1 2.4 13.1 3.1 C14.1 2.9 15.1 2.7 16.1 2.4 C20.8 2.1 22.9 3.1 27.1 5.1 C32.6 6.9 38.3 8 44.1 9.1 C44.1 9.8 44.1 10.4 44.1 11.1 C37.8 10.6 31.7 9.8 25.5 8.6 C15.6 6.8 6.4 5.7 -3.7 6.2 C-6.8 6.1 -8.4 6 -10.9 4.1 C-11.3 3.1 -11.6 2.1 -11.9 1.1 C-8 -0.2 -4.1 -0 0 0 Z " fill="#62A5F0" transform="translate(49.9375,71.875)"/>
<path d="M0 0 C0.6 0 0.6 0 3.7 0.1 C1.7 3.1 1.7 3.1 -1.9 4 C-3.4 4.2 -5 4.5 -6.5 4.7 C-7.3 4.8 -8.1 4.9 -9 5.1 C-23.1 7.1 -37.1 7.2 -51.3 7.1 C-51.3 6.7 -51.3 6.4 -51.3 6.1 C-69.1 5.7 -87 5.4 -105.3 5.1 C-105.3 4.7 -105.3 4.4 -105.3 4.1 C-104.9 4.1 -104.9 4.1 -102.7 4 C-94.3 4 -85.9 3.9 -77.5 3.8 C-73.2 3.7 -68.9 3.7 -64.6 3.6 C-43.2 3.4 -21.1 -0.4 0 0 Z " fill="#FCFA99" transform="translate(235.3125,83.9375)"/>
<path d="M0 0 C1 0 2 0 3 0.1 C3.4 0.1 3.4 0.1 5.2 0.1 C5.2 0.5 5.2 0.8 5.2 1.1 C4.3 1.4 3.3 1.7 2.3 1.9 C-0.5 2.7 -3.2 3.6 -5.9 4.6 C-10.9 6.3 -15.9 7 -21.1 7.7 C-23.8 8.1 -23.8 8.1 -24.8 9.1 C-35.6 10.9 -46.8 10.2 -57.8 10.1 C-57.8 9.8 -57.8 9.5 -57.8 9.1 C-56.9 9 -56.1 8.9 -55.2 8.8 C-48.6 7.9 -42.9 6.6 -36.8 4.1 C-30.4 2.7 -23.8 2.8 -17.3 2.6 C-16.4 2.6 -15.5 2.5 -14.5 2.5 C-14.1 2.5 -14.1 2.5 -12 2.4 C-7.6 1.8 -4.8 -0.1 0 0 Z " fill="#6EDBF9" transform="translate(254.75,74.875)"/>
<path d="M0 0 C6.5 4 13.4 10.1 15.4 17.5 C15.4 18.3 15.4 19.1 15.4 20 C14 18 12.5 16.1 11.2 14 C7.4 8.2 3.1 5 -3.6 3 C-11 1.9 -17.2 2.3 -23.6 6.4 C-30.6 11.9 -37 18.9 -38.6 28 C-38.6 30.1 -38.6 32.1 -38.6 34.2 C-38.6 34.8 -38.6 34.8 -38.6 37.5 C-38.6 38.3 -38.6 39.1 -38.6 40 C-39.5 39.6 -40.5 39.3 -41.6 39 C-42.1 30 -42.2 24.1 -36.6 17 C-35.8 15.7 -35.2 14.5 -34.5 13.2 C-31.8 8.7 -29.3 6.2 -24.6 4 C-24.2 3.3 -23.9 2.6 -23.6 2 C-16.3 -1.6 -7.7 -3.1 0 0 Z " fill="#EF8901" transform="translate(124.5546875,139.03125)"/>
<path d="M0 0 C-0.3 1.3 -0.7 2.6 -1 4 C-0 4.7 1 5.3 2 6 C-2.2 9 -6.1 11.3 -11 13 C-12 12.7 -13 12.3 -14 12 C-12 11.3 -10 10.7 -8 10 C-8 9.3 -8 8.7 -8 8 C-8.3 8 -8.3 8 -9.7 8.2 C-17.5 9.1 -25.2 9.1 -33 9 C-31.5 6 -29.3 5.7 -26.2 4.4 C-25.1 4 -24.1 3.6 -23 3.1 C-20.6 2.2 -18.4 1.5 -16 1 C-16.3 2 -16.7 3 -17 4 C-16.5 3.8 -16.5 3.8 -13.9 2.6 C-4.4 -1.5 -4.4 -1.5 0 0 Z " fill="#6095F4" transform="translate(285,66)"/>
<path d="M0 0 C1.1 -0 2.1 -0 3.2 -0 C6 0.2 6 0.2 9 2.2 C11 2.6 13 2.9 15 3.2 C15 3.8 15 4.5 15 5.2 C15.3 5.3 15.3 5.3 16.8 6 C20.7 8.1 23.4 11.5 26 15.2 C26.9 18.7 26.9 18.7 27 21.2 C26.5 20.5 25.9 19.8 25.4 19.1 C24.6 18.2 23.8 17.2 23 16.2 C22.6 15.6 22.2 15.1 21.8 14.5 C17 8.4 11.5 4.9 3.8 3.7 C-4.2 3.3 -9.9 4.9 -16 10.2 C-23.9 18.2 -26.3 26.2 -27 37.2 C-27.3 37.2 -27.7 37.2 -28 37.2 C-28.5 25.5 -27.5 18.4 -20 9.3 C-14.3 3.3 -8.3 0.1 0 0 Z " fill="#EE8201" transform="translate(206,137.8125)"/>
<path d="M0 0 C-3.3 2.2 -6.2 3 -10 4 C-9.8 4.7 -9.8 4.7 -9 8 C-9.9 8.2 -10.7 8.4 -11.6 8.7 C-20 10.9 -28.6 13.3 -36 18 C-36.9 20.2 -36.9 20.2 -37 22 C-41.7 20.5 -41.7 20.5 -43.2 17.9 C-43.4 17.3 -43.7 16.7 -44 16 C-43.2 15.9 -42.5 15.7 -41.7 15.6 C-40.7 15.4 -39.7 15.2 -38.7 15.1 C-37.7 14.9 -36.7 14.7 -35.7 14.5 C-33 14 -33 14 -30 13 C-29.7 12.3 -29.3 11.7 -29 11 C-27 10.3 -25 9.6 -23 9 C-23 8 -23 7 -23 6 C-23.7 6.2 -24.3 6.4 -25 6.7 C-29.8 8.2 -33.9 9.4 -39 9 C-32.7 4.8 -24.9 3.7 -17.5 2.5 C-15 2 -15 2 -11.3 0.9 C-7.4 -0.2 -4.1 -0.1 0 0 Z " fill="#33B2FB" transform="translate(99,23)"/>
<path d="M0 0 C0.3 0 0.3 0 1.9 0.1 C22 0.9 42.1 1.3 62.2 1.5 C66.4 1.6 70.6 1.6 74.7 1.7 C82.8 1.8 90.9 1.9 99 2 C99 2.3 99 2.7 99 3 C94.4 3.7 89.9 4.1 85.2 4.2 C83.9 4.2 82.6 4.2 81.3 4.2 C79.9 4.2 78.4 4.2 77 4.2 C76.3 4.2 75.6 4.2 74.8 4.2 C71 4.2 67.1 4.2 63.3 4.2 C60.1 4.2 57 4.3 53.8 4.3 C35.6 4.4 18 4.1 0 1 C0 0.7 0 0.3 0 0 Z " fill="#8EEEF9" transform="translate(96,83)"/>
<path d="M0 0 C-1 0.3 -2 0.7 -3 1 C-2.8 1.7 -2.8 1.7 -2 5 C-3.7 5 -5.3 5 -7 5 C-7 4.7 -7 4.3 -7 4 C-11.8 4.5 -16.6 4.9 -21.4 5.5 C-39.6 7.6 -57.9 7.2 -76.2 7.1 C-80.7 7.1 -85.2 7.1 -89.7 7.1 C-98.5 7.1 -107.2 7 -116 7 C-116 6.7 -116 6.3 -116 6 C-115.3 6 -114.5 6 -113.7 6 C-106.7 5.9 -99.6 5.8 -92.5 5.7 C-88.9 5.6 -85.2 5.6 -81.6 5.5 C-78.1 5.5 -74.6 5.4 -71 5.3 C-69.1 5.3 -67.1 5.3 -65.1 5.3 C-59.3 5.2 -53.7 4.9 -48 4 C-45.2 3.8 -42.5 3.6 -39.7 3.5 C-38.1 3.4 -36.6 3.3 -35 3.2 C-32.5 3.1 -30.1 3 -27.6 2.9 C-25.3 2.8 -22.9 2.6 -20.5 2.5 C-19.8 2.5 -19 2.4 -18.3 2.4 C-13.1 2.1 -13.1 2.1 -12 1 C-8 0.3 -4.1 -0.1 0 0 Z " fill="#E7F9D7" transform="translate(243,81)"/>
<path d="M0 0 C3.4 1.6 6.5 3.6 9.6 5.8 C17.5 10.8 26 13.5 35 16 C35.9 16.3 36.9 16.5 37.8 16.8 C51.7 20 67.2 18.8 80.9 15.6 C83.8 15 85.3 15 88 16 C80.6 20 72.4 20.3 64.2 20.2 C63.3 20.2 62.4 20.2 61.5 20.2 C59.6 20.2 57.8 20.2 55.9 20.2 C53 20.2 50.2 20.2 47.3 20.2 C45.5 20.2 43.7 20.2 41.9 20.2 C41.5 20.2 41.5 20.2 39.3 20.2 C36 20.1 33.2 20.1 30 19 C30 18.3 30 17.7 30 17 C28.8 16.6 27.6 16.2 26.3 15.8 C10.1 10.4 10.1 10.4 5 7 C5 6 5 5 5 4 C4.4 3.7 3.7 3.4 3.1 3.1 C1 2 1 2 0 0 Z " fill="#571807" transform="translate(102,207)"/>
<path d="M0 0 C0.3 0 0.7 0 1 0 C1.1 3.9 1.1 7.7 1.1 11.6 C1.1 12.6 1.2 13.7 1.2 14.9 C1.2 23.9 1.2 23.9 -0.1 28 C-1 31 -1 31 -0.5 33 C0.3 36.4 -1.3 39.5 -2.4 42.8 C-2.7 43.4 -2.9 44.1 -3.2 44.9 C-3.8 46.6 -4.4 48.3 -5 50 C-5.8 50.2 -5.8 50.2 -10 51 C-10.8 49.3 -10.8 49.3 -11 47 C-9.7 45.3 -8.4 43.7 -7 42 C-7.2 41.5 -7.2 41.5 -8 39 C-7 39 -6 39 -5 39 C-5 38.2 -5 37.5 -5.1 36.7 C-5.1 35.7 -5.1 34.7 -5.1 33.7 C-5.1 32.7 -5.2 31.7 -5.2 30.7 C-5 28 -5 28 -3 25 C-2.6 22.6 -2.6 22.6 -2.4 19.7 C-2.4 19.2 -2.4 19.2 -2.2 16.7 C-2.1 15.6 -2 14.5 -1.9 13.4 C-1.8 11.3 -1.6 9.2 -1.5 7.1 C-1.4 6.2 -1.3 5.3 -1.3 4.3 C-1 2 -1 2 0 0 Z " fill="#EF715F" transform="translate(295,174)"/>
<path d="M0 0 C6.7 0.9 13 0.9 19.6 -0.4 C19.6 0.2 19.6 0.9 19.6 1.6 C25.2 1.6 30.8 1.6 36.6 1.6 C36.8 1.9 36.8 1.9 37.6 3.6 C12.5 3.6 -12.5 3.6 -38.4 3.6 C-38.4 4.2 -38.4 4.9 -38.4 5.6 C-43 6.8 -47.6 6.7 -52.4 6.6 C-48.9 3.4 -46 3.1 -41.4 2.6 C-40.8 2.4 -40.2 2.2 -39.5 2.1 C-36.8 1.4 -34.3 1.4 -31.5 1.3 C-30.4 1.2 -29.3 1.2 -28.1 1.2 C-27.5 1.2 -27.5 1.2 -24.6 1.1 C-11.5 0.7 -11.5 0.7 -7.3 0 C-4.6 -0.4 -2.7 -0.4 0 0 Z " fill="#099EFC" transform="translate(159.375,27.4375)"/>
<path d="M0 0 C0.4 -0 0.4 -0 2.6 -0 C18.8 -0 34.6 1.2 50.7 3.2 C50.9 3.7 50.9 3.7 51.7 6.2 C49.2 6.1 46.8 6 44.4 5.8 C43.7 5.8 43 5.7 42.3 5.7 C39.2 5.5 36.6 5.2 33.7 4.2 C31.2 4 28.7 3.8 26.2 3.7 C25.4 3.6 24.7 3.6 23.9 3.6 C17.4 3.2 10.9 3.2 4.4 3.3 C0.1 3.3 -4 3.1 -8.2 2.6 C-13.3 2 -17.8 2.8 -22.7 3.9 C-25.3 4.2 -26.9 4.1 -29.3 3.2 C-29.3 2.6 -29.3 1.9 -29.3 1.2 C-19.6 0.1 -9.8 0 0 0 Z " fill="#208DFB" transform="translate(163.3125,15.75)"/>
<path d="M0 0 C0.6 -0 0.6 -0 3.4 -0 C4 -0 4 -0 7 -0 C7.7 -0 7.7 -0 10.8 -0 C13.4 -0 16.1 -0 18.7 -0 C21.4 0 24.1 0 26.8 -0 C30.6 -0 34.5 -0 38.4 -0 C39 -0 39 -0 42 -0 C48 0 53.7 0.2 59.6 1.1 C59.6 1.5 59.6 1.8 59.6 2.1 C46.7 2.2 33.8 2 20.9 1.6 C19.1 1.6 17.3 1.5 15.5 1.5 C11.2 1.4 6.9 1.2 2.6 1.1 C2.6 1.8 2.6 2.4 2.6 3.1 C1.6 3.2 0.7 3.2 -0.2 3.2 C-9 3.7 -17.6 4.6 -26.3 6.1 C-32 7.1 -37.6 7.3 -43.4 7.1 C-43.4 6.8 -43.4 6.5 -43.4 6.1 C-33.9 4.2 -24.4 2.7 -14.7 1.8 C-9.6 1.3 -5.1 0 0 0 Z " fill="#A4C6DB" transform="translate(137.446044921875,31.87060546875)"/>
<path d="M0 0 C0 3.9 -1.4 5.5 -3.6 8.8 C-8.1 15.9 -11.7 23.3 -15 31 C-15.2 31.5 -15.2 31.5 -16.2 33.8 C-19.5 41.9 -20.7 50.4 -22 59 C-22.2 59.9 -22.4 60.9 -22.6 61.8 C-24.4 74.9 -23.6 88.3 -20.3 101.1 C-19.4 104.8 -18.9 107.3 -20 111 C-20.7 108.8 -21.3 106.6 -21.9 104.4 C-22.3 103.2 -22.7 102 -23 100.7 C-31.1 69.6 -22.6 37 -7.1 9.8 C-5 6.3 -2.6 3.1 0 0 Z " fill="#FCE972" transform="translate(46,106)"/>
<path d="M0 0 C2.1 2.2 4 4.6 6 7 C6.6 7.7 7.2 8.5 7.9 9.2 C9 11 9 11 9 14 C10 14.3 11 14.7 12 15 C12.3 16 12.7 17 13 18 C13.3 18.1 13.3 18.1 14.8 18.8 C18 20.5 19.3 22.9 21.3 25.9 C22 26.9 22.7 28 23.5 29.1 C25 32 25 32 24.7 34.4 C24.5 34.9 24.2 35.5 24 36 C23.5 35.2 23.5 35.2 21 31 C20.7 31.7 20.3 32.3 20 33 C17 28.4 17 28.4 17 25 C16.4 24.8 15.9 24.6 15.3 24.4 C12 22.4 10.3 20.1 8 17 C8 16.3 8 15.7 8 15 C7.4 14.7 6.8 14.5 6.2 14.2 C4 13 2.6 11.9 1 10 C1 9.3 1 8.7 1 8 C0 8 -1 8 -2 8 C-2.7 6 -3.3 4 -4 2 C-4.7 2 -5.3 2 -6 2 C-6 1.3 -6 0.7 -6 0 C-2.2 -1.1 -2.2 -1.1 0 0 Z " fill="#F7875A" transform="translate(254,85)"/>
<path d="M0 0 C1.9 -0 3.8 -0 5.8 -0.1 C6.3 -0.1 6.3 -0.1 9 -0.1 C12 0 12 0 13.9 0.5 C16.6 1.1 19.2 1.2 21.9 1.3 C31.2 1.6 40 2 47 9 C47 9.7 47 10.3 47 11 C44.4 12.5 43.1 13 40 13 C39.4 12.4 38.8 11.8 38.2 11.1 C30.1 3.2 10.9 2.1 0 1 C0 0.7 0 0.3 0 0 Z " fill="#F9D446" transform="translate(202,39)"/>
<path d="M0 0 C0.4 0 0.4 0 2.4 0 C30.1 0.2 30.1 0.2 42.9 2.5 C48 3.4 53.1 4.1 58.2 4.8 C59.2 4.9 60.2 5 61.3 5.2 C63.7 5.5 66.1 5.8 68.4 6.1 C68.4 6.5 68.4 6.8 68.4 7.1 C66 7.2 63.6 7.2 61.2 7.2 C60.8 7.2 60.8 7.2 59.1 7.2 C55.7 7.2 52.7 7 49.4 6.1 C46.3 5.9 43.1 5.7 39.9 5.5 C36.4 5.1 36.4 5.1 32.9 4.1 C27.9 2.8 23 2.8 17.8 2.7 C16.8 2.7 15.8 2.7 14.8 2.7 C11.7 2.6 8.6 2.5 5.4 2.5 C3.3 2.5 1.2 2.4 -1 2.4 C-6.2 2.3 -11.4 2.2 -16.6 2.1 C-16.6 1.8 -16.6 1.5 -16.6 1.1 C-11 0.3 -5.6 -0 0 0 Z " fill="#FBE671" transform="translate(164.5625,33.875)"/>
<path d="M0 0 C0 3 0 3 -1.6 6.1 C-3.5 10.5 -3.2 14.4 -2 19 C-0.4 22.1 -0.4 22.1 1 24 C1.5 23.6 2.1 23.3 2.7 22.9 C5.7 21.7 7.2 22.3 10.4 23.2 C11.3 23.5 12.3 23.8 13.3 24.1 C19.7 26.2 19.7 26.2 22 27 C22 27.3 22 27.7 22 28 C21.3 28 20.5 28.1 19.8 28.1 C18.8 28.2 17.8 28.3 16.8 28.4 C15.8 28.4 14.9 28.5 13.9 28.6 C11 29 8.7 29.8 6 31 C-4 23.1 -4 23.1 -5.8 17.1 C-6.4 11.5 -5.1 6.6 -1.9 1.9 C-1.6 1.6 -1.6 1.6 0 0 Z " fill="#3D86FB" transform="translate(31,44)"/>
<path d="M0 0 C6.6 -0.1 6.6 -0.1 10 1 C15.6 2.2 21.3 2.3 27.1 2.6 C28.1 2.6 29.1 2.6 30.2 2.7 C49.9 3.5 49.9 3.5 56.1 2.4 C59.2 2 60.4 2.2 63 4 C63 4.3 63 4.7 63 5 C62.4 5 61.8 5 61.2 5 C54.4 4.9 47.4 4.9 40.7 6.6 C37 7.2 33.4 6.7 29.7 6.2 C28.9 6.2 28.1 6.1 27.3 6 C5.7 3.3 5.7 3.3 0 0 Z " fill="#36C7FC" transform="translate(58,67)"/>
<path d="M0 0 C6.8 0.4 11.9 1.9 18 5 C18 5.7 18 6.3 18 7 C18.5 7 18.5 7 20.7 7.1 C21.9 7.2 23.1 7.3 24.3 7.4 C25.5 7.4 26.7 7.5 27.9 7.6 C31 8 31 8 34 10 C33 11 33 11 30.5 11.1 C28 11 28 11 27 10 C24.8 10 22.7 10.1 20.5 10.2 C14.4 10.2 9.1 9.7 4 6 C3.7 5 3.3 4 3 3 C1.4 1.3 1.4 1.3 0 0 Z " fill="#9B574A" transform="translate(114,219)"/>
<path d="M0 0 C0.8 0.2 0.8 0.2 5 1 C5 1.7 5 2.3 5 3 C6 3 7 3 8 3 C8 3.7 8 4.3 8 5 C9.7 5.3 11.3 5.7 13 6 C13 6.7 13 7.3 13 8 C13.9 8.3 14.7 8.6 15.6 8.8 C19.9 10.3 24 12.1 28.2 13.9 C31.1 15 33.8 15.8 36.8 16.4 C39 17 39 17 42.2 18.5 C46.3 20.4 50.5 20.7 55 21 C55 21.7 55 22.3 55 23 C55.4 23 55.4 23 57.4 23.1 C57.9 23.2 57.9 23.2 60.4 23.4 C61.4 23.4 62.5 23.5 63.5 23.6 C64.3 23.7 65.1 23.9 66 24 C66.2 24.3 66.2 24.3 67 26 C46 25.5 17.2 16.4 1.6 1.8 C1.1 1.2 0.6 0.6 0 0 Z " fill="#F57861" transform="translate(75,279)"/>
<path d="M0 0 C2.4 0.1 4.7 0.3 7.1 0.5 C12.3 1 16.8 0.7 22 0 C23.3 0.3 24.7 0.6 26 1 C27.7 0.9 29.4 0.7 31.1 0.5 C35.8 -0.1 35.8 -0.1 38 1 C40.3 1.1 42.6 1.1 44.9 1.1 C46.1 1.1 47.3 1.1 48.6 1.1 C51.3 1 53.4 0.7 56 0 C58.8 0.4 61.3 1.1 64 2 C62.2 3.8 59.6 3.1 57.2 3.1 C56.6 3.1 56.6 3.1 53.5 3.2 C52.1 3.2 50.8 3.2 49.4 3.2 C48 3.2 46.6 3.2 45.3 3.2 C42.4 3.2 39.4 3.2 36.5 3.2 C32.8 3.2 29.1 3.2 25.4 3.2 C22.5 3.2 19.6 3.2 16.8 3.2 C15.4 3.2 14 3.2 12.7 3.2 C10.7 3.3 8.8 3.2 6.9 3.2 C6.4 3.2 6.4 3.2 3.6 3.2 C1 3 1 3 -1 1 C-0.7 0.7 -0.3 0.3 0 0 Z " fill="#34D5FC" transform="translate(123,81)"/>
<path d="M0 0 C2.4 0.2 2.4 0.2 5.1 0.9 C6 1.1 6.9 1.3 7.9 1.5 C8.6 1.7 9.3 1.8 10 2 C10 2.7 10 3.3 10 4 C10.6 4.1 11.2 4.1 11.8 4.2 C12.5 4.3 13.3 4.4 14.1 4.4 C14.9 4.5 15.7 4.6 16.4 4.7 C18.2 4.9 19.9 5.2 21.6 5.5 C26.6 6.2 31.7 6.4 36.9 6.6 C37.9 6.6 39 6.6 40.1 6.7 C42.7 6.8 45.4 6.9 48 7 C43.6 9.9 39.5 9.4 34.3 9.4 C33.3 9.4 32.2 9.4 31.2 9.4 C19.4 9.2 8.9 6.5 -2 2 C-1.3 1.3 -0.7 0.7 0 0 Z " fill="#EA7101" transform="translate(121,216)"/>
<path d="M0 0 C0.5 0 0.5 0 3.2 0 C4 0 4.9 0.1 5.7 0.1 C5.9 0.4 5.9 0.4 6.7 2.1 C7.3 2.4 8 2.7 8.7 3.1 C7.1 4.6 5.5 4.2 3.3 4.3 C2.4 4.3 1.5 4.4 0.5 4.4 C-1.4 4.5 -3.3 4.5 -5.2 4.6 C-10.9 4.8 -15.8 5.6 -21.3 7.1 C-24.8 7.2 -24.8 7.2 -27.3 7.1 C-22.7 3.1 -22.7 3.1 -19.3 3.1 C-19 2.4 -18.7 1.7 -18.3 1.1 C-17.3 1.1 -16.2 1.1 -15.1 1.1 C-11.3 1.1 -11.3 1.1 -9 0.6 C-5.9 -0 -3.1 -0 0 0 Z " fill="#33CCFB" transform="translate(237.3125,73.9375)"/>
<path d="M0 0 C6.5 0.6 6.5 0.6 8.9 2.5 C11.5 4.4 13.6 4.7 16.8 5.2 C17.7 5.3 18.7 5.5 19.7 5.7 C20.5 5.8 21.2 5.9 22 6 C21.7 7 21.3 8 21 9 C17 9.1 13 9.1 9.1 9.1 C7.9 9.1 6.8 9.2 5.7 9.2 C-0.9 9.2 -6.7 8.7 -13 7 C-13 6.7 -13 6.3 -13 6 C-5.7 6 1.5 6 9 6 C7.7 5.3 6.4 4.7 5 4 C3.3 3 1.6 2 0 1 C0 0.7 0 0.3 0 0 Z " fill="#AAF6FA" transform="translate(74,58)"/>
<path d="M0 0 C4.4 0.4 7.4 1.5 11 4 C11.1 6.9 11.2 8.4 10 11 C6.9 13.7 3.5 15.9 0 18 C-0.7 17.7 -1.3 17.3 -2 17 C0 14 0 14 3 13 C3.2 10.7 3.2 10.7 3 8 C1.6 6.4 1.6 6.4 0 5 C-0.8 2.9 -0.8 2.9 -1 1 C-0.7 0.7 -0.3 0.3 0 0 Z " fill="#1192FB" transform="translate(254,32)"/>
<path d="M0 0 C2.4 3.6 2.9 6.9 3.6 11 C5.2 19.1 8 26.3 11.4 33.8 C11.8 34.6 12.1 35.3 12.5 36.1 C12.8 36.7 13.1 37.4 13.4 38.1 C14.1 40.4 13.8 41.7 13 44 C7.9 35.5 3.5 27.3 1.4 17.5 C1.3 16.8 1.1 16.1 1 15.3 C-0 10.2 -0.1 5.2 0 0 Z " fill="#FCB152" transform="translate(24,196)"/>
<path d="M0 0 C73.1 -0.4 73.1 -0.4 84 6 C82.1 5.9 80.2 5.8 78.3 5.6 C77.3 5.6 76.2 5.5 75.1 5.4 C71.7 5.1 68.4 4.6 65.1 4 C58.1 2.9 51.1 2.6 44 2.4 C43.4 2.3 43.4 2.3 40.2 2.2 C36.9 2.1 33.5 2 30.2 1.9 C26.8 1.8 23.4 1.7 20 1.6 C13.3 1.4 6.7 1.2 0 1 C0 0.7 0 0.3 0 0 Z " fill="#EAD2A1" transform="translate(140,33)"/>
<path d="M0 0 C0.7 1 1.3 2 2 3 C1.5 4.6 1.1 6.1 0.6 7.7 C-1.7 16.9 -1.1 27 -0.9 36.4 C-1 39.7 -1.4 42.8 -2 46 C-2.3 46 -2.7 46 -3 46 C-5.8 32.5 -6.3 12.6 0 0 Z " fill="#FBC937" transform="translate(26,154)"/>
<path d="M0 0 C0.3 0.1 0.3 0.1 1.8 0.6 C1.2 1 0.7 1.3 0.1 1.7 C-8.9 7.4 -18.3 15 -21 25.8 C-21.5 28.8 -21.9 31.7 -22.2 34.6 C-22.5 34.6 -22.8 34.6 -23.2 34.6 C-23.5 32.6 -23.8 30.6 -24.2 28.6 C-25.2 28.6 -26.2 28.6 -27.2 28.6 C-25.5 25.3 -23.9 21.9 -22.2 18.6 C-21.5 18.6 -20.9 18.6 -20.2 18.6 C-20 17.9 -19.7 17.2 -19.5 16.4 C-17.9 13 -15.9 11.1 -13.2 8.6 C-12.4 7.8 -11.6 6.9 -10.7 6 C-3.7 -0.7 -3.7 -0.7 0 0 Z " fill="#FBF868" transform="translate(77.18359375,93.3984375)"/>
<path d="M0 0 C0.7 1 1.3 2 2 3 C-7.4 5.6 -17.6 5.1 -27.2 5.1 C-28.4 5.1 -29.5 5.1 -30.7 5 C-33.5 5 -36.2 5 -39 5 C-39.3 4.3 -39.7 3.7 -40 3 C-35.3 2.6 -30.5 2.1 -25.8 1.7 C-24.2 1.6 -22.6 1.4 -21 1.3 C-18.7 1.1 -16.3 0.9 -14 0.7 C-13.7 0.6 -13.7 0.6 -11.9 0.5 C-3.4 -0.3 -3.4 -0.3 0 0 Z " fill="#37C9FB" transform="translate(205,61)"/>
<path d="M0 0 C19.1 0 38.3 0 58 0 C58 0.3 58 0.7 58 1 C57.4 1 56.9 1 56.3 1 C50.4 1.1 44.5 1.2 38.6 1.3 C36.4 1.4 34.3 1.4 32.1 1.4 C10.5 1.7 10.5 1.7 0.6 3.5 C-3.3 4.2 -7.3 4.4 -11.3 4.6 C-12.1 4.7 -12.8 4.7 -13.6 4.7 C-15.4 4.8 -17.2 4.9 -19 5 C-15.3 2.5 -12.1 2.6 -7.8 2.4 C-7.1 2.3 -6.3 2.3 -5.5 2.3 C-3.7 2.2 -1.8 2.1 0 2 C0 1.3 0 0.7 0 0 Z " fill="#46BBF9" transform="translate(121,31)"/>
<path d="M0 0 C4.8 0.7 7.7 3 11.6 5.8 C12.3 6.3 13 6.9 13.7 7.4 C15 8.3 16.4 9.3 17.7 10.2 C19.2 11.3 20.8 12.4 22.4 13.5 C22.4 14.1 22.4 14.8 22.4 15.5 C18.6 14.1 15.5 12.3 12.3 10 C11.4 9.4 10.6 8.7 9.7 8.1 C8.9 7.6 8.2 7 7.4 6.5 C4.2 4.3 2.1 4 -1.6 3.5 C-0.9 11.7 -0.9 11.7 2.4 15.5 C2.4 16.1 2.4 16.8 2.4 17.5 C1.7 17.5 1.1 17.5 0.4 17.5 C0.4 16.8 0.4 16.1 0.4 15.5 C-0.3 15.5 -0.9 15.5 -1.6 15.5 C-5.1 11.2 -5 7.8 -4.6 2.5 C-2.6 0.5 -2.6 0.5 0 0 Z " fill="#E87701" transform="translate(96.61328125,201.5390625)"/>
<path d="M0 0 C-0.3 0.7 -0.7 1.3 -1 2 C-2.8 2.4 -2.8 2.4 -5.1 2.7 C-10.8 3.9 -13.9 7 -18 11 C-19.4 12.3 -20.8 13.7 -22.2 15 C-22.5 15.3 -22.5 15.3 -24 16.8 C-26 18 -26 18 -28.7 17.8 C-31 17 -31 17 -32 15 C-31.5 14.9 -31.5 14.9 -29 14.6 C-24.3 13.3 -22 9.8 -19 6.2 C-13.5 0.1 -7.9 -0.6 0 0 Z " fill="#FBF25B" transform="translate(211,164)"/>
<path d="M0 0 C0.7 0 1.3 0 2 0 C2.7 3 3.3 5.9 4 9 C4.7 9 5.3 9 6 9 C6.7 12.3 7.3 15.7 8 19 C8.2 20 8.4 21.1 8.6 22.2 C8.8 23.2 9 24.2 9.2 25.3 C9.4 26.3 9.6 27.2 9.8 28.2 C10 31.4 9.4 33.2 8 36 C7.7 36 7.3 36 7 36 C6.2 31.9 5.3 27.9 4.5 23.8 C4.3 22.7 4 21.5 3.8 20.3 C3.6 19.2 3.3 18.1 3.1 17 C2.9 15.9 2.7 14.9 2.5 13.9 C2 11.2 1.9 8.7 2 6 C1.3 6 0.7 6 0 6 C0 4 0 2 0 0 Z " fill="#F37A5D" transform="translate(286,138)"/>
<path d="M0 0 C0.7 0.7 1.3 1.3 2 2 C1.2 2.1 0.4 2.2 -0.5 2.3 C-9.7 4 -14.7 7.3 -21 14 C-24 17.2 -25.6 18.6 -30 19 C-30.7 18.7 -31.3 18.3 -32 18 C-32 17.3 -32 16.7 -32 16 C-31.5 15.9 -31.5 15.9 -28.9 15.5 C-24.5 14.3 -22.6 11.5 -19.8 8 C-14.1 1.5 -8.3 -0.4 0 0 Z " fill="#FBF564" transform="translate(117,164)"/>
<path d="M0 0 C0.6 0 0.6 0 3.7 0.1 C1.7 3.1 1.7 3.1 -1.8 4 C-3.3 4.3 -4.8 4.6 -6.3 4.8 C-7.1 4.9 -7.9 5.1 -8.7 5.2 C-17.3 6.5 -25.7 5.9 -34.3 5.1 C-31.2 3 -30 2.7 -26.4 2.5 C-25.9 2.4 -25.9 2.4 -23.5 2.2 C-22.5 2.2 -21.5 2.1 -20.4 2 C-18.5 1.8 -16.5 1.7 -14.5 1.5 C-13.6 1.5 -12.8 1.4 -11.9 1.3 C-7.8 0.9 -4.1 -0.1 0 0 Z " fill="#FBF875" transform="translate(235.3125,83.9375)"/>
<path d="M0 0 C0 0.7 0 1.3 0 2 C-2 2.7 -4 3.3 -6 4 C-6 4.7 -6 5.3 -6 6 C-8 6.3 -10 6.7 -12 7 C-11.3 6.7 -10.7 6.3 -10 6 C-10 5.3 -10 4.7 -10 4 C-12.1 4.3 -14.3 4.6 -16.4 4.9 C-17.6 5.1 -18.7 5.3 -20 5.5 C-23 6 -23 6 -25 7 C-27.7 7.1 -30.3 7 -33 7 C-31.7 6.3 -30.3 5.7 -29 5 C-28 4.5 -27 4 -26 3.5 C-17.8 0.1 -8.7 -0.3 0 0 Z " fill="#D2C8BA" transform="translate(277,74)"/>
<path d="M0 0 C-3.4 3.1 -6.5 3.7 -11 4.6 C-11.3 4.6 -11.3 4.6 -13 4.9 C-15 5.3 -17 5.6 -19 6 C-20 6.2 -21 6.4 -22.1 6.6 C-28 7.7 -33.9 8.3 -39.9 8.7 C-40.7 8.7 -41.4 8.8 -42.1 8.8 C-45.9 9 -49.3 9 -53 8 C-53 7.7 -53 7.3 -53 7 C-52.3 6.9 -51.5 6.9 -50.7 6.8 C-37.4 5.5 -24.2 4.2 -11.1 1.3 C-7.4 0.4 -3.9 -0.2 0 0 Z " fill="#2797F1" transform="translate(243,53)"/>
<path d="M0 0 C13.8 1.3 27.4 3.5 41 6 C41 6.3 41 6.7 41 7 C26.5 9.1 13.6 6.1 0 1 C0 0.7 0 0.3 0 0 Z " fill="#FBF26C" transform="translate(57,80)"/>
<path d="M0 0 C0 0.7 0 1.3 0 2 C-2 2.7 -4 3.3 -6 4 C-6 4.7 -6 5.3 -6 6 C-6.5 6.1 -6.5 6.1 -9.3 6.8 C-9.6 6.9 -9.6 6.9 -11.4 7.3 C-13 7.6 -14.5 8 -16.1 8.4 C-20.6 9.4 -25.1 10.5 -29.6 11.8 C-34.2 12.9 -38.2 13.3 -43 13 C-40.2 10.2 -37.8 10.2 -33.9 9.6 C-28.8 8.6 -23.9 7.5 -19 5.7 C-16.9 5 -14.9 4.5 -12.8 4 C-8.3 2.8 -4.6 0 0 0 Z " fill="#7DE8FB" transform="translate(265,47)"/>
<path d="M0 0 C0.7 0.3 1.3 0.7 2 1 C-1.4 5.7 -4.7 10.1 -9 14 C-9.6 14.5 -10.1 15.1 -10.7 15.6 C-17.6 22.1 -27.5 29.8 -37.3 30.1 C-38.2 30.1 -39.1 30 -40 30 C-37.4 28.3 -35.5 27.4 -32.6 26.4 C-19.6 21.2 -8.1 11.4 0 0 Z " fill="#F2C10B" transform="translate(222,216)"/>
<path d="M0 0 C4 0.7 7.5 1.9 11.2 3.4 C20.4 7 28.2 8.2 38.1 8.2 C38.5 8.3 38.5 8.3 40.6 8.3 C45.6 8.3 50.1 7.7 55 6.3 C57.3 6 58.8 6.3 61 7 C54.4 10.7 48.1 10.5 40.6 10.4 C39.4 10.4 38.1 10.4 36.8 10.4 C23.7 10.2 11.1 8.7 0 1 C0 0.7 0 0.3 0 0 Z " fill="#F6CC0C" transform="translate(121,240)"/>
<path d="M0 0 C0 3.8 -0.6 4.9 -3 8 C-5.9 10.2 -9 12 -12.2 13.8 C-13 14.3 -13.9 14.8 -14.7 15.3 C-16.8 16.6 -18.9 17.8 -21 19 C-21 18 -21 17 -21 16 C-20 15.7 -19 15.3 -18 15 C-18 14.3 -18 13.7 -18 13 C-17.2 12.8 -16.4 12.5 -15.6 12.2 C-14.7 11.8 -13.9 11.4 -13 11 C-12.9 10.4 -12.7 9.7 -12.5 9.1 C-11.9 6.4 -10.9 5.8 -8.7 4.3 C-8.1 3.9 -7.5 3.5 -6.9 3.1 C-4.9 2 -3.2 1.5 -1 1 C-0.7 0.7 -0.3 0.3 0 0 Z " fill="#FBF97E" transform="translate(91,110)"/>
<path d="M0 0 C0.8 0.2 1.7 0.5 2.5 0.7 C4.5 1.3 6.5 1.9 8.6 2.5 C8.6 2.8 8.6 3.2 8.6 3.5 C4.6 3.6 0.7 3.6 -3.2 3.6 C-4.3 3.6 -5.4 3.7 -6.6 3.7 C-7.1 3.7 -7.1 3.7 -9.8 3.7 C-10.8 3.7 -11.8 3.7 -12.8 3.7 C-15.5 3.5 -17.2 3.1 -19.4 1.5 C-19.8 0.5 -20.1 -0.5 -20.4 -1.5 C-13.3 -3.8 -6.9 -2 0 0 Z " fill="#97ADD4" transform="translate(58.4375,74.5)"/>
<path d="M0 0 C1 0.3 2 0.7 3 1 C-0 9 -4.9 15.2 -10.6 21.4 C-11.1 21.9 -11.6 22.4 -12 22.9 C-17 28.2 -17 28.2 -20 30 C-21 29.7 -22 29.3 -23 29 C-22.2 28.4 -21.4 27.8 -20.6 27.2 C-19.6 26.4 -18.6 25.6 -17.6 24.8 C-16.6 24 -15.5 23.3 -14.5 22.5 C-11.8 19.8 -11.5 18.7 -11 15 C-9.4 13.3 -7.7 11.6 -6 10 C-3.4 6.8 -1.3 3.9 0 0 Z " fill="#FBE93D" transform="translate(227,210)"/>
<path d="M0 0 C1.9 0.2 3.8 0.5 5.8 0.8 C6.3 0.8 6.3 0.8 9 1.2 C12.4 2.1 13.8 3.2 16 6 C16 7 16 8 16 9 C13.9 10.2 13.9 10.2 11 11 C6.1 8.8 3 6.6 0 2 C0 1.3 0 0.7 0 0 Z " fill="#177FFB" transform="translate(240,37)"/>
<path d="M0 0 C0.7 0 1.3 0 2 0 C2.7 1.3 3.3 2.6 4 4 C3.1 4.2 2.3 4.4 1.4 4.7 C-7 6.9 -15.6 9.3 -23 14 C-23.9 16.2 -23.9 16.2 -24 18 C-28.7 16.5 -28.7 16.5 -30.2 13.9 C-30.4 13.3 -30.7 12.7 -31 12 C-30.2 11.9 -29.5 11.7 -28.7 11.6 C-27.7 11.4 -26.7 11.2 -25.7 11.1 C-24.7 10.9 -23.7 10.7 -22.7 10.5 C-20 10 -20 10 -17 9 C-16.7 8.3 -16.3 7.7 -16 7 C-12.4 5.9 -8.8 5 -5.2 4.1 C-2 3 -2 3 0 0 Z " fill="#17ABFC" transform="translate(86,27)"/>
<path d="M0 0 C0.3 1 0.7 2 1 3 C3.1 3.7 3.1 3.7 5 4 C4.5 9 3 12 0 16 C-0.7 16.3 -1.3 16.7 -2 17 C-2.3 16.3 -2.7 15.7 -3 15 C-4.6 15.3 -6.3 15.7 -8 16 C-8 15.3 -8 14.7 -8 14 C-7.3 14 -6.7 14 -6 14 C-5.7 13.4 -5.5 12.7 -5.2 12.1 C-4 10 -4 10 -1 9 C-0.7 6 -0.3 3.1 0 0 Z M-3 17 C-3 20 -3 20 -3 20 Z " fill="#3175FB" transform="translate(287,51)"/>
<path d="M0 0 C0 0.7 0 1.3 0 2 C-2.4 3.8 -4.8 5.5 -7.3 7.2 C-8 7.7 -8.7 8.1 -9.4 8.6 C-10.1 9.1 -10.7 9.5 -11.4 10 C-12 10.4 -12.7 10.8 -13.3 11.2 C-15 12 -15 12 -18 11 C-16.8 7.6 -15.9 5.2 -13 3 C-10.7 1.9 -8.4 0.9 -6 0 C-3.5 -1.2 -2.6 -0.8 0 0 Z " fill="#A46F63" transform="translate(204,145)"/>
<path d="M0 0 C-3.9 2.4 -8.2 2.9 -12.7 3.6 C-20.9 4.9 -20.9 4.9 -22 6 C-29.3 7 -36.6 7.1 -44 7 C-44 6.7 -44 6.3 -44 6 C-35 3.7 -26.1 2.4 -16.9 1.3 C-15.8 1.2 -14.7 1.1 -13.6 0.9 C-9.1 0.4 -4.6 -0.1 0 0 Z " fill="#B0EFF3" transform="translate(252,78)"/>
<path d="M0 0 C0.7 0 1.3 0 2 0 C0.5 3.6 -1.3 5.2 -4.4 7.4 C-7.1 9.5 -9 11 -11.1 13.8 C-14.8 18.1 -20.7 18.2 -26 19 C-26 18.3 -26 17.7 -26 17 C-25.1 16.6 -24.2 16.2 -23.3 15.8 C-14.5 11.6 -6.9 6.9 0 0 Z " fill="#FBF567" transform="translate(214,228)"/>
<path d="M0 0 C7.9 1.1 15.4 2.4 23 5 C22.7 6 22.3 7 22 8 C12.8 8 3.5 8 -6 8 C-6 7.7 -6 7.3 -6 7 C0.3 6.7 6.5 6.3 13 6 C13.3 5.3 13.7 4.7 14 4 C13.2 4 12.5 3.9 11.7 3.9 C10.7 3.8 9.7 3.8 8.7 3.7 C7.7 3.6 6.7 3.6 5.7 3.5 C2.8 3 1.8 2.3 0 0 Z " fill="#7CEDFB" transform="translate(82,60)"/>
<path d="M0 0 C1.3 0.7 2.6 1.3 4 2 C4 3 4 4 4 5 C4.7 5 5.3 5 6 5 C7.1 9.3 7.4 11.2 5.2 15.1 C-0.1 20.6 -7.8 23.3 -15 25 C-15 24.3 -15 23.7 -15 23 C-14.2 22.6 -13.4 22.2 -12.6 21.8 C-9.4 20.2 -6.2 18.6 -3 17 C-2.3 16.7 -1.6 16.3 -0.9 16 C0.8 15.1 0.8 15.1 3 13 C3.6 9.4 3.6 9.4 3 6 C1.5 4.2 1.5 4.2 0 3 C0 2 0 1 0 0 Z " fill="#0C86FC" transform="translate(271,35)"/>
<path d="M0 0 C3.1 0.8 6 1.9 9 3 C5.8 3.9 4.2 3.8 1 3 C-1.3 3 -3.7 3 -6 3 C-5.8 4.8 -5.8 4.8 -5 7 C-2.7 8.5 -2.7 8.5 0.1 9.8 C0.5 10 0.5 10 2.8 11 C3.2 11.2 3.2 11.2 5 12 C5 12.3 5 12.7 5 13 C-1.1 13.8 -5 11.1 -10 8 C-10.2 5.1 -10.2 5.1 -10 2 C-6.2 -0.5 -4.5 -0.4 0 0 Z " fill="#6EE7FB" transform="translate(56,52)"/>
<path d="M0 0 C1 0 1.9 0 2.9 0 C5.3 0 7.6 0 9.9 0.1 C9.9 0.4 9.9 0.7 9.9 1.1 C9 1.1 8.1 1.1 7.1 1.2 C-1.6 1.6 -10.2 2.6 -18.9 4 C-24.7 5 -30.2 5.2 -36.1 5.1 C-36.1 4.7 -36.1 4.4 -36.1 4.1 C-33.6 3.6 -31.1 3.1 -28.6 2.6 C-27.9 2.5 -27.2 2.4 -26.5 2.2 C-17.6 0.5 -9.1 -0.1 0 0 Z " fill="#D8CFB2" transform="translate(130.0625,33.9375)"/>
<path d="M0 0 C0.2 0.3 0.2 0.3 1 2 C-7.8 15.4 -17.9 26.5 -30 37 C-30.7 36.7 -31.3 36.3 -32 36 C-31.6 35.6 -31.1 35.2 -30.7 34.8 C-28.7 32.9 -26.7 31.1 -24.7 29.2 C-24 28.6 -23.3 28 -22.6 27.3 C-21.9 26.7 -21.3 26.1 -20.6 25.5 C-20 24.9 -19.3 24.3 -18.7 23.7 C-17 22 -17 22 -15.4 19.8 C-14.9 19.2 -14.5 18.6 -14 18 C-13.3 18 -12.7 18 -12 18 C-11.7 17.4 -11.5 16.9 -11.2 16.3 C-8.2 10.4 -4.2 5 0 0 Z " fill="#F9887E" transform="translate(282,238)"/>
<path d="M0 0 C-8.7 4.7 -18.6 4.3 -28.3 4.3 C-30.5 4.2 -32.7 4.3 -34.8 4.3 C-36.3 4.3 -37.7 4.3 -39.1 4.3 C-40.3 4.3 -41.6 4.3 -42.9 4.3 C-46 4 -46 4 -49 2 C-48.2 2 -47.4 2 -46.6 2 C-18.9 2.5 -18.9 2.5 -6.9 -0.4 C-4.1 -1 -2.6 -1 0 0 Z " fill="#480E00" transform="translate(190,223)"/>
<path d="M0 0 C1.8 0 3.7 0 5.5 0 C9.9 0 14.4 0 18.8 0.1 C18.8 0.4 18.8 0.7 18.8 1.1 C18.3 1.1 18.3 1.1 15.9 1.1 C12.2 1.2 8.6 1.3 4.9 1.4 C3.4 1.4 1.8 1.5 0.2 1.5 C-8.3 1.7 -16.4 2 -24.8 3.7 C-27.3 4.1 -28.8 3.8 -31.2 3.1 C-31.2 2.4 -31.2 1.7 -31.2 1.1 C-20.8 -0.3 -10.4 -0.1 0 0 Z " fill="#1A7CFB" transform="translate(165.1875,15.9375)"/>
<path d="M0 0 C5 -0.1 9.6 0.3 14.6 1.3 C15.2 1.4 15.2 1.4 18.4 2.1 C21.9 3 24.8 4.2 28 6 C28 6.7 28 7.3 28 8 C22.9 7.7 18.7 7.1 14 4.8 C9.5 3 4.7 2.1 0 1 C0 0.7 0 0.3 0 0 Z " fill="#ACF0FA" transform="translate(223,29)"/>
<path d="M0 0 C0.4 0 0.4 0 2.3 0.3 C3.8 0.4 5.4 0.6 7 0.8 C9.4 1.1 11.8 1.4 14.2 1.7 C15.8 1.9 17.3 2.1 18.8 2.2 C19.2 2.3 19.2 2.3 21 2.5 C26.1 3.2 26.1 3.2 28.3 5.4 C25.2 6.4 22.8 6.4 19.6 5.9 C18.7 5.8 17.8 5.6 16.8 5.5 C15.9 5.4 14.9 5.2 13.9 5.1 C12.9 4.9 11.9 4.8 10.9 4.7 C8.1 4.2 5.2 3.8 2.3 3.4 C2 3.3 2 3.3 0 3 C-3.5 2.5 -7.1 2 -10.7 1.4 C-6.8 -1.2 -4.3 -0.5 0 0 Z " fill="#34C8FB" transform="translate(105.66015625,58.609375)"/>
<path d="M0 0 C9 -0.6 17.7 0.3 26 4 C27.4 6.1 27.4 6.1 28 8 C18.7 5.7 9.3 3.3 0 1 C0 0.7 0 0.3 0 0 Z " fill="#5EB0ED" transform="translate(216,36)"/>
<path d="M0 0 C-1.5 4.3 -4.6 6 -8.4 8.2 C-9 8.5 -9.5 8.9 -10.1 9.3 C-13 11 -15.6 12.4 -19 13 C-19 10.8 -19 10.8 -18 8 C-15.5 6.2 -12.8 5 -10.1 3.7 C-9.3 3.3 -8.6 3 -7.8 2.6 C-2.4 0 -2.4 0 0 0 Z " fill="#722B1D" transform="translate(213,213)"/>
<path d="M0 0 C0.7 0.3 1.3 0.7 2 1 C-2.4 6.3 -7 9.3 -13.1 12.4 C-13.7 12.7 -14.4 13.1 -15.1 13.4 C-19.1 15.3 -22.6 16.5 -27 17 C-27 16.3 -27 15.7 -27 15 C-26.2 14.7 -25.5 14.4 -24.7 14.1 C-15.7 10.5 -7.4 6.4 0 0 Z " fill="#4C1201" transform="translate(218,205)"/>
</svg>
