<?xml version="1.0" encoding="UTF-8"?>
<!-- Generator: visioncortex VTracer 0.6.12 -->
<svg version="1.1" xmlns="http://www.w3.org/2000/svg" viewBox="0 0 320 320" width="320" height="320">
<path d="M0 0 C3.1 2.9 5.8 6.2 8.6 9.5 C11 12.3 13.1 13.8 16.5 15.3 C21.1 17.5 24.5 20.4 26.2 25.4 C26.4 26 26.7 26.7 26.9 27.4 C28 30.9 29.3 32.3 32.2 34.5 C36.9 38.2 39.1 42.7 41.6 48 C43.9 52.8 46.4 55.2 50.6 58.5 C52.4 60.7 52.4 60.7 53.8 62.8 C54.3 63.5 54.8 64.2 55.3 65 C58.7 71.5 58.8 77.7 58.7 84.9 C58.7 85.8 58.7 86.7 58.6 87.7 C58.6 89.9 58.6 92.2 58.6 94.5 C59.6 93.7 60.7 92.9 61.7 92.1 C66.9 88.4 70.7 87.2 77.1 87.3 C77.7 87.3 77.7 87.3 80.5 87.3 C83 87.4 85.1 87.7 87.6 88.5 C89.9 84.8 90 81.7 89.6 77.5 C86.5 71 81.3 67.8 74.8 65.4 C73.8 65.1 72.8 64.8 71.9 64.5 C66.6 62.6 63.3 60.5 60.5 55.6 C58.7 51.4 58.7 46.7 60.3 42.5 C62.3 38.6 64.8 35.7 68.6 33.5 C71.7 33.1 71.7 33.1 74.6 33.5 C76.6 35.5 76.6 35.5 76.6 39.3 C76.8 41.5 76.8 41.5 77.6 43.5 C80.3 45.6 83.3 46.4 86.6 47.5 C99.9 51.6 109.4 55.9 116.6 68.3 C119.8 75.2 119.7 83.9 117.9 91.1 C114.2 100.5 107 105.1 98.3 109.7 C94.5 112.1 92 114.5 90.9 119 C90.9 125.5 90.9 125.5 92.8 128.2 C95.5 130.5 98.1 131.7 101.6 132.5 C102 131.9 102.4 131.3 102.8 130.7 C103.3 130 103.9 129.3 104.4 128.5 C105 127.8 105.5 127.1 106 126.3 C107.8 124.1 108.8 123.5 111.6 123.2 C117.9 123 117.9 123 121.1 125.1 C123 128.1 123.6 129.8 123.6 133.5 C121 140.4 116.3 145.9 111.7 151.7 C109.6 154.5 109.6 154.5 108.6 156.5 C109.6 156.5 110.6 156.6 111.7 156.7 C116.1 157.6 119.3 159.2 122.6 162.5 C122.8 166.4 122.7 170.4 122.7 174.4 C122.8 175.5 122.8 176.6 122.8 177.7 C122.8 183.8 122.4 189.3 121 195.2 C120.3 198.5 120 201.8 119.7 205.2 C119.6 206.4 119.4 207.7 119.3 208.9 C119.6 213.2 121 215.1 123.6 218.5 C126.1 225.7 124.9 233.3 121.8 240.1 C118.5 246.2 114.9 249.8 108.6 252.5 C105.8 253 103 253.4 100.2 253.6 C99.4 253.7 98.7 253.8 97.9 253.9 C96.1 254.1 94.3 254.3 92.6 254.5 C92.4 255 92.3 255.6 92.1 256.1 C90 263.4 86.8 269.8 80.2 273.9 C75.6 275.9 70.9 275.8 66 276 C60.8 276.2 56.4 277.2 51.5 278.9 C39.1 283.2 24.2 285.9 11.4 281.8 C9.6 281.5 9.6 281.5 7.4 282.4 C3.8 283.7 0.9 283.7 -2.9 283.7 C-3.6 283.7 -4.3 283.7 -5 283.7 C-6.6 283.7 -8.1 283.7 -9.6 283.7 C-11.8 283.7 -14.1 283.7 -16.4 283.7 C-24.6 283.7 -32.4 283.3 -40.5 281.9 C-47.1 280.9 -53.6 281.4 -60.3 282 C-73 283 -82.2 280 -93.1 273.9 C-97.8 271.9 -101.6 271.8 -106.4 273.5 C-112.4 274 -117.4 274 -122.4 270.5 C-127 265.7 -129.2 262.2 -129.8 255.6 C-129.7 250.9 -128.3 247.2 -125.4 243.5 C-122.9 241.2 -120.3 239.3 -117.4 237.5 C-116.5 236.8 -115.5 236.1 -114.4 235.5 C-118 232.2 -121 232 -125.7 231.6 C-134.1 230.7 -139.1 228.2 -144.8 222.1 C-149 216.8 -150.1 211.1 -149.4 204.5 C-146.5 191.3 -140.6 180.3 -129.4 172.5 C-125.5 170.2 -122 168.5 -117.4 168.5 C-120.5 163.8 -123.5 162.4 -128.8 161 C-136.9 158.4 -142.1 156.4 -146.4 148.8 C-149.3 142.2 -149.8 136.4 -147.4 129.4 C-142.4 118.2 -133.8 111.1 -123.9 104.2 C-120.5 101.8 -117.4 99.3 -115.4 95.5 C-115.1 92.6 -115.1 92.6 -115.4 89.5 C-117.3 87.3 -117.3 87.3 -119.8 85.3 C-122.9 82.9 -125.1 81.2 -126.4 77.5 C-127.1 71.2 -126.2 66.6 -122.4 61.5 C-117.1 56.5 -112.1 55.1 -104.9 55.2 C-101.5 55.6 -99.7 56.9 -97.4 59.5 C-95.8 62.7 -95.9 65.9 -96.4 69.5 C-97.6 71.6 -98.9 73.6 -100.3 75.6 C-101.4 77.5 -101.4 77.5 -102.1 80 C-101.2 83.3 -99.3 85.2 -97 87.7 C-93 92.3 -93 96.6 -93.1 102.5 C-93.9 109.8 -98.5 113.6 -103.6 118.5 C-106.8 121.9 -108.2 124.9 -108.9 129.5 C-108.3 133.3 -107.2 134.8 -104.4 137.5 C-100.4 139.6 -96.4 140.7 -91.9 141.9 C-85.4 143.6 -80.9 146.4 -75.4 150.5 C-75.4 146.8 -75.4 143.2 -75.4 139.5 C-77.1 138.8 -78.7 138.1 -80.4 137.5 C-88 130.1 -91.5 123 -91.7 112.6 C-91.7 107.4 -91.5 102.3 -90.9 97.2 C-90.5 93.8 -90.6 92.5 -91.4 89.5 C-91.9 83.9 -90.7 79.4 -89 74.1 C-88.1 69.8 -89.2 67 -91 63 C-94.7 53.3 -92.7 43.2 -89 33.8 C-79.9 14.1 -64.6 1.6 -44.8 -6.4 C-29.6 -11.6 -13 -10.2 0 0 Z M-65.4 149.5 C-65.1 152.1 -64.8 153.2 -62.7 154.9 C-62 155.4 -61.2 155.8 -60.5 156.3 C-56.6 159 -56.6 159 -55.6 163 C-54 167.8 -51.2 168.6 -46.9 171 C-41.7 174.1 -40 178.9 -38.4 184.5 C-33.4 182.6 -29.9 180.9 -26.4 176.5 C-25.5 172.8 -25.5 172.8 -25.4 169.5 C-28 166.9 -30 166.6 -33.4 165.7 C-41.4 163.3 -47.9 159.9 -54.1 154.2 C-57.6 151 -60.8 150.3 -65.4 149.5 Z M-74.4 152.5 C-73.4 154.5 -73.4 154.5 -73.4 154.5 Z M-72.4 155.5 C-71.5 159.1 -70.5 162.7 -69.4 166.5 C-68 166.3 -68 166.3 -60.4 165.5 C-61.4 161.5 -61.4 161.5 -63.2 160 C-63.9 159.6 -64.6 159.2 -65.3 158.8 C-66 158.3 -66.7 157.9 -67.4 157.5 C-69.4 156.5 -69.4 156.5 -72.4 155.5 Z M21.3 168.3 C18.2 170.3 14.9 171.9 11.6 173.5 C14.1 177.7 16.1 180.3 20.6 182.5 C21.2 182.5 21.9 182.5 22.6 182.5 C23.3 180.9 24.1 179.3 24.9 177.8 C25.4 176.9 25.8 176 26.3 175.1 C27.5 172.6 28.7 170.1 29.6 167.5 C29.2 166.8 28.9 166.1 28.6 165.5 C25.2 165.5 24 166.4 21.3 168.3 Z " fill="#EEC4C3" transform="translate(172.44921875,22.546875)"/>
<path d="M0 0 C0.8 0 1.5 0.1 2.3 0.1 C3.1 0.1 4 0.2 4.8 0.2 C5.3 0.2 5.3 0.2 7.5 0.4 C8 0.4 8 0.4 10.3 0.5 C16.9 1 22.9 1.9 29.1 4.2 C29.5 4.3 29.5 4.3 31.6 5 C38.8 7.6 44.9 11.7 51.1 16.2 C51.4 16.4 51.4 16.4 53.1 17.6 C62.5 25 69.6 36.7 75.3 47.1 C77.1 50.2 77.1 50.2 80.1 52.2 C80.4 53.8 80.8 55.5 81.1 57.2 C81.8 58.4 82.5 59.6 83.2 60.8 C85.1 64.2 85.1 64.2 85.1 67.2 C85.8 67.2 86.4 67.2 87.1 67.2 C88 73.9 88 73.9 85.6 77.4 C83.9 79.4 82 81.3 80.1 83.2 C78.1 85.2 78.1 85.2 77.7 88.6 C78.2 92.8 79 93.5 82.1 96.2 C84 98.8 84.1 100 84 103.2 C83 106.6 82.1 107.5 79.1 109.2 C78.5 108.9 77.8 108.5 77.1 108.2 C77.8 107.5 78.4 106.9 79.1 106.2 C79.7 103.6 79.7 103.6 79.1 100.2 C77.3 98.3 77.3 98.3 75.1 96.2 C71.2 92.6 71.2 92.6 70.2 88.7 C71.5 83.6 74.6 80.1 78.1 76.2 C77.5 76.5 76.9 76.8 76.3 77.2 C74.1 78.2 74.1 78.2 71.1 78.2 C71.1 77.2 71.1 76.2 71.1 75.2 C70.9 75.7 70.6 76.2 70.3 76.8 C66.2 85.1 66.2 85.1 64.1 88.2 C63.5 88.2 62.8 88.2 62.1 88.2 C61.9 88.8 61.6 89.3 61.4 89.9 C59.9 92.6 58.2 94.1 55.9 96.1 C55.5 96.5 55.5 96.5 53.4 98.3 C51.1 100.2 51.1 100.2 49.2 101.4 C47.5 102.4 47.5 102.4 45.1 105.2 C44.5 110.7 45.1 116.2 48.2 120.9 C48.8 121.7 49.5 122.4 50.1 123.2 C49.5 123 49.5 123 46.1 122.2 C52.1 126.4 55.5 127.3 62.7 127.2 C64 127.2 65.3 127.2 66.6 127.2 C67.9 127.2 69.3 127.2 70.6 127.2 C73.2 127.2 75.9 127.1 78.5 127.1 C79.7 127.1 80.9 127.1 82.1 127.1 C84.6 127.2 86.7 127.4 89.1 128.2 C89.1 129.2 89.1 130.2 89.1 131.2 C89.5 131.3 89.5 131.3 91.4 131.9 C94.7 133.5 96.1 135.1 98.1 138.2 C98.1 139.2 98.1 140.2 98.1 141.2 C98.8 141.2 99.4 141.2 100.1 141.2 C104.1 145.7 104.1 145.7 104.1 148.2 C104.8 148.2 105.4 148.2 106.1 148.2 C109.6 157.2 112.5 165.5 112.1 175.2 C111.5 175.3 110.9 175.5 110.2 175.6 C102.7 177.5 97.2 180.6 92.8 187.1 C90.3 191.9 88.7 197 87.1 202.2 C86.1 202.2 85.1 202.2 84.1 202.2 C84.1 201.8 84.1 201.8 84 200.1 C83.7 194.3 82.9 190.1 80.1 185.2 C78.7 182.3 78.2 179.3 77.8 176.2 C76.9 173.4 75.6 172.7 73.1 171.2 C70.8 170.3 70.8 170.3 68.3 169.6 C67.5 169.3 66.7 169.1 65.8 168.8 C59.3 167.3 52.9 167.1 46.2 167.1 C45.3 167.1 44.4 167.1 43.5 167.1 C41.4 167.1 39.2 167.2 37.1 167.2 C38.1 166.9 39.1 166.5 40.1 166.2 C40.1 163.9 40.1 161.6 40.1 159.2 C39.8 159.3 39.8 159.3 38.4 160.1 C36.9 160.8 35.5 161.4 34 162.1 C32.1 163.2 32.1 163.2 30.8 165.2 C29.1 167.2 29.1 167.2 27 167.7 C26.2 167.6 25.4 167.6 24.6 167.6 C23.7 167.6 22.8 167.6 21.9 167.6 C20.9 167.6 19.9 167.5 18.9 167.5 C17.9 167.5 16.9 167.5 15.8 167.5 C12.6 167.4 9.3 167.4 6 167.3 C2.8 167.3 -0.4 167.2 -3.6 167.2 C-5.6 167.1 -7.7 167.1 -9.7 167.1 C-18.7 166.9 -28.2 167.6 -35.5 173.5 C-37.3 175.7 -37.5 177.3 -37.9 180.1 C-38.4 183.2 -38.8 185 -40.5 187.7 C-42.7 191.6 -42.6 195.8 -42.9 200.2 C-46.3 198.8 -46.8 198.3 -48.8 194.9 C-50.1 190.6 -49.5 190.1 -47.9 186.2 C-47 179.6 -47.1 173.5 -51 167.9 C-54.7 164.4 -59.3 162.3 -63.9 160.2 C-62.9 154.7 -61.6 150.1 -58.9 145.2 C-58.2 145.2 -57.6 145.2 -56.9 145.2 C-56.2 143.5 -55.6 141.9 -54.9 140.2 C-54.2 140.2 -53.6 140.2 -52.9 140.2 C-52.9 141.2 -52.9 142.2 -52.9 143.2 C-52.5 142.8 -52.5 142.8 -50.7 140.9 C-47.9 138.2 -47.9 138.2 -45.1 136 C-42.9 134.2 -42.9 134.2 -41.9 132.2 C-40.9 132.2 -39.9 132.2 -38.9 132.2 C-38.5 131.7 -38.1 131.2 -37.7 130.7 C-34.8 128.3 -31.5 128.8 -27.9 128.9 C-27.2 128.9 -26.4 128.9 -25.6 128.9 C-23.1 128.9 -20.7 129 -18.2 129 C-16.5 129 -14.9 129 -13.2 129 C-9.1 129.1 -5 129.1 -0.9 129.2 C-0.9 129.8 -0.9 130.5 -0.9 131.2 C5.8 129.7 5.8 129.7 7.5 127.1 C7.7 126.4 7.9 125.8 8.1 125.2 C5.8 126.8 3.5 128.5 1.1 130.2 C0.8 128.9 0.5 127.5 0.1 126.2 C1.7 124.5 3.4 122.8 5.1 121.2 C7.2 117.4 7.1 115.3 6.1 111.2 C5.3 111 4.5 110.7 3.6 110.5 C-6.6 107.6 -14.4 103.6 -22.2 96.4 C-24.9 94.4 -27.6 93.9 -30.9 93.2 C-30.9 93.8 -30.9 94.5 -30.9 95.2 C-29.4 96.2 -28 97.3 -26.5 98.2 C-23.1 100.8 -21.2 102.5 -20.5 106.7 C-20.4 110.4 -21.3 112.3 -23.7 115.2 C-25.4 116.9 -26.7 118.1 -28.9 119.2 C-28.9 121.5 -28.9 123.8 -28.9 126.2 C-30.2 125.5 -31.5 124.9 -32.9 124.2 C-33.3 119.6 -33.4 117.8 -30.4 114.1 C-29.6 113.2 -28.7 112.2 -27.9 111.2 C-27.1 108.1 -27.1 108.1 -27.9 105.2 C-29.7 103.6 -31.6 102.5 -33.7 101.4 C-36.1 100.1 -38 99 -39.9 97.2 C-41.2 90.2 -39.6 82.8 -38.5 75.9 C-37.9 72.3 -37.6 68.8 -37.2 65.2 C-35.8 48.7 -20.9 2 0 0 Z " fill="#9C4A19" transform="translate(138.888427734375,79.817138671875)"/>
<path d="M0 0 C3.1 2.9 5.8 6.2 8.6 9.5 C11 12.3 13.1 13.8 16.5 15.3 C21.1 17.5 24.5 20.4 26.2 25.4 C26.4 26 26.7 26.7 26.9 27.4 C28 30.9 29.3 32.3 32.2 34.5 C36.9 38.2 39.1 42.7 41.6 48 C43.9 52.8 46.4 55.2 50.6 58.5 C52.4 60.7 52.4 60.7 53.8 62.8 C54.3 63.5 54.8 64.2 55.3 65 C58.7 71.5 58.8 77.7 58.7 84.9 C58.7 85.8 58.7 86.7 58.6 87.7 C58.6 89.9 58.6 92.2 58.6 94.5 C59.6 93.7 60.7 92.9 61.7 92.1 C66.9 88.4 70.7 87.2 77.1 87.3 C77.7 87.3 77.7 87.3 80.5 87.3 C83 87.4 85.1 87.7 87.6 88.5 C89.9 84.8 90 81.7 89.6 77.5 C86.5 71 81.3 67.8 74.8 65.4 C73.8 65.1 72.8 64.8 71.9 64.5 C66.6 62.6 63.3 60.5 60.5 55.6 C58.7 51.4 58.7 46.7 60.3 42.5 C62.3 38.6 64.8 35.7 68.6 33.5 C71.7 33.1 71.7 33.1 74.6 33.5 C76.6 35.5 76.6 35.5 76.6 39.3 C76.8 41.5 76.8 41.5 77.6 43.5 C80.3 45.6 83.3 46.4 86.6 47.5 C99.9 51.6 109.4 55.9 116.6 68.3 C119.8 75.2 119.7 83.9 117.9 91.1 C114.2 100.5 107 105.1 98.3 109.7 C94.5 112.1 92 114.5 90.9 119 C90.9 125.5 90.9 125.5 92.7 128.2 C95.7 130.8 98.6 132.1 102.6 132.5 C100.2 140.3 97.1 146.8 93.6 154.5 C88.1 154.6 88.1 154.6 60.6 155.5 C60.6 156.1 60.6 156.8 60.6 157.5 C57.6 158.4 54.6 159.4 51.6 160.5 C51.4 159.9 51.4 159.9 50.8 157.1 C49.6 153.5 49.6 153.5 47.6 152.1 C47.2 152 47.2 152 45.6 151.5 C43.6 149.5 43.6 149.5 42.9 146.3 C43.6 141.9 44.3 141.5 47.4 138.6 C52.1 134.4 53 130.6 53.6 124.5 C52.9 124.5 52.2 124.5 51.6 124.5 C49.6 120.5 47.6 116.5 45.6 112.5 C45.9 111.5 46.2 110.5 46.6 109.5 C46 109.2 45.4 109 44.7 108.7 C42.1 107.2 41.1 105.8 39.6 103.3 C39 102.5 38.5 101.6 38 100.8 C36.8 98.9 35.7 96.9 34.6 95 C32.1 90.4 28.8 86.5 25.6 82.5 C24.9 81.6 24.3 80.8 23.7 80 C11.9 66.3 -7.7 59.8 -25.2 58.3 C-34.1 57.8 -34.1 57.8 -38.4 59.9 C-40.8 62.3 -42.6 64.7 -44.4 67.5 C-45.3 68.5 -46.2 69.6 -47.1 70.7 C-61.8 88.2 -68.9 106.5 -70.2 129.3 C-70.5 133 -71.2 136.4 -72 140.1 C-72.8 144.2 -73.1 148.3 -73.4 152.5 C-75.4 150.5 -75.4 150.5 -75.6 147.9 C-75.6 146.9 -75.6 145.9 -75.6 144.8 C-75.6 143.8 -75.5 142.8 -75.5 141.8 C-75.5 141 -75.5 140.2 -75.4 139.5 C-76.2 139.2 -76.9 139 -77.7 138.7 C-83.6 136 -88 129.3 -90.4 123.3 C-92.7 115.2 -91.9 105.5 -90.9 97.2 C-90.5 93.8 -90.6 92.5 -91.4 89.5 C-91.9 83.9 -90.7 79.4 -89 74.1 C-88.1 69.8 -89.2 67 -91 63 C-94.7 53.3 -92.7 43.2 -89 33.8 C-79.9 14.1 -64.6 1.6 -44.8 -6.4 C-29.6 -11.6 -13 -10.2 0 0 Z " fill="#E4D9E7" transform="translate(172.44921875,22.546875)"/>
<path d="M0 0 C2.9 1.8 4.5 2.9 6 6 C6.6 12.3 5.6 15.1 2.1 20.2 C1 22 1 22 0.3 24.6 C1.2 27.9 3.1 29.8 5.5 32.3 C9.5 36.9 9.4 41.1 9.3 47 C8.5 54.4 3.9 58.2 -1.2 63.1 C-4.4 66.4 -5.8 69.5 -6.4 74.1 C-5.9 77.9 -4.8 79.3 -2 82 C2.1 84.2 6 85.3 10.5 86.4 C19.1 88.7 24.9 92.6 30 100 C31.6 103.3 32.9 106.6 34 110 C36.6 110 39.3 110 42 110 C41.6 112.9 40.9 114.1 38.9 116.3 C36.5 119.7 36.7 121.9 37 126 C37.7 126.3 38.3 126.7 39 127 C38.9 126.6 38.9 126.6 38.6 124.4 C39.1 120.5 39.5 120.2 42.4 117.9 C43 117.4 43.6 117 44.3 116.5 C46.2 114.8 47 113.3 48 111 C55.3 113.1 59.1 116.5 63 123 C63.7 124.6 64.4 126.3 65 128 C65.9 127.5 66.9 127 67.9 126.4 C68.9 126 69.9 125.5 71 125 C71.7 125.3 72.3 125.7 73 126 C72 127.3 71 128.6 70 130 C70.6 129.7 71.2 129.4 71.8 129.1 C74 128 74 128 77 127 C76.7 128.9 76.7 128.9 76 131 C72.7 133.2 71.8 133.3 68 133 C67.4 132.8 66.9 132.7 66.3 132.5 C61.2 131.4 55.8 131.8 50.6 131.8 C48.4 131.8 46.2 131.8 44 131.8 C42.6 131.8 41.2 131.8 39.8 131.8 C39.2 131.8 39.2 131.8 36 131.8 C33 132 33 132 31 134 C30.3 134.7 29.7 135.3 29 136 C29 135.3 29 134.7 29 134 C28.3 134 27.7 134 27 134 C26.8 134.6 26.5 135.1 26.3 135.7 C23.9 140 20.6 143.1 16 145 C16 144 16 143 16 142 C14.3 143.6 13.1 144.9 12 147 C11.3 147 10.7 147 10 147 C8.2 152 6.7 156.7 6 162 C6.7 162.3 7.3 162.5 8 162.8 C13.8 165.3 17.7 167.9 21 173.4 C23 178.7 23.3 185.1 21 190.4 C20.6 190.9 20.3 191.4 20 192 C19 191.7 18 191.3 17 191 C17 190.3 17 189.7 17 189 C16.2 188.7 15.5 188.5 14.7 188.2 C12 187 12 187 10.6 185.4 C8.3 183.3 6.1 183.4 3 183 C1.9 182.8 0.8 182.6 -0.4 182.4 C-1.2 182.3 -2.1 182.1 -3 182 C-2.7 183 -2.3 184 -2 185 C-7.3 187.5 -12.4 189.6 -18 191 C-18 190 -18 189 -18 188 C-21.7 190.7 -23.6 192.6 -25 197 C-25.8 195.4 -25.8 195.4 -26 193 C-23.3 187.8 -19.8 185.1 -15 182 C-14 181.3 -13 180.7 -12 180 C-15.5 176.7 -18.5 176.5 -23.2 176.1 C-31.7 175.2 -36.6 172.7 -42.4 166.6 C-46.6 161.4 -47.6 155.6 -47 149 C-44.1 135.9 -38.1 124.9 -27 117 C-23 114.8 -19.6 113 -15 113 C-18.1 108.3 -21.1 106.9 -26.3 105.5 C-34.5 103 -39.6 100.9 -43.9 93.4 C-46.9 86.7 -47.3 80.9 -45 74 C-39.9 62.8 -31.3 55.7 -21.4 48.8 C-18 46.3 -14.9 43.8 -13 40 C-12.7 37.1 -12.7 37.1 -13 34 C-14.9 31.8 -14.9 31.8 -17.4 29.9 C-20.4 27.5 -22.6 25.7 -24 22 C-24.6 15.7 -23.8 11.1 -20 6 C-14 0.5 -8 -1 0 0 Z " fill="#F1CBC8" transform="translate(70,78)"/>
<path d="M0 0 C0 4.6 0 9.2 0 14 C0.7 14 1.3 14 2 14 C2.7 14.8 3.5 15.6 4.2 16.4 C8.9 20.8 13.5 21.3 19.8 21.2 C21.1 21.1 22.3 21.1 23.6 21.1 C24.3 21.1 24.3 21.1 27.6 21.1 C30.2 21 32.9 21 35.5 21 C36.6 21 37.8 20.9 39 20.9 C41.5 21 43.6 21.2 46 22 C46 23 46 24 46 25 C46.7 25.2 47.5 25.5 48.2 25.7 C51.6 27.3 53 29 55 32 C55 33 55 34 55 35 C55.7 35 56.3 35 57 35 C61 39.5 61 39.5 61 42 C61.7 42 62.3 42 63 42 C66.5 51 69.4 59.3 69 69 C68.4 69.1 67.7 69.3 67.1 69.4 C59.6 71.3 54.1 74.4 49.7 80.9 C47.2 85.7 45.6 90.8 44 96 C43 96 42 96 41 96 C41 95.6 41 95.6 40.9 93.9 C40.6 88.1 39.8 84 37 79 C35.6 76.1 35.1 73.1 34.7 70 C33.7 67.3 32.5 66.5 30 65 C27.7 64.1 27.7 64.1 25.2 63.4 C24.4 63.1 23.6 62.9 22.7 62.6 C16.1 61.1 9.8 60.9 3.1 60.9 C2.2 60.9 1.3 60.9 0.4 61 C-1.7 61 -3.9 61 -6 61 C-5 60.7 -4 60.3 -3 60 C-3 57.7 -3 55.4 -3 53 C-3.6 53.3 -4.2 53.6 -4.8 53.9 C-6.2 54.6 -7.6 55.3 -9.1 55.9 C-11 57 -11 57 -12.3 59 C-14 61 -14 61 -16.1 61.5 C-16.5 61.5 -16.5 61.5 -18.5 61.4 C-19.4 61.4 -20.3 61.4 -21.2 61.4 C-22.2 61.4 -23.2 61.3 -24.2 61.3 C-25.2 61.3 -26.3 61.3 -27.3 61.3 C-30.6 61.3 -33.8 61.2 -37.1 61.1 C-40.3 61.1 -43.5 61 -46.8 61 C-48.8 61 -50.8 60.9 -52.8 60.9 C-61.8 60.7 -71.3 61.4 -78.6 67.3 C-80.4 69.5 -80.6 71.1 -81 73.9 C-81.5 77 -81.9 78.8 -83.6 81.5 C-85.8 85.4 -85.8 89.6 -86 94 C-89.4 92.6 -90 92.1 -91.9 88.7 C-93.2 84.4 -92.6 83.9 -91 80 C-90.1 73.4 -90.2 67.3 -94.2 61.8 C-97.8 58.2 -102.4 56.1 -107 54 C-106 48.6 -104.8 43.9 -102 39 C-101.3 39 -100.7 39 -100 39 C-99.3 37.3 -98.7 35.7 -98 34 C-97.3 34 -96.7 34 -96 34 C-96 35 -96 36 -96 37 C-95.6 36.6 -95.6 36.6 -93.8 34.8 C-91 32 -91 32 -88.2 29.8 C-86 28 -86 28 -85 26 C-84 26 -83 26 -82 26 C-81.6 25.5 -81.2 25 -80.8 24.5 C-77.9 22.1 -74.6 22.6 -71.1 22.7 C-70.3 22.7 -69.5 22.7 -68.7 22.7 C-66.2 22.7 -63.8 22.8 -61.3 22.8 C-59.6 22.8 -58 22.8 -56.3 22.9 C-52.2 22.9 -48.1 22.9 -44 23 C-44 23.7 -44 24.3 -44 25 C-37.4 23.5 -37.4 23.5 -35.6 20.9 C-35.4 20.3 -35.2 19.6 -35 19 C-37.3 20.7 -39.6 22.3 -42 24 C-42.2 23.3 -42.2 23.3 -43 20 C-41.4 18.3 -39.7 16.6 -38 15 C-36.2 11.5 -35.9 8.9 -36 5 C-35.7 4.3 -35.3 3.7 -35 3 C-34.4 3 -33.9 3 -33.3 3 C-30.7 3.1 -28.1 3.1 -25.5 3.1 C-24.6 3.1 -23.7 3.2 -22.8 3.2 C-17.2 3.2 -12.4 2.6 -7 1 C-2.4 0 -2.4 0 0 0 Z " fill="#944415" transform="translate(182,186)"/>
<path d="M0 0 C3.1 2.9 5.8 6.2 8.6 9.5 C11 12.3 13.1 13.8 16.5 15.3 C21.1 17.5 24.5 20.4 26.2 25.4 C26.4 26 26.7 26.7 26.9 27.4 C28 30.9 29.3 32.3 32.2 34.5 C36.9 38.2 39.1 42.7 41.6 48 C43.9 52.8 46.4 55.2 50.6 58.5 C52.4 60.7 52.4 60.7 53.8 62.8 C54.3 63.5 54.8 64.2 55.3 65 C58.7 71.5 58.8 77.7 58.7 84.9 C58.7 85.8 58.7 86.7 58.6 87.7 C58.6 89.9 58.6 92.2 58.6 94.5 C59.6 93.7 60.7 92.9 61.7 92.1 C66.9 88.4 70.7 87.2 77.1 87.3 C77.7 87.3 77.7 87.3 80.5 87.3 C83 87.4 85.1 87.7 87.6 88.5 C89.9 84.8 90 81.7 89.6 77.5 C86.5 71 81.3 67.8 74.8 65.4 C73.8 65.1 72.8 64.8 71.9 64.5 C66.6 62.6 63.3 60.5 60.5 55.6 C58.7 51.4 58.7 46.7 60.3 42.5 C62.3 38.6 64.8 35.7 68.6 33.5 C71.7 33.1 71.7 33.1 74.6 33.5 C76.6 35.5 76.6 35.5 76.6 39.3 C76.8 41.5 76.8 41.5 77.6 43.5 C80.3 45.6 83.3 46.4 86.6 47.5 C99.9 51.6 109.4 55.9 116.6 68.3 C119.8 75.2 119.7 83.9 117.9 91.1 C114.2 100.5 107 105.1 98.3 109.7 C94.5 112.1 92 114.5 90.9 119 C90.9 125.5 90.9 125.5 92.7 128.2 C95.7 130.8 98.6 132.1 102.6 132.5 C100.2 140.3 97.1 146.8 93.6 154.5 C88.1 154.6 88.1 154.6 60.6 155.5 C60.6 156.1 60.6 156.8 60.6 157.5 C57.6 158.4 54.6 159.4 51.6 160.5 C51.4 159.9 51.4 159.9 50.8 157.1 C49.6 153.5 49.6 153.5 47.6 152.1 C47.2 152 47.2 152 45.6 151.5 C43.6 149.5 43.6 149.5 42.9 146.3 C43.6 141.9 44.3 141.5 47.4 138.6 C52.1 134.4 53 130.6 53.6 124.5 C52.9 124.5 52.2 124.5 51.6 124.5 C49.6 120.5 47.6 116.5 45.6 112.5 C46.2 111.8 46.9 111.1 47.6 110.5 C51.6 115.2 51.6 115.2 51.6 117.5 C52.9 117.8 54.2 118.1 55.6 118.5 C55.9 116.5 56.2 114.5 56.6 112.5 C57.2 112.5 57.9 112.5 58.6 112.5 C58.9 110.5 59.2 108.5 59.6 106.5 C58.9 106.5 58.2 106.5 57.6 106.5 C57.4 105.8 57.3 105.1 57.2 104.4 C57 103.5 56.8 102.6 56.7 101.7 C56.6 101.3 56.6 101.3 56.2 99 C55.3 95.3 53.7 92.7 51.6 89.5 C51.2 87.1 50.9 84.8 50.6 82.5 C49.5 80 49.5 80 48.6 78.5 C49.1 78.8 49.7 79.2 50.4 79.5 C52.6 80.5 52.6 80.5 55.6 79.5 C53.2 68.3 48.8 62.2 40.6 54.5 C39.2 53.1 37.9 51.8 36.6 50.5 C35.8 49.8 35.1 49.1 34.4 48.3 C33.1 47 31.8 45.7 30.6 44.5 C32.2 44.8 33.9 45.1 35.6 45.5 C32.8 38.7 26.8 35.1 21 31.1 C18.8 29.6 16.7 28.1 14.6 26.5 C17.5 26.8 20.5 27.1 23.6 27.5 C21.6 22.9 19.8 20.1 15.6 17.5 C13.2 16.7 10.9 16 8.4 15.4 C7.8 15.1 7.2 14.8 6.6 14.5 C5.9 12.5 5.9 12.5 5.6 10.5 C4.2 9.1 2.9 7.8 1.6 6.5 C1.6 5.8 1.6 5.1 1.6 4.5 C0.9 4.5 0.2 4.5 -0.4 4.5 C-0.8 3.8 -1.2 3.2 -1.6 2.6 C-6.3 -3 -17.6 -4.7 -24.7 -5.5 C-37.6 -6 -52.1 -1.6 -62 7 C-63.2 8.1 -64.3 9.3 -65.4 10.5 C-66.7 11.8 -68 13.1 -69.3 14.4 C-69.9 15 -70.4 15.6 -71 16.2 C-72.4 17.5 -72.4 17.5 -74.4 17.5 C-74.6 18.5 -74.8 19.5 -75 20.6 C-75.9 23.9 -77.1 25.3 -79.8 27.4 C-84.9 31.4 -87.3 36.2 -88.1 42.6 C-88.2 43.9 -88.3 45.2 -88.4 46.5 C-88.6 46.9 -88.6 46.9 -89.1 49 C-89.7 53.3 -88.8 57.3 -87.4 61.5 C-86.5 61.8 -85.5 62.1 -84.4 62.5 C-84.3 61.8 -84.1 61.2 -83.9 60.6 C-82.5 55.8 -81.3 52.8 -77.4 49.5 C-77.1 48.5 -76.8 47.5 -76.4 46.5 C-75.8 46.5 -75.1 46.5 -74.4 46.5 C-74.4 45.8 -74.4 45.1 -74.4 44.5 C-72.5 43.5 -70.5 42.5 -68.4 41.5 C-68.4 42.4 -68.4 43.4 -68.4 44.5 C-69 45 -69.6 45.5 -70.1 46.1 C-72.9 48.9 -74.4 51.8 -76.2 55.2 C-77.3 57.2 -78.5 59 -79.8 60.8 C-81.4 63.5 -81.4 63.5 -81.4 66.5 C-81.7 66.8 -81.7 66.8 -82.8 68.6 C-84.8 72.1 -85.6 75.6 -86.4 79.5 C-86.6 80.3 -86.8 81.1 -87 82 C-87.5 84.1 -88 86.3 -88.4 88.5 C-86.3 86.4 -84.4 84.2 -82.4 82 C-80.5 79.7 -78.6 77.5 -76.4 75.5 C-76.4 79.9 -78.7 83 -80.7 86.9 C-83.1 91.4 -84.9 95.3 -85.4 100.5 C-85.6 100.6 -85.6 100.6 -86.4 101.5 C-87.8 112.1 -89.1 122.3 -82.4 131.5 C-80.3 134 -78 136.3 -75.4 138.5 C-79.5 138.5 -80.5 137.2 -83.4 134.5 C-91.8 124.9 -92 114.6 -91.4 102.5 C-91.3 100.7 -91.1 98.9 -90.9 97.2 C-90.5 93.8 -90.6 92.5 -91.4 89.5 C-91.9 83.9 -90.7 79.4 -89 74.1 C-88.1 69.8 -89.2 67 -91 63 C-94.7 53.3 -92.7 43.2 -89 33.8 C-79.9 14.1 -64.6 1.6 -44.8 -6.4 C-29.6 -11.6 -13 -10.2 0 0 Z " fill="#EEC8C8" transform="translate(172.44921875,22.546875)"/>
<path d="M0 0 C3 2 3.8 3.4 5 6.8 C5 15.2 -1.9 21.9 -6.9 28.2 C-9 31 -9 31 -10 33 C-9 33.1 -7.9 33.2 -6.9 33.2 C-2.4 34.1 0.8 35.8 4 39 C4.3 43 4.2 47 4.2 50.9 C4.2 52 4.2 53.1 4.2 54.3 C4.2 60.3 3.8 65.9 2.5 71.8 C1.8 75 1.3 78.3 0.9 81.6 C0.7 82.8 0.5 84 0.4 85.3 C0.3 85.7 0.3 85.7 0 88 C-1.7 87 -3.4 86 -5.1 85 C-12 81.5 -22.5 81.8 -29.9 83.8 C-34.7 85.8 -38.6 88.3 -41 93 C-41.7 93 -42.3 93 -43 93 C-43.5 91.2 -43.5 91.2 -46 82 C-46.7 82 -47.3 82 -48 82 C-48.1 81.7 -48.1 81.7 -48.3 80.1 C-48.5 79.4 -48.8 78.7 -49 78 C-50 77.7 -51 77.3 -52 77 C-52 76.3 -52 75.7 -52 75 C-52.7 75 -53.3 75 -54 75 C-54.4 74.1 -54.7 73.2 -55.1 72.2 C-57.3 68.5 -59.5 67.3 -63 65 C-63 64 -63 63 -63 62 C-64 62 -64.9 62 -65.9 62 C-69.5 62.1 -73.1 62.1 -76.7 62.2 C-78.2 62.2 -79.8 62.2 -81.3 62.2 C-100.3 62.5 -100.3 62.5 -105.7 57.4 C-106.1 56.9 -106.6 56.5 -107 56 C-106.7 55.3 -106.3 54.7 -106 54 C-105.3 54.7 -104.7 55.3 -104 56 C-102.1 56.9 -102.1 56.9 -99.9 57.6 C-99.2 57.9 -98.4 58.1 -97.7 58.4 C-97.1 58.6 -96.6 58.8 -96 59 C-95.9 58.3 -95.9 57.7 -95.8 57 C-94.8 53.4 -93.2 51 -91.1 48 C-90 46 -90 46 -90 42 C-91.1 42.6 -92.3 43.2 -93.5 43.8 C-95 44.5 -96.4 45.3 -97.9 46 C-98.3 46.2 -98.3 46.2 -100.2 47.2 C-100.6 47.3 -100.6 47.3 -102.4 48.2 C-103.1 48.6 -103.7 48.9 -104.4 49.3 C-106 50 -106 50 -107 50 C-107.9 46.2 -108.5 42.9 -108 39 C-105.5 35.6 -102.4 33.4 -99 31 C-97.5 29.7 -96 28.4 -94.5 27.1 C-93.9 26.6 -93.2 26 -92.5 25.4 C-91 24 -91 24 -90 22 C-89.3 22 -88.7 22 -88 22 C-87.8 21.3 -87.5 20.7 -87.2 20 C-85.2 15.1 -82.9 10.4 -80 6 C-80.3 8 -80.7 10 -81 12 C-78.4 10.7 -75.7 9.4 -73 8 C-74.1 11.4 -75.2 13.2 -77.6 15.9 C-80 19 -80 19 -80.8 22.4 C-79.7 27.2 -77.3 28.9 -73.8 32.1 C-72 34 -72 34 -71.4 37.4 C-72 40 -72 40 -73 42 C-70.9 40.5 -70.9 40.5 -69 38 C-68.9 35.2 -69.4 32.8 -70 30 C-67.8 32.1 -67 33 -66 36 C-59.1 33.2 -59.1 33.2 -58 31 C-47.1 31 -36.2 31 -25 31 C-24.3 29 -23.7 27 -23 25 C-13 -2.4 -13 -2.4 0 0 Z " fill="#EFC5C1" transform="translate(291,146)"/>
<path d="M0 0 C0.7 -0 1.4 -0 2.1 -0 C11.6 0 21 0.3 30.5 1.1 C31.4 1.1 32.4 1.2 33.4 1.3 C48.1 2.7 48.1 2.7 51.8 5.5 C54 8.4 53.5 12 53.4 15.5 C53.4 16.3 53.4 17.1 53.3 17.9 C53 35.3 53 35.3 50.1 41.2 C50 41.5 50 41.5 49.6 43.4 C47.5 54 47.5 54 43.1 57.2 C37.7 58.5 32.3 58.4 26.8 58.4 C25.9 58.4 25 58.4 24.1 58.4 C16.8 58.4 9.1 58.4 3 53.9 C0.9 50.9 0.3 48.8 0.1 45.2 C-0.9 45.5 -1.9 45.8 -2.9 46.2 C-3.7 45.4 -4.4 44.7 -5.1 43.9 C-7.9 41.2 -7.9 41.2 -10.8 39.5 C-11.5 39.1 -12.2 38.6 -12.9 38.2 C-12.9 37.5 -12.9 36.9 -12.9 36.2 C-13.6 36.2 -14.3 36.2 -14.9 36.2 C-14.9 36.8 -14.9 37.5 -14.9 38.2 C-15.6 38.2 -16.3 38.2 -16.9 38.2 C-17.6 37.5 -18.3 36.9 -18.9 36.2 C-24.2 33.5 -32.3 35 -38 35.9 C-41.9 36.2 -41.9 36.2 -43.7 34.7 C-44.1 34.2 -44.5 33.7 -44.9 33.2 C-44.6 32.5 -44.3 31.9 -43.9 31.2 C-42.6 32.2 -41.3 33.2 -39.9 34.2 C-40 33.5 -40 32.9 -40 32.2 C-40.2 26.7 -40 23.8 -36.9 19.2 C-36.7 17.5 -36.4 15.9 -36.2 14.2 C-35.3 9.4 -33.7 7.2 -29.8 4.3 C-21 -1 -9.9 -0 0 0 Z " fill="#D6CCE2" transform="translate(135.9375,245.8125)"/>
<path d="M0 0 C3.2 2.6 5.5 5.8 6 10 C3.4 9.7 0.7 9.3 -2 9 C-1.3 9.5 -0.5 9.9 0.2 10.4 C1.2 11 2.2 11.6 3.2 12.2 C4.2 12.9 5.1 13.5 6.1 14.1 C11.7 17.8 15.3 21.4 19 27 C18.7 27.7 18.3 28.3 18 29 C17.5 28.8 17.5 28.8 15 28 C15.6 28.6 16.1 29.1 16.7 29.7 C19.1 32.1 21.6 34.6 24 37 C24.7 37.7 25.4 38.3 26.2 39 C32.3 44.8 36.6 50 37.2 58.6 C37.2 59.4 37.1 60.2 37 61 C36.3 61 35.7 61 35 61 C34.7 62 34.3 63 34 64 C34 63.3 34 62.7 34 62 C33 62 32 62 31 62 C31.7 62.7 32.3 63.3 33 64 C33.4 66.3 33.7 68.7 34 71 C34.7 71 35.3 71 36 71 C38.3 76.9 39.3 81.7 39 88 C39.7 88 40.3 88 41 88 C40.7 90 40.3 92 40 94 C39.3 94 38.7 94 38 94 C37.7 96 37.3 98 37 100 C35.3 99.9 35.3 99.9 33 99 C31.6 97 30.3 95 29 93 C28.2 92.4 27.4 91.8 26.6 91.2 C21.9 87.3 19 81.8 16.1 76.5 C13.5 72 10.2 68 7 64 C6.4 63.2 5.8 62.4 5.2 61.5 C-6.7 47.8 -26.3 41.3 -43.8 39.9 C-52.6 39.3 -52.6 39.3 -56.9 41.4 C-59.3 43.8 -61.1 46.2 -63 49 C-63.9 50.1 -64.8 51.2 -65.7 52.2 C-80.4 69.7 -87.5 88 -88.8 110.8 C-89 114.5 -89.7 118 -90.5 121.6 C-91.3 125.7 -91.7 129.8 -92 134 C-94 132 -94 132 -94.1 129.5 C-94.1 128.4 -94.1 127.4 -94.1 126.4 C-94.4 121.2 -95.4 118.9 -99.1 115.2 C-100.3 114.1 -101.7 113 -103 112 C-101.7 110.7 -100.4 109.4 -99 108 C-97 110 -96.2 111.5 -95 114 C-95.3 113 -95.5 112.1 -95.8 111.1 C-96.6 105.9 -93.7 102.2 -91 98 C-90.3 98 -89.7 98 -89 98 C-89.4 97.1 -89.7 96.3 -90.1 95.4 C-91.2 91.4 -90.7 89.5 -89.3 85.6 C-88.9 84.5 -88.5 83.4 -88.1 82.2 C-87.8 81.1 -87.4 80.1 -87 79 C-86.7 78.2 -86.4 77.4 -86.2 76.5 C-84.9 72.9 -83.4 70 -81 67 C-80.7 66.4 -80.4 65.8 -80.1 65.2 C-78.8 62.6 -77.2 60.5 -75.5 58.2 C-74.9 57.5 -74.3 56.7 -73.7 55.8 C-73.1 55.2 -72.6 54.6 -72 54 C-71.3 54 -70.7 54 -70 54 C-69.7 53.4 -69.5 52.8 -69.2 52.2 C-66 46.1 -61.4 41.1 -56.4 36.4 C-55 35 -55 35 -54 33 C-53 33 -52 33 -51 33 C-50.7 32 -50.3 31 -50 30 C-48.3 29 -48.3 29 -46 28 C-41.1 25.8 -37.3 23.1 -33.2 19.6 C-32.7 19.2 -32.1 18.7 -31.5 18.2 C-28.2 15.4 -26.3 13.2 -25 9 C-18.7 2.7 -8.8 -2.3 0 0 Z " fill="#DACFE5" transform="translate(191,41)"/>
<path d="M0 0 C0.3 -0 0.3 -0 2.1 -0.1 C9.6 -0.1 15.2 2.5 20.7 7.5 C25 12.4 25.8 18.3 25.6 24.7 C24.6 32.2 21.1 39.3 15.2 44.2 C10.5 47.1 6.3 47.9 0.9 48.4 C0.5 48.5 0.5 48.5 -1.4 48.7 C-3.2 48.9 -5 49.1 -6.8 49.2 C-6.9 49.8 -7 50.4 -7.2 50.9 C-9.3 58.2 -12.5 64.6 -19.1 68.7 C-23.7 70.7 -28.4 70.6 -33.3 70.8 C-38.5 71 -42.9 72 -47.8 73.7 C-60.1 77.9 -72.8 79.4 -85.8 77.2 C-85.8 72.7 -83 70.8 -80 67.5 C-76.9 64.4 -73.5 61.8 -69.8 59.2 C-68.9 58.6 -68 57.9 -67.1 57.2 C-62.8 54.7 -59.2 54.4 -54.4 54 C-53.5 53.9 -52.7 53.8 -51.9 53.8 C-49.8 53.6 -47.8 53.4 -45.8 53.2 C-45.6 52.4 -45.4 51.6 -45.2 50.7 C-42.7 41.5 -39.2 35 -31.3 29.6 C-27.7 27.7 -24.7 27.6 -20.8 27.2 C-20.9 26.5 -21 25.8 -21.2 25 C-21.3 24.5 -21.3 24.5 -21.8 22.1 C-21.9 21.1 -22.1 20.1 -22.3 19.1 C-22.9 15.4 -23.2 12.4 -21.8 8.8 C-16.3 2 -8.3 0.1 0 0 Z " fill="#EDC4C5" transform="translate(271.75,227.75)"/>
<path d="M0 0 C0.8 0 1.5 0.1 2.3 0.1 C3.1 0.1 4 0.2 4.8 0.2 C5.7 0.3 6.6 0.3 7.5 0.4 C8 0.4 8 0.4 10.3 0.5 C16.9 1 22.9 1.9 29.1 4.2 C29.5 4.3 29.5 4.3 31.6 5 C38.8 7.6 44.9 11.7 51.1 16.2 C51.4 16.4 51.4 16.4 53.1 17.6 C62.5 25 69.6 36.7 75.3 47.1 C77.1 50.2 77.1 50.2 80.1 52.2 C80.4 53.8 80.8 55.5 81.1 57.2 C81.8 58.4 82.5 59.6 83.2 60.8 C85.1 64.2 85.1 64.2 85.1 67.2 C85.8 67.2 86.4 67.2 87.1 67.2 C88 73.9 88 73.9 85.6 77.4 C83.9 79.4 82 81.3 80.1 83.2 C78.1 85.2 78.1 85.2 77.7 88.6 C78.2 92.8 79 93.5 82.1 96.2 C84 98.8 84.1 100 84 103.2 C83 106.6 82.1 107.5 79.1 109.2 C78.5 108.9 77.8 108.5 77.1 108.2 C77.8 107.5 78.4 106.9 79.1 106.2 C79.7 103.6 79.7 103.6 79.1 100.2 C77.3 98.3 77.3 98.3 75.1 96.2 C71.2 92.6 71.2 92.6 70.2 88.7 C71.3 84.3 73.6 81.8 76.5 78.3 C78.5 75.6 79.1 73.6 79.1 70.2 C78.8 69.2 78.5 68.2 78.1 67.2 C76.4 69.5 74.7 71.8 73.1 74.2 C73.1 73.4 73.1 72.6 73 71.7 C72.7 65.5 72.5 61.9 68.1 57.2 C65.5 51.9 65 46.9 64.7 41.1 C64.4 34.8 63.7 31.5 59.1 27.2 C56.1 26.9 56.1 26.9 53.1 27.2 C52.7 27 52.7 27 50.9 26.2 C47.5 24.9 44.8 25 41.2 25 C40 25 38.8 25 37.6 25 C34.3 25.2 31.3 25.6 28.1 26.2 C27.9 25.9 27.9 25.9 27.1 24.2 C29.1 22.5 31.1 20.9 33.1 19.2 C32.5 18.9 31.8 18.5 31.1 18.2 C34.1 16.2 35.3 15.9 38.8 15.6 C39.6 15.5 40.4 15.4 41.2 15.3 C41.6 15.3 41.6 15.3 43.1 15.2 C12.7 2.1 12.7 2.1 -1 7.4 C-4.3 9.4 -6.8 11.7 -9.5 14.5 C-10.4 15.4 -11.4 16.3 -12.3 17.3 C-14.2 19.4 -15.6 21.2 -17.1 23.5 C-17.7 24.4 -18.3 25.3 -18.9 26.2 C-19.5 26.2 -20.2 26.2 -20.9 26.2 C-20.6 26.8 -20.2 27.5 -19.9 28.2 C-17.1 27.7 -14.6 27.1 -11.9 26.2 C-12.5 25.5 -13.2 24.9 -13.9 24.2 C-12.5 24.1 -11 24.1 -9.6 24.1 C-9.2 24 -9.2 24 -7.2 24 C-4.9 24.2 -4.9 24.2 -1.9 26.2 C-2.1 27 -2.1 27 -2.9 31.2 C-3.6 31.3 -4.3 31.3 -5 31.4 C-12.1 32.4 -17.4 34.4 -22.9 39.2 C-23.4 39.9 -23.9 40.6 -24.5 41.4 C-24.9 42 -25.4 42.6 -25.9 43.2 C-26.9 43.2 -27.9 43.2 -28.9 43.2 C-29.2 49.5 -29.5 55.7 -29.9 62.2 C-27.9 62.2 -25.9 62.2 -23.9 62.2 C-23.9 61.5 -23.9 60.9 -23.9 60.2 C-23.1 60.3 -22.2 60.5 -21.4 60.6 C-20.8 60.7 -20.8 60.7 -17.9 61.2 C-16.7 61.4 -15.4 61.7 -14.1 61.9 C-7.7 62.7 -1.5 60.1 4.1 57.2 C4.1 60.4 3.8 62.5 1.5 64.8 C-4.5 69.5 -9.8 71.3 -17.3 71.6 C-21.2 70.9 -24.5 69 -27.9 67.2 C-28 70.2 -28 73.3 -28.1 76.3 C-28.1 77.2 -28.1 78 -28.2 78.9 C-28.2 84.2 -27.6 87.5 -24.9 92.2 C-24.9 92.8 -24.9 93.5 -24.9 94.2 C-26.9 93.9 -28.8 93.5 -30.9 93.2 C-30.9 93.8 -30.9 94.5 -30.9 95.2 C-29.4 96.2 -28 97.3 -26.5 98.2 C-23.1 100.8 -21.2 102.5 -20.5 106.7 C-20.4 110.4 -21.3 112.3 -23.7 115.2 C-25.4 116.9 -26.7 118.1 -28.9 119.2 C-28.9 121.5 -28.9 123.8 -28.9 126.2 C-30.2 125.5 -31.5 124.9 -32.9 124.2 C-33.3 119.6 -33.4 117.8 -30.4 114.1 C-29.6 113.2 -28.7 112.2 -27.9 111.2 C-27.1 108.1 -27.1 108.1 -27.9 105.2 C-29.7 103.6 -31.6 102.5 -33.7 101.4 C-36.1 100.1 -38 99 -39.9 97.2 C-41.2 90.2 -39.6 82.8 -38.5 75.9 C-37.9 72.3 -37.6 68.8 -37.2 65.2 C-35.8 48.7 -20.9 2 0 0 Z " fill="#591D0A" transform="translate(138.888427734375,79.817138671875)"/>
<path d="M0 0 C3 2 3.8 3.4 5 6.8 C5 15.2 -1.9 21.9 -6.9 28.2 C-9 31 -9 31 -10 33 C-9 33.1 -7.9 33.2 -6.9 33.2 C-2.4 34.1 0.8 35.8 4 39 C4.2 41.5 4.3 43.9 4.4 46.3 C4.4 47 4.4 47.7 4.5 48.4 C4.6 51.9 4.3 53.6 1.9 56.3 C-5.9 60.8 -16.1 62.6 -25 63 C-25.9 63.1 -26.8 63.1 -27.7 63.2 C-39.4 63.5 -39.4 63.5 -44 60 C-45.6 57.6 -46.8 55.1 -47.9 52.4 C-49.2 49.6 -51 47.4 -53 45 C-53 44.3 -53 43.7 -53 43 C-53 42.3 -53.1 41.6 -53.1 40.9 C-53.2 40.2 -53.2 39.4 -53.2 38.6 C-53.3 37.8 -53.3 37 -53.4 36.2 C-53 34 -53 34 -51.3 32.4 C-48.5 30.7 -46.7 30.7 -43.4 30.7 C-42.8 30.7 -42.8 30.7 -40.1 30.7 C-39 30.8 -37.9 30.8 -36.8 30.8 C-36.2 30.8 -36.2 30.8 -33.3 30.9 C-30.6 30.9 -27.8 30.9 -25 31 C-24.7 30.1 -24.4 29.3 -24.1 28.4 C-13.7 -2.5 -13.7 -2.5 0 0 Z " fill="#CC6318" transform="translate(291,146)"/>
<path d="M0 0 C0.7 -0 1.4 -0 2.1 -0 C11.6 0 21 0.3 30.5 1.1 C31.4 1.1 32.4 1.2 33.4 1.3 C44.9 2.4 44.9 2.4 50.1 4.2 C50.2 4.5 50.2 4.5 51.1 6.2 C50.3 6 49.5 5.9 48.8 5.7 C45.6 5.3 42.6 5 39.4 4.9 C38.5 4.9 37.6 4.9 36.6 4.9 C33.6 5.2 32.4 6.2 30.1 8.2 C29.7 8.3 29.7 8.3 28.1 8.6 C25.2 9.4 23.4 11.3 21.1 13.2 C20.4 13.2 19.7 13.2 19.1 13.2 C18.8 13.7 18.6 14.2 18.3 14.8 C15 21.2 11.2 26.8 6.7 32.5 C4.9 35.5 4.8 36.8 5.1 40.2 C4.4 42.4 4.4 42.4 3.1 44.2 C-0.1 45.4 -0.1 45.4 -2.9 46.2 C-3.7 45.4 -4.4 44.7 -5.1 43.9 C-7.9 41.2 -7.9 41.2 -10.8 39.5 C-11.5 39.1 -12.2 38.6 -12.9 38.2 C-12.9 37.5 -12.9 36.9 -12.9 36.2 C-13.6 36.2 -14.3 36.2 -14.9 36.2 C-14.9 36.8 -14.9 37.5 -14.9 38.2 C-15.6 38.2 -16.3 38.2 -16.9 38.2 C-17.6 37.5 -18.3 36.9 -18.9 36.2 C-24.2 33.5 -32.3 35 -38 35.9 C-41.9 36.2 -41.9 36.2 -43.7 34.7 C-44.1 34.2 -44.5 33.7 -44.9 33.2 C-44.6 32.5 -44.3 31.9 -43.9 31.2 C-42.6 32.2 -41.3 33.2 -39.9 34.2 C-40 33.5 -40 32.9 -40 32.2 C-40.2 26.7 -40 23.8 -36.9 19.2 C-36.7 17.5 -36.4 15.9 -36.2 14.2 C-35.3 9.4 -33.7 7.2 -29.8 4.3 C-21 -1 -9.9 -0 0 0 Z " fill="#E3DAE9" transform="translate(135.9375,245.8125)"/>
<path d="M0 0 C1.1 4.8 1.1 4.8 0 7 C1 7 2 6.9 3 6.9 C14.5 6.6 25.7 7.2 36 13 C38.9 16.7 39.8 20.6 41 25 C41.5 26.1 42.1 27.1 42.6 28.2 C44.5 33.2 44.3 37.7 44 43 C43.5 43 43.5 43 41.1 43.2 C31.8 44.1 26.2 45.8 19 52 C18.4 52.4 17.9 52.9 17.3 53.3 C14.5 55.5 12.3 57.8 10.2 60.6 C6.7 64.7 3.3 66 -2 67 C-6.8 67.3 -11.6 67.4 -16.4 67.3 C-18.7 67.3 -20.9 67.3 -23.1 67.3 C-31.2 67.3 -39 66.8 -47 65.4 C-53.1 64.5 -59.1 64.8 -65.2 65.3 C-65.9 65.4 -66.6 65.4 -67.4 65.5 C-68.8 65.6 -70.3 65.7 -71.7 65.8 C-73.5 66 -75.2 66 -77 66 C-77.7 65.3 -78.3 64.7 -79 64 C-78 64 -77 64 -76 64.1 C-72.1 64 -68.5 63.6 -64.6 63 C-49.5 60.9 -49.5 60.9 -42 64 C-41.7 62.7 -41.3 61.4 -41 60 C-40 60 -39 60 -38 60 C-37.6 60.5 -37.2 60.9 -36.8 61.4 C-32.1 65.5 -22.5 64.2 -16.6 64.2 C-15.7 64.2 -14.8 64.2 -13.9 64.2 C-7.9 64.2 -2.7 63.5 3 62 C3.1 61.4 3.3 60.7 3.4 60.1 C3.8 58.5 4.1 57 4.5 55.5 C5 53 5.5 50.5 6 48 C6.2 47.2 6.3 46.4 6.5 45.5 C6.7 44.7 6.8 43.9 7 43.1 C7.2 42.2 7.3 41.4 7.5 40.6 C7.7 39.7 7.8 38.9 8 38 C8.1 37.5 8.1 37.5 8.5 35.3 C9.1 31.1 9.3 27 9.4 22.8 C9.4 22 9.4 21.2 9.5 20.4 C9.6 14.6 9.6 14.6 7.2 12 C2.5 10.5 -2 10.2 -6.8 9.8 C-7.8 9.7 -8.8 9.6 -9.8 9.6 C-12.2 9.4 -14.6 9.2 -17 9 C-17 8.7 -17 8.3 -17 8 C-15 8 -13 8 -11 8 C-10.9 7.7 -10.9 7.7 -10.2 6.2 C-8.6 3.2 -7.2 1.4 -3.9 0.3 C-2 0 -2 0 0 0 Z " fill="#CEBED7" transform="translate(179,239)"/>
<path d="M0 0 C3.1 2.9 5.8 6.2 8.6 9.5 C11 12.3 13.1 13.8 16.5 15.3 C21.1 17.5 24.5 20.4 26.2 25.4 C26.4 26 26.7 26.7 26.9 27.4 C28 30.9 29.3 32.3 32.2 34.5 C36.9 38.2 39.1 42.7 41.6 48 C43.9 52.8 46.4 55.2 50.6 58.5 C52.4 60.7 52.4 60.7 53.8 62.8 C54.3 63.5 54.8 64.2 55.3 65 C58.7 71.5 58.8 77.7 58.7 84.9 C58.7 85.8 58.7 86.7 58.6 87.7 C58.6 89.9 58.6 92.2 58.6 94.5 C59.6 93.7 60.7 92.9 61.7 92.1 C66.9 88.4 70.7 87.2 77.1 87.3 C77.7 87.3 77.7 87.3 80.5 87.3 C83 87.4 85.1 87.7 87.6 88.5 C89.3 85.4 89.8 83.2 89.7 79.7 C89.7 78.9 89.6 78.1 89.6 77.3 C89.6 76.7 89.6 76.1 89.6 75.5 C92.6 78.1 93.3 80.3 93.7 84.4 C93.5 87.9 91.9 89.9 89.6 92.5 C88.2 92.5 86.9 92.5 85.6 92.5 C85.2 91.5 84.9 90.5 84.6 89.5 C81.9 89.5 79.3 89.5 76.6 89.5 C76.2 90.1 76.2 90.1 74.6 93.5 C73.6 93.5 72.6 93.5 71.6 93.5 C71.6 94.1 71.6 94.8 71.6 95.5 C68.7 96.6 68.7 96.6 65.6 97.5 C64.6 96.8 63.6 96.1 62.6 95.5 C61.3 99.7 61.2 104 60.9 108.5 C60.6 111.4 59.8 113.7 58.6 116.5 C57.2 112.5 58.3 110.3 59.6 106.5 C58.9 106.5 58.2 106.5 57.6 106.5 C57.4 105.8 57.3 105.1 57.2 104.4 C57 103.5 56.8 102.6 56.7 101.7 C56.6 101.3 56.6 101.3 56.2 99 C55.3 95.3 53.7 92.7 51.6 89.5 C51.2 87.1 50.9 84.8 50.6 82.5 C49.5 80 49.5 80 48.6 78.5 C49.1 78.8 49.7 79.2 50.4 79.5 C52.6 80.5 52.6 80.5 55.6 79.5 C53.2 68.3 48.8 62.2 40.6 54.5 C39.2 53.1 37.9 51.8 36.6 50.5 C35.8 49.8 35.1 49.1 34.4 48.3 C33.1 47 31.8 45.7 30.6 44.5 C32.2 44.8 33.9 45.1 35.6 45.5 C32.8 38.7 26.8 35.1 21 31.1 C18.8 29.6 16.7 28.1 14.6 26.5 C17.5 26.8 20.5 27.1 23.6 27.5 C21.6 22.9 19.8 20.1 15.6 17.5 C13.2 16.7 10.9 16 8.4 15.4 C7.8 15.1 7.2 14.8 6.6 14.5 C5.9 12.5 5.9 12.5 5.6 10.5 C4.2 9.1 2.9 7.8 1.6 6.5 C1.6 5.8 1.6 5.1 1.6 4.5 C0.9 4.5 0.2 4.5 -0.4 4.5 C-0.8 3.8 -1.2 3.2 -1.6 2.6 C-6.3 -3 -17.6 -4.7 -24.7 -5.5 C-37.6 -6 -52.1 -1.6 -62 7 C-63.2 8.1 -64.3 9.3 -65.4 10.5 C-66.7 11.8 -68 13.1 -69.3 14.4 C-69.9 15 -70.4 15.6 -71 16.2 C-72.4 17.5 -72.4 17.5 -74.4 17.5 C-74.6 18.5 -74.8 19.5 -75 20.6 C-75.9 23.9 -77.1 25.3 -79.8 27.4 C-84.9 31.4 -87.3 36.2 -88.1 42.6 C-88.2 43.9 -88.3 45.2 -88.4 46.5 C-88.6 46.9 -88.6 46.9 -89.1 49 C-89.7 53.3 -88.8 57.3 -87.4 61.5 C-86.5 61.8 -85.5 62.1 -84.4 62.5 C-84.3 61.8 -84.1 61.2 -83.9 60.6 C-82.5 55.8 -81.3 52.8 -77.4 49.5 C-77.1 48.5 -76.8 47.5 -76.4 46.5 C-75.8 46.5 -75.1 46.5 -74.4 46.5 C-74.4 45.8 -74.4 45.1 -74.4 44.5 C-72.5 43.5 -70.5 42.5 -68.4 41.5 C-68.4 42.4 -68.4 43.4 -68.4 44.5 C-69 45 -69.6 45.5 -70.1 46.1 C-72.9 48.9 -74.4 51.8 -76.2 55.2 C-77.3 57.2 -78.5 59 -79.8 60.8 C-81.4 63.5 -81.4 63.5 -81.4 66.5 C-81.7 66.8 -81.7 66.8 -82.8 68.6 C-84.8 72.1 -85.6 75.6 -86.4 79.5 C-86.6 80.3 -86.8 81.1 -87 82 C-87.5 84.1 -88 86.3 -88.4 88.5 C-86.3 86.4 -84.4 84.2 -82.4 82 C-80.5 79.7 -78.6 77.5 -76.4 75.5 C-76.4 79.9 -78.7 83 -80.7 86.9 C-83.1 91.4 -84.9 95.3 -85.4 100.5 C-85.6 100.6 -85.6 100.6 -86.4 101.5 C-87.8 112.1 -89.1 122.3 -82.4 131.5 C-80.3 134 -78 136.3 -75.4 138.5 C-79.5 138.5 -80.5 137.2 -83.4 134.5 C-91.8 124.9 -92 114.6 -91.4 102.5 C-91.3 100.7 -91.1 98.9 -90.9 97.2 C-90.5 93.8 -90.6 92.5 -91.4 89.5 C-91.9 83.9 -90.7 79.4 -89 74.1 C-88.1 69.8 -89.2 67 -91 63 C-94.7 53.3 -92.7 43.2 -89 33.8 C-79.9 14.1 -64.6 1.6 -44.8 -6.4 C-29.6 -11.6 -13 -10.2 0 0 Z " fill="#FADEC9" transform="translate(172.44921875,22.546875)"/>
<path d="M0 0 C1 0 2 0 3 0 C3.4 0 3.4 0 5.3 0.1 C4 0.4 2.7 0.7 1.3 1.1 C1.3 2.3 1.2 3.6 1.2 4.9 C1.2 5.7 1.1 6.4 1.1 7.1 C1.3 9.1 1.3 9.1 3.3 11.1 C2.7 10.9 2.1 10.8 1.4 10.6 C-12.9 7.5 -12.9 7.5 -18.7 11.2 C-21.1 13.2 -21.6 13.6 -22.1 16.8 C-21.9 17.6 -21.8 18.3 -21.7 19.1 C-23.3 20.7 -25.2 20.2 -27.4 20.2 C-32.1 20.7 -34.6 21.8 -37.7 25.4 C-39.2 28 -39.1 30.1 -38.7 33.1 C-36.4 33.1 -34.1 33.1 -31.7 33.1 C-31.7 33.4 -31.7 33.7 -31.7 34.1 C-32.7 34 -33.8 33.9 -34.9 33.7 C-45.8 33 -45.8 33 -50.4 35.6 C-52.7 37.9 -54.7 40.4 -56.7 43.1 C-57.6 44.1 -58.5 45.2 -59.4 46.3 C-74 63.8 -81.2 82.1 -82.4 104.9 C-82.7 108.6 -83.4 112.1 -84.2 115.7 C-85 119.8 -85.4 123.9 -85.7 128.1 C-87.7 126.1 -87.7 126.1 -87.8 123.5 C-87.8 122.5 -87.8 121.5 -87.8 120.4 C-88.1 115.3 -89.1 112.9 -92.8 109.3 C-94 108.2 -95.3 107.1 -96.7 106.1 C-95.4 104.7 -94 103.4 -92.7 102.1 C-90.7 104 -89.8 105.6 -88.7 108.1 C-89 107.1 -89.2 106.1 -89.5 105.1 C-90.3 100 -87.4 96.2 -84.7 92.1 C-84 92.1 -83.4 92.1 -82.7 92.1 C-83.1 91.2 -83.4 90.3 -83.8 89.5 C-84.9 85.4 -84.3 83.6 -83 79.7 C-82.6 78.6 -82.2 77.4 -81.8 76.3 C-81.5 75.2 -81.1 74.2 -80.7 73.1 C-80.4 72.2 -80.1 71.4 -79.9 70.6 C-78.6 66.9 -77.1 64 -74.7 61.1 C-74.4 60.5 -74.1 59.9 -73.8 59.2 C-72.5 56.7 -70.9 54.6 -69.2 52.3 C-68.6 51.5 -68 50.7 -67.3 49.9 C-66.8 49.3 -66.3 48.7 -65.7 48.1 C-65 48.1 -64.4 48.1 -63.7 48.1 C-63.4 47.5 -63.1 46.9 -62.9 46.3 C-59.7 40.2 -55.1 35.2 -50.1 30.5 C-48.7 29.1 -48.7 29.1 -47.7 27.1 C-46.7 27.1 -45.7 27.1 -44.7 27.1 C-44.5 26.6 -44.5 26.6 -43.7 24.1 C-42 23.1 -42 23.1 -39.7 22.1 C-35 20 -31.4 17.2 -27.6 13.8 C-19.7 6.9 -10.9 -0.1 0 0 Z " fill="#C2A1B5" transform="translate(184.6875,46.9375)"/>
<path d="M0 0 C0.3 0 0.7 0 1 0 C1.1 2.4 1.2 4.8 1.3 7.2 C1.4 7.9 1.4 8.6 1.4 9.3 C1.5 12.9 1.3 14.6 -1.1 17.3 C-8.9 21.7 -19.1 23.6 -28 24 C-28.9 24.1 -29.8 24.1 -30.7 24.2 C-42.4 24.5 -42.4 24.5 -47 21 C-49.2 17.9 -50.9 14.7 -52 11 C-51.7 10.3 -51.3 9.7 -51 9 C-50.3 9 -49.6 9 -48.8 9 C-23.4 9.5 -23.4 9.5 -12 6 C-10.3 5.6 -8.6 5.2 -6.9 4.9 C-3 4 -3 4 0 3 C0 2 0 1 0 0 Z " fill="#B64F10" transform="translate(294,185)"/>
<path d="M0 0 C7.3 2.1 11.1 5.5 15 12 C15.7 13.6 16.4 15.3 17 17 C17.9 16.5 18.9 16 19.9 15.4 C20.9 15 21.9 14.5 23 14 C23.3 14.2 23.3 14.2 25 15 C24 16.3 23 17.6 22 19 C22.6 18.7 23.2 18.4 23.8 18.1 C26 17 26 17 29 16 C28.7 17.9 28.7 17.9 28 20 C24.7 22.2 23.8 22.3 20 22 C19.4 21.8 18.9 21.7 18.3 21.5 C13.2 20.4 7.8 20.8 2.6 20.8 C0.4 20.8 -1.8 20.8 -4 20.8 C-5.4 20.8 -6.8 20.8 -8.2 20.8 C-8.8 20.8 -8.8 20.8 -12 20.8 C-15 21 -15 21 -17 23 C-17.7 23.7 -18.3 24.3 -19 25 C-19 24.3 -19 23.7 -19 23 C-19.7 23 -20.3 23 -21 23 C-21.2 23.6 -21.5 24.1 -21.7 24.7 C-24.1 29 -27.4 32.1 -32 34 C-32 33 -32 32 -32 31 C-33.7 32.6 -34.9 33.9 -36 36 C-36.7 36 -37.3 36 -38 36 C-38.2 36.6 -38.4 37.2 -38.6 37.8 C-40.1 42.2 -41.5 46.6 -43 51 C-43.7 51 -44.3 51 -45 51 C-44.4 42.1 -41.7 36.1 -35 30 C-34.5 29.4 -34 28.7 -33.4 28.1 C-28.1 21.8 -22.9 20.4 -15.2 18.8 C-12 18 -12 18 -10 16 C-9.7 16 -9.3 16 -9 16 C-9.1 15.1 -9.3 14.3 -9.4 13.4 C-8.9 9.5 -8.5 9.2 -5.6 6.9 C-5 6.4 -4.4 6 -3.7 5.5 C-1.8 3.8 -1 2.3 0 0 Z " fill="#F1BDB4" transform="translate(118,189)"/>
<path d="M0 0 C0.3 0 0.7 0 1 0 C1.2 5.3 0.7 9.9 -0.4 15.1 C-1.5 20.7 -2.2 26.4 -3 32 C-4.7 31 -6.4 30 -8.1 29 C-12.2 26.9 -16.2 26.8 -20.8 26.4 C-21.9 26.4 -23.1 26.3 -24.3 26.2 C-25.2 26.1 -26.1 26.1 -27 26 C-27.2 25.3 -27.3 24.6 -27.5 23.8 C-27.7 22.9 -27.9 21.9 -28.2 20.9 C-28.4 20 -28.6 19.1 -28.9 18.1 C-30.3 14.1 -32.4 11.4 -35 8 C-34.4 7.9 -34.4 7.9 -31.4 7.6 C-22.9 6.7 -14.4 5.7 -6 4 C-6.7 7.3 -7.3 10.6 -8 14 C-5.6 13.1 -5.6 13.1 -3 11 C-2.2 8.4 -1.7 5.9 -1.4 3.2 C-1 1 -1 1 0 0 Z " fill="#E07726" transform="translate(294,202)"/>
<path d="M0 0 C0.5 0 0.5 0 3.1 0 C3.6 0 3.6 0 6.3 0.1 C6.9 0.1 6.9 0.1 9.6 0.1 C12.3 0.2 14.9 0.2 17.6 0.3 C16.9 4 16.1 6.5 14 9.6 C13.6 10.3 13.1 11 12.6 11.7 C12.3 12.2 11.9 12.8 11.6 13.3 C31 14 31 14 38.6 9.3 C38.9 8.6 39.2 8 39.6 7.3 C38.8 7.1 38.8 7.1 34.6 6.3 C34.6 5.6 34.6 5 34.6 4.3 C41.9 3.9 41.9 3.9 45.1 5.5 C46.6 7.3 46.6 7.3 46.6 11.3 C41.7 14.1 37.3 15.1 31.8 15.9 C23.8 17.2 23.8 17.2 21.6 18.3 C16.9 18.6 12.3 18.6 7.6 18.6 C6.3 18.6 5 18.7 3.7 18.7 C2.5 18.7 1.2 18.7 -0.1 18.7 C-1.2 18.7 -2.4 18.7 -3.5 18.8 C-6.4 18.3 -6.4 18.3 -8.3 16.4 C-9.4 14.3 -9.4 14.3 -9.4 12.3 C-9.5 11.6 -9.5 10.9 -9.6 10.2 C-9.6 9.4 -9.6 8.7 -9.7 7.9 C-9.7 7.1 -9.8 6.3 -9.8 5.5 C-9.4 3.3 -9.4 3.3 -7.7 1.7 C-4.9 -0 -3.3 -0.1 0 0 Z " fill="#F7AF45" transform="translate(247.421875,176.70703125)"/>
<path d="M0 0 C5.3 1.1 5.3 1.1 7.2 3.6 C8.1 5.4 9.1 7.2 10 9 C11 9.7 12 10.3 13 11 C13.3 12.7 13.7 14.3 14 16 C14.7 17.2 15.3 18.4 16.1 19.6 C18 23 18 23 18 26 C18.7 26 19.3 26 20 26 C20.8 32.7 20.8 32.7 18.5 36.2 C16.7 38.2 14.9 40.1 13 42 C11 44 11 44 10.6 47.4 C11.1 51.6 11.9 52.3 15 55 C16.8 57.6 17 58.8 16.9 62.1 C15.9 65.4 15 66.3 12 68 C11.3 67.7 10.7 67.3 10 67 C10.3 66.7 10.3 66.7 12 65 C12.6 62.4 12.6 62.4 12 59 C10.2 57.1 10.2 57.1 8 55.1 C4.1 51.4 4.1 51.4 3.1 47.6 C4.2 43.1 6.4 40.6 9.4 37.1 C11.4 34.4 12 32.4 12 29 C11.7 28 11.3 27 11 26 C9.3 28.3 7.6 30.6 6 33 C6 32.6 6 32.6 5.9 30.6 C5.4 20.2 5.4 20.2 1 16 C-1.3 12.5 -1.1 9.9 -0.6 5.8 C-0.5 4.7 -0.4 3.6 -0.3 2.5 C-0.2 1.7 -0.1 0.8 0 0 Z " fill="#541805" transform="translate(206,121)"/>
<path d="M0 0 C3.8 2.3 6.7 5 9.6 8.4 C9.6 9.4 9.6 10.4 9.6 11.4 C5.3 11.7 5.3 11.7 -16.4 13.4 C-16.4 14 -16.4 14.7 -16.4 15.4 C-17.9 15.9 -17.9 15.9 -25.4 18.4 C-25.7 17.2 -26 16.1 -26.2 14.9 C-26.6 13.8 -27 12.6 -27.4 11.4 C-28.4 11 -29.4 10.7 -30.4 10.4 C-30.7 8.1 -30.7 8.1 -30.4 5.4 C-28.4 3.6 -28.4 3.6 -25.6 2.1 C-24.7 1.6 -23.8 1.1 -22.9 0.6 C-16.1 -2.8 -7 -3.3 0 0 Z " fill="#FBDFCF" transform="translate(249.4375,164.625)"/>
<path d="M0 0 C0.3 0 0.7 0 1 0 C1.1 4.4 1.1 8.8 1.2 13.2 C1.2 14.7 1.2 16.2 1.2 17.7 C1.4 25.7 1.4 32.6 -2 40 C-2 41.3 -2 42.6 -2 44 C-7.5 49.5 -15.6 49.3 -23 49.4 C-24.5 49.4 -26 49.4 -27.4 49.3 C-29.7 49.3 -31.9 49.3 -34.1 49.3 C-42.2 49.3 -50 48.8 -58 47.4 C-64.1 46.5 -70.1 46.8 -76.2 47.3 C-76.9 47.4 -77.6 47.4 -78.4 47.5 C-79.8 47.6 -81.3 47.7 -82.7 47.8 C-84.5 48 -86.2 48 -88 48 C-88.7 47.3 -89.3 46.7 -90 46 C-89 46 -88 46 -87 46.1 C-83.1 46 -79.5 45.6 -75.6 45 C-60.5 42.9 -60.5 42.9 -53 46 C-52.7 44.7 -52.3 43.4 -52 42 C-51 42 -50 42 -49 42 C-48.6 42.5 -48.2 42.9 -47.8 43.4 C-43.1 47.5 -33.5 46.2 -27.6 46.2 C-27.1 46.2 -27.1 46.2 -24.9 46.2 C-18.9 46.2 -13.7 45.5 -8 44 C-7.9 43.4 -7.7 42.7 -7.6 42.1 C-7.2 40.5 -6.9 39 -6.5 37.5 C-6 35 -5.5 32.5 -5 30 C-4.9 29.7 -4.9 29.7 -4.6 28 C-2.6 18.8 -1.4 9.4 0 0 Z " fill="#F5AB93" transform="translate(190,257)"/>
<path d="M0 0 C3.2 2.6 5.5 5.8 6 10 C3.4 9.7 0.7 9.3 -2 9 C-1.3 9.5 -0.5 9.9 0.2 10.4 C1.2 11 2.2 11.6 3.2 12.2 C4.2 12.9 5.1 13.5 6.1 14.1 C11.7 17.8 15.3 21.4 19 27 C18.7 27.7 18.3 28.3 18 29 C10.7 26 3.5 22.5 -3 18 C-3 17.3 -3 16.7 -3 16 C-4 15.7 -5 15.3 -6 15 C-6.1 9.2 -6.1 9.2 -5 7 C-11.5 6.1 -15.7 8.6 -21.3 11.7 C-24 13 -24 13 -27 13 C-24 7.4 -20.5 5.1 -14.9 2.4 C-14.5 2.2 -14.5 2.2 -12.3 1.1 C-7.7 -1 -4.9 -1.3 0 0 Z " fill="#D7C4DE" transform="translate(191,41)"/>
<path d="M0 0 C1 0 2 0 3 0 C3.8 8.2 -0.2 14.3 -5.2 20.4 C-5.9 21.3 -6.6 22.1 -7.3 22.9 C-9 25 -9 25 -10 27 C-7.7 27.3 -5.4 27.7 -3 28 C-3 28.3 -3 28.7 -3 29 C-5 29 -7 29 -9 29 C-9 29.7 -9 30.3 -9 31 C-7.4 31.3 -5.7 31.7 -4 32 C-5 35 -5 35 -6.6 35.9 C-13.3 38.1 -19.9 38.7 -27 39 C-25.6 34.9 -24.2 33.3 -20.8 30.7 C-15.9 26.1 -11.8 20 -9 14 C-8.3 14 -7.7 14 -7 14 C-6.7 13.2 -6.4 12.4 -6.1 11.6 C-5 9 -5 9 -3 7 C-2 4.7 -1 2.4 0 0 Z " fill="#AB4408" transform="translate(291,152)"/>
<path d="M0 0 C1.7 1.6 3.4 3.3 5 5 C5 5.7 5 6.3 5 7 C6.3 7.3 7.6 7.7 9 8 C9.3 6 9.7 4 10 2 C10.7 2.3 11.3 2.7 12 3 C12.3 2.3 12.7 1.7 13 1 C13.7 1.3 14.3 1.7 15 2 C13.7 4.6 12.4 7.3 11 10 C10.3 10 9.7 10 9 10 C9 11 9 12 9 13 C10 13.3 11 13.7 12 14 C11.7 15.7 11.3 17.3 11 19 C11.7 19 12.3 19 13 19 C13 19.7 13 20.3 13 21 C14.3 20.3 15.6 19.7 17 19 C17 20 17 21 17 22 C18 22.7 19 23.3 20 24 C21 27 21 27 20 30 C19.4 30.1 18.8 30.2 18.1 30.3 C11.9 31.3 6 32.9 1 37 C0.3 39.2 0.3 39.2 0 41 C-3 39 -3 39 -3.7 35.9 C-2.9 31.5 -2.3 31 0.9 28.2 C5.6 24 6.5 20.1 7 14 C6.3 14 5.7 14 5 14 C3 10 1 6 -1 2 C-0.7 1.3 -0.3 0.7 0 0 Z " fill="#F9BFA0" transform="translate(219,133)"/>
<path d="M0 0 C2 1 2 1 3.1 3.9 C4.4 8.7 4.2 13.5 4.1 18.4 C4.1 19.4 4.1 20.3 4.1 21.2 C4.1 23.5 4 25.7 4 28 C5.1 27.2 6.1 26.4 7.2 25.6 C12.4 22 16.2 20.7 22.6 20.8 C23.7 20.8 24.8 20.8 25.9 20.8 C28.5 21 30.6 21.3 33 22 C34.8 18.9 35.2 16.8 35.1 13.2 C35.1 12.5 35.1 11.7 35.1 10.8 C35 10.2 35 9.6 35 9 C38 11.6 38.8 13.9 39.1 17.9 C38.9 21.5 37.4 23.5 35 26 C33.7 26 32.4 26 31 26 C30.8 25.5 30.8 25.5 30 23 C27.4 23 24.7 23 22 23 C21.3 24.3 20.7 25.6 20 27 C19 27 18 27 17 27 C17 27.7 17 28.3 17 29 C14.2 30.1 14.2 30.1 11 31 C10 30.3 9 29.7 8 29 C6.8 33.3 6.6 37.6 6.4 42 C6 45 5.2 47.3 4 50 C2.7 46.1 3.8 43.9 5 40 C4.3 40 3.7 40 3 40 C2.9 39.7 2.9 39.7 2.6 38 C2.5 37.5 2.5 37.5 2.1 35.2 C2 34.4 1.8 33.5 1.6 32.6 C0.7 28.8 -0.9 26.2 -3 23 C-3.3 20.7 -3.7 18.3 -4 16 C-5.1 13.6 -5.1 13.6 -6 12 C-5.3 12.3 -5.3 12.3 -2 14 C-1 13.3 -0 12.7 1 12 C0.7 8 0.3 4.1 0 0 Z " fill="#FCE3C6" transform="translate(227,89)"/>
<path d="M0 0 C1.1 3.8 1.1 3.8 0 6 C2.6 4.7 5.3 3.4 8 2 C7 5.7 5.3 7.9 2.7 10.7 C0 13.6 -1.7 16.2 -3.4 19.8 C-8 29.5 -13.8 36.4 -23.9 40.3 C-24.3 40.4 -24.3 40.4 -26 41 C-27.4 38.2 -27.3 36.1 -27 33 C-25.3 30.9 -25.3 30.9 -23 29.1 C-22.2 28.4 -21.4 27.7 -20.5 27 C-19.7 26.4 -18.9 25.7 -18 25 C-16.5 23.7 -15 22.4 -13.5 21.1 C-12.9 20.6 -12.2 20 -11.5 19.4 C-10 18 -10 18 -9 16 C-8.3 16 -7.7 16 -7 16 C-6.8 15.3 -6.5 14.7 -6.2 14 C-4.9 10.9 -3.5 7.9 -1.9 4.9 C-1 3 -1 3 0 0 Z " fill="#BE92A3" transform="translate(210,152)"/>
<path d="M0 0 C-3.4 1.1 -4.5 0.8 -7.9 0 C-22.1 -2.7 -36.1 1.4 -48 9.4 C-51.4 12.1 -54.4 15.2 -57.3 18.3 C-58.5 19.6 -59.8 20.8 -61 22 C-61.7 22 -62.3 22 -63 22 C-63.2 23 -63.4 24.1 -63.6 25.1 C-64.7 29.3 -67 30.8 -70.3 33.4 C-72.7 35.7 -73.9 38.3 -75.2 41.4 C-76 43 -76 43 -78 44 C-77.5 31.8 -67.3 20.9 -58.9 12.9 C-41.8 -1.7 -21.5 -8.2 0 0 Z " fill="#FCE9C1" transform="translate(161,18)"/>
<path d="M0 0 C0.3 0 0.7 0 1 0 C1.2 1 1.4 2 1.6 3.1 C2.7 7.3 5.3 9.6 8.5 12.5 C10 14 10 14 10 16 C9.4 16.2 8.9 16.4 8.3 16.7 C2.5 19.1 -2.2 22 -7 26 C-7.3 24.7 -7.7 23.4 -8 22 C-10.6 23.3 -10.6 23.3 -24 30 C-24.3 29 -24.7 28 -25 27 C-22.5 24.9 -20.4 23.8 -17.3 22.6 C-8.8 18.5 -3.7 8.3 0 0 Z " fill="#EBB5AF" transform="translate(209,166)"/>
<path d="M0 0 C-1.3 0.3 -2.6 0.7 -4 1 C-4 2.3 -4.1 3.6 -4.1 4.9 C-4.1 5.6 -4.2 6.3 -4.2 7.1 C-4 9 -4 9 -2 11 C-2.6 10.9 -3.3 10.7 -3.9 10.6 C-18.2 7.5 -18.2 7.5 -24 11.2 C-26.5 13.1 -26.9 13.5 -27.4 16.8 C-27.3 17.5 -27.1 18.2 -27 19 C-28.6 20.6 -30.5 20.1 -32.7 20.2 C-37.4 20.6 -39.9 21.7 -43 25.3 C-44.5 27.9 -44.4 30.1 -44 33 C-41.7 33 -39.4 33 -37 33 C-37 33.3 -37 33.7 -37 34 C-47.6 34.2 -47.6 34.2 -52 33 C-39.5 17.9 -21.4 -2.3 0 0 Z " fill="#7F6F98" transform="translate(190,47)"/>
<path d="M0 0 C1 0 2 0 3 0 C4.1 0 5.2 0 6.3 0 C6.9 0 6.9 0 9.7 0.1 C10.3 0.1 10.3 0.1 13.2 0.1 C16 0.1 18.9 0.1 21.7 0.1 C21.5 0.5 21.5 0.5 20.7 2.5 C20.1 4 19.5 5.6 19 7.1 C17.8 9.5 16.9 10.6 14.7 12.1 C9.3 12.8 4.1 12.8 -1.3 12.1 C-3.3 10.1 -3.3 10.1 -3.5 8 C-3.5 7.6 -3.5 7.6 -3.5 5.6 C-3.5 4.7 -3.5 3.9 -3.5 3.1 C-3.2 0.2 -2.9 0.1 0 0 Z " fill="#AE5019" transform="translate(241.316650390625,178.886474609375)"/>
<path d="M0 0 C-0.1 3.1 -0.4 5.2 -2.4 7.6 C-9.5 14 -15.5 15.6 -25 15.4 C-29.1 14.9 -31 14 -34 11 C-34 10 -34 9 -34 8 C-33.2 8 -32.3 8.1 -31.4 8.1 C-24.4 8.4 -18.8 8.3 -13 4 C-12.4 3.3 -11.7 2.5 -11.1 1.8 C-7.8 -1 -4.1 -0.3 0 0 Z " fill="#290D09" transform="translate(203,124)"/>
<path d="M0 0 C1.9 0.3 1.9 0.3 4 1 C4.7 3 5.3 5 6 7 C5.3 7.4 4.5 7.8 3.8 8.2 C1 10 -1.3 12 -3.8 14.2 C-6.9 17.1 -10.1 19.9 -13.4 22.7 C-15.8 24.7 -17.6 26.6 -19.2 29.3 C-21.1 32.2 -22 32.6 -25 34 C-30.2 39.4 -30.3 44.4 -30.1 51.6 C-29.7 59.3 -25.4 63.9 -20 69 C-25.8 67.2 -29.3 63.6 -32.3 58.4 C-35.1 52.2 -35.1 46.4 -33 40 C-27.9 28.7 -19.3 21.7 -9.4 14.7 C-3.3 10.3 -1.4 7.3 0 0 Z " fill="#FCE8C2" transform="translate(58,112)"/>
<path d="M0 0 C1 0.7 2 1.3 3 2 C2.7 3 2.3 4 2 5 C1.1 4.7 0.1 4.3 -0.9 4 C-4.9 2.8 -8.8 2.9 -13 3 C-15 3 -15 3 -16 2 C-22.1 2 -24.8 4.1 -29.1 8.4 C-31.1 10.1 -32.4 10.5 -35 11 C-38.1 13.6 -40.1 16.4 -42 20 C-42.3 20.5 -42.7 21.1 -43 21.6 C-47.8 29.6 -47.1 39 -47 48 C-50 43.5 -50.7 39.4 -50 34 C-46.9 19.7 -40.1 8.9 -28 0.6 C-20.2 -3.6 -8 -4 0 0 Z " fill="#FCECD7" transform="translate(73,193)"/>
<path d="M0 0 C0.7 0 1.3 0 2 0 C2 3.2 1.7 5.3 -0.6 7.7 C-6.6 12.3 -12.1 14.5 -19.7 14.3 C-23.5 13.8 -26.9 12.4 -30 10 C-31.2 7.9 -31.2 7.9 -32 6 C-31 5 -31 5 -28.4 4.9 C-28 4.9 -28 4.9 -26 5 C-26 4.3 -26 3.7 -26 3 C-25.6 3.1 -25.6 3.1 -23.5 3.4 C-22.3 3.6 -21.2 3.8 -20 4 C-18.8 4.2 -17.5 4.5 -16.2 4.8 C-11.2 5.4 -6.6 3.9 -2 2 C-1.3 1.3 -0.7 0.7 0 0 Z " fill="#2E100A" transform="translate(141,137)"/>
<path d="M0 0 C-0.3 1.5 -0.5 2.9 -0.8 4.4 C-1 5.2 -1.1 6 -1.3 6.8 C-2 9 -2 9 -5 11 C-7 11.5 -7 11.5 -9.2 11.9 C-10 12 -10.8 12.1 -11.7 12.2 C-12.1 12.3 -12.1 12.3 -14.2 12.6 C-15 12.8 -15.9 12.9 -16.7 13 C-18.8 13.4 -20.9 13.7 -23 14 C-23.4 12.9 -23.9 11.9 -24.3 10.8 C-25.6 7.8 -27 5.4 -29 3 C-27.8 2.9 -26.6 2.8 -25.4 2.6 C-10.9 1.1 -10.9 1.1 -5.5 -0.2 C-2 -1 -2 -1 0 0 Z " fill="#89647B" transform="translate(288,207)"/>
<path d="M0 0 C4.8 1.3 8.5 3.4 12.4 6.5 C12.7 6.7 12.7 6.7 14.1 7.8 C19.2 12 23.2 16.6 27 22 C27.5 22.7 28 23.3 28.6 24 C31 27.3 32.6 29.9 33 34 C31.7 33.3 30.4 32.7 29 32 C29 34.3 29 36.6 29 39 C28.3 39 27.7 39 27 39 C27 38.1 27 37.1 27 36.2 C26.5 23.1 26.5 23.1 21 18 C18 17.7 18 17.7 15 18 C14.6 17.8 14.6 17.8 12.7 17 C9.4 15.8 6.7 15.8 3.1 15.8 C1.9 15.8 0.7 15.8 -0.5 15.8 C-3.8 16 -6.8 16.4 -10 17 C-10.3 16.3 -10.7 15.7 -11 15 C-4.6 11.3 0.6 10.3 8 10 C7.7 9.3 7.3 8.7 7 8 C7.7 7.7 8.3 7.3 9 7 C8.4 6.6 7.7 6.2 7 5.7 C6.2 5.2 5.4 4.6 4.5 4.1 C3.7 3.5 2.8 3 2 2.4 C1.3 1.9 0.7 1.5 0 1 C0 0.7 0 0.3 0 0 Z " fill="#3A120A" transform="translate(177,89)"/>
<path d="M0 0 C3.7 0.6 6.9 1.6 10.3 3.1 C11.2 3.4 12.1 3.8 13 4.2 C13.7 4.4 14.3 4.7 15 5 C15 5.7 15 6.3 15 7 C17 8.5 17 8.5 19.5 10.1 C20.3 10.7 21.2 11.2 22 11.8 C22.4 12 22.4 12 24 13 C23.3 15 23.3 15 22 17 C19.6 17.5 19.6 17.5 16.7 17.6 C12.7 17.8 9.7 18.3 6 20 C7 18.7 8 17.4 9 16 C8.3 15.7 7.7 15.3 7 15 C10 13 11.2 12.7 14.7 12.4 C15.5 12.3 16.3 12.2 17.1 12.1 C17.4 12.1 17.4 12.1 19 12 C-11.5 -1.1 -11.5 -1.1 -25.1 4.2 C-28.4 6.2 -30.9 8.5 -33.6 11.3 C-34.5 12.2 -35.5 13.2 -36.4 14.1 C-38.3 16.2 -39.7 18 -41.2 20.4 C-41.8 21.2 -42.4 22.1 -43 23 C-43.7 23 -44.3 23 -45 23 C-43.6 18.4 -40.9 15.4 -37.7 11.9 C-37.5 11.7 -37.5 11.7 -36.3 10.4 C-27.7 1.2 -27.7 1.2 -23.1 0.9 C-22.4 0.9 -21.6 0.9 -20.9 0.9 C-20 0.9 -19.2 0.9 -18.4 0.9 C-17.5 0.9 -16.6 0.9 -15.8 0.9 C-14.9 0.9 -14.1 0.9 -13.2 0.9 C-8.7 0.9 -4.4 1.1 0 2 C0 1.3 0 0.7 0 0 Z " fill="#542113" transform="translate(163,83)"/>
<path d="M0 0 C-1 2 -1 2 -3.4 3.3 C-6.4 5.3 -7 6.6 -8 10 C-7 9.7 -6 9.3 -5 9 C-5 9.7 -5 10.3 -5 11 C-4.4 11 -3.8 10.9 -3.2 10.9 C1.9 10.7 4.7 11 9 14 C11.8 14.7 11.8 14.7 14 15 C14 15.7 14 16.3 14 17 C15 16.7 16 16.3 17 16 C17 16.7 17 17.3 17 18 C17.3 18.1 17.3 18.1 18.9 18.6 C19.7 18.8 20.5 19.1 21.3 19.4 C22.1 19.6 22.9 19.9 23.7 20.1 C26 21 26 21 29 23 C29 23.7 29 24.3 29 25 C31 25.3 33 25.7 35 26 C35 26.7 35 27.3 35 28 C36 28.3 37 28.7 38 29 C38 30.7 38 32.3 38 34 C34.9 32 31.9 29.9 28.8 27.8 C16.1 19.2 3.1 15.4 -12 13 C-13.4 7.6 -13.4 7.6 -11.8 4.9 C-5.7 -1 -5.7 -1 0 0 Z " fill="#C2A8C0" transform="translate(158,67)"/>
<path d="M0 0 C2.9 1.8 4.5 2.9 6 6 C6.6 12.2 5.6 15.1 2.1 20.2 C1 22 1 22 0.4 24.8 C1.2 27.7 2.7 29 5 31 C4.7 31.7 4.3 32.3 4 33 C1.4 31.2 -1 29.4 -3 27 C-3.2 22.7 -2.4 20.7 -0.1 17.1 C0.3 16.7 0.3 16.7 2 15 C2.7 15 3.3 15 4 15 C2.9 9.9 2.2 6.8 -2.3 3.8 C-6.6 2.9 -8.1 3 -12 5 C-15.6 7.7 -18.5 10.2 -21 14 C-21.2 16.1 -21.2 16.1 -21.2 18.4 C-21.2 19.2 -21.2 20 -21.2 20.7 C-21 22.9 -20.6 24.9 -20 27 C-23.1 24.1 -23.9 22.8 -24.3 18.4 C-24.2 13.6 -22.8 9.9 -20 6 C-14 0.5 -8 -1 0 0 Z " fill="#FCE6BF" transform="translate(70,78)"/>
<path d="M0 0 C0.3 1 0.7 2 1 3 C1.7 3 2.3 3 3 3 C3.8 9.7 3.8 9.7 1.5 13.2 C-0.3 15.2 -2.1 17.1 -4 19 C-6 21 -6 21 -6.4 24.4 C-5.9 28.6 -5.1 29.3 -2 32 C-0.2 34.6 0 35.8 -0.1 39.1 C-1.1 42.4 -2 43.3 -5 45 C-5.7 44.7 -6.3 44.3 -7 44 C-6.3 43.3 -5.7 42.7 -5 42 C-4.4 39.4 -4.4 39.4 -5 36 C-6.8 34.1 -6.8 34.1 -9 32.1 C-12.9 28.4 -12.9 28.4 -13.9 24.5 C-12.7 19.7 -10.5 16.4 -7 13 C-3.7 11.6 -3.7 11.6 -1 11 C0 10 0 10 0.1 7.7 C0.1 6.8 0.1 5.9 0.1 4.9 C0.1 4.5 0.1 4.5 0 2.2 C0 1.4 0 0.7 0 0 Z " fill="#6C250D" transform="translate(223,144)"/>
<path d="M0 0 C-0.5 5 -2 8 -5 12 C-5.2 11.7 -5.2 11.7 -6 10 C-6.3 10.1 -6.3 10.1 -7.7 10.4 C-25.3 14 -25.3 14 -31 14 C-31 15 -31 16 -31 17 C-35.4 15.7 -37.4 13.8 -40 10 C-40 9.3 -40 8.7 -40 8 C-39.4 8 -38.8 8 -38.2 8.1 C-24.3 8.5 -10.9 0 0 0 Z " fill="#470E03" transform="translate(180,152)"/>
<path d="M0 0 C3.2 2.6 5.5 5.8 6 10 C3.7 9.3 1.4 8.7 -1 8 C-1 7.3 -1 6.7 -1 6 C-8.9 6 -14.5 7.9 -21.5 11.7 C-24 13 -24 13 -27 13 C-24 7.4 -20.5 5.1 -14.9 2.4 C-14.5 2.2 -14.5 2.2 -12.3 1.1 C-7.7 -1 -4.9 -1.3 0 0 Z " fill="#D9ADB9" transform="translate(191,41)"/>
<path d="M0 0 C0.3 0 0.7 0 1 0 C1.1 4.4 1.1 8.8 1.2 13.2 C1.2 14.7 1.2 16.2 1.2 17.7 C1.4 25.7 1.4 32.6 -2 40 C-2 41.3 -2 42.6 -2 44 C-2.7 44.7 -3.3 45.3 -4 46 C-5 46 -6 46 -7 46 C-6.9 44.3 -6.7 42.5 -6.6 40.8 C-6.5 39.8 -6.4 38.9 -6.3 37.9 C-6 34.5 -5.3 31.3 -4.6 28 C-2.6 18.8 -1.4 9.4 0 0 Z " fill="#A07D95" transform="translate(190,257)"/>
<path d="M0 0 C0 0.3 0 0.7 0 1 C-0.6 1 -1.3 1.1 -1.9 1.1 C-2.7 1.2 -3.5 1.3 -4.4 1.4 C-5.2 1.4 -6 1.5 -6.8 1.6 C-9 2 -9 2 -11 4 C-11.7 4.7 -12.3 5.3 -13 6 C-13 5.3 -13 4.7 -13 4 C-13.7 4 -14.3 4 -15 4 C-15.2 4.6 -15.5 5.1 -15.7 5.7 C-18.1 10 -21.4 13.1 -26 15 C-26 14 -26 13 -26 12 C-27.7 13.6 -28.9 14.9 -30 17 C-30.7 17 -31.3 17 -32 17 C-32.2 17.6 -32.4 18.2 -32.6 18.8 C-34.1 23.2 -35.5 27.6 -37 32 C-37.7 32 -38.3 32 -39 32 C-38.4 23.1 -35.7 17.1 -29 11 C-28.4 10.3 -27.8 9.7 -27.3 9 C-19.4 0.4 -11.3 -0.6 0 0 Z " fill="#F1AF72" transform="translate(112,208)"/>
<path d="M0 0 C1 0 2 0 3 0 C4.7 2.5 4.7 2.5 6 5 C7 4.7 8 4.3 9 4 C9.3 4.9 9.6 5.7 9.8 6.6 C10.2 7.7 10.6 8.8 10.9 9.9 C11.3 11 11.7 12.1 12 13.3 C13 16 13 16 14 17 C14 18.3 13.9 19.7 13.9 21 C13.8 26.1 15.1 30.3 17 35 C17.7 35 18.3 35 19 35 C19 37.3 19 39.6 19 42 C18.3 42.2 18.3 42.2 15 43 C15 42.6 15 42.6 14.9 40.9 C14.6 35.1 13.8 31 11 26 C9.6 23.1 9.1 20.2 8.6 17.1 C7.9 14.5 6.6 13.1 5 11 C4.1 9.1 3.2 7.2 2.3 5.2 C1.9 4.3 1.4 3.3 1 2.3 C0.7 1.5 0.3 0.8 0 0 Z " fill="#571E0C" transform="translate(208,239)"/>
<path d="M0 0 C6.1 1.2 8.4 2.9 12 8 C10.7 7.7 9.5 7.3 8.2 7 C-12.6 3 -27.8 8.8 -45 20 C-46.3 21 -47.7 22 -49 23 C-49.7 22.7 -50.3 22.3 -51 22 C-48.5 19.2 -46.8 17.5 -43 17 C-43 16.3 -43 15.7 -43 15 C-30.1 7.8 -18.9 2.7 -4 2.3 C-3 2.2 -2 2.1 -1 2 C-0.7 1.3 -0.3 0.7 0 0 Z " fill="#C8B3CD" transform="translate(168,27)"/>
<path d="M0 0 C2.2 2.1 3 3 4 6 C10.9 3.2 10.9 3.2 12 1 C15 1 17.9 1 21 1 C21.3 1.7 21.7 2.3 22 3 C20.7 3.3 19.4 3.7 18 4 C18 5.5 18 6.9 17.9 8.4 C17.9 9.2 17.9 10 17.9 10.8 C18 13 18 13 19 15 C15 14.3 11.1 13.2 7.2 11.9 C6 11.6 4.9 11.2 3.7 10.8 C2.8 10.6 1.9 10.3 1 10 C1 9.1 1 8.1 1 7.1 C1 4.5 0.8 2.5 0 0 Z " fill="#E7A38D" transform="translate(221,176)"/>
<path d="M0 0 C1.6 1.6 1.6 1.6 3 4 C2.2 7.1 2.2 7.1 1 10 C1 11 1 12 1 13 C1 13.9 0.9 14.9 0.9 15.9 C1 19.1 1.5 21.2 3 24 C4 24.3 5 24.7 6 25 C6.1 24.7 6.1 24.7 6.5 23.2 C8 18.4 9.1 15.3 13 12 C13.3 11 13.7 10 14 9 C14.7 9 15.3 9 16 9 C16 8.3 16 7.7 16 7 C16.7 7 17.3 7 18 7 C16.7 9.7 15.2 12.3 13.7 14.9 C13.3 15.7 12.8 16.4 12.4 17.2 C11.5 18.7 10.5 20.2 9.6 21.7 C7.4 25.4 5.4 28.9 4 33 C-2 26.2 -2.4 19 -2.2 10.3 C-2 6.5 -1.3 3.5 0 0 Z " fill="#F2C59F" transform="translate(82,60)"/>
<path d="M0 0 C7.6 0 15.2 0 23 0 C21.6 7.1 19.1 12.9 14 18 C8.8 19.4 4.3 19.4 -1 18 C-2.9 15.9 -2.9 15.9 -4 14 C-3.4 14 -3.4 14 -0.3 14.2 C12.5 14.4 12.5 14.4 16.8 10.5 C18.6 7.4 18.6 7.4 21 2 C14.4 2 7.8 2 1 2 C0.7 1.3 0.3 0.7 0 0 Z " fill="#F8B049" transform="translate(242,177)"/>
<path d="M0 0 C0.7 0.7 1.3 1.3 2 2 C0 2 -2 2 -4 2 C-3.7 3 -3.3 4 -3 5 C-8.3 7.5 -13.4 9.6 -19 11 C-19 10 -19 9 -19 8 C-22.7 10.7 -24.6 12.6 -26 17 C-26.8 15.4 -26.8 15.4 -27 13 C-24.4 8 -21 4.5 -16 2 C-10.8 0.4 -5.4 -0.5 0 0 Z " fill="#FCF1E0" transform="translate(71,258)"/>
<path d="M0 0 C-0.3 3.3 -0.7 6.6 -1 10 C-5.9 10 -10.9 10 -16 10 C-16.3 7.4 -16.7 4.7 -17 2 C-15.1 1.7 -13.2 1.3 -11.3 1 C-10.8 0.9 -10.8 0.9 -8.1 0.4 C-5 0 -5 0 0 0 Z " fill="#B14A0E" transform="translate(283,218)"/>
<path d="M0 0 C1 0.3 2 0.7 3 1 C2.4 1.6 1.8 2.2 1.2 2.8 C-1.1 5 -3.3 7.2 -5.6 9.5 C-6.6 10.4 -7.5 11.4 -8.5 12.3 C-14.5 18.2 -20.1 24.2 -25 31 C-25.6 29.2 -25.6 29.2 -26 27 C-22.4 20.3 -17.1 14.7 -11.6 9.6 C-10 8 -10 8 -9 6 C-8 6 -7 6 -6 6 C-5.7 5 -5.3 4 -5 3 C-3 1.9 -3 1.9 -1 1 C-0.7 0.7 -0.3 0.3 0 0 Z " fill="#C8A7BA" transform="translate(146,68)"/>
<path d="M0 0 C4.8 0.9 7.8 3.4 11 7 C14.5 12.6 14.4 18.6 14 25 C13 25.3 12 25.7 11 26 C10.4 24.1 10.4 24.1 10 22 C10.3 21.7 10.7 21.3 11 21 C11 18.7 11 16.3 11 14 C10.3 16.3 9.7 18.6 9 21 C7.1 18.1 6.7 17 6.2 13.8 C5.2 8.8 3.1 5.9 0 2 C0 1.3 0 0.7 0 0 Z " fill="#FAE3DD" transform="translate(283,230)"/>
<path d="M0 0 C0 1 0 2 0 3 C-3.3 4.4 -6.5 5.3 -10 6 C-10.3 6.2 -10.3 6.2 -12 7 C-6.7 8 -1.4 9 4 10 C3.7 10.7 3.3 11.3 3 12 C-13.3 10.2 -13.3 10.2 -21 7 C-21.3 6.3 -21.7 5.7 -22 5 C-21.3 5 -20.7 5 -20 5 C-20 4.3 -20 3.7 -20 3 C-22.6 3 -25.3 3 -28 3 C-28 2.7 -28 2.3 -28 2 C-24.7 1.8 -24.7 1.8 -8 1 C-8 1.7 -8 2.3 -8 3 C-1.1 1.1 -1.1 1.1 0 0 Z " fill="#B4602D" transform="translate(146,208)"/>
<path d="M0 0 C3.1 2 3.8 3.4 4.9 6.9 C5 10.7 3.9 12.8 2 16 C1.7 15.3 1.3 14.7 1 14 C1.3 13.3 1.7 12.7 2 12 C2.5 5.7 2.5 5.7 0.8 3.1 C-1.6 1.7 -3.3 1.8 -6 2 C-6.1 2.9 -6.1 3.8 -6.2 4.7 C-7.3 9 -9.1 10.2 -12.6 12.9 C-13.6 13.7 -14.6 14.4 -15.6 15.2 C-16.4 15.8 -17.2 16.4 -18 17 C-19 15 -19 15 -18.4 13 C-14.1 3.6 -10.8 -1.4 0 0 Z " fill="#F28F36" transform="translate(291,146)"/>
<path d="M0 0 C-0.3 2.8 -0.8 3.8 -2.9 5.8 C-7.5 7.6 -12.1 7.6 -17 7 C-19.3 6 -19.3 6 -21 5 C-21 4.3 -21 3.7 -21 3 C-17.5 0.7 -15.2 0.4 -11.1 -0.2 C-9.8 -0.4 -8.6 -0.5 -7.3 -0.7 C-4.5 -1 -2.7 -0.9 0 0 Z " fill="#D94A4C" transform="translate(171,164)"/>
<path d="M0 0 C5.4 4.6 7.6 9.2 8.3 16.3 C8.6 25.9 7.3 32.7 0.7 39.8 C-2.6 42.9 -5.9 45.1 -10 47 C-10.7 46.7 -11.3 46.3 -12 46 C-9.6 43.5 -8.3 42.1 -5 41 C-3.3 39 -1.7 37 0 35 C0.7 35 1.3 35 2 35 C3 31.7 4 28.4 5 25 C5.7 25 6.3 25 7 25 C6.9 23.7 6.7 22.5 6.6 21.2 C6.5 20.5 6.4 19.8 6.3 19 C6 17 6 17 5 14 C5.3 13.3 5.7 12.7 6 12 C5.3 11.7 4.7 11.3 4 11 C3.3 9 2.7 7 2 5 C1.3 4.3 0.7 3.7 0 3 C0 2 0 1 0 0 Z " fill="#FBD3C3" transform="translate(283,84)"/>
<path d="M0 0 C0.4 0 0.4 0 2.1 0.1 C7.8 0.6 13 1.7 18.4 3.8 C15 4.9 13.9 4.6 10.5 3.8 C-3.3 1.1 -14.8 5 -26.9 11.5 C-29.6 12.8 -29.6 12.8 -32.6 11.8 C-28.6 8.2 -24.5 6.1 -19.6 4.1 C-19.2 3.9 -19.2 3.9 -17.4 3.1 C-11.3 0.5 -6.7 -0.4 0 0 Z " fill="#F9DABD" transform="translate(142.625,14.25)"/>
<path d="M0 0 C0 0.3 0 0.7 0 1 C-1 1.1 -1.9 1.2 -2.9 1.4 C-3.4 1.5 -3.4 1.5 -6 2 C-6.3 2.7 -6.7 3.3 -7 4 C-7.7 4 -8.3 4 -9 4 C-9.2 4.6 -9.4 5.1 -9.6 5.7 C-11.9 9.6 -14.9 12.3 -19.2 13.8 C-21.1 14.2 -23 14.6 -25 15 C-23 8.9 -19 5.8 -14 2 C-9.3 -0.3 -5.1 -0.2 0 0 Z " fill="#F9EBE0" transform="translate(255,255)"/>
<path d="M0 0 C-0.3 4 -0.7 7.9 -1 12 C-1.3 12 -1.7 12 -2 12 C-2.2 10.5 -2.2 10.5 -3 3 C-9.6 4.8 -9.6 4.8 -12.2 6.1 C-16.1 7.4 -19.7 7.2 -23.8 7.1 C-24.2 7.1 -24.2 7.1 -26.2 7.1 C-28.1 7.1 -30.1 7 -32 7 C-31.7 8 -31.3 9 -31 10 C-32.3 9.7 -33.6 9.3 -35 9 C-36.1 5.2 -36.1 5.2 -35 3 C-34.4 3 -33.9 3 -33.3 3 C-30.7 3.1 -28.1 3.1 -25.5 3.1 C-24.6 3.1 -23.7 3.2 -22.8 3.2 C-17.2 3.2 -12.4 2.6 -7 1 C-2.4 0 -2.4 0 0 0 Z " fill="#7F2802" transform="translate(182,186)"/>
<path d="M0 0 C0 1 0 2 0 3 C1.3 3.7 2.6 4.3 4 5 C3 7 3 7 0.8 7.8 C-0.1 8 -1 8.3 -1.9 8.5 C-5.2 9.4 -7.1 10.1 -10 12 C-12.2 11.6 -12.2 11.6 -14 11 C-14 10.3 -14 9.7 -14 9 C-14.7 8.7 -15.3 8.3 -16 8 C-11.9 4.3 -5.8 0 0 0 Z " fill="#FBEEE5" transform="translate(266,228)"/>
<path d="M0 0 C4 0.3 7.9 0.7 12 1 C12 5.3 12 9.6 12 14 C9.1 13.7 7.5 13.4 5 12 C2.6 8.5 0 4.3 0 0 Z " fill="#CD6219" transform="translate(242,194)"/>
<path d="M0 0 C4 0 4 0 7 1 C7.5 4.1 7.5 6.2 5.7 8.9 C1.7 13.6 1.7 13.6 -1 15 C-1 17.3 -1 19.6 -1 22 C-2.3 21.3 -3.6 20.7 -5 20 C-5.3 16.9 -5.3 16.9 -5 13 C-3.3 11 -1.7 9 0 7 C0.3 3.1 0.3 3.1 0 0 Z " fill="#84310F" transform="translate(111,184)"/>
<path d="M0 0 C-0.5 2.2 -1 4 -2 6 C-4.1 7 -4.1 7 -6.7 8 C-7.6 8.3 -8.5 8.7 -9.4 9 C-12.3 10.1 -15.1 11.1 -18 12 C-17.5 8.2 -15.8 6.5 -13 4 C-13.7 3.7 -14.3 3.3 -15 3 C-9.6 0.3 -6 -0.3 0 0 Z " fill="#FCEEE0" transform="translate(112,188)"/>
<path d="M0 0 C0.7 0.5 1.4 1.1 2.2 1.6 C2.1 3.9 2.1 3.9 1.2 6.6 C-2.2 9.6 -4.1 10.6 -8.7 10.9 C-9.7 10.8 -10.8 10.7 -11.8 10.6 C-11.1 9 -10.5 7.3 -9.8 5.6 C-9.5 4.7 -9.3 3.9 -9 2.9 C-7.8 0.6 -7.8 0.6 -5.5 -0.9 C-2.8 -1.4 -2.8 -1.4 0 0 Z " fill="#DCA788" transform="translate(129.8125,233.375)"/>
<path d="M0 0 C2 2 2.8 3.5 4 6 C4 5 4 4 4 3 C4.7 3 5.3 3 6 3 C6.3 4 6.7 5 7 6 C8 5 9 4 10 3 C9 10.6 8 18.2 7 26 C5 24 5 24 4.9 21.5 C4.9 20.4 4.9 19.4 4.9 18.4 C4.6 13.2 3.6 10.9 -0.1 7.2 C-1.3 6.1 -2.7 5 -4 4 C-2.7 2.7 -1.4 1.4 0 0 Z " fill="#F39B64" transform="translate(92,149)"/>
<path d="M0 0 C0.7 0.7 1.3 1.3 2 2 C1.6 2.3 1.6 2.3 -0.2 3.9 C-3.1 6.9 -4.9 10.1 -6.8 13.8 C-7.9 15.8 -9 17.5 -10.3 19.4 C-12 22 -12 22 -12 25 C-12.5 25.7 -12.9 26.4 -13.4 27.2 C-15.4 30.7 -16.1 34 -17 38 C-17.7 38 -18.3 38 -19 38 C-19.3 38.7 -19.7 39.3 -20 40 C-20.4 34 -19.2 30.4 -16.4 25.2 C-16.1 24.6 -15.7 23.9 -15.3 23.1 C-11 14.9 -6.2 7 0 0 Z " fill="#FCE9D0" transform="translate(103,64)"/>
<path d="M0 0 C1 0.3 2 0.7 3 1 C3.7 3.1 3.7 3.1 4 5 C4.7 5 5.3 5 6 5 C9.5 14 12.4 22.3 12 32 C10.3 31.7 8.7 31.3 7 31 C7 30.4 7.1 29.9 7.1 29.3 C7.4 19.5 6.5 9.6 0 2 C0 1.3 0 0.7 0 0 Z " fill="#CE641D" transform="translate(239,223)"/>
<path d="M0 0 C0 2.8 -0.3 5.3 -0.8 8 C-0.9 8.9 -1 9.7 -1.2 10.6 C-2.2 13.6 -3.3 14.5 -6 16 C-6.7 16 -7.3 16 -8 16 C-7.7 13 -7.3 10.1 -7 7 C-8.3 7.2 -9.7 7.5 -11.1 7.7 C-12.8 8 -14.6 8.3 -16.4 8.6 C-17.3 8.8 -18.2 8.9 -19.1 9.1 C-19.9 9.3 -20.8 9.4 -21.6 9.5 C-22.4 9.7 -23.2 9.8 -24 10 C-24.7 10 -25.3 10 -26 10 C-26.7 9.3 -27.3 8.7 -28 8 C-27.1 7.9 -26.3 7.8 -25.4 7.7 C-5.2 5.2 -5.2 5.2 0 0 Z " fill="#D2B3BD" transform="translate(294,200)"/>
<path d="M0 0 C0.3 1 0.7 2 1 3 C-0.6 4.6 -2.8 4.4 -5 4.7 C-11.7 5.8 -17.5 8.6 -21.6 14.2 C-22.1 14.8 -22.5 15.4 -23 16 C-23.7 16 -24.3 16 -25 16 C-25 15 -25 14 -25 13 C-24.3 13 -23.7 13 -23 13 C-22.8 12.3 -22.5 11.6 -22.3 10.8 C-20.7 7.3 -19 5.5 -16 3 C-13.3 2 -10.5 1.6 -7.7 1.2 C-6.9 1.1 -6.2 0.9 -5.4 0.8 C-3.6 0.5 -1.8 0.3 0 0 Z " fill="#290B07" transform="translate(136,107)"/>
<path d="M0 0 C0.4 -0 0.4 -0 2.5 -0 C7.7 -0 11.9 0.5 16.8 2.2 C14.7 2.9 13.3 3.3 11.1 2.7 C7.9 2 4.8 2 1.4 1.9 C0.8 1.9 0.8 1.9 -2.5 1.9 C-9.3 2.5 -13.1 5.7 -17.8 10.5 C-18.7 11.4 -19.7 12.3 -20.6 13.3 C-22.5 15.4 -23.9 17.2 -25.4 19.5 C-26 20.4 -26.6 21.3 -27.2 22.2 C-27.8 22.2 -28.5 22.2 -29.2 22.2 C-27.7 17.6 -25.1 14.6 -21.9 11.1 C-21.6 10.9 -21.6 10.9 -20.4 9.6 C-13.8 2.4 -9.6 0 0 0 Z " fill="#622004" transform="translate(147.1875,83.8125)"/>
<path d="M0 0 C2.6 0.1 5.2 0.2 7.8 0.4 C8.7 0.4 9.6 0.4 10.6 0.5 C15.4 0.7 19.6 1.2 24.1 3.1 C24.1 3.7 24.1 4.4 24.1 5.1 C23.4 5 22.7 5 21.9 5 C18.6 5 15.2 5 11.9 5 C10.7 5 9.6 5 8.4 5 C7.3 5 6.2 5 5 5 C4 5 3 4.9 1.9 4.9 C-0.5 5 -2.5 5.4 -4.9 6.1 C-2.6 0.1 -2.6 0.1 0 0 Z " fill="#3D130D" transform="translate(138.854248046875,79.946533203125)"/>
<path d="M0 0 C0.3 0 0.7 0 1 0 C1.1 2.4 1.2 4.9 1.2 7.3 C1.3 7.7 1.3 7.7 1.4 9.4 C1.4 11.4 1.4 11.4 1 15 C-1 17 -1 17 -3 18 C-5.3 15.7 -4.7 9.9 -5 7 C-11.3 8 -17.5 9 -24 10 C-23.7 9.3 -23.3 8.7 -23 8 C-21.1 7.4 -21.1 7.4 -18.6 7 C-17.7 6.8 -16.9 6.6 -15.9 6.5 C-15 6.3 -14.1 6.1 -13.1 5.9 C-11.3 5.6 -9.5 5.2 -7.6 4.9 C-6.8 4.8 -6 4.6 -5.2 4.4 C-3 4 -3 4 0 3 C0 2 0 1 0 0 Z " fill="#F58016" transform="translate(294,185)"/>
<path d="M0 0 C-0.9 4.9 -0.9 4.9 -2 6 C-1.3 6.7 -0.7 7.3 0 8 C-3.6 9.3 -6.1 10 -10 10 C-10 8 -10 8 -8 5.9 C-7.3 5.3 -6.7 4.6 -6 4 C-10.9 8.2 -15.5 12.4 -20 17 C-20.7 16.7 -21.3 16.3 -22 16 C-19.2 11.3 -16.4 8.4 -11.9 5.2 C-10.9 4.4 -9.9 3.6 -8.8 2.9 C-5.6 0.8 -3.8 0 0 0 Z " fill="#FBE1C6" transform="translate(219,182)"/>
<path d="M0 0 C0.7 0 1.3 0 2 0 C0.7 3.9 -0.9 6.3 -3.8 9.2 C-4.5 9.9 -5.1 10.6 -5.8 11.3 C-8.3 13.2 -10 13.4 -13 14 C-16.7 17.4 -18.9 22.2 -20 27 C-19.7 27.7 -19.3 28.3 -19 29 C-20 28.7 -21 28.3 -22 28 C-21 22.6 -19.8 17.9 -17 13 C-16.3 13 -15.7 13 -15 13 C-14.3 11.3 -13.7 9.7 -13 8 C-12.3 8 -11.7 8 -11 8 C-11 9 -11 10 -11 11 C-10.6 10.6 -10.6 10.6 -8.8 8.8 C-6 6 -6 6 -3.2 3.8 C-1 2 -1 2 0 0 Z " fill="#CA743D" transform="translate(97,212)"/>
<path d="M0 0 C0.4 0.5 0.8 0.9 1.2 1.4 C3 3 3 3 4.9 3.4 C8.2 4.4 9.8 6.4 12 9 C12.6 11.5 12.6 11.5 13 14 C14 15.7 15 17.3 16 19 C16 19.7 16 20.3 16 21 C15 20.7 14 20.3 13 20 C13 19 13 18 13 17 C12 17 11 17 10 17 C6.1 13.4 2.3 8.8 0 4 C0 2.7 0 1.4 0 0 Z " fill="#883715" transform="translate(207,123)"/>
<path d="M0 0 C0 4 -1.7 5.7 -4 9 C-5 10.6 -6 12.3 -7 14 C-7.3 14.5 -7.7 15.1 -8 15.6 C-12.7 23.6 -12.1 33 -12 42 C-15 37.5 -15.7 33.4 -15 28 C-12.6 17.1 -8.1 7.7 0 0 Z " fill="#FDE1AE" transform="translate(38,199)"/>
<path d="M0 0 C0.7 0.3 1.3 0.7 2 1 C1.4 1.4 0.7 1.8 0.1 2.2 C-2 4 -2 4 -2.2 6.5 C-2.5 7.3 -2.7 8.2 -3 9 C-4.9 9.9 -6.9 10.5 -8.9 11.2 C-12.2 12.5 -13.9 14.2 -16 17 C-16.3 20.3 -16.3 20.3 -16 23 C-13.7 23 -11.4 23 -9 23 C-9 23.3 -9 23.7 -9 24 C-19.6 24.2 -19.6 24.2 -24 23 C-16.9 14.4 -9.2 6.4 0 0 Z " fill="#745B7B" transform="translate(162,57)"/>
<path d="M0 0 C9 -0.6 9 -0.6 13.1 1.9 C16 5.1 16.4 7.4 16.4 11.8 C15.8 15.1 14 17.4 12.1 20.2 C11 22 11 22 10.4 24.8 C11.2 27.7 12.7 29 15 31 C14.7 31.7 14.3 32.3 14 33 C11.4 31.2 9 29.4 7 27 C6.8 22.7 7.6 20.7 9.9 17.1 C10.6 16.4 11.3 15.7 12 15 C12.7 15 13.3 15 14 15 C13.9 13.6 13.8 12.1 13.7 10.7 C13.6 9.9 13.6 9.1 13.5 8.3 C12.9 5.5 12.3 4.6 10 3 C7.5 2.3 7.5 2.3 4.8 1.8 C4.4 1.7 4.4 1.7 2.1 1.3 C1.4 1.2 0.7 1.1 0 1 C0 0.7 0 0.3 0 0 Z " fill="#FDD1A3" transform="translate(60,78)"/>
<path d="M0 0 C0.3 0 0.7 0 1 0 C1 1.2 1 2.5 0.9 3.8 C1.3 6.4 1.5 7.6 3.6 9.3 C6.1 10.4 8.5 11.2 11 12 C11.5 12.2 11.5 12.2 14.1 13 C16.1 13.7 18.2 14.4 20.2 15.1 C23.4 16.1 26.1 17.4 29 19 C28.3 20 27.7 21 27 22 C26 21.6 25.1 21.1 24 20.7 C21.3 19.5 18.5 18.5 15.7 17.5 C15 17.3 14.2 17 13.5 16.8 C12 16.3 10.5 15.8 9 15.3 C5.8 14.3 3.5 13.4 1 11.1 C-0.2 8.6 -0.3 7 -0.2 4.2 C-0.2 3.5 -0.1 2.7 -0.1 1.8 C-0.1 1.2 -0 0.6 0 0 Z " fill="#FCD9C5" transform="translate(248,58)"/>
<path d="M0 0 C0 4 -0.9 5.6 -3 9 C-8.6 14.4 -14.7 17.5 -22 20 C-21.8 18.2 -21.8 18.2 -21 16 C-18.7 14.5 -18.7 14.5 -15.8 13.1 C-11.4 10.8 -8.2 8.7 -5 5 C-4.2 4.2 -4.2 4.2 0 0 Z " fill="#F7B79C" transform="translate(206,176)"/>
<path d="M0 0 C0.3 0 0.7 0 1 0 C1 1.2 1 2.5 0.9 3.7 C0.9 5.4 0.9 7 0.9 8.6 C0.9 9.4 0.8 10.2 0.8 11.1 C0.7 20.4 3.4 25.3 9.8 31.9 C10.2 32.2 10.6 32.6 11 33 C5.2 31.2 1.7 27.6 -1.3 22.4 C-3.9 16.8 -4.1 10.6 -2.3 4.7 C-1.5 2.8 -1.5 2.8 0 0 Z " fill="#FDDAAC" transform="translate(27,148)"/>
<path d="M0 0 C1.7 1 3.4 2 5.1 3 C9.2 5.1 13 5.1 17.6 5.1 C18.9 5.1 20.1 5 21.5 5 C22.8 5 24.2 5 25.5 5 C28.1 5 30.8 5 33.4 4.9 C34.6 4.9 35.7 4.9 36.9 4.9 C39.5 5 41.6 5.2 44 6 C44 7 44 8 44 9 C42.8 8.8 41.6 8.7 40.3 8.5 C33 7.7 25.7 7.7 18.4 7.5 C7.3 7.1 7.3 7.1 2 5 C0.6 2.4 0.6 2.4 0 0 Z " fill="#D96D1E" transform="translate(184,202)"/>
<path d="M0 0 C0.7 0.3 1.3 0.7 2 1 C0.3 3.5 -1.4 5.9 -3.2 8.4 C-4.2 9.9 -5.2 11.3 -6.2 12.8 C-9.8 17.9 -15.4 19.8 -21 22 C-21 21 -21 20 -21 19 C-20.4 18.7 -19.8 18.4 -19.1 18.1 C-18.3 17.7 -17.5 17.2 -16.7 16.8 C-16.3 16.6 -16.3 16.6 -14.3 15.6 C-11.6 13.7 -10.6 11.8 -9 9 C-7.5 7.4 -5.9 5.7 -4.3 4.2 C-3.5 3.4 -2.7 2.6 -1.9 1.8 C-1.2 1.2 -0.6 0.6 0 0 Z " fill="#D29AA1" transform="translate(205,171)"/>
<path d="M0 0 C1.1 3.8 1.1 3.8 0 6 C1 6.3 2 6.7 3 7 C2.7 7.5 2.7 7.5 1 10 C0.3 10 -0.3 10 -1 10 C-2.1 12.2 -3 14.1 -3.6 16.4 C-5.4 19.8 -7.7 20.9 -11 22.8 C-13.5 24.3 -15.7 26.1 -18 28 C-18.7 27.7 -19.3 27.3 -20 27 C-19.3 26.4 -18.6 25.7 -17.8 25.1 C-16.9 24.3 -16 23.5 -15.1 22.6 C-14.1 21.8 -13.2 21 -12.3 20.2 C-10 18 -10 18 -9 16 C-8.3 16 -7.7 16 -7 16 C-6.8 15.3 -6.5 14.7 -6.2 14 C-4.9 10.9 -3.5 7.9 -1.9 4.9 C-1 3 -1 3 0 0 Z " fill="#D7976D" transform="translate(210,152)"/>
<path d="M0 0 C0.7 0.3 1.3 0.7 2 1 C1 2.3 0 3.6 -1 5 C-0.4 4.7 0.2 4.4 0.8 4.1 C3 3 3 3 6 2 C5.7 3.9 5.7 3.9 5 6 C1.7 8.2 0.8 8.3 -3 8 C-3.6 7.8 -4.3 7.7 -4.9 7.5 C-7.1 7 -8.9 6.9 -11.1 6.9 C-11.5 6.9 -11.5 6.9 -13.4 6.9 C-14.2 6.9 -14.9 6.9 -15.8 6.9 C-16.5 6.9 -17.3 6.9 -18.2 7 C-20.1 7 -22.1 7 -24 7 C-24 6.7 -24 6.3 -24 6 C-23.6 5.9 -23.6 5.9 -21.5 5.6 C-20.4 5.4 -19.3 5.2 -18.2 5.1 C-17.1 4.9 -16 4.7 -14.9 4.5 C-11.5 3.9 -9.5 3.5 -7 1 C-6.7 1.7 -6.3 2.3 -6 3 C-5.5 2.7 -5.5 2.7 -3.1 1.4 C-2.1 1 -1.1 0.5 0 0 Z " fill="#EBA565" transform="translate(141,203)"/>
<path d="M0 0 C0.9 3.7 1 5.2 0 9 C-5.6 9 -11.2 9 -17 9 C-17 8.7 -17 8.3 -17 8 C-15 8 -13 8 -11 8 C-10.7 7.4 -10.5 6.8 -10.2 6.2 C-8.6 3.2 -7.2 1.4 -3.9 0.3 C-2 0 -2 0 0 0 Z " fill="#CE906B" transform="translate(179,239)"/>
<path d="M0 0 C1 0.3 2 0.7 3 1 C3.7 0.7 4.3 0.3 5 0 C4.6 3.8 4.1 6.7 2.4 10.2 C-0.3 16.1 0.2 23.9 2 30 C0.7 29.3 -0.6 28.7 -2 28 C-2.2 20.4 -1.7 13.2 -0.4 5.7 C0 3 0 3 0 0 Z " fill="#943A13" transform="translate(101,149)"/>
<path d="M0 0 C-0.5 5 -2 8 -5 12 C-5.7 11.3 -6.3 10.7 -7 10 C-10 9.8 -10 9.8 -13.6 9.9 C-14.2 9.9 -14.2 9.9 -17.2 9.9 C-17.7 9.9 -17.7 9.9 -20 10 C-17.6 7.6 -15.8 7.2 -12.7 6.1 C-8.6 4.7 -3.9 0 0 0 Z " fill="#370A01" transform="translate(180,152)"/>
<path d="M0 0 C1 0 2 0 3 0 C3 0.7 3 1.3 3 2 C4 2.2 4 2.2 9 3 C8 6 8 6 6.1 6.9 C5.3 7.2 4.6 7.4 3.8 7.7 C3 7.9 2.2 8.2 1.4 8.4 C-1.1 9 -3.4 9.1 -6 9 C-5.1 7.5 -4.1 6 -3.2 4.5 C-2.7 3.7 -2.1 2.8 -1.6 2 C-1.1 1.3 -0.5 0.7 0 0 Z " fill="#7F2B06" transform="translate(278,181)"/>
<path d="M0 0 C0.3 1 0.7 2 1 3 C1.7 3 2.3 3 3 3 C3.8 9.7 3.8 9.7 1.5 13.2 C-0.3 15.2 -2.1 17.1 -4 19 C-6.6 21.6 -6.5 23.5 -7 27 C-7.3 27 -7.7 27 -8 27 C-8.1 25 -8.1 23.1 -8.1 21.1 C-8.1 20 -8.2 18.9 -8.2 17.8 C-8 15 -8 15 -6 13 C-4.3 12.3 -2.7 11.6 -1 11 C0 10 0 10 0.1 7.7 C0.1 6.8 0.1 5.9 0.1 4.9 C0.1 4.5 0.1 4.5 0 2.2 C0 1.4 0 0.7 0 0 Z " fill="#8C310C" transform="translate(223,144)"/>
<path d="M0 0 C0.2 2 0.4 4 0.6 5.9 C0.7 7 0.8 8.1 0.9 9.3 C0.9 10.2 1 11.1 1 12 C0.7 12.3 0.3 12.7 0 13 C-2 13 -4 13 -6 13 C-6 9 -6 5.1 -6 1 C-1 0 -1 0 0 0 Z " fill="#CA5710" transform="translate(290,191)"/>
<path d="M0 0 C2 1 2 1 3.1 3.8 C4.5 9.1 4.5 14.6 4 20 C3.3 21 2.7 22 2 23 C-0.6 20 -3.3 17.1 -6 14 C-5.7 13.3 -5.3 12.7 -5 12 C-4.5 12.3 -4.5 12.3 -2 14 C-1 13.3 -0 12.7 1 12 C0.7 8 0.3 4.1 0 0 Z " fill="#F4BEAB" transform="translate(227,89)"/>
<path d="M0 0 C0.3 0.1 0.3 0.1 1.8 0.8 C2.1 1 2.1 1 4.1 1.9 C4.5 2.1 4.5 2.1 6.4 3 C11.2 4.8 16 5.1 21.1 5.3 C22.2 5.4 23.3 5.4 24.4 5.4 C25.6 5.5 26.7 5.5 27.9 5.6 C29 5.6 30.2 5.6 31.4 5.7 C34.3 5.8 37.1 5.9 40 6 C40 6.3 40 6.7 40 7 C8 9.3 8 9.3 1.3 3.5 C0 2 0 2 0 0 Z " fill="#FBC474" transform="translate(184,200)"/>
<path d="M0 0 C1 3.1 0.9 4 0 7 C0.7 6.7 1.3 6.3 2 6 C1.7 7.3 1.3 8.6 1 10 C0.3 10 -0.3 10 -1 10 C-1.1 10.9 -1.3 11.9 -1.4 12.9 C-1.6 14.1 -1.8 15.3 -1.9 16.6 C-2.1 17.9 -2.3 19.1 -2.5 20.4 C-2.9 23.6 -3.5 26.8 -4 30 C-4.3 30 -4.7 30 -5 30 C-5 26 -5 22.1 -5 18 C-5.7 17.7 -6.3 17.3 -7 17 C-5.2 11 -2.9 5.6 0 0 Z " fill="#562010" transform="translate(112,110)"/>
<path d="M0 0 C0.4 0.4 0.8 0.8 1.2 1.2 C5.8 5.5 10 7.4 16 9 C25.7 11.8 25.7 11.8 29 16 C27.2 16.6 27.2 16.6 25 17 C24 16.3 23 15.7 22 15 C22 14.3 22 13.7 22 13 C21.3 12.9 20.6 12.9 19.9 12.8 C12.9 11.8 7.1 10 2 5 C0.8 2.3 0.8 2.3 0 0 Z " fill="#FBF3EC" transform="translate(62,157)"/>
<path d="M0 0 C0.7 0 1.3 0 2 0 C2 0.7 2 1.3 2 2 C0.5 3.4 0.5 3.4 -1.6 5.1 C-5.3 8.3 -8.4 11.6 -11.5 15.4 C-13 17 -13 17 -16 18 C-16.5 14.1 -16.4 12.5 -13.9 9.3 C-10.8 6.8 -7.7 5.6 -4 4 C-2.6 2.7 -1.3 1.4 0 0 Z " fill="#AE7A85" transform="translate(199,173)"/>
<path d="M0 0 C-0.1 2 -0.1 4 -0.2 6.1 C0 8 0 8 2 10 C-1.3 9.3 -4.6 8.7 -8 8 C-8 7.3 -8 6.7 -8 6 C-8.7 6 -9.3 6 -10 6 C-9.2 3.6 -9.2 3.6 -8 1 C-5.1 0 -3 -0.1 0 0 Z " fill="#9F91B8" transform="translate(186,48)"/>
<path d="M0 0 C3.8 1.5 5.5 3.8 8 7 C8.7 7.6 9.3 8.2 10 8.8 C12.4 11.4 13.2 13.6 14.2 16.9 C14.6 18 14.9 19 15.3 20 C16 22.8 16.1 25.1 16 28 C13.5 24.3 13 21.3 12 17 C11.3 17 10.7 17 10 17 C9.9 16.4 9.8 15.7 9.7 15.1 C9.5 14.4 9.2 13.7 9 13 C8 12.7 7 12.3 6 12 C6 11.3 6 10.7 6 10 C5.3 10 4.7 10 4 10 C4.3 9 4.7 8 5 7 C4 5.2 4 5.2 2.6 3.3 C2.3 3 2.3 3 1.1 1.4 C0.8 1 0.4 0.5 0 0 Z " fill="#F6AC62" transform="translate(233,211)"/>
<path d="M0 0 C4.5 4.1 7.8 7.6 8.2 13.8 C8.2 16.6 8.1 19.3 8 22 C7.3 22.3 6.7 22.7 6 23 C5.9 22.7 5.9 22.7 5.6 21 C5.5 20.1 5.3 19.2 5.1 18.2 C5 17.4 4.8 16.5 4.6 15.6 C3.7 11.8 2.1 9.2 0 6 C-0.1 2.8 -0.1 2.8 0 0 Z " fill="#FADCD2" transform="translate(224,106)"/>
<path d="M0 0 C0.7 0.3 1.3 0.7 2 1 C-0.2 6 -4 7.6 -8.7 10.1 C-9.7 10.7 -10.7 11.2 -11.7 11.8 C-12.5 12.2 -13.2 12.6 -14 13 C-14.3 12.3 -14.7 11.7 -15 11 C-14.1 9.9 -13.2 8.7 -12.2 7.6 C-11.7 7 -11.2 6.4 -10.7 5.7 C-8.9 3.9 -7.3 3 -5 2 C-4.1 1.6 -3.3 1.2 -2.4 0.8 C-1.6 0.5 -0.8 0.3 0 0 Z " fill="#C4B1CE" transform="translate(179,42)"/>
<path d="M0 0 C0.3 0 0.7 0 1 0 C1 4.5 1.1 9 1.1 13.6 C1.1 15.1 1.1 16.6 1.2 18.2 C1.2 20.4 1.2 22.6 1.2 24.8 C1.2 25.5 1.2 26.2 1.2 26.9 C1.2 28.6 1.1 30.3 1 32 C0.3 32.7 -0.3 33.3 -1 34 C-1.9 22.3 -2.3 11.5 0 0 Z " fill="#A193BA" transform="translate(190,257)"/>
<path d="M0 0 C7.3 -0.4 7.3 -0.4 10.5 1.2 C12 3 12 3 12 7 C9 9 9 9 6.9 8.8 C5 8 5 8 3 6 C3.7 5 4.3 4 5 3 C3.4 2.7 1.7 2.3 0 2 C0 1.3 0 0.7 0 0 Z " fill="#FCCF74" transform="translate(282,181)"/>
</svg>
